<svg xmlns="http://www.w3.org/2000/svg" xmlns:xlink="http://www.w3.org/1999/xlink" width="1910" zoomAndPan="magnify" viewBox="0 0 1432.5 1357.499964" height="1810" preserveAspectRatio="xMidYMid meet" version="1.0"><defs><clipPath id="a12b7176d6"><path d="M 534.179688 18.355469 L 1250.167969 18.355469 L 1250.167969 734.339844 L 534.179688 734.339844 Z M 534.179688 18.355469 " clip-rule="nonzero"/></clipPath><clipPath id="c17428812c"><path d="M 892.171875 18.355469 C 694.460938 18.355469 534.179688 178.632812 534.179688 376.347656 C 534.179688 574.0625 694.460938 734.339844 892.171875 734.339844 C 1089.886719 734.339844 1250.167969 574.0625 1250.167969 376.347656 C 1250.167969 178.632812 1089.886719 18.355469 892.171875 18.355469 Z M 892.171875 18.355469 " clip-rule="nonzero"/></clipPath><clipPath id="0999613de7"><path d="M 176.1875 18.355469 L 892.171875 18.355469 L 892.171875 734.339844 L 176.1875 734.339844 Z M 176.1875 18.355469 " clip-rule="nonzero"/></clipPath><clipPath id="61b89268ed"><path d="M 534.179688 18.355469 C 336.464844 18.355469 176.1875 178.632812 176.1875 376.347656 C 176.1875 574.0625 336.464844 734.339844 534.179688 734.339844 C 731.894531 734.339844 892.171875 574.0625 892.171875 376.347656 C 892.171875 178.632812 731.894531 18.355469 534.179688 18.355469 Z M 534.179688 18.355469 " clip-rule="nonzero"/></clipPath><clipPath id="220e791816"><path d="M 0.015625 314.832031 L 716 314.832031 L 716 1030.820312 L 0.015625 1030.820312 Z M 0.015625 314.832031 " clip-rule="nonzero"/></clipPath><clipPath id="d8d0e6d066"><path d="M 358.007812 314.832031 C 160.292969 314.832031 0.015625 475.113281 0.015625 672.828125 C 0.015625 870.539062 160.292969 1030.820312 358.007812 1030.820312 C 555.722656 1030.820312 716 870.539062 716 672.828125 C 716 475.113281 555.722656 314.832031 358.007812 314.832031 Z M 358.007812 314.832031 " clip-rule="nonzero"/></clipPath><clipPath id="66ac1c68c8"><path d="M 716 314.859375 L 1431.984375 314.859375 L 1431.984375 1030.84375 L 716 1030.84375 Z M 716 314.859375 " clip-rule="nonzero"/></clipPath><clipPath id="711d7c6280"><path d="M 1073.992188 314.859375 C 876.277344 314.859375 716 475.136719 716 672.851562 C 716 870.566406 876.277344 1030.84375 1073.992188 1030.84375 C 1271.707031 1030.84375 1431.984375 870.566406 1431.984375 672.851562 C 1431.984375 475.136719 1271.707031 314.859375 1073.992188 314.859375 Z M 1073.992188 314.859375 " clip-rule="nonzero"/></clipPath><clipPath id="2ad2294938"><path d="M 176.1875 622.660156 L 892.171875 622.660156 L 892.171875 1338.648438 L 176.1875 1338.648438 Z M 176.1875 622.660156 " clip-rule="nonzero"/></clipPath><clipPath id="bbaf7cacba"><path d="M 534.179688 622.660156 C 336.464844 622.660156 176.1875 782.9375 176.1875 980.652344 C 176.1875 1178.367188 336.464844 1338.648438 534.179688 1338.648438 C 731.894531 1338.648438 892.171875 1178.367188 892.171875 980.652344 C 892.171875 782.9375 731.894531 622.660156 534.179688 622.660156 Z M 534.179688 622.660156 " clip-rule="nonzero"/></clipPath><clipPath id="61294c649d"><path d="M 534.179688 622.660156 L 1250.167969 622.660156 L 1250.167969 1338.648438 L 534.179688 1338.648438 Z M 534.179688 622.660156 " clip-rule="nonzero"/></clipPath><clipPath id="153d375efa"><path d="M 892.171875 622.660156 C 694.460938 622.660156 534.179688 782.9375 534.179688 980.652344 C 534.179688 1178.367188 694.460938 1338.648438 892.171875 1338.648438 C 1089.886719 1338.648438 1250.167969 1178.367188 1250.167969 980.652344 C 1250.167969 782.9375 1089.886719 622.660156 892.171875 622.660156 Z M 892.171875 622.660156 " clip-rule="nonzero"/></clipPath><clipPath id="5a3f574afa"><path d="M 358.019531 314.859375 L 1073.96875 314.859375 L 1073.96875 1030.808594 L 358.019531 1030.808594 Z M 358.019531 314.859375 " clip-rule="nonzero"/></clipPath><clipPath id="d1773bd959"><path d="M 715.996094 314.859375 C 518.289062 314.859375 358.019531 475.128906 358.019531 672.832031 C 358.019531 870.539062 518.289062 1030.808594 715.996094 1030.808594 C 913.699219 1030.808594 1073.96875 870.539062 1073.96875 672.832031 C 1073.96875 475.128906 913.699219 314.859375 715.996094 314.859375 Z M 715.996094 314.859375 " clip-rule="nonzero"/></clipPath></defs><g clip-path="url(#a12b7176d6)"><g clip-path="url(#c17428812c)"><path stroke-linecap="butt" transform="matrix(0.749724, 0, 0, 0.749724, 534.180139, 18.353585)" fill="none" stroke-linejoin="miter" d="M 477.498156 0.0025129 C 213.786459 0.0025129 -0.000602533 213.784364 -0.000602533 477.501272 C -0.000602533 741.218179 213.786459 955.00003 477.498156 955.00003 C 741.215063 955.00003 955.002125 741.218179 955.002125 477.501272 C 955.002125 213.784364 741.215063 0.0025129 477.498156 0.0025129 Z M 477.498156 0.0025129 " stroke="#3ca500" stroke-width="170" stroke-opacity="1" stroke-miterlimit="4"/></g></g><g clip-path="url(#0999613de7)"><g clip-path="url(#61b89268ed)"><path stroke-linecap="butt" transform="matrix(0.749724, 0, 0, 0.749724, 176.187002, 18.353585)" fill="none" stroke-linejoin="miter" d="M 477.499423 0.0025129 C 213.782516 0.0025129 0.000664436 213.784364 0.000664436 477.501272 C 0.000664436 741.218179 213.782516 955.00003 477.499423 955.00003 C 741.21633 955.00003 954.998182 741.218179 954.998182 477.501272 C 954.998182 213.784364 741.21633 0.0025129 477.499423 0.0025129 Z M 477.499423 0.0025129 " stroke="#3ca500" stroke-width="170" stroke-opacity="1" stroke-miterlimit="4"/></g></g><g clip-path="url(#220e791816)"><g clip-path="url(#d8d0e6d066)"><path stroke-linecap="butt" transform="matrix(0.749724, 0, 0, 0.749724, 0.0138259, 314.833539)" fill="none" stroke-linejoin="miter" d="M 477.501158 -0.00201058 C 213.784251 -0.00201058 0.00239975 213.785051 0.00239975 477.501958 C 0.00239975 741.213655 213.784251 955.000717 477.501158 955.000717 C 741.218065 955.000717 954.999917 741.213655 954.999917 477.501958 C 954.999917 213.785051 741.218065 -0.00201058 477.501158 -0.00201058 Z M 477.501158 -0.00201058 " stroke="#3ca500" stroke-width="170" stroke-opacity="1" stroke-miterlimit="4"/></g></g><g clip-path="url(#66ac1c68c8)"><g clip-path="url(#711d7c6280)"><path stroke-linecap="butt" transform="matrix(0.749724, 0, 0, 0.749724, 716.000062, 314.857611)" fill="none" stroke-linejoin="miter" d="M 477.498676 0.00235238 C 213.781769 0.00235238 -0.0000829918 213.784204 -0.0000829918 477.501111 C -0.0000829918 741.218018 213.781769 954.99987 477.498676 954.99987 C 741.215583 954.99987 955.002645 741.218018 955.002645 477.501111 C 955.002645 213.784204 741.215583 0.00235238 477.498676 0.00235238 Z M 477.498676 0.00235238 " stroke="#3ca500" stroke-width="170" stroke-opacity="1" stroke-miterlimit="4"/></g></g><g clip-path="url(#2ad2294938)"><g clip-path="url(#bbaf7cacba)"><path stroke-linecap="butt" transform="matrix(0.749724, 0, 0, 0.749724, 176.187002, 622.660257)" fill="none" stroke-linejoin="miter" d="M 477.499423 -0.000134272 C 213.782516 -0.000134272 0.000664436 213.781717 0.000664436 477.498624 C 0.000664436 741.215531 213.782516 955.002593 477.499423 955.002593 C 741.21633 955.002593 954.998182 741.215531 954.998182 477.498624 C 954.998182 213.781717 741.21633 -0.000134272 477.499423 -0.000134272 Z M 477.499423 -0.000134272 " stroke="#3ca500" stroke-width="170" stroke-opacity="1" stroke-miterlimit="4"/></g></g><g clip-path="url(#61294c649d)"><g clip-path="url(#153d375efa)"><path stroke-linecap="butt" transform="matrix(0.749724, 0, 0, 0.749724, 534.180139, 622.660257)" fill="none" stroke-linejoin="miter" d="M 477.498156 -0.000134272 C 213.786459 -0.000134272 -0.000602533 213.781717 -0.000602533 477.498624 C -0.000602533 741.215531 213.786459 955.002593 477.498156 955.002593 C 741.215063 955.002593 955.002125 741.215531 955.002125 477.498624 C 955.002125 213.781717 741.215063 -0.000134272 477.498156 -0.000134272 Z M 477.498156 -0.000134272 " stroke="#3ca500" stroke-width="170" stroke-opacity="1" stroke-miterlimit="4"/></g></g><g clip-path="url(#5a3f574afa)"><g clip-path="url(#d1773bd959)"><path stroke-linecap="butt" transform="matrix(0.749724, 0, 0, 0.749724, 358.01898, 314.857611)" fill="none" stroke-linejoin="miter" d="M 477.478683 0.00235238 C 213.772179 0.00235238 0.000734734 213.773797 0.000734734 477.47509 C 0.000734734 741.181594 213.772179 954.953038 477.478683 954.953038 C 741.179976 954.953038 954.951421 741.181594 954.951421 477.47509 C 954.951421 213.773797 741.179976 0.00235238 477.478683 0.00235238 Z M 477.478683 0.00235238 " stroke="#0965ac" stroke-width="200" stroke-opacity="1" stroke-miterlimit="4"/></g></g></svg>