<svg xmlns="http://www.w3.org/2000/svg" xmlns:xlink="http://www.w3.org/1999/xlink" width="1910" zoomAndPan="magnify" viewBox="0 0 1432.5 1357.499964" height="1810" preserveAspectRatio="xMidYMid meet" version="1.0"><defs><clipPath id="9d1664dd4f"><path d="M 534.179688 18.355469 L 1250.167969 18.355469 L 1250.167969 734.339844 L 534.179688 734.339844 Z M 534.179688 18.355469 " clip-rule="nonzero"/></clipPath><clipPath id="0af7d35fb8"><path d="M 892.171875 18.355469 C 694.460938 18.355469 534.179688 178.632812 534.179688 376.347656 C 534.179688 574.0625 694.460938 734.339844 892.171875 734.339844 C 1089.886719 734.339844 1250.167969 574.0625 1250.167969 376.347656 C 1250.167969 178.632812 1089.886719 18.355469 892.171875 18.355469 Z M 892.171875 18.355469 " clip-rule="nonzero"/></clipPath><clipPath id="2c99b28c6d"><path d="M 176.1875 18.355469 L 892.171875 18.355469 L 892.171875 734.339844 L 176.1875 734.339844 Z M 176.1875 18.355469 " clip-rule="nonzero"/></clipPath><clipPath id="6f8176c8da"><path d="M 534.179688 18.355469 C 336.464844 18.355469 176.1875 178.632812 176.1875 376.347656 C 176.1875 574.0625 336.464844 734.339844 534.179688 734.339844 C 731.894531 734.339844 892.171875 574.0625 892.171875 376.347656 C 892.171875 178.632812 731.894531 18.355469 534.179688 18.355469 Z M 534.179688 18.355469 " clip-rule="nonzero"/></clipPath><clipPath id="b64d8521f7"><path d="M 0.015625 314.832031 L 716 314.832031 L 716 1030.820312 L 0.015625 1030.820312 Z M 0.015625 314.832031 " clip-rule="nonzero"/></clipPath><clipPath id="e05767d2b9"><path d="M 358.007812 314.832031 C 160.292969 314.832031 0.015625 475.113281 0.015625 672.828125 C 0.015625 870.539062 160.292969 1030.820312 358.007812 1030.820312 C 555.722656 1030.820312 716 870.539062 716 672.828125 C 716 475.113281 555.722656 314.832031 358.007812 314.832031 Z M 358.007812 314.832031 " clip-rule="nonzero"/></clipPath><clipPath id="9f1babbdb1"><path d="M 716 314.859375 L 1431.984375 314.859375 L 1431.984375 1030.84375 L 716 1030.84375 Z M 716 314.859375 " clip-rule="nonzero"/></clipPath><clipPath id="7ea4e57563"><path d="M 1073.992188 314.859375 C 876.277344 314.859375 716 475.136719 716 672.851562 C 716 870.566406 876.277344 1030.84375 1073.992188 1030.84375 C 1271.707031 1030.84375 1431.984375 870.566406 1431.984375 672.851562 C 1431.984375 475.136719 1271.707031 314.859375 1073.992188 314.859375 Z M 1073.992188 314.859375 " clip-rule="nonzero"/></clipPath><clipPath id="315b49949b"><path d="M 176.1875 622.660156 L 892.171875 622.660156 L 892.171875 1338.644531 L 176.1875 1338.644531 Z M 176.1875 622.660156 " clip-rule="nonzero"/></clipPath><clipPath id="8682730652"><path d="M 534.179688 622.660156 C 336.464844 622.660156 176.1875 782.9375 176.1875 980.652344 C 176.1875 1178.367188 336.464844 1338.644531 534.179688 1338.644531 C 731.894531 1338.644531 892.171875 1178.367188 892.171875 980.652344 C 892.171875 782.9375 731.894531 622.660156 534.179688 622.660156 Z M 534.179688 622.660156 " clip-rule="nonzero"/></clipPath><clipPath id="bfe01e1ecc"><path d="M 534.179688 622.660156 L 1250.167969 622.660156 L 1250.167969 1338.644531 L 534.179688 1338.644531 Z M 534.179688 622.660156 " clip-rule="nonzero"/></clipPath><clipPath id="167ee7c8e9"><path d="M 892.171875 622.660156 C 694.460938 622.660156 534.179688 782.9375 534.179688 980.652344 C 534.179688 1178.367188 694.460938 1338.644531 892.171875 1338.644531 C 1089.886719 1338.644531 1250.167969 1178.367188 1250.167969 980.652344 C 1250.167969 782.9375 1089.886719 622.660156 892.171875 622.660156 Z M 892.171875 622.660156 " clip-rule="nonzero"/></clipPath><clipPath id="4cf8b46be8"><path d="M 358.019531 314.859375 L 1073.980469 314.859375 L 1073.980469 1030.820312 L 358.019531 1030.820312 Z M 358.019531 314.859375 " clip-rule="nonzero"/></clipPath><clipPath id="e3d0909d09"><path d="M 716 314.859375 C 518.292969 314.859375 358.019531 475.132812 358.019531 672.839844 C 358.019531 870.546875 518.292969 1030.820312 716 1030.820312 C 913.707031 1030.820312 1073.980469 870.546875 1073.980469 672.839844 C 1073.980469 475.132812 913.707031 314.859375 716 314.859375 Z M 716 314.859375 " clip-rule="nonzero"/></clipPath><clipPath id="cb1eb9d3f9"><path d="M 358.019531 314.859375 L 1073.96875 314.859375 L 1073.96875 1030.808594 L 358.019531 1030.808594 Z M 358.019531 314.859375 " clip-rule="nonzero"/></clipPath><clipPath id="95bdd1c6ea"><path d="M 715.996094 314.859375 C 518.289062 314.859375 358.019531 475.128906 358.019531 672.832031 C 358.019531 870.539062 518.289062 1030.808594 715.996094 1030.808594 C 913.699219 1030.808594 1073.96875 870.539062 1073.96875 672.832031 C 1073.96875 475.128906 913.699219 314.859375 715.996094 314.859375 Z M 715.996094 314.859375 " clip-rule="nonzero"/></clipPath><clipPath id="6a1b7ba2cf"><path d="M 949 665 L 1012.484375 665 L 1012.484375 680 L 949 680 Z M 949 665 " clip-rule="nonzero"/></clipPath><clipPath id="df97dde692"><path d="M 419.453125 665 L 483 665 L 483 680 L 419.453125 680 Z M 419.453125 665 " clip-rule="nonzero"/></clipPath></defs><g clip-path="url(#9d1664dd4f)"><g clip-path="url(#0af7d35fb8)"><path stroke-linecap="butt" transform="matrix(0.749724, 0, 0, 0.749724, 534.180139, 18.35359)" fill="none" stroke-linejoin="miter" d="M 477.498156 0.00250554 C 213.786459 0.00250554 -0.000602533 213.784357 -0.000602533 477.501264 C -0.000602533 741.218171 213.786459 955.000023 477.498156 955.000023 C 741.215063 955.000023 955.002125 741.218171 955.002125 477.501264 C 955.002125 213.784357 741.215063 0.00250554 477.498156 0.00250554 Z M 477.498156 0.00250554 " stroke="#3ca500" stroke-width="170" stroke-opacity="1" stroke-miterlimit="4"/></g></g><g clip-path="url(#2c99b28c6d)"><g clip-path="url(#6f8176c8da)"><path stroke-linecap="butt" transform="matrix(0.749724, 0, 0, 0.749724, 176.187002, 18.35359)" fill="none" stroke-linejoin="miter" d="M 477.499423 0.00250554 C 213.782516 0.00250554 0.000664436 213.784357 0.000664436 477.501264 C 0.000664436 741.218171 213.782516 955.000023 477.499423 955.000023 C 741.21633 955.000023 954.998182 741.218171 954.998182 477.501264 C 954.998182 213.784357 741.21633 0.00250554 477.499423 0.00250554 Z M 477.499423 0.00250554 " stroke="#3ca500" stroke-width="170" stroke-opacity="1" stroke-miterlimit="4"/></g></g><g clip-path="url(#b64d8521f7)"><g clip-path="url(#e05767d2b9)"><path stroke-linecap="butt" transform="matrix(0.749724, 0, 0, 0.749724, 0.0138259, 314.83351)" fill="none" stroke-linejoin="miter" d="M 477.501158 -0.00197218 C 213.784251 -0.00197218 0.00239975 213.78509 0.00239975 477.501997 C 0.00239975 741.213694 213.784251 955.000755 477.501158 955.000755 C 741.218065 955.000755 954.999917 741.213694 954.999917 477.501997 C 954.999917 213.78509 741.218065 -0.00197218 477.501158 -0.00197218 Z M 477.501158 -0.00197218 " stroke="#3ca500" stroke-width="170" stroke-opacity="1" stroke-miterlimit="4"/></g></g><g clip-path="url(#9f1babbdb1)"><g clip-path="url(#7ea4e57563)"><path stroke-linecap="butt" transform="matrix(0.749724, 0, 0, 0.749724, 716.000062, 314.857643)" fill="none" stroke-linejoin="miter" d="M 477.498676 0.00231078 C 213.781769 0.00231078 -0.0000829918 213.784162 -0.0000829918 477.501069 C -0.0000829918 741.217977 213.781769 954.999828 477.498676 954.999828 C 741.215583 954.999828 955.002645 741.217977 955.002645 477.501069 C 955.002645 213.784162 741.215583 0.00231078 477.498676 0.00231078 Z M 477.498676 0.00231078 " stroke="#3ca500" stroke-width="170" stroke-opacity="1" stroke-miterlimit="4"/></g></g><g clip-path="url(#315b49949b)"><g clip-path="url(#8682730652)"><path stroke-linecap="butt" transform="matrix(0.749724, 0, 0, 0.749724, 176.187002, 622.660137)" fill="none" stroke-linejoin="miter" d="M 477.499423 0.0000257282 C 213.782516 0.0000257282 0.000664436 213.781877 0.000664436 477.498784 C 0.000664436 741.215691 213.782516 954.997543 477.499423 954.997543 C 741.21633 954.997543 954.998182 741.215691 954.998182 477.498784 C 954.998182 213.781877 741.21633 0.0000257282 477.499423 0.0000257282 Z M 477.499423 0.0000257282 " stroke="#3ca500" stroke-width="170" stroke-opacity="1" stroke-miterlimit="4"/></g></g><g clip-path="url(#bfe01e1ecc)"><g clip-path="url(#167ee7c8e9)"><path stroke-linecap="butt" transform="matrix(0.749724, 0, 0, 0.749724, 534.180139, 622.660137)" fill="none" stroke-linejoin="miter" d="M 477.498156 0.0000257282 C 213.786459 0.0000257282 -0.000602533 213.781877 -0.000602533 477.498784 C -0.000602533 741.215691 213.786459 954.997543 477.498156 954.997543 C 741.215063 954.997543 955.002125 741.215691 955.002125 477.498784 C 955.002125 213.781877 741.215063 0.0000257282 477.498156 0.0000257282 Z M 477.498156 0.0000257282 " stroke="#3ca500" stroke-width="170" stroke-opacity="1" stroke-miterlimit="4"/></g></g><g clip-path="url(#4cf8b46be8)"><g clip-path="url(#e3d0909d09)"><path fill="#0965ac" d="M 358.019531 314.859375 L 1073.980469 314.859375 L 1073.980469 1030.820312 L 358.019531 1030.820312 Z M 358.019531 314.859375 " fill-opacity="1" fill-rule="nonzero"/></g></g><g clip-path="url(#cb1eb9d3f9)"><g clip-path="url(#95bdd1c6ea)"><path stroke-linecap="butt" transform="matrix(0.749724, 0, 0, 0.749724, 358.01898, 314.857643)" fill="none" stroke-linejoin="miter" d="M 477.478683 0.00231078 C 213.772179 0.00231078 0.000734734 213.773755 0.000734734 477.475049 C 0.000734734 741.181552 213.772179 954.952997 477.478683 954.952997 C 741.179976 954.952997 954.951421 741.181552 954.951421 477.475049 C 954.951421 213.773755 741.179976 0.00231078 477.478683 0.00231078 Z M 477.478683 0.00231078 " stroke="#0965ac" stroke-width="200" stroke-opacity="1" stroke-miterlimit="4"/></g></g><path fill="#ffffff" d="M 715.996094 469.328125 C 685.15625 469.328125 660.070312 494.414062 660.070312 525.253906 C 660.070312 556.113281 685.15625 581.195312 715.996094 581.195312 C 746.835938 581.195312 771.921875 556.113281 771.921875 525.253906 C 771.921875 494.414062 746.835938 469.328125 715.996094 469.328125 " fill-opacity="1" fill-rule="nonzero"/><path fill="#ffffff" d="M 863.492188 649.199219 C 838.40625 639.800781 783.46875 612.167969 773.648438 605.710938 C 753.804688 592.667969 735.480469 586.589844 715.996094 586.589844 C 696.511719 586.589844 678.1875 592.667969 658.34375 605.710938 C 648.527344 612.167969 593.589844 639.800781 568.503906 649.199219 C 557.660156 653.261719 551.527344 664.484375 553.9375 675.878906 C 555.34375 682.566406 559.578125 688.28125 565.558594 691.566406 C 569.089844 693.503906 573.003906 694.472656 576.878906 694.472656 C 579.59375 694.472656 582.289062 693.996094 584.851562 693.046875 L 652 670.125 C 654.335938 669.328125 656.691406 671.207031 656.425781 673.660156 C 650.898438 722.0625 637.855469 837.292969 634.929688 867.242188 C 633.316406 883.554688 644.613281 897.851562 660.621094 899.769531 C 675.644531 901.574219 689.316406 891.109375 693.171875 874.914062 C 695.621094 864.65625 708.988281 800.699219 713.320312 780.039062 C 713.625 778.597656 715.65625 778.597656 715.957031 780.039062 C 720.269531 800.699219 733.65625 864.640625 736.105469 874.914062 C 739.675781 889.894531 751.660156 899.980469 765.3125 899.980469 C 766.414062 899.980469 767.515625 899.902344 768.65625 899.769531 C 784.664062 897.851562 795.945312 883.554688 794.347656 867.242188 C 791.40625 837.085938 778.1875 720.488281 772.738281 672.691406 C 772.453125 670.238281 774.828125 668.359375 777.164062 669.15625 L 846.933594 692.972656 C 849.609375 693.957031 852.382812 694.453125 855.171875 694.453125 C 859.066406 694.453125 862.941406 693.484375 866.433594 691.566406 C 872.414062 688.28125 876.652344 682.566406 878.054688 675.878906 C 880.46875 664.484375 874.335938 653.261719 863.492188 649.199219 " fill-opacity="1" fill-rule="nonzero"/><path fill="#ffffff" d="M 716.109375 430.398438 C 712.085938 430.398438 708.820312 427.132812 708.820312 423.105469 L 708.820312 374.949219 C 708.820312 370.921875 712.085938 367.65625 716.109375 367.65625 C 720.136719 367.65625 723.402344 370.921875 723.402344 374.949219 L 723.402344 423.105469 C 723.402344 427.132812 720.136719 430.398438 716.109375 430.398438 " fill-opacity="1" fill-rule="nonzero"/><path fill="#ffffff" d="M 716.109375 978.140625 C 712.085938 978.140625 708.820312 974.894531 708.820312 970.847656 L 708.820312 922.710938 C 708.820312 918.683594 712.085938 915.417969 716.109375 915.417969 C 720.136719 915.417969 723.402344 918.683594 723.402344 922.710938 L 723.402344 970.847656 C 723.402344 974.894531 720.136719 978.140625 716.109375 978.140625 " fill-opacity="1" fill-rule="nonzero"/><path fill="#ffffff" d="M 915.636719 480.285156 C 913.777344 480.285156 911.914062 479.582031 910.492188 478.15625 C 907.640625 475.328125 907.640625 470.695312 910.472656 467.847656 L 944.445312 433.722656 C 947.273438 430.875 951.90625 430.855469 954.757812 433.703125 C 957.605469 436.53125 957.625 441.164062 954.773438 444.015625 L 920.820312 478.140625 C 919.398438 479.5625 917.515625 480.285156 915.636719 480.285156 " fill-opacity="1" fill-rule="nonzero"/><path fill="#ffffff" d="M 951.394531 914.925781 C 949.535156 914.925781 947.671875 914.222656 946.25 912.796875 L 912.125 878.824219 C 909.273438 875.996094 909.257812 871.378906 912.105469 868.511719 C 914.933594 865.664062 919.546875 865.664062 922.417969 868.492188 L 956.539062 902.464844 C 959.390625 905.296875 959.390625 909.910156 956.558594 912.777344 C 955.136719 914.203125 953.253906 914.925781 951.394531 914.925781 " fill-opacity="1" fill-rule="nonzero"/><g clip-path="url(#6a1b7ba2cf)"><path fill="#ffffff" d="M 957.167969 679.847656 C 953.140625 679.847656 949.875 676.601562 949.875 672.574219 C 949.855469 668.550781 953.121094 665.285156 957.148438 665.265625 L 1005.308594 665.152344 C 1005.308594 665.152344 1005.308594 665.152344 1005.324219 665.152344 C 1009.332031 665.152344 1012.597656 668.417969 1012.617188 672.425781 C 1012.617188 676.449219 1009.371094 679.734375 1005.34375 679.734375 L 957.1875 679.847656 C 957.167969 679.847656 957.167969 679.847656 957.167969 679.847656 " fill-opacity="1" fill-rule="nonzero"/></g><path fill="#ffffff" d="M 516.355469 480.285156 C 514.476562 480.285156 512.597656 479.5625 511.171875 478.140625 L 477.21875 444.015625 C 474.371094 441.164062 474.390625 436.53125 477.238281 433.703125 C 480.105469 430.855469 484.71875 430.875 487.566406 433.722656 L 521.523438 467.847656 C 524.371094 470.695312 524.351562 475.328125 521.503906 478.15625 C 520.078125 479.582031 518.21875 480.285156 516.355469 480.285156 " fill-opacity="1" fill-rule="nonzero"/><path fill="#ffffff" d="M 480.597656 914.925781 C 478.738281 914.925781 476.859375 914.203125 475.433594 912.777344 C 472.585938 909.910156 472.605469 905.296875 475.453125 902.464844 L 509.578125 868.492188 C 512.445312 865.664062 517.039062 865.664062 519.890625 868.511719 C 522.738281 871.378906 522.71875 875.996094 519.871094 878.824219 L 485.746094 912.796875 C 484.320312 914.222656 482.460938 914.925781 480.597656 914.925781 " fill-opacity="1" fill-rule="nonzero"/><g clip-path="url(#df97dde692)"><path fill="#ffffff" d="M 474.824219 679.847656 C 474.824219 679.847656 474.824219 679.847656 474.808594 679.847656 L 426.648438 679.734375 C 422.640625 679.734375 419.375 676.449219 419.394531 672.425781 C 419.394531 668.417969 422.660156 665.152344 426.6875 665.152344 L 474.84375 665.265625 C 478.871094 665.285156 482.136719 668.550781 482.117188 672.574219 C 482.117188 676.601562 478.851562 679.847656 474.824219 679.847656 " fill-opacity="1" fill-rule="nonzero"/></g></svg>