<svg xmlns="http://www.w3.org/2000/svg" xmlns:xlink="http://www.w3.org/1999/xlink" width="400" zoomAndPan="magnify" viewBox="0 0 300 449.999984" height="600" preserveAspectRatio="xMidYMid meet" version="1.0"><defs><clipPath id="fffb9370cd"><path d="M 67.035156 25.003906 L 203.824219 25.003906 L 203.824219 449.695312 L 67.035156 449.695312 Z M 67.035156 25.003906 " clip-rule="nonzero"/></clipPath><clipPath id="7e4dee803a"><path d="M 102.71875 136.304688 L 300 136.304688 L 300 318.972656 L 102.71875 318.972656 Z M 102.71875 136.304688 " clip-rule="nonzero"/></clipPath></defs><g clip-path="url(#fffb9370cd)"><path fill="#000000" d="M 145.710938 32.371094 C 143.929688 30.753906 135.683594 23.957031 124.980469 25.148438 C 117.929688 25.910156 112.574219 29.902344 110.707031 31.433594 C 106.714844 34.75 107.054688 36.277344 102.378906 40.015625 C 97.367188 44.007812 95.328125 43.496094 91.421875 46.726562 C 91.421875 46.726562 85.980469 51.230469 83.605469 58.195312 C 79.015625 71.535156 89.976562 84.960938 90.742188 85.894531 C 95.328125 87.59375 100.34375 89.125 105.863281 90.3125 C 129.910156 95.496094 150.976562 91.5 164.570312 87.339844 C 171.710938 78.84375 172.304688 73.152344 171.453125 69.410156 C 170.605469 65.675781 168.394531 64.65625 167.632812 59.894531 C 166.613281 53.691406 169.753906 52.167969 169.246094 46.726562 C 168.652344 40.1875 163.382812 32.792969 155.992188 31.179688 C 151.402344 30.078125 147.496094 31.519531 145.710938 32.371094 Z M 81.480469 356.921875 L 159.050781 330.835938 L 188.703125 337.722656 L 203.058594 391.160156 C 201.359375 409.515625 199.746094 427.949219 198.046875 446.304688 C 189.296875 448.257812 177.828125 449.871094 164.488281 449.53125 C 154.71875 449.277344 146.136719 448.003906 139 446.472656 L 135.515625 427.78125 C 133.222656 434.066406 130.929688 440.4375 128.550781 446.726562 C 118.609375 448.683594 105.949219 450.210938 91.335938 449.53125 C 82.414062 449.105469 74.511719 447.914062 67.632812 446.558594 L 68.988281 405.011719 L 81.480469 356.921875 " fill-opacity="1" fill-rule="nonzero"/></g><path fill="#e0fbfc" d="M 84.878906 185.214844 C 83.6875 180.03125 82.582031 174.851562 81.394531 169.664062 L 96.945312 152.164062 L 102.804688 146.386719 L 153.019531 149.105469 L 155.738281 150.71875 C 163.046875 169.242188 170.179688 191.84375 174.683594 218.09375 C 183.773438 270.855469 178.589844 315.886719 172.390625 346.21875 C 167.292969 348.597656 159.050781 351.652344 148.515625 352.503906 C 136.453125 353.4375 126.761719 351.058594 121.070312 349.191406 C 109.433594 296.851562 97.964844 244.433594 86.324219 192.011719 M 86.324219 192.011719 C 85.8125 189.71875 85.304688 187.507812 84.792969 185.214844 " fill-opacity="1" fill-rule="nonzero"/><path fill="#0965ac" d="M 168.054688 214.953125 C 170.09375 231.605469 170.859375 246.554688 171.792969 281.644531 C 172.472656 306.453125 172.984375 339.421875 172.390625 378.671875 C 175.277344 381.390625 180.375 385.46875 187.851562 388.273438 C 195.839844 391.246094 202.890625 391.332031 206.882812 391.160156 C 203.316406 360.320312 199.832031 329.480469 196.261719 298.550781 C 197.539062 299.234375 202.976562 301.867188 209.601562 300.25 C 217.421875 298.300781 220.988281 292.011719 221.582031 290.992188 L 221.582031 254.371094 C 214.191406 226.675781 206.882812 199.0625 199.492188 171.367188 C 198.980469 169.496094 197.792969 167.964844 196.09375 167.035156 C 191.589844 164.566406 186.660156 162.019531 181.226562 159.640625 C 171.964844 155.5625 163.296875 152.761719 155.652344 150.71875 C 159.816406 166.183594 164.746094 188.1875 168.054688 214.953125 Z M 120.308594 231.261719 C 123.195312 251.910156 123.027344 269.496094 122.601562 303.90625 C 122.175781 333.386719 120.816406 357.941406 119.628906 375.191406 C 114.699219 380.714844 106.96875 388.105469 96.007812 394.476562 C 83.6875 401.699219 72.21875 404.753906 64.574219 406.203125 C 64.914062 395.582031 65.589844 378.757812 67.632812 358.113281 C 70.351562 330.328125 73.070312 319.625 74.085938 298.636719 C 74.683594 286.40625 74.769531 268.222656 72.050781 245.792969 C 50.808594 282.15625 28.550781 305.859375 15.886719 301.613281 C 12.40625 300.425781 8.242188 296.601562 5.78125 292.4375 C 0 282.664062 3.230469 271.113281 4.675781 265.503906 C 8.582031 250.464844 12.320312 229.988281 15.886719 199.996094 L 44.863281 198.554688 C 44.949219 200.847656 45.03125 203.144531 45.117188 205.4375 C 45.96875 203.058594 50.894531 188.78125 56.671875 177.398438 C 59.390625 172.046875 59.21875 172.46875 61.597656 168.308594 C 63.296875 165.335938 64.996094 162.53125 66.78125 159.8125 C 67.546875 158.621094 68.820312 157.769531 70.265625 157.433594 L 97.113281 152.078125 C 111.644531 184.535156 117.589844 212.148438 120.308594 231.261719 " fill-opacity="1" fill-rule="nonzero"/><g clip-path="url(#7e4dee803a)"><path fill="#3ca500" d="M 210.027344 277.144531 C 211.300781 285.808594 216.570312 290.992188 218.183594 292.523438 C 212.066406 296.601562 206.035156 300.675781 199.917969 304.753906 C 202.378906 309.257812 204.84375 313.761719 207.308594 318.265625 C 238.234375 300.167969 269.074219 281.984375 300.003906 263.890625 C 298.304688 261.9375 291.761719 253.949219 291.761719 241.96875 C 291.761719 230.667969 297.453125 223.023438 299.152344 220.898438 L 291.335938 219.792969 L 214.953125 258.195312 C 213.847656 259.554688 208.582031 266.945312 210.027344 277.144531 Z M 144.691406 139.589844 C 145.796875 139.929688 147.664062 140.695312 149.449219 142.308594 C 152.167969 144.859375 152.847656 147.917969 153.101562 149.019531 C 153.527344 151.742188 153.953125 155.816406 153.019531 160.746094 C 152 166.4375 149.703125 170.683594 148.175781 173.152344 L 136.109375 157.261719 C 132.628906 162.1875 129.144531 167.117188 125.746094 172.046875 C 122.601562 170.089844 118.949219 167.371094 115.292969 163.71875 C 109.007812 157.433594 105.183594 150.972656 102.972656 146.300781 C 103.570312 144.945312 104.503906 143.160156 106.121094 141.375 C 108.246094 138.910156 110.621094 137.550781 112.066406 136.871094 C 122.855469 137.804688 133.734375 138.742188 144.691406 139.589844 " fill-opacity="1" fill-rule="nonzero"/></g><path fill="#f4b379" d="M 272.898438 279.691406 C 262.621094 276.292969 258.710938 277.398438 257.011719 279.265625 C 255.566406 280.882812 256.160156 282.75 254.972656 285.980469 C 253.273438 290.398438 249.789062 293.203125 246.902344 294.902344 C 253.441406 299.320312 261.851562 299.0625 267.292969 294.476562 C 273.832031 289.125 272.984375 280.371094 272.898438 279.691406 Z M 161.597656 82.15625 C 160.324219 81.5625 158.878906 81.902344 157.691406 82.410156 C 156.84375 82.921875 156.074219 83.429688 155.226562 84.027344 C 155.480469 81.5625 155.566406 77.824219 154.125 73.832031 C 152.167969 68.390625 149.027344 66.78125 146.984375 61.511719 C 146.050781 59.046875 145.117188 55.308594 145.710938 49.957031 C 141.550781 52.84375 134.496094 57.089844 124.726562 59.046875 C 118.441406 60.320312 113 60.320312 108.921875 59.980469 C 108.070312 63.636719 106.96875 67.628906 105.355469 71.878906 C 103.230469 77.65625 100.765625 82.582031 98.472656 86.660156 C 97.875 85.214844 97.28125 83.773438 96.773438 82.328125 C 96.007812 82.15625 94.988281 81.984375 93.96875 82.410156 C 90.230469 83.855469 88.105469 91.5 91.421875 96.003906 C 93.96875 99.488281 98.644531 99.660156 99.40625 99.660156 C 99.832031 102.378906 101.363281 110.363281 108.160156 117.074219 C 108.667969 117.582031 110.113281 118.945312 112.238281 120.472656 C 112.832031 123.363281 113.34375 127.441406 112.746094 132.28125 C 112.320312 135.769531 111.558594 138.742188 110.707031 141.035156 C 113.9375 144.175781 118.265625 147.832031 123.789062 151.230469 C 128.210938 153.949219 132.457031 155.902344 136.027344 157.347656 C 137.554688 155.222656 139.082031 152.84375 140.613281 150.292969 C 142.398438 147.40625 143.929688 144.601562 145.203125 141.882812 C 144.265625 138.398438 143.417969 133.898438 143.332031 128.546875 C 143.25 124.804688 143.585938 121.40625 144.011719 118.605469 C 149.195312 113.933594 153.355469 107.21875 155.3125 99.066406 C 156.585938 98.976562 159.730469 98.640625 162.023438 96.261719 C 166.019531 92.097656 165.082031 83.773438 161.597656 82.15625 Z M 42.90625 185.554688 C 43.078125 191.5 40.613281 196.347656 38.488281 199.320312 C 33.816406 199.488281 29.058594 199.65625 24.382812 199.828125 C 22.347656 197.703125 16.738281 191.5 15.210938 181.476562 C 13.679688 171.535156 16.992188 163.886719 18.355469 161.339844 C 20.476562 159.980469 23.707031 158.195312 28.039062 157.515625 C 34.496094 156.414062 41.800781 157.859375 41.972656 159.726562 C 42.058594 160.660156 40.445312 162.105469 32.796875 164.3125 C 33.902344 165.671875 35.515625 167.796875 37.214844 170.515625 C 40.019531 175.105469 42.738281 179.691406 42.90625 185.554688 " fill-opacity="1" fill-rule="nonzero"/><path fill="#000000" d="M 27.070312 143.890625 L 18.425781 131.054688 C 17.148438 129.101562 14.769531 128.335938 13.238281 129.441406 C 11.710938 130.460938 11.539062 132.921875 12.816406 134.878906 L 56.316406 199.449219 L 64.21875 204.972656 L 61.925781 195.625 L 30.230469 148.582031 M 30.230469 148.582031 L 27.070312 143.890625 " fill-opacity="1" fill-rule="nonzero"/><path fill="#f4b379" d="M 35.515625 181.390625 C 33.136719 178.332031 30.84375 175.273438 28.464844 172.214844 M 28.464844 172.214844 C 26.171875 169.328125 23.875 166.4375 21.582031 163.550781 C 23.960938 163.039062 28.207031 162.613281 32.882812 164.3125 C 40.101562 167.035156 45.542969 174.167969 44.179688 176.550781 C 43.757812 177.3125 42.824219 177.144531 40.019531 178.503906 C 38.066406 179.4375 36.535156 180.542969 35.515625 181.390625 " fill-opacity="1" fill-rule="nonzero"/><path fill="#000000" d="M 136.109375 80.710938 C 135.433594 81.222656 136.027344 82.328125 136.789062 81.816406 C 137.640625 81.222656 138.488281 80.882812 139.425781 80.710938 C 138.574219 81.222656 138.0625 82.15625 138.0625 83.261719 C 138.0625 84.960938 139.425781 86.320312 141.125 86.320312 C 142.824219 86.320312 144.179688 84.960938 144.179688 83.261719 C 144.179688 82.496094 143.929688 81.816406 143.503906 81.304688 C 143.585938 81.390625 143.671875 81.390625 143.757812 81.476562 C 145.285156 82.328125 146.476562 83.855469 148.257812 84.195312 C 149.363281 84.367188 150.128906 83.175781 149.363281 82.328125 C 145.964844 78.332031 140.1875 77.65625 136.109375 80.710938 Z M 150.554688 71.878906 C 145.796875 69.921875 140.273438 69.667969 135.601562 71.878906 C 134.496094 72.386719 135.261719 74 136.363281 73.746094 C 140.953125 72.640625 145.203125 73.914062 149.703125 74.765625 C 151.746094 75.1875 152.339844 72.640625 150.554688 71.878906 Z M 121.070312 74.59375 C 122.089844 74.59375 122.347656 73.066406 121.328125 72.808594 C 118.355469 72.132812 115.550781 71.960938 112.574219 72.558594 C 110.113281 73.066406 106.714844 73.914062 105.441406 76.292969 C 105.015625 77.058594 105.523438 77.992188 106.460938 77.992188 C 108.753906 77.992188 110.792969 76.378906 113 75.699219 C 115.636719 75.019531 118.355469 74.59375 121.070312 74.59375 Z M 112.660156 84.195312 C 112.660156 85.894531 114.019531 87.253906 115.71875 87.253906 C 117.417969 87.253906 118.777344 85.894531 118.777344 84.195312 C 118.777344 83.089844 118.183594 82.074219 117.25 81.5625 C 118.097656 81.5625 118.863281 81.648438 119.628906 82.074219 C 120.140625 82.328125 120.476562 81.648438 120.054688 81.304688 C 118.183594 79.949219 116.144531 79.605469 113.9375 80.285156 C 112.066406 80.882812 109.175781 82.496094 108.753906 84.535156 C 108.582031 85.128906 109.175781 85.808594 109.769531 85.554688 C 111.046875 85.214844 111.894531 84.109375 112.832031 83.261719 C 112.746094 83.601562 112.660156 83.855469 112.660156 84.195312 Z M 127.53125 94.304688 C 126.679688 94.730469 127.273438 96.261719 128.210938 95.835938 C 130.335938 94.984375 131.523438 93.371094 131.355469 90.992188 C 131.265625 89.972656 130.585938 88.953125 130.335938 88.019531 C 129.992188 86.828125 129.992188 85.554688 129.910156 84.367188 C 129.738281 82.15625 129.992188 79.949219 129.230469 77.824219 C 128.886719 76.886719 127.699219 76.886719 127.359375 77.824219 C 126.511719 80.285156 127.019531 83.175781 127.445312 85.726562 C 127.785156 88.445312 130.757812 92.777344 127.53125 94.304688 Z M 122.769531 105.011719 C 122.6875 105.011719 122.6875 105.011719 122.601562 105.011719 C 123.027344 109.683594 128.292969 112.316406 132.035156 109.175781 C 134.070312 107.476562 135.007812 104.925781 135.601562 102.464844 C 131.4375 103.394531 127.105469 104.671875 122.769531 105.011719 Z M 121.753906 103.992188 C 121.753906 103.480469 122.007812 102.972656 122.515625 102.800781 C 126.851562 101.445312 131.777344 101.019531 136.28125 100.253906 C 136.960938 99.574219 138.488281 100.253906 138.234375 101.445312 C 137.300781 106.285156 135.007812 111.976562 129.484375 112.742188 C 124.640625 113.421875 120.902344 109.515625 120.988281 104.84375 C 120.988281 104.332031 121.328125 104.078125 121.753906 103.992188 Z M 237.214844 272.046875 C 235.855469 266.015625 236.363281 260.148438 238.488281 254.371094 C 239.085938 252.757812 236.363281 251.570312 235.6875 253.183594 C 232.964844 259.386719 232.714844 266.183594 235.175781 272.554688 C 235.6875 273.832031 237.554688 273.320312 237.214844 272.046875 Z M 259.902344 257.261719 C 258.878906 255.394531 258.285156 253.351562 258.117188 251.316406 C 257.945312 249.53125 258.453125 247.746094 258.371094 245.960938 C 258.285156 244.773438 256.671875 244.175781 256.078125 245.367188 C 254.035156 249.273438 255.824219 254.882812 257.945312 258.449219 C 258.710938 259.554688 260.578125 258.449219 259.902344 257.261719 Z M 267.972656 256.242188 C 268.648438 256.839844 269.585938 255.902344 268.90625 255.308594 C 264.65625 250.636719 267.460938 243.753906 267.972656 238.230469 C 268.140625 236.703125 265.59375 236.359375 265.25 237.890625 C 264.230469 243.667969 262.789062 251.996094 267.972656 256.242188 Z M 293.96875 258.539062 C 283.179688 264.230469 272.472656 269.839844 261.769531 275.613281 C 260.410156 276.378906 261.601562 278.503906 263.042969 277.738281 C 273.664062 271.875 284.199219 265.84375 294.5625 259.554688 C 295.160156 259.132812 294.648438 258.195312 293.96875 258.539062 Z M 250.042969 282.15625 C 241.632812 286.65625 233.390625 291.503906 225.234375 296.515625 C 217.671875 301.1875 209.347656 305.605469 202.722656 311.46875 C 201.871094 312.234375 202.976562 313.507812 203.910156 312.996094 C 211.980469 308.835938 219.457031 302.800781 227.191406 297.957031 C 235.007812 293.03125 242.910156 288.1875 250.808594 283.433594 C 251.574219 282.921875 250.894531 281.734375 250.042969 282.15625 Z M 287.257812 257.09375 C 287.851562 257.09375 288.363281 256.75 288.53125 256.242188 C 289.039062 255.902344 289.550781 255.5625 290.0625 255.140625 C 290.996094 254.371094 289.976562 252.84375 288.957031 253.183594 C 288.703125 253.269531 288.363281 253.441406 288.109375 253.523438 C 286.832031 248.597656 286.410156 243.667969 286.746094 238.484375 C 287.089844 232.960938 287.683594 225.65625 290.824219 220.898438 C 291.335938 220.136719 290.144531 219.285156 289.636719 219.960938 C 285.984375 224.464844 285.132812 231.007812 284.453125 236.53125 C 283.691406 242.5625 283.859375 248.679688 285.472656 254.542969 C 280.886719 256.582031 276.550781 259.386719 272.222656 261.679688 C 266.1875 264.910156 260.152344 268.140625 254.125 271.363281 C 242.058594 277.824219 229.992188 284.28125 218.097656 290.90625 C 216.996094 291.503906 217.929688 293.117188 219.035156 292.523438 C 231.265625 286.40625 243.332031 280.035156 255.480469 273.660156 C 261.257812 270.601562 267.035156 267.628906 272.816406 264.566406 C 277.488281 262.191406 282.753906 259.980469 287.257812 257.09375 Z M 74.429688 205.09375 C 74.769531 189.71875 72.644531 174.507812 68.652344 159.640625 C 68.3125 158.453125 66.527344 158.960938 66.78125 160.152344 C 70.351562 175.273438 72.050781 190.824219 71.457031 206.285156 C 70.863281 221.066406 69.585938 235.765625 70.4375 250.550781 C 71.113281 262.105469 72.644531 273.574219 72.644531 285.214844 C 72.644531 302.125 71.03125 319.03125 68.3125 335.683594 C 67.972656 337.890625 71.285156 338.828125 71.625 336.617188 C 74.597656 320.046875 76.210938 303.3125 76.128906 286.488281 C 76.128906 274.425781 74.429688 262.617188 73.75 250.550781 C 72.984375 235.429688 74.171875 220.304688 74.429688 205.09375 Z M 193.457031 255.394531 C 192.441406 240.015625 191.507812 224.636719 190.742188 209.171875 C 190.058594 195.242188 188.703125 180.03125 195.667969 167.285156 C 196.179688 166.4375 194.820312 165.585938 194.308594 166.523438 C 187.597656 177.90625 187.085938 190.738281 187.429688 203.652344 C 187.9375 219.625 188.871094 235.597656 189.976562 251.484375 C 192.101562 283.515625 194.90625 315.542969 198.730469 347.492188 C 198.980469 349.359375 201.953125 349.445312 201.703125 347.492188 C 198.472656 316.90625 195.582031 286.234375 193.457031 255.394531 Z M 44.179688 205.773438 C 43.671875 224.890625 39.253906 242.476562 34.410156 260.746094 C 33.902344 262.785156 36.703125 263.464844 37.472656 261.59375 C 44.4375 244.261719 46.222656 224.210938 46.136719 205.773438 C 46.222656 204.417969 44.179688 204.417969 44.179688 205.773438 Z M 146.304688 215.886719 C 144.4375 197.789062 141.632812 179.777344 137.640625 161.9375 C 137.382812 160.914062 135.941406 161.339844 136.109375 162.359375 C 139.507812 180.710938 142.3125 199.148438 143.84375 217.753906 C 144.605469 226.589844 145.117188 235.511719 145.371094 244.433594 C 145.628906 253.609375 145.117188 262.867188 145.628906 272.046875 C 145.710938 273.914062 148.347656 273.914062 148.515625 272.046875 C 149.363281 262.617188 148.683594 252.84375 148.257812 243.414062 C 147.921875 234.238281 147.242188 225.058594 146.304688 215.886719 Z M 158.542969 84.195312 C 157.773438 84.453125 158.03125 85.726562 158.878906 85.472656 C 159.730469 85.214844 160.324219 85.980469 160.664062 86.746094 C 161.003906 87.59375 160.75 88.613281 161.597656 89.125 C 162.023438 89.378906 162.535156 89.207031 162.789062 88.78125 C 163.550781 87.765625 162.449219 85.808594 161.683594 85.046875 C 160.921875 84.28125 159.558594 83.855469 158.542969 84.195312 Z M 91.675781 91.078125 C 92.269531 91.585938 92.953125 91.332031 93.203125 90.652344 C 93.460938 89.972656 93.035156 89.207031 93.035156 88.527344 C 93.035156 88.019531 93.203125 86.402344 94.140625 87 C 94.734375 87.425781 95.246094 86.488281 94.734375 86.066406 C 92.441406 84.367188 89.976562 89.632812 91.675781 91.078125 Z M 141.632812 119.113281 C 132.628906 123.53125 122.601562 124.890625 113.34375 120.472656 C 112.574219 120.132812 111.894531 121.238281 112.660156 121.664062 C 122.175781 126.335938 133.5625 127.101562 142.824219 121.15625 C 144.097656 120.304688 142.992188 118.433594 141.632812 119.113281 Z M 42.058594 173.574219 C 42.824219 173.660156 42.90625 172.46875 42.226562 172.300781 C 37.554688 171.28125 31.949219 170.941406 27.53125 172.980469 C 26.679688 173.40625 27.105469 174.851562 28.039062 174.765625 C 30.417969 174.425781 32.628906 173.746094 35.003906 173.488281 C 37.300781 173.320312 39.679688 173.320312 42.058594 173.574219 Z M 39.59375 169.582031 C 40.101562 169.753906 40.273438 168.984375 39.851562 168.816406 C 33.816406 166.609375 26.765625 166.097656 20.816406 168.734375 C 19.882812 169.160156 20.5625 170.515625 21.496094 170.261719 C 27.699219 168.5625 33.222656 167.796875 39.59375 169.582031 Z M 32.710938 164.738281 C 33.304688 164.910156 33.5625 163.972656 32.96875 163.804688 C 28.886719 162.53125 23.195312 161.257812 19.375 163.972656 C 18.355469 164.65625 19.203125 166.183594 20.308594 165.671875 C 24.132812 163.804688 28.71875 163.71875 32.710938 164.738281 Z M 44.097656 177.824219 C 38.914062 178.757812 36.109375 183.941406 31.179688 185.214844 C 29.992188 185.46875 29.570312 184.027344 30.417969 183.429688 C 32.542969 181.816406 35.003906 180.285156 37.300781 178.929688 C 39.339844 177.738281 41.464844 176.886719 43.84375 176.71875 C 44.605469 176.550781 44.777344 177.65625 44.097656 177.824219 " fill-opacity="1" fill-rule="nonzero"/></svg>