<svg xmlns="http://www.w3.org/2000/svg" xmlns:xlink="http://www.w3.org/1999/xlink" width="400" zoomAndPan="magnify" viewBox="0 0 300 449.999984" height="600" preserveAspectRatio="xMidYMid meet" version="1.0"><defs><clipPath id="dac2f8049d"><path d="M 3 65.414062 L 294 65.414062 L 294 364 L 3 364 Z M 3 65.414062 " clip-rule="nonzero"/></clipPath><clipPath id="45ea56e348"><path d="M 0 75 L 300 75 L 300 367.628906 L 0 367.628906 Z M 0 75 " clip-rule="nonzero"/></clipPath><clipPath id="4a896e3438"><path d="M 8.019531 186 L 300 186 L 300 354.816406 L 8.019531 354.816406 Z M 8.019531 186 " clip-rule="nonzero"/></clipPath></defs><g clip-path="url(#dac2f8049d)"><path fill="#62a1a4" d="M 248.507812 330.546875 L 253.769531 354.089844 L 231.578125 354.089844 L 229.570312 345.097656 C 205.582031 359.632812 172.722656 367.035156 127.773438 362.585938 C 54.320312 355.320312 3.519531 308.160156 3.519531 234.347656 C 3.519531 160.535156 69.398438 65.59375 143.210938 65.59375 C 217.023438 65.59375 293.269531 112.167969 293.269531 185.976562 C 293.269531 231.234375 287.566406 292.976562 248.507812 330.546875 " fill-opacity="1" fill-rule="nonzero"/></g><g clip-path="url(#45ea56e348)"><path fill="#000000" d="M 38.898438 215.882812 C 38.914062 216.226562 38.9375 216.570312 38.984375 216.910156 C 39.144531 218.378906 39.605469 219.8125 40.265625 221.140625 C 40.730469 222.058594 41.304688 222.917969 41.972656 223.710938 C 42.238281 222.839844 42.507812 221.980469 42.765625 221.140625 C 41.042969 219.765625 39.714844 217.925781 38.898438 215.882812 Z M 79.984375 229.34375 C 79.898438 229.847656 79.789062 230.347656 79.664062 230.84375 C 80.117188 230.109375 80.492188 229.320312 80.769531 228.496094 C 81.746094 225.523438 81.679688 222.316406 81.601562 219.144531 C 81.554688 215.957031 81.570312 212.765625 81.730469 209.578125 C 81.832031 207.34375 82 205.109375 82.222656 202.882812 C 82.019531 202.847656 81.816406 202.808594 81.613281 202.765625 C 79.722656 206.824219 79.652344 211.476562 79.914062 215.945312 C 80.175781 220.414062 80.734375 224.929688 79.984375 229.34375 Z M 82.613281 202.949219 C 82.515625 204.554688 82.441406 206.160156 82.375 207.765625 C 82.511719 206.152344 82.699219 204.554688 82.941406 202.984375 C 82.832031 202.96875 82.722656 202.964844 82.613281 202.949219 Z M 108.851562 172.929688 C 108.046875 174.171875 107.296875 175.472656 106.710938 176.828125 C 112.707031 176.683594 120.046875 178.367188 128.980469 182.488281 C 128.851562 180.925781 128.851562 179.347656 128.851562 177.777344 C 128.855469 176.671875 128.820312 175.488281 128.617188 174.375 C 128.308594 174.203125 127.996094 174.042969 127.671875 173.917969 C 127.207031 173.742188 126.734375 173.597656 126.242188 173.519531 C 125.757812 173.433594 125.261719 173.40625 124.765625 173.417969 C 124.265625 173.433594 123.765625 173.511719 123.261719 173.621094 C 123.191406 173.640625 123.121094 173.597656 123.101562 173.527344 C 123.09375 173.46875 123.121094 173.410156 123.164062 173.382812 C 123.632812 173.101562 124.164062 172.929688 124.707031 172.84375 C 125.25 172.75 125.8125 172.761719 126.355469 172.84375 C 126.902344 172.9375 127.4375 173.105469 127.925781 173.367188 C 128.117188 173.46875 128.296875 173.589844 128.472656 173.714844 C 128.320312 173.140625 128.117188 172.601562 127.839844 172.109375 C 127.738281 172.085938 127.636719 172.0625 127.535156 172.042969 C 127.210938 171.988281 126.890625 171.9375 126.566406 171.917969 C 126.242188 171.890625 125.921875 171.898438 125.59375 171.90625 C 125.265625 171.921875 124.933594 171.964844 124.589844 172.007812 C 124.519531 172.015625 124.449219 171.964844 124.441406 171.890625 C 124.433594 171.839844 124.460938 171.789062 124.496094 171.761719 C 124.800781 171.554688 125.148438 171.421875 125.507812 171.335938 C 125.867188 171.246094 126.242188 171.222656 126.609375 171.238281 C 126.847656 171.253906 127.082031 171.296875 127.3125 171.351562 C 127.15625 171.167969 126.980469 170.996094 126.785156 170.835938 C 126.308594 170.777344 125.832031 170.761719 125.367188 170.824219 C 124.875 170.890625 124.394531 171.007812 123.941406 171.199219 C 123.484375 171.378906 123.054688 171.628906 122.65625 171.925781 C 122.257812 172.222656 121.902344 172.582031 121.589844 172.992188 C 121.542969 173.050781 121.460938 173.0625 121.402344 173.019531 C 121.355469 172.984375 121.339844 172.921875 121.359375 172.867188 C 121.742188 171.824219 122.648438 170.996094 123.679688 170.566406 C 124.203125 170.355469 124.761719 170.222656 125.324219 170.21875 C 125.46875 170.21875 125.609375 170.222656 125.753906 170.234375 C 123.574219 169.449219 120.46875 170.761719 119.847656 172.988281 C 119.664062 171.011719 118.09375 169.308594 116.210938 168.765625 C 116.367188 168.886719 116.523438 169.007812 116.667969 169.144531 C 117.089844 169.5625 117.453125 170.035156 117.71875 170.558594 C 117.988281 171.082031 118.179688 171.644531 118.238281 172.222656 C 118.242188 172.296875 118.191406 172.359375 118.117188 172.367188 C 118.058594 172.371094 118.003906 172.339844 117.984375 172.289062 C 117.769531 171.777344 117.519531 171.296875 117.222656 170.851562 C 116.917969 170.414062 116.582031 170 116.195312 169.636719 C 115.816406 169.265625 115.390625 168.945312 114.9375 168.660156 C 114.894531 168.632812 114.851562 168.613281 114.808594 168.589844 C 114.742188 168.589844 114.675781 168.589844 114.605469 168.59375 C 114.023438 168.640625 113.46875 168.792969 112.945312 169.023438 C 113.316406 169.054688 113.6875 169.128906 114.042969 169.238281 C 115.179688 169.601562 116.21875 170.386719 116.742188 171.449219 C 116.777344 171.511719 116.75 171.59375 116.683594 171.625 C 116.632812 171.652344 116.566406 171.636719 116.527344 171.59375 C 116.152344 171.1875 115.738281 170.835938 115.285156 170.550781 C 114.828125 170.269531 114.34375 170.042969 113.835938 169.890625 C 113.332031 169.730469 112.800781 169.644531 112.269531 169.617188 C 112.136719 169.609375 112.007812 169.625 111.871094 169.628906 C 111.53125 169.863281 111.203125 170.128906 110.890625 170.421875 C 111.078125 170.40625 111.265625 170.398438 111.449219 170.402344 C 111.808594 170.417969 112.167969 170.457031 112.507812 170.554688 C 112.851562 170.640625 113.1875 170.765625 113.5 170.949219 C 113.558594 170.988281 113.582031 171.070312 113.542969 171.132812 C 113.515625 171.179688 113.46875 171.199219 113.417969 171.199219 L 112.417969 171.121094 C 112.085938 171.105469 111.761719 171.085938 111.4375 171.085938 C 111.109375 171.078125 110.785156 171.089844 110.457031 171.09375 L 110.226562 171.105469 C 109.71875 171.675781 109.257812 172.296875 108.851562 172.929688 Z M 38.035156 212.289062 C 37.742188 208.863281 38.90625 205.332031 41.1875 202.757812 C 43.578125 200.0625 47.152344 198.304688 48.609375 195.007812 C 50.238281 191.304688 48.628906 187.082031 48.152344 183.0625 C 48.027344 182.039062 47.992188 181.003906 48.035156 179.976562 C 47.902344 180.648438 47.808594 181.324219 47.773438 182.011719 C 47.578125 184.558594 47.894531 187.171875 47.503906 189.800781 C 47.304688 191.109375 46.921875 192.398438 46.28125 193.570312 C 45.636719 194.726562 44.695312 195.757812 43.507812 196.363281 C 43.441406 196.398438 43.363281 196.371094 43.332031 196.304688 C 43.296875 196.246094 43.324219 196.167969 43.382812 196.132812 C 44.484375 195.496094 45.316406 194.480469 45.875 193.351562 C 46.445312 192.226562 46.777344 190.980469 46.933594 189.722656 C 47.242188 187.191406 46.933594 184.597656 47.089844 181.964844 C 47.207031 180.097656 47.679688 178.246094 48.472656 176.546875 C 49.699219 170.71875 53.371094 165.371094 58.558594 162.410156 C 64.125 159.230469 71.246094 158.199219 75.472656 153.378906 C 81.390625 146.625 90.65625 142.960938 99.59375 143.835938 C 104.886719 144.351562 109.976562 146.464844 114.1875 149.707031 C 122.441406 144.664062 133.589844 150.792969 138.660156 156.773438 C 144.121094 163.210938 145.183594 173.035156 141.21875 180.488281 C 140.070312 182.660156 138.507812 184.714844 138.160156 187.148438 C 137.808594 189.582031 139.527344 192.09375 141.984375 192.046875 C 140.03125 194.035156 136.664062 194.144531 134.246094 192.757812 C 133.238281 192.179688 132.390625 191.382812 131.683594 190.46875 C 131.464844 200.542969 131.886719 219.667969 137.671875 229.035156 C 145.742188 242.101562 136.894531 261.128906 136.894531 261.128906 C 136.894531 261.128906 94.019531 260.425781 87 244.886719 C 85.050781 240.566406 82.980469 231.597656 82.308594 221.546875 C 82.304688 223.945312 82.148438 226.375 81.339844 228.695312 C 80.859375 230.027344 80.144531 231.273438 79.214844 232.34375 C 78.078125 235.652344 75.988281 238.636719 72.890625 240.15625 C 69.648438 241.746094 65.820312 241.519531 62.273438 240.847656 C 58.726562 240.175781 55.207031 239.386719 51.613281 239.046875 C 47.773438 238.683594 44.816406 238.65625 40.855469 240.613281 C 39.871094 238.707031 39.65625 236.398438 39.960938 232.605469 C 40.183594 229.832031 40.988281 226.925781 41.835938 224.144531 C 41.019531 223.34375 40.320312 222.417969 39.757812 221.410156 C 39 220.050781 38.511719 218.539062 38.304688 216.992188 C 38.191406 216.007812 38.207031 215.011719 38.324219 214.03125 C 38.191406 213.457031 38.085938 212.875 38.035156 212.289062 Z M 264.445312 118.710938 L 264.445312 120.761719 L 272.988281 120.761719 L 272.988281 118.710938 Z M 264.445312 136.214844 L 275.839844 136.214844 L 275.839844 134.164062 L 264.445312 134.164062 Z M 273.167969 133.769531 L 281.390625 133.769531 L 281.390625 131.71875 L 273.167969 131.71875 Z M 264.445312 133.769531 L 272.988281 133.769531 L 272.988281 131.71875 L 264.445312 131.71875 Z M 264.445312 131.324219 L 279.832031 131.324219 L 279.832031 129.273438 L 264.445312 129.273438 Z M 264.445312 128.097656 L 275.839844 128.097656 L 275.839844 126.046875 L 264.445312 126.046875 Z M 283.257812 123.601562 L 273.167969 123.601562 L 273.167969 125.65625 L 283.257812 125.65625 Z M 264.445312 125.65625 L 272.988281 125.65625 L 272.988281 123.601562 L 264.445312 123.601562 Z M 264.445312 123.207031 L 279.832031 123.207031 L 279.832031 121.15625 L 264.445312 121.15625 Z M 242.515625 117.199219 L 259.460938 117.199219 L 259.460938 115.148438 L 242.515625 115.148438 Z M 257.902344 97.09375 L 242.515625 97.09375 L 242.515625 99.144531 L 257.902344 99.144531 Z M 242.515625 114.835938 L 253.910156 114.835938 L 253.910156 112.785156 L 242.515625 112.785156 Z M 259.460938 110.339844 L 251.238281 110.339844 L 251.238281 112.390625 L 259.460938 112.390625 Z M 242.515625 112.390625 L 251.054688 112.390625 L 251.054688 110.339844 L 242.515625 110.339844 Z M 242.515625 109.945312 L 257.902344 109.945312 L 257.902344 107.894531 L 242.515625 107.894531 Z M 242.515625 106.722656 L 253.910156 106.722656 L 253.910156 104.667969 L 242.515625 104.667969 Z M 261.328125 102.222656 L 251.238281 102.222656 L 251.238281 104.273438 L 261.328125 104.273438 Z M 242.515625 104.273438 L 251.054688 104.273438 L 251.054688 102.222656 L 242.515625 102.222656 Z M 242.515625 101.832031 L 257.902344 101.832031 L 257.902344 99.78125 L 242.515625 99.78125 Z M 280.296875 94.15625 L 264.910156 94.15625 L 264.910156 96.207031 L 280.296875 96.207031 Z M 276.304688 91.730469 L 264.910156 91.730469 L 264.910156 93.785156 L 276.304688 93.785156 Z M 273.632812 91.335938 L 281.855469 91.335938 L 281.855469 89.285156 L 273.632812 89.285156 Z M 273.453125 89.285156 L 264.910156 89.285156 L 264.910156 91.335938 L 273.453125 91.335938 Z M 280.296875 86.84375 L 264.910156 86.84375 L 264.910156 88.894531 L 280.296875 88.894531 Z M 276.304688 83.617188 L 264.910156 83.617188 L 264.910156 85.667969 L 276.304688 85.667969 Z M 273.632812 83.21875 L 283.722656 83.21875 L 283.722656 81.167969 L 273.632812 81.167969 Z M 273.453125 81.167969 L 264.910156 81.167969 L 264.910156 83.21875 L 273.453125 83.21875 Z M 280.296875 78.726562 L 264.910156 78.726562 L 264.910156 80.777344 L 280.296875 80.777344 Z M 282.476562 99.144531 L 266.15625 99.144531 L 266.15625 115.46875 L 282.476562 115.46875 Z M 284.527344 117.519531 L 264.105469 117.519531 L 264.105469 97.09375 L 284.527344 97.09375 Z M 260.542969 120.761719 L 244.226562 120.761719 L 244.226562 133.839844 L 260.542969 133.839844 Z M 262.597656 135.890625 L 242.175781 135.890625 L 242.175781 118.710938 L 262.597656 118.710938 Z M 260.542969 80.777344 L 244.226562 80.777344 L 244.226562 94.15625 L 260.542969 94.15625 Z M 262.597656 96.207031 L 242.175781 96.207031 L 242.175781 78.726562 L 262.597656 78.726562 Z M 278.015625 196.371094 L 266.625 196.371094 L 266.625 198.425781 L 278.015625 198.425781 Z M 285.433594 193.925781 L 275.34375 193.925781 L 275.34375 195.976562 L 285.433594 195.976562 Z M 266.625 195.976562 L 275.160156 195.976562 L 275.160156 193.925781 L 266.625 193.925781 Z M 282.011719 191.484375 L 266.625 191.484375 L 266.625 193.535156 L 282.011719 193.535156 Z M 266.625 183.921875 L 278.015625 183.921875 L 278.015625 181.871094 L 266.625 181.871094 Z M 285.433594 179.421875 L 275.34375 179.421875 L 275.34375 181.476562 L 285.433594 181.476562 Z M 266.625 181.476562 L 275.160156 181.476562 L 275.160156 179.421875 L 266.625 179.421875 Z M 282.011719 176.976562 L 266.625 176.976562 L 266.625 179.027344 L 282.011719 179.027344 Z M 266.625 169.417969 L 278.015625 169.417969 L 278.015625 167.363281 L 266.625 167.363281 Z M 285.433594 164.921875 L 275.34375 164.921875 L 275.34375 166.972656 L 285.433594 166.972656 Z M 266.625 166.972656 L 275.160156 166.972656 L 275.160156 164.921875 L 266.625 164.921875 Z M 282.011719 162.476562 L 266.625 162.476562 L 266.625 164.527344 L 282.011719 164.527344 Z M 253.742188 198.820312 L 261.472656 198.820312 L 261.472656 191.085938 L 253.742188 191.085938 Z M 251.691406 189.035156 L 263.523438 189.035156 L 263.523438 200.871094 L 251.691406 200.871094 Z M 261.472656 176.585938 L 253.742188 176.585938 L 253.742188 184.3125 L 261.472656 184.3125 Z M 263.523438 186.367188 L 251.691406 186.367188 L 251.691406 174.535156 L 263.523438 174.535156 Z M 261.472656 162.082031 L 253.742188 162.082031 L 253.742188 169.8125 L 261.472656 169.8125 Z M 263.523438 171.863281 L 251.691406 171.863281 L 251.691406 160.03125 L 263.523438 160.03125 Z M 240.824219 196.371094 L 229.433594 196.371094 L 229.433594 198.425781 L 240.824219 198.425781 Z M 238.15625 195.976562 L 248.246094 195.976562 L 248.246094 193.925781 L 238.15625 193.925781 Z M 237.972656 193.925781 L 229.433594 193.925781 L 229.433594 195.976562 L 237.972656 195.976562 Z M 244.820312 191.484375 L 229.433594 191.484375 L 229.433594 193.535156 L 244.820312 193.535156 Z M 240.824219 167.363281 L 229.433594 167.363281 L 229.433594 169.417969 L 240.824219 169.417969 Z M 238.15625 166.972656 L 248.246094 166.972656 L 248.246094 164.921875 L 238.15625 164.921875 Z M 237.972656 164.921875 L 229.433594 164.921875 L 229.433594 166.972656 L 237.972656 166.972656 Z M 244.820312 162.476562 L 229.433594 162.476562 L 229.433594 164.527344 L 244.820312 164.527344 Z M 216.554688 198.820312 L 224.28125 198.820312 L 224.28125 191.085938 L 216.554688 191.085938 Z M 214.503906 189.035156 L 226.332031 189.035156 L 226.332031 200.871094 L 214.503906 200.871094 Z M 224.28125 162.082031 L 216.554688 162.082031 L 216.554688 169.8125 L 224.28125 169.8125 Z M 226.332031 171.863281 L 214.503906 171.863281 L 214.503906 160.03125 L 226.332031 160.03125 Z M 222.667969 75.035156 L 171.980469 75.035156 L 171.980469 139.582031 L 222.667969 139.582031 Z M 308.863281 357.980469 C 308.863281 363.308594 236.160156 367.628906 146.476562 367.628906 C 56.792969 367.628906 -15.910156 363.308594 -15.910156 357.980469 C -15.910156 353.3125 39.875 349.417969 113.992188 348.523438 L 97.171875 306.730469 C 96.820312 305.839844 97.253906 304.832031 98.144531 304.480469 C 99.035156 304.128906 100.039062 304.5625 100.394531 305.453125 L 117.707031 348.480469 C 127.046875 348.382812 136.65625 348.332031 146.476562 348.332031 C 177.273438 348.332031 206.066406 348.839844 230.605469 349.722656 L 231.578125 354.089844 L 253.769531 354.089844 L 253.011719 350.695312 C 287.230469 352.464844 308.863281 355.070312 308.863281 357.980469 " fill-opacity="1" fill-rule="nonzero"/></g><path fill="#ffffff" d="M 178.730469 133.195312 L 204.933594 133.195312 L 204.933594 132.511719 L 178.730469 132.511719 Z M 215.917969 128.34375 L 178.730469 128.34375 L 178.730469 129.027344 L 215.917969 129.027344 Z M 215.917969 124.171875 L 178.730469 124.171875 L 178.730469 124.855469 L 215.917969 124.855469 Z M 215.917969 120.003906 L 178.730469 120.003906 L 178.730469 120.6875 L 215.917969 120.6875 Z M 215.917969 115.832031 L 178.730469 115.832031 L 178.730469 116.515625 L 215.917969 116.515625 Z M 215.917969 111.660156 L 178.730469 111.660156 L 178.730469 112.34375 L 215.917969 112.34375 Z M 215.574219 83.398438 L 179.070312 83.398438 L 179.070312 106.964844 L 215.574219 106.964844 Z M 216.257812 107.648438 L 178.386719 107.648438 L 178.386719 82.714844 L 216.257812 82.714844 Z M 224.964844 161.398438 L 215.871094 161.398438 L 215.871094 170.496094 L 224.964844 170.496094 Z M 186.871094 178.246094 L 186.386719 177.761719 L 181.734375 182.414062 L 180.070312 180.746094 L 179.589844 181.230469 L 181.734375 183.378906 Z M 187.777344 184.996094 L 178.679688 184.996094 L 178.679688 175.902344 L 187.777344 175.902344 Z M 284.75 165.605469 L 276.027344 165.605469 L 276.027344 166.289062 L 284.75 166.289062 Z M 284.75 180.109375 L 276.027344 180.109375 L 276.027344 180.792969 L 284.75 180.792969 Z M 284.75 194.609375 L 276.027344 194.609375 L 276.027344 195.292969 L 284.75 195.292969 Z M 277.332031 197.058594 L 267.308594 197.058594 L 267.308594 197.742188 L 277.332031 197.742188 Z M 262.839844 160.714844 L 252.375 160.714844 L 252.375 171.179688 L 262.839844 171.179688 Z M 262.839844 175.21875 L 252.375 175.21875 L 252.375 185.679688 L 262.839844 185.679688 Z M 262.839844 189.71875 L 252.375 189.71875 L 252.375 200.1875 L 262.839844 200.1875 Z M 247.5625 165.605469 L 238.839844 165.605469 L 238.839844 166.289062 L 247.5625 166.289062 Z M 247.5625 180.109375 L 238.839844 180.109375 L 238.839844 180.792969 L 247.5625 180.792969 Z M 247.5625 194.609375 L 238.839844 194.609375 L 238.839844 195.292969 L 247.5625 195.292969 Z M 240.140625 197.058594 L 230.117188 197.058594 L 230.117188 197.742188 L 240.140625 197.742188 Z M 225.648438 160.714844 L 215.1875 160.714844 L 215.1875 171.179688 L 225.648438 171.179688 Z M 225.648438 175.21875 L 215.1875 175.21875 L 215.1875 185.679688 L 225.648438 185.679688 Z M 225.648438 189.71875 L 215.1875 189.71875 L 215.1875 200.1875 L 225.648438 200.1875 Z M 210.371094 165.605469 L 201.648438 165.605469 L 201.648438 166.289062 L 210.371094 166.289062 Z M 210.371094 180.109375 L 201.648438 180.109375 L 201.648438 180.792969 L 210.371094 180.792969 Z M 210.371094 194.609375 L 201.648438 194.609375 L 201.648438 195.292969 L 210.371094 195.292969 Z M 202.953125 197.058594 L 192.925781 197.058594 L 192.925781 197.742188 L 202.953125 197.742188 Z M 188.460938 160.714844 L 177.996094 160.714844 L 177.996094 171.179688 L 188.460938 171.179688 Z M 188.460938 175.21875 L 177.996094 175.21875 L 177.996094 185.679688 L 188.460938 185.679688 Z M 188.460938 189.71875 L 177.996094 189.71875 L 177.996094 200.1875 L 188.460938 200.1875 Z M 192.925781 195.292969 L 200.101562 195.292969 L 200.101562 194.609375 L 192.925781 194.609375 Z M 192.925781 192.851562 L 206.949219 192.851562 L 206.949219 192.167969 L 192.925781 192.167969 Z M 192.925781 183.238281 L 202.953125 183.238281 L 202.953125 182.554688 L 192.925781 182.554688 Z M 192.925781 180.792969 L 200.101562 180.792969 L 200.101562 180.109375 L 192.925781 180.109375 Z M 192.925781 178.34375 L 206.949219 178.34375 L 206.949219 177.660156 L 192.925781 177.660156 Z M 192.925781 168.730469 L 202.953125 168.730469 L 202.953125 168.046875 L 192.925781 168.046875 Z M 192.925781 166.289062 L 200.101562 166.289062 L 200.101562 165.605469 L 192.925781 165.605469 Z M 192.925781 163.84375 L 206.949219 163.84375 L 206.949219 163.160156 L 192.925781 163.160156 Z M 230.117188 195.292969 L 237.289062 195.292969 L 237.289062 194.609375 L 230.117188 194.609375 Z M 230.117188 192.851562 L 244.136719 192.851562 L 244.136719 192.167969 L 230.117188 192.167969 Z M 230.117188 183.238281 L 240.140625 183.238281 L 240.140625 182.554688 L 230.117188 182.554688 Z M 230.117188 180.792969 L 237.289062 180.792969 L 237.289062 180.109375 L 230.117188 180.109375 Z M 230.117188 178.34375 L 244.136719 178.34375 L 244.136719 177.660156 L 230.117188 177.660156 Z M 230.117188 168.730469 L 240.140625 168.730469 L 240.140625 168.046875 L 230.117188 168.046875 Z M 230.117188 166.289062 L 237.289062 166.289062 L 237.289062 165.605469 L 230.117188 165.605469 Z M 230.117188 163.84375 L 244.136719 163.84375 L 244.136719 163.160156 L 230.117188 163.160156 Z M 267.308594 195.292969 L 274.476562 195.292969 L 274.476562 194.609375 L 267.308594 194.609375 Z M 267.308594 192.851562 L 281.328125 192.851562 L 281.328125 192.167969 L 267.308594 192.167969 Z M 267.308594 183.238281 L 277.332031 183.238281 L 277.332031 182.554688 L 267.308594 182.554688 Z M 267.308594 180.792969 L 274.476562 180.792969 L 274.476562 180.109375 L 267.308594 180.109375 Z M 267.308594 178.34375 L 281.328125 178.34375 L 281.328125 177.660156 L 267.308594 177.660156 Z M 267.308594 168.730469 L 277.332031 168.730469 L 277.332031 168.046875 L 267.308594 168.046875 Z M 267.308594 166.289062 L 274.476562 166.289062 L 274.476562 165.605469 L 267.308594 165.605469 Z M 267.308594 163.84375 L 281.328125 163.84375 L 281.328125 163.160156 L 267.308594 163.160156 Z M 291.105469 206.78125 L 171.980469 206.78125 L 171.980469 152.191406 L 291.105469 152.191406 Z M 186.871094 192.75 L 186.386719 192.265625 L 181.734375 196.914062 L 180.070312 195.25 L 179.589844 195.734375 L 181.734375 197.882812 Z M 187.777344 199.503906 L 178.679688 199.503906 L 178.679688 190.402344 L 187.777344 190.402344 Z M 224.964844 190.402344 L 215.871094 190.402344 L 215.871094 199.503906 L 224.964844 199.503906 Z M 224.058594 178.246094 L 223.574219 177.761719 L 218.925781 182.414062 L 217.261719 180.746094 L 216.777344 181.230469 L 218.925781 183.378906 Z M 224.964844 184.996094 L 215.871094 184.996094 L 215.871094 175.902344 L 224.964844 175.902344 Z M 262.15625 190.402344 L 253.058594 190.402344 L 253.058594 199.503906 L 262.15625 199.503906 Z M 262.15625 175.902344 L 253.058594 175.902344 L 253.058594 184.996094 L 262.15625 184.996094 Z M 262.15625 161.398438 L 253.058594 161.398438 L 253.058594 170.496094 L 262.15625 170.496094 Z M 186.871094 163.742188 L 186.386719 163.261719 L 181.734375 167.90625 L 180.070312 166.242188 L 179.589844 166.726562 L 181.734375 168.875 Z M 187.777344 170.496094 L 178.679688 170.496094 L 178.679688 161.398438 L 187.777344 161.398438 Z M 311.636719 217.75 C 311.585938 217.714844 311.535156 217.679688 311.480469 217.644531 L 311.480469 217.640625 C 311 217.308594 310.414062 217.109375 309.777344 217.109375 L 166.660156 217.109375 C 165.199219 217.109375 163.953125 218.152344 163.695312 219.585938 L 144.238281 327.828125 C 144.019531 329.050781 144.570312 330.203125 145.515625 330.847656 L 148.394531 332.878906 L 150.617188 331.371094 L 226.503906 331.371094 L 221.769531 310.1875 L 243.957031 310.1875 L 248.691406 331.371094 L 290.320312 331.371094 C 291.777344 331.371094 293.027344 330.324219 293.285156 328.890625 L 312.640625 221.207031 L 314.617188 219.859375 Z M 116.265625 307.550781 C 116.515625 307.550781 116.75 307.441406 116.90625 307.253906 C 117.246094 306.859375 117.554688 306.402344 117.878906 305.828125 C 118.132812 305.382812 118.367188 304.875 118.59375 304.273438 C 118.816406 303.65625 118.964844 303.136719 119.058594 302.636719 C 119.1875 302 119.25 301.441406 119.253906 300.921875 C 119.257812 300.566406 119.03125 300.25 118.691406 300.136719 L 118.546875 300.101562 L 118.441406 300.101562 C 118.085938 300.101562 117.773438 300.328125 117.664062 300.664062 L 117.1875 302.128906 L 117.082031 302.425781 C 116.953125 302.804688 116.820312 303.179688 116.671875 303.5625 C 116.527344 303.945312 116.371094 304.324219 116.214844 304.703125 L 116.113281 304.953125 L 115.492188 306.382812 C 115.351562 306.726562 115.441406 307.117188 115.726562 307.355469 C 115.878906 307.484375 116.066406 307.550781 116.265625 307.550781 Z M 104.570312 315.832031 L 104.828125 315.460938 C 105.933594 313.855469 106.933594 312.230469 107.800781 310.625 C 109.140625 308.152344 110.332031 305.457031 111.347656 302.605469 C 112.335938 299.726562 113.089844 296.875 113.578125 294.132812 C 114.101562 291.261719 114.378906 288.328125 114.414062 285.414062 C 114.417969 284.976562 114.082031 284.621094 113.601562 284.589844 C 113.171875 284.589844 112.816406 284.925781 112.789062 285.351562 C 112.613281 288.136719 112.234375 290.964844 111.667969 293.765625 C 111.078125 296.648438 110.320312 299.394531 109.410156 301.933594 C 108.519531 304.5 107.394531 307.113281 106.054688 309.703125 C 105.363281 311.039062 104.589844 312.40625 103.742188 313.777344 L 104.058594 314.566406 C 104.121094 314.703125 104.261719 315.074219 104.261719 315.074219 C 104.464844 315.523438 104.570312 315.832031 104.570312 315.832031 Z M 54.691406 290.1875 C 54.5625 290.113281 54.421875 290.070312 54.269531 290.070312 C 53.988281 290.070312 53.71875 290.222656 53.574219 290.464844 C 53.136719 291.191406 52.738281 291.925781 52.273438 292.796875 C 52.003906 293.304688 51.75 293.820312 51.492188 294.332031 C 51.355469 294.609375 51.21875 294.882812 51.070312 295.179688 L 50.722656 295.921875 C 50.464844 296.46875 50.207031 297.019531 49.960938 297.578125 C 49.621094 298.355469 49.261719 299.183594 48.9375 300.050781 C 48.796875 300.429688 48.949219 300.855469 49.292969 301.0625 C 49.421875 301.140625 49.574219 301.183594 49.722656 301.183594 C 50.019531 301.183594 50.292969 301.023438 50.441406 300.777344 C 50.921875 299.976562 51.363281 299.148438 51.738281 298.429688 C 52.015625 297.894531 52.285156 297.347656 52.554688 296.808594 L 52.925781 296.046875 C 53.054688 295.765625 53.1875 295.480469 53.316406 295.203125 C 53.558594 294.683594 53.796875 294.164062 54.023438 293.640625 C 54.421875 292.734375 54.742188 291.964844 55.035156 291.167969 C 55.171875 290.804688 55.027344 290.390625 54.691406 290.1875 Z M 57.230469 247.582031 C 55.804688 246.128906 54.179688 244.996094 52.402344 244.210938 L 52.21875 244.144531 L 52.074219 244.144531 C 51.765625 244.144531 51.476562 244.324219 51.34375 244.601562 C 51.246094 244.796875 51.234375 245.015625 51.304688 245.222656 C 51.378906 245.429688 51.523438 245.59375 51.71875 245.691406 C 54.691406 247.128906 57.226562 249.8125 58.863281 253.234375 C 60.378906 256.425781 61.132812 260.015625 61.035156 263.636719 C 60.972656 266.84375 60.324219 270.335938 59.058594 274.316406 C 57.949219 277.792969 56.503906 281.25 55.113281 284.59375 L 55.074219 284.679688 C 54.902344 285.097656 55.085938 285.574219 55.5 285.761719 L 55.699219 285.839844 L 55.847656 285.839844 C 56.175781 285.839844 56.472656 285.652344 56.609375 285.355469 C 58.136719 282.066406 59.722656 278.550781 60.933594 274.925781 C 62.289062 270.890625 62.992188 267.207031 63.085938 263.675781 C 63.152344 259.664062 62.296875 255.757812 60.605469 252.378906 C 59.683594 250.546875 58.550781 248.933594 57.230469 247.582031 Z M 102.242188 276.996094 L 102.347656 276.996094 L 102.402344 276.988281 C 102.757812 276.929688 103.0625 276.683594 103.195312 276.347656 C 103.273438 276.144531 111.085938 255.890625 108.742188 236.382812 L 108.046875 236.335938 L 106.679688 236.273438 L 106.671875 236.34375 L 106.6875 236.4375 C 108.644531 252.277344 103.679688 268.6875 101.882812 273.929688 L 73.664062 239.730469 C 73.414062 239.882812 73.15625 240.023438 72.890625 240.15625 C 72.515625 240.335938 72.136719 240.496094 71.75 240.632812 L 101.449219 276.625 C 101.644531 276.859375 101.933594 276.996094 102.242188 276.996094 Z M 135.1875 349.234375 L 174.410156 363.871094 L 106.011719 363.871094 L 88.300781 351.167969 C 89.203125 351.210938 90.15625 351.203125 91.164062 351.097656 C 97.203125 350.472656 98.695312 349.488281 98.996094 349.234375 L 99.316406 349.234375 L 104.734375 350.628906 C 106 350.953125 107.320312 350.371094 107.945312 349.234375 L 114.277344 349.234375 L 114.925781 350.839844 C 115.015625 351.066406 115.164062 351.269531 115.351562 351.421875 L 117.367188 353.046875 C 117.558594 353.199219 117.839844 353.085938 117.875 352.847656 L 118.230469 350.277344 C 118.261719 350.035156 118.234375 349.792969 118.144531 349.5625 L 118.011719 349.234375 L 135.1875 349.234375 " fill-opacity="1" fill-rule="nonzero"/><path fill="#ffc897" d="M 143.625 257.894531 C 140.511719 254.070312 138.464844 249.128906 135.957031 244.585938 C 137.738281 241.96875 138.25 238.597656 140.148438 236.042969 C 142.308594 233.140625 146.011719 231.667969 148.066406 228.6875 C 149.691406 226.324219 150.058594 223.273438 149.671875 220.429688 C 149.539062 219.464844 149.324219 218.515625 149.0625 217.582031 C 149.296875 216.722656 149.152344 215.621094 148.707031 214.898438 C 148.539062 214.921875 148.371094 214.949219 148.203125 214.976562 C 147.90625 214.164062 147.589844 213.355469 147.265625 212.554688 C 147.398438 212.4375 147.5 212.3125 147.558594 212.175781 C 147.980469 211.203125 147.535156 209.65625 146.554688 209.246094 C 145.726562 208.898438 144.894531 208.570312 144.054688 208.257812 C 146.339844 208.519531 147.523438 205.964844 145.902344 204.066406 C 144.035156 201.875 140.652344 200.109375 138.378906 198.3125 C 137.855469 197.894531 137.316406 197.472656 136.671875 197.285156 C 136.03125 197.101562 135.257812 197.207031 134.832031 197.722656 C 134.097656 198.601562 134.78125 199.910156 135.464844 200.832031 C 137.4375 203.507812 139.566406 206.277344 142.527344 207.722656 C 140.371094 206.984375 138.1875 206.347656 135.96875 205.835938 C 135.269531 206.363281 135.101562 207.402344 135.386719 208.230469 C 135.667969 209.066406 136.300781 209.726562 136.972656 210.296875 C 137.6875 210.90625 138.464844 211.4375 139.285156 211.894531 C 139.25 211.910156 139.214844 211.925781 139.179688 211.945312 C 138.625 212.265625 138.113281 212.640625 137.636719 213.0625 C 137.71875 212.554688 137.660156 212.058594 137.398438 211.625 C 134.578125 212.082031 131.746094 211.808594 128.914062 211.421875 C 124.699219 220.207031 121.96875 229.703125 120.875 239.382812 C 120.175781 241.339844 119.953125 243.289062 120.832031 244.828125 C 120.828125 244.828125 120.824219 244.828125 120.820312 244.828125 C 126.445312 257.386719 132.070312 269.945312 137.699219 282.503906 C 141.027344 289.9375 144.378906 297.390625 148.445312 304.4375 L 154.605469 270.164062 C 150.757812 266.246094 147.089844 262.148438 143.625 257.894531 Z M 261.226562 120.078125 L 243.542969 120.078125 L 243.542969 134.523438 L 261.226562 134.523438 Z M 283.84375 97.777344 L 264.789062 97.777344 L 264.789062 116.835938 L 283.84375 116.835938 Z M 282.574219 124.285156 L 273.851562 124.285156 L 273.851562 124.972656 L 282.574219 124.972656 Z M 280.707031 132.402344 L 273.851562 132.402344 L 273.851562 133.085938 L 280.707031 133.085938 Z M 265.128906 132.402344 L 265.128906 133.085938 L 272.304688 133.085938 L 272.304688 132.402344 Z M 265.128906 129.957031 L 265.128906 130.640625 L 279.148438 130.640625 L 279.148438 129.957031 Z M 265.128906 126.730469 L 265.128906 127.414062 L 275.15625 127.414062 L 275.15625 126.730469 Z M 265.128906 124.285156 L 265.128906 124.972656 L 272.304688 124.972656 L 272.304688 124.285156 Z M 272.304688 120.078125 L 272.304688 119.394531 L 265.128906 119.394531 L 265.128906 120.078125 Z M 265.128906 121.839844 L 265.128906 122.523438 L 279.148438 122.523438 L 279.148438 121.839844 Z M 275.15625 134.847656 L 265.128906 134.847656 L 265.128906 135.53125 L 275.15625 135.53125 Z M 261.910156 79.410156 L 242.859375 79.410156 L 242.859375 95.523438 L 261.910156 95.523438 Z M 243.199219 115.832031 L 243.199219 116.515625 L 258.777344 116.515625 L 258.777344 115.832031 Z M 243.199219 113.46875 L 243.199219 114.152344 L 253.226562 114.152344 L 253.226562 113.46875 Z M 243.199219 111.023438 L 243.199219 111.707031 L 250.371094 111.707031 L 250.371094 111.023438 Z M 251.921875 111.023438 L 251.921875 111.707031 L 258.777344 111.707031 L 258.777344 111.023438 Z M 243.199219 108.578125 L 243.199219 109.261719 L 257.21875 109.261719 L 257.21875 108.578125 Z M 243.199219 105.351562 L 243.199219 106.039062 L 253.226562 106.039062 L 253.226562 105.351562 Z M 243.199219 102.90625 L 243.199219 103.589844 L 250.371094 103.589844 L 250.371094 102.90625 Z M 243.199219 100.464844 L 243.199219 101.148438 L 257.21875 101.148438 L 257.21875 100.464844 Z M 251.921875 102.90625 L 251.921875 103.589844 L 260.644531 103.589844 L 260.644531 102.90625 Z M 257.21875 97.777344 L 243.199219 97.777344 L 243.199219 98.460938 L 257.21875 98.460938 Z M 261.910156 119.394531 L 242.859375 119.394531 L 242.859375 135.207031 L 261.910156 135.207031 Z M 265.59375 95.523438 L 279.613281 95.523438 L 279.613281 94.839844 L 265.59375 94.839844 Z M 265.59375 93.101562 L 275.621094 93.101562 L 275.621094 92.414062 L 265.59375 92.414062 Z M 265.59375 90.652344 L 272.769531 90.652344 L 272.769531 89.96875 L 265.59375 89.96875 Z M 274.316406 89.96875 L 274.316406 90.652344 L 281.171875 90.652344 L 281.171875 89.96875 Z M 265.59375 88.210938 L 279.613281 88.210938 L 279.613281 87.527344 L 265.59375 87.527344 Z M 265.59375 84.984375 L 275.621094 84.984375 L 275.621094 84.300781 L 265.59375 84.300781 Z M 265.59375 82.535156 L 272.769531 82.535156 L 272.769531 81.851562 L 265.59375 81.851562 Z M 274.316406 81.851562 L 274.316406 82.535156 L 283.039062 82.535156 L 283.039062 81.851562 Z M 265.59375 80.09375 L 279.613281 80.09375 L 279.613281 79.410156 L 265.59375 79.410156 Z M 287.9375 75.035156 L 287.9375 139.582031 L 237.253906 139.582031 L 237.253906 75.035156 Z M 283.160156 98.460938 L 265.472656 98.460938 L 265.472656 116.152344 L 283.160156 116.152344 Z M 261.226562 80.09375 L 243.542969 80.09375 L 243.542969 94.839844 L 261.226562 94.839844 Z M 111.488281 333.019531 L 113.171875 337.199219 C 113.054688 336.957031 112.914062 336.722656 112.730469 336.519531 L 107.175781 330.355469 C 106.550781 329.660156 105.75 329.136719 104.855469 328.84375 L 95.496094 325.777344 C 93.503906 325.125 91.3125 325.691406 89.886719 327.226562 L 82.53125 335.136719 L 33.089844 333.691406 L 39.789062 320.160156 L 38.664062 317.523438 C 34.203125 307.074219 24.722656 299.613281 13.515625 297.730469 C 13.515625 297.730469 -2.917969 335.917969 -1.804688 340.003906 C -0.691406 344.085938 1.910156 355.699219 15.269531 355.699219 C 24.894531 355.699219 62.070312 351.902344 82.101562 349.78125 C 84.125 350.628906 87.269531 351.496094 91.164062 351.097656 C 98.160156 350.375 99.0625 349.167969 99.0625 349.167969 L 104.734375 350.628906 C 106.035156 350.960938 107.386719 350.347656 107.996094 349.152344 L 108.503906 348.152344 C 108.816406 347.539062 109.429688 347.132812 110.117188 347.089844 L 110.460938 347.0625 C 112.785156 346.910156 114.285156 344.539062 113.425781 342.378906 L 113.445312 338.398438 C 113.449219 338.097656 113.390625 337.808594 113.300781 337.53125 L 113.304688 337.539062 C 115.890625 337.699219 117.910156 336.269531 116.308594 334.792969 C 115.328125 333.894531 113.265625 333.34375 111.488281 333.019531 Z M 108.75 281.578125 C 108.75 277.988281 105.832031 275.070312 102.242188 275.070312 C 98.652344 275.070312 95.730469 277.988281 95.730469 281.578125 C 95.730469 285.167969 98.652344 288.085938 102.242188 288.085938 C 105.832031 288.085938 108.75 285.167969 108.75 281.578125 Z M 82.222656 202.882812 C 82.019531 202.847656 81.816406 202.808594 81.613281 202.765625 C 79.722656 206.824219 79.652344 211.476562 79.914062 215.945312 C 80.175781 220.414062 80.734375 224.929688 79.984375 229.34375 C 79.898438 229.847656 79.789062 230.347656 79.664062 230.84375 C 80.117188 230.109375 80.492188 229.320312 80.769531 228.496094 C 81.746094 225.523438 81.679688 222.316406 81.601562 219.144531 C 81.554688 215.957031 81.570312 212.765625 81.730469 209.578125 C 81.832031 207.34375 82 205.109375 82.222656 202.882812 Z M 97.660156 200.738281 C 99.046875 199.847656 100.09375 198.472656 101.019531 197.0625 C 99.085938 198.761719 96.59375 199.742188 94.019531 199.386719 C 93.074219 200.199219 92.054688 200.886719 90.984375 201.449219 C 91.59375 201.554688 92.203125 201.652344 92.8125 201.703125 C 94.515625 201.863281 96.265625 201.667969 97.660156 200.738281 Z M 131.007812 189.472656 C 130.367188 188.425781 129.882812 187.269531 129.570312 186.085938 C 128.847656 183.394531 128.847656 180.566406 128.851562 177.777344 C 128.855469 176.671875 128.820312 175.488281 128.617188 174.375 C 128.308594 174.203125 127.996094 174.042969 127.671875 173.917969 C 127.207031 173.742188 126.734375 173.597656 126.242188 173.519531 C 125.757812 173.433594 125.261719 173.40625 124.765625 173.417969 C 124.265625 173.433594 123.765625 173.511719 123.261719 173.621094 C 123.191406 173.640625 123.121094 173.597656 123.101562 173.527344 C 123.09375 173.46875 123.121094 173.410156 123.164062 173.382812 C 123.632812 173.101562 124.164062 172.929688 124.707031 172.84375 C 125.25 172.75 125.8125 172.761719 126.355469 172.84375 C 126.902344 172.9375 127.4375 173.105469 127.925781 173.367188 C 128.117188 173.46875 128.296875 173.589844 128.472656 173.714844 C 128.320312 173.140625 128.117188 172.601562 127.839844 172.109375 C 127.738281 172.085938 127.636719 172.0625 127.535156 172.042969 C 127.210938 171.988281 126.890625 171.9375 126.566406 171.917969 C 126.242188 171.890625 125.921875 171.898438 125.59375 171.90625 C 125.265625 171.921875 124.933594 171.964844 124.589844 172.007812 C 124.519531 172.015625 124.449219 171.964844 124.441406 171.890625 C 124.433594 171.839844 124.460938 171.789062 124.496094 171.761719 C 124.800781 171.554688 125.148438 171.421875 125.507812 171.335938 C 125.867188 171.246094 126.242188 171.222656 126.609375 171.238281 C 126.847656 171.253906 127.082031 171.296875 127.3125 171.351562 C 127.15625 171.167969 126.980469 170.996094 126.785156 170.835938 C 126.308594 170.777344 125.832031 170.761719 125.367188 170.824219 C 124.875 170.890625 124.394531 171.007812 123.941406 171.199219 C 123.484375 171.378906 123.054688 171.628906 122.65625 171.925781 C 122.257812 172.222656 121.902344 172.582031 121.589844 172.992188 C 121.542969 173.050781 121.460938 173.0625 121.402344 173.019531 C 121.355469 172.984375 121.339844 172.921875 121.359375 172.867188 C 121.742188 171.824219 122.648438 170.996094 123.679688 170.566406 C 124.203125 170.355469 124.761719 170.222656 125.324219 170.21875 C 125.46875 170.21875 125.609375 170.222656 125.753906 170.234375 C 123.574219 169.449219 120.46875 170.761719 119.847656 172.988281 C 119.664062 171.011719 118.09375 169.308594 116.210938 168.765625 C 116.367188 168.886719 116.523438 169.007812 116.667969 169.144531 C 117.089844 169.5625 117.453125 170.035156 117.71875 170.558594 C 117.988281 171.082031 118.179688 171.644531 118.238281 172.222656 C 118.242188 172.296875 118.191406 172.359375 118.117188 172.367188 C 118.058594 172.371094 118.003906 172.339844 117.984375 172.289062 C 117.769531 171.777344 117.519531 171.296875 117.222656 170.851562 C 116.917969 170.414062 116.582031 170 116.195312 169.636719 C 115.816406 169.265625 115.390625 168.945312 114.9375 168.660156 C 114.894531 168.632812 114.851562 168.613281 114.808594 168.589844 C 114.742188 168.589844 114.675781 168.589844 114.605469 168.59375 C 114.023438 168.640625 113.46875 168.792969 112.945312 169.023438 C 113.316406 169.054688 113.6875 169.128906 114.042969 169.238281 C 115.179688 169.601562 116.21875 170.386719 116.742188 171.449219 C 116.777344 171.511719 116.75 171.59375 116.683594 171.625 C 116.632812 171.652344 116.566406 171.636719 116.527344 171.59375 C 116.152344 171.1875 115.738281 170.835938 115.285156 170.550781 C 114.828125 170.269531 114.34375 170.042969 113.835938 169.890625 C 113.332031 169.730469 112.800781 169.644531 112.269531 169.617188 C 112.136719 169.609375 112.007812 169.625 111.871094 169.628906 C 111.53125 169.863281 111.203125 170.128906 110.890625 170.421875 C 111.078125 170.40625 111.265625 170.398438 111.449219 170.402344 C 111.808594 170.417969 112.167969 170.457031 112.507812 170.554688 C 112.851562 170.640625 113.1875 170.765625 113.5 170.949219 C 113.558594 170.988281 113.582031 171.070312 113.542969 171.132812 C 113.515625 171.179688 113.46875 171.199219 113.417969 171.199219 L 112.417969 171.121094 C 112.085938 171.105469 111.761719 171.085938 111.4375 171.085938 C 111.109375 171.078125 110.785156 171.089844 110.457031 171.09375 L 110.226562 171.105469 C 109.71875 171.675781 109.257812 172.296875 108.851562 172.929688 C 107.058594 175.695312 105.503906 178.738281 105.558594 182.035156 C 105.628906 186.042969 105.417969 190.199219 103.585938 193.765625 C 103.273438 194.378906 102.898438 194.960938 102.480469 195.503906 C 102.195312 196.101562 101.898438 196.695312 101.558594 197.269531 C 100.664062 198.796875 99.558594 200.265625 98.03125 201.304688 C 96.46875 202.355469 94.507812 202.523438 92.75 202.3125 C 91.886719 202.207031 91.042969 202.03125 90.210938 201.824219 C 89.324219 202.226562 88.402344 202.546875 87.457031 202.757812 C 87.769531 203.753906 88.121094 204.730469 88.519531 205.6875 C 89.382812 207.746094 90.433594 209.71875 91.6875 211.558594 C 92.917969 213.414062 94.355469 215.132812 95.933594 216.707031 C 97.519531 218.273438 99.253906 219.695312 101.128906 220.925781 C 101.1875 220.964844 101.203125 221.046875 101.164062 221.109375 C 101.128906 221.164062 101.054688 221.183594 100.992188 221.148438 C 99.027344 220.035156 97.1875 218.675781 95.535156 217.121094 C 93.875 215.566406 92.410156 213.816406 91.121094 211.941406 C 89.863281 210.050781 88.78125 208.035156 87.960938 205.914062 C 87.570312 204.917969 87.238281 203.894531 86.964844 202.859375 C 85.542969 203.125 84.082031 203.164062 82.613281 202.949219 C 82.480469 205.164062 82.371094 207.382812 82.304688 209.597656 C 82.21875 212.777344 82.195312 215.953125 82.28125 219.132812 C 82.332031 222.296875 82.421875 225.59375 81.339844 228.695312 C 80.859375 230.027344 80.144531 231.273438 79.214844 232.34375 C 78.351562 234.859375 76.933594 237.183594 74.941406 238.824219 C 78.125 244.144531 81.804688 249.199219 86.484375 253.242188 C 91.941406 257.953125 98.902344 261.210938 106.109375 261.128906 C 107.765625 261.105469 109.464844 260.898438 110.933594 260.140625 C 112.40625 259.375 113.621094 257.972656 113.808594 256.324219 C 114.085938 253.847656 112.089844 251.730469 110.089844 250.242188 C 108.085938 248.753906 104.714844 247.289062 104.863281 244.804688 C 105.273438 238.058594 105.597656 231.179688 106.007812 224.433594 C 109.496094 225.753906 113.367188 227.078125 116.863281 225.777344 C 120.023438 224.605469 122.0625 221.5625 123.640625 218.582031 C 128.371094 209.65625 130.886719 199.574219 131.007812 189.472656 Z M 48.144531 178.488281 L 33.15625 178.488281 L 33.15625 140.269531 C 32.925781 140.636719 32.695312 140.996094 32.472656 141.363281 L 32.472656 179.171875 L 48.09375 179.171875 C 48.113281 178.941406 48.121094 178.714844 48.144531 178.488281 Z M 84.863281 146.40625 C 85.085938 146.300781 85.316406 146.210938 85.546875 146.117188 L 85.546875 99.988281 L 66.085938 99.988281 C 65.839844 100.214844 65.601562 100.445312 65.355469 100.671875 L 84.863281 100.671875 Z M 138.894531 157.074219 C 139.082031 157.296875 139.257812 157.527344 139.429688 157.757812 L 154.980469 157.757812 L 154.980469 78.574219 L 101.90625 78.574219 L 101.90625 144.175781 C 102.132812 144.214844 102.363281 144.269531 102.589844 144.320312 L 102.589844 79.257812 L 154.296875 79.257812 L 154.296875 157.074219 Z M 99.855469 143.871094 L 99.855469 76.523438 L 157.03125 76.523438 L 157.03125 159.808594 L 140.765625 159.808594 C 140.894531 160.035156 141.023438 160.261719 141.140625 160.492188 L 157.714844 160.492188 L 157.714844 75.839844 L 100.824219 75.839844 C 100.269531 76.105469 99.71875 76.371094 99.167969 76.648438 L 99.167969 143.808594 C 99.3125 143.820312 99.449219 143.820312 99.59375 143.835938 C 99.679688 143.84375 99.765625 143.863281 99.855469 143.871094 Z M 87.617188 145.304688 C 87.84375 145.226562 88.074219 145.152344 88.300781 145.078125 L 88.300781 97.253906 L 69.105469 97.253906 C 68.851562 97.480469 68.597656 97.710938 68.34375 97.9375 L 87.617188 97.9375 Z M 48.0625 181.90625 L 29.757812 181.90625 L 29.757812 145.90625 C 29.988281 145.515625 30.210938 145.121094 30.441406 144.730469 L 30.441406 181.222656 L 48.03125 181.222656 C 48.035156 181.449219 48.046875 181.679688 48.0625 181.90625 " fill-opacity="1" fill-rule="nonzero"/><g clip-path="url(#4a896e3438)"><path fill="#5593c2" d="M 101.988281 349.054688 C 101.707031 348.773438 101.429688 348.488281 101.179688 348.179688 C 100.925781 347.878906 100.699219 347.554688 100.472656 347.222656 C 100.25 346.886719 100.054688 346.539062 99.855469 346.171875 C 99.828125 346.125 99.777344 346.097656 99.722656 346.105469 C 99.652344 346.113281 99.597656 346.175781 99.605469 346.253906 C 99.652344 346.683594 99.785156 347.101562 99.964844 347.5 C 100.039062 347.671875 100.132812 347.832031 100.226562 347.992188 C 100.1875 348.027344 100.144531 348.054688 100.109375 348.089844 C 99.972656 348.230469 99.882812 348.40625 99.820312 348.589844 C 99.765625 348.769531 99.730469 348.960938 99.753906 349.152344 C 99.769531 349.339844 99.8125 349.53125 99.921875 349.691406 C 99.941406 349.714844 99.964844 349.734375 99.996094 349.742188 C 100.070312 349.769531 100.148438 349.734375 100.179688 349.65625 L 100.183594 349.648438 C 100.242188 349.488281 100.277344 349.34375 100.328125 349.207031 C 100.378906 349.070312 100.414062 348.9375 100.464844 348.8125 C 100.5 348.710938 100.539062 348.613281 100.578125 348.511719 C 100.605469 348.542969 100.625 348.582031 100.652344 348.613281 C 100.933594 348.953125 101.246094 349.261719 101.601562 349.519531 C 101.957031 349.773438 102.335938 349.992188 102.753906 350.125 C 102.8125 350.144531 102.882812 350.125 102.925781 350.074219 C 102.976562 350.007812 102.96875 349.910156 102.902344 349.851562 C 102.585938 349.589844 102.277344 349.332031 101.988281 349.054688 Z M 109.878906 338.15625 C 110.53125 338.859375 111.132812 339.609375 111.726562 340.367188 C 112.316406 341.125 112.875 341.90625 113.433594 342.699219 C 113.46875 342.75 113.535156 342.769531 113.59375 342.742188 C 113.660156 342.710938 113.6875 342.632812 113.660156 342.570312 C 113.242188 341.683594 112.742188 340.839844 112.191406 340.027344 C 111.644531 339.210938 111.027344 338.449219 110.390625 337.703125 C 109.726562 336.980469 109.039062 336.277344 108.296875 335.636719 C 107.554688 334.996094 106.773438 334.398438 105.941406 333.878906 C 105.882812 333.839844 105.796875 333.847656 105.746094 333.90625 C 105.6875 333.972656 105.695312 334.070312 105.757812 334.125 C 106.484375 334.769531 107.199219 335.410156 107.886719 336.082031 C 108.578125 336.75 109.25 337.433594 109.878906 338.15625 Z M 99.1875 348.535156 C 99.15625 348.445312 99.125 348.355469 99.066406 348.269531 C 99.019531 348.179688 98.960938 348.089844 98.867188 348 L 98.855469 347.996094 C 98.847656 347.984375 98.832031 347.976562 98.816406 347.96875 C 98.722656 347.917969 98.605469 347.957031 98.5625 348.050781 C 98.496094 348.171875 98.484375 348.296875 98.484375 348.414062 C 98.476562 348.535156 98.507812 348.648438 98.542969 348.761719 C 98.589844 348.867188 98.636719 348.972656 98.722656 349.0625 C 98.796875 349.15625 98.886719 349.238281 99.015625 349.292969 C 99.027344 349.300781 99.039062 349.304688 99.050781 349.304688 C 99.140625 349.320312 99.226562 349.261719 99.242188 349.175781 L 99.242188 349.167969 C 99.265625 349.039062 99.257812 348.929688 99.246094 348.828125 C 99.246094 348.722656 99.214844 348.628906 99.1875 348.535156 Z M 34.46875 333.742188 C 32.554688 333.394531 30.605469 333.226562 28.65625 333.199219 C 26.703125 333.175781 24.75 333.316406 22.816406 333.578125 C 20.886719 333.871094 18.96875 334.273438 17.101562 334.84375 C 15.234375 335.410156 13.414062 336.113281 11.671875 336.980469 C 11.613281 337.007812 11.582031 337.082031 11.605469 337.144531 C 11.632812 337.210938 11.710938 337.242188 11.777344 337.21875 C 13.574219 336.507812 15.402344 335.890625 17.261719 335.398438 C 19.121094 334.902344 21.003906 334.503906 22.910156 334.253906 C 24.8125 333.972656 26.734375 333.839844 28.65625 333.804688 C 30.578125 333.773438 32.503906 333.863281 34.425781 334.050781 C 34.507812 334.058594 34.582031 334 34.59375 333.921875 C 34.609375 333.839844 34.554688 333.757812 34.46875 333.742188 Z M 81.75 349.539062 C 80.582031 348.871094 79.871094 347.433594 80.039062 346.011719 C 80.046875 345.941406 80.003906 345.867188 79.933594 345.84375 C 79.847656 345.816406 79.761719 345.863281 79.738281 345.945312 C 79.355469 347.125 79.710938 348.488281 80.566406 349.429688 C 80.101562 349.359375 79.644531 349.234375 79.21875 349.046875 C 78.484375 348.726562 77.8125 348.210938 77.488281 347.460938 C 77.464844 347.402344 77.402344 347.367188 77.339844 347.382812 C 77.273438 347.394531 77.222656 347.464844 77.238281 347.535156 C 77.324219 347.984375 77.566406 348.398438 77.871094 348.746094 C 78.183594 349.085938 78.554688 349.359375 78.957031 349.582031 C 79.761719 350.003906 80.675781 350.21875 81.597656 350.175781 C 81.710938 350.167969 81.820312 350.105469 81.878906 350.003906 C 81.972656 349.839844 81.914062 349.632812 81.75 349.539062 Z M 135.726562 245.242188 C 135.398438 245.441406 135.082031 245.640625 134.757812 245.816406 C 134.429688 245.992188 134.105469 246.164062 133.773438 246.3125 C 133.441406 246.46875 133.101562 246.597656 132.753906 246.730469 C 132.410156 246.855469 132.054688 246.964844 131.691406 247.085938 C 131.632812 247.101562 131.585938 247.15625 131.582031 247.21875 C 131.574219 247.304688 131.636719 247.382812 131.722656 247.390625 C 132.121094 247.429688 132.523438 247.390625 132.917969 247.3125 C 133.3125 247.238281 133.691406 247.101562 134.058594 246.933594 C 134.421875 246.757812 134.769531 246.550781 135.082031 246.300781 C 135.390625 246.046875 135.679688 245.765625 135.90625 245.433594 C 135.9375 245.394531 135.9375 245.335938 135.914062 245.289062 C 135.871094 245.226562 135.789062 245.207031 135.726562 245.242188 Z M 114.65625 217.652344 C 114.414062 217.640625 114.171875 217.648438 113.929688 217.648438 C 113.6875 217.652344 113.449219 217.652344 113.203125 217.664062 C 112.957031 217.675781 112.707031 217.679688 112.453125 217.714844 C 112.410156 217.722656 112.367188 217.746094 112.347656 217.789062 C 112.308594 217.851562 112.335938 217.9375 112.402344 217.972656 C 112.636719 218.105469 112.890625 218.183594 113.144531 218.242188 C 113.402344 218.304688 113.667969 218.324219 113.929688 218.328125 C 114.191406 218.328125 114.457031 218.3125 114.714844 218.253906 C 114.972656 218.199219 115.226562 218.125 115.464844 217.996094 C 115.507812 217.972656 115.542969 217.925781 115.546875 217.875 C 115.558594 217.785156 115.492188 217.703125 115.40625 217.691406 C 115.148438 217.660156 114.902344 217.660156 114.65625 217.652344 Z M 115.328125 212.070312 L 111.390625 211.835938 L 108.179688 211.597656 C 108.890625 212.417969 109.800781 213.089844 110.773438 213.621094 C 111.371094 213.945312 111.996094 214.214844 112.640625 214.429688 C 113.273438 214.640625 113.984375 214.789062 114.59375 214.835938 L 114.640625 214.839844 C 115.765625 214.332031 116.847656 213.5625 117.71875 212.660156 C 117.824219 212.554688 117.953125 212.417969 118.03125 212.320312 C 118.0625 212.28125 118.074219 212.25 118.082031 212.230469 C 118.050781 212.21875 117.933594 212.199219 117.789062 212.199219 L 117.292969 212.171875 C 116.640625 212.144531 115.984375 212.109375 115.328125 212.070312 Z M 111.4375 211.15625 L 115.367188 211.445312 C 116.027344 211.488281 116.679688 211.542969 117.335938 211.601562 L 117.824219 211.644531 C 117.976562 211.671875 118.195312 211.632812 118.457031 211.84375 C 118.585938 211.953125 118.644531 212.160156 118.605469 212.316406 C 118.570312 212.46875 118.5 212.5625 118.4375 212.640625 C 118.300781 212.792969 118.195312 212.890625 118.070312 213.015625 C 117.085938 213.953125 115.945312 214.640625 114.644531 215.117188 L 114.59375 215.136719 C 113.839844 215.121094 113.203125 215 112.523438 214.816406 C 111.84375 214.628906 111.183594 214.375 110.546875 214.066406 C 109.914062 213.75 109.304688 213.378906 108.738281 212.945312 C 108.171875 212.511719 107.644531 212.011719 107.21875 211.410156 C 107.117188 211.269531 107.152344 211.070312 107.292969 210.972656 C 107.355469 210.929688 107.425781 210.910156 107.496094 210.914062 L 107.503906 210.914062 Z M 118.433594 207.992188 C 118.871094 208.085938 119.34375 207.96875 119.734375 207.757812 C 120.121094 207.527344 120.445312 207.199219 120.679688 206.8125 C 121.144531 206.023438 121.195312 205.113281 121.144531 204.285156 C 121.082031 203.453125 120.933594 202.628906 120.675781 201.84375 C 120.425781 201.054688 120.085938 200.292969 119.640625 199.605469 C 119.605469 199.554688 119.539062 199.53125 119.480469 199.554688 C 119.410156 199.582031 119.378906 199.65625 119.40625 199.722656 C 119.695312 200.472656 119.945312 201.226562 120.121094 201.996094 C 120.292969 202.765625 120.417969 203.546875 120.464844 204.328125 C 120.519531 205.101562 120.464844 205.875 120.148438 206.519531 C 119.835938 207.148438 119.199219 207.679688 118.464844 207.6875 C 118.390625 207.6875 118.324219 207.738281 118.3125 207.808594 C 118.292969 207.890625 118.347656 207.976562 118.433594 207.992188 Z M 102.777344 188.316406 C 103.753906 187.988281 104.75 187.738281 105.757812 187.597656 C 106.769531 187.457031 107.789062 187.394531 108.804688 187.464844 C 109.820312 187.503906 110.828125 187.671875 111.816406 187.917969 C 112.804688 188.160156 113.765625 188.511719 114.707031 188.9375 C 114.773438 188.96875 114.859375 188.949219 114.898438 188.882812 C 114.945312 188.8125 114.929688 188.714844 114.855469 188.667969 C 113.972656 188.085938 112.992188 187.648438 111.980469 187.335938 C 110.960938 187.019531 109.902344 186.851562 108.839844 186.785156 C 107.773438 186.75 106.703125 186.8125 105.664062 187.03125 C 104.621094 187.242188 103.605469 187.582031 102.671875 188.074219 C 102.613281 188.105469 102.589844 188.171875 102.605469 188.230469 C 102.632812 188.300781 102.707031 188.339844 102.777344 188.316406 Z M 123.980469 190.324219 C 124.488281 189.902344 125.019531 189.539062 125.585938 189.242188 C 126.152344 188.949219 126.746094 188.714844 127.359375 188.550781 C 127.972656 188.382812 128.601562 188.289062 129.238281 188.257812 C 129.875 188.226562 130.515625 188.277344 131.160156 188.382812 C 131.230469 188.390625 131.300781 188.359375 131.332031 188.289062 C 131.367188 188.210938 131.328125 188.117188 131.25 188.085938 C 130.617188 187.816406 129.929688 187.683594 129.238281 187.652344 C 128.546875 187.621094 127.847656 187.710938 127.179688 187.894531 C 126.515625 188.082031 125.867188 188.359375 125.292969 188.746094 C 124.714844 189.125 124.191406 189.589844 123.792969 190.144531 C 123.757812 190.191406 123.757812 190.257812 123.796875 190.308594 C 123.84375 190.363281 123.929688 190.367188 123.980469 190.324219 Z M 312.867188 219.296875 L 169.75 219.296875 C 168.292969 219.296875 167.042969 220.339844 166.785156 221.773438 L 147.332031 330.011719 C 147 331.863281 148.417969 333.558594 150.296875 333.558594 L 226.644531 333.558594 L 228.832031 343.179688 C 229.117188 344.414062 229.421875 345.644531 229.710938 346.878906 L 193.835938 346.878906 L 180.828125 354.089844 L 231.421875 354.089844 C 231.425781 354.097656 231.425781 354.113281 231.429688 354.125 C 231.449219 354.203125 231.527344 354.253906 231.613281 354.238281 C 231.695312 354.222656 231.746094 354.140625 231.730469 354.054688 C 230.984375 350.382812 230.21875 346.710938 229.421875 343.046875 L 227.007812 332.066406 L 224.503906 321.097656 C 223.660156 317.457031 222.789062 313.820312 221.902344 310.1875 L 243.835938 310.1875 C 243.835938 310.195312 243.832031 310.203125 243.832031 310.214844 C 244.574219 313.890625 245.339844 317.5625 246.128906 321.226562 L 248.53125 332.210938 L 251.023438 343.179688 C 251.863281 346.832031 252.730469 350.480469 253.617188 354.125 C 253.636719 354.203125 253.71875 354.253906 253.800781 354.238281 C 253.871094 354.226562 253.914062 354.15625 253.914062 354.089844 L 272.214844 354.089844 L 259.550781 346.878906 L 252.417969 346.878906 C 252.148438 345.601562 251.886719 344.324219 251.613281 343.046875 L 249.527344 333.558594 L 293.410156 333.558594 C 294.867188 333.558594 296.117188 332.511719 296.375 331.078125 L 315.828125 222.839844 C 316.160156 220.992188 314.742188 219.296875 312.867188 219.296875 Z M 137.445312 247.390625 C 139.34375 251.089844 141.144531 254.847656 143.625 257.894531 C 147.089844 262.148438 150.757812 266.246094 154.605469 270.164062 L 155.453125 265.457031 C 150.820312 261.058594 146.371094 256.527344 143.605469 252.960938 C 142.019531 250.914062 139.867188 249.054688 137.445312 247.390625 Z M 118.570312 300.917969 C 118.570312 300.863281 118.535156 300.808594 118.480469 300.789062 C 118.410156 300.769531 118.335938 300.804688 118.3125 300.875 L 117.832031 302.351562 C 117.664062 302.835938 117.5 303.324219 117.3125 303.800781 C 117.132812 304.28125 116.9375 304.75 116.742188 305.226562 L 116.121094 306.648438 C 116.097656 306.710938 116.109375 306.785156 116.167969 306.832031 C 116.230469 306.886719 116.328125 306.878906 116.386719 306.8125 C 116.734375 306.40625 117.023438 305.957031 117.285156 305.492188 C 117.546875 305.027344 117.765625 304.539062 117.949219 304.039062 C 118.132812 303.539062 118.289062 303.027344 118.390625 302.5 C 118.496094 301.980469 118.566406 301.453125 118.570312 300.917969 Z M 62.398438 263.664062 C 62.464844 259.886719 61.691406 256.074219 59.996094 252.6875 C 59.144531 251 58.066406 249.417969 56.742188 248.0625 C 55.417969 246.714844 53.851562 245.597656 52.128906 244.839844 C 52.0625 244.808594 51.988281 244.835938 51.957031 244.898438 C 51.925781 244.964844 51.953125 245.039062 52.019531 245.074219 C 55.367188 246.695312 57.898438 249.636719 59.476562 252.941406 C 61.058594 256.265625 61.816406 259.972656 61.71875 263.648438 C 61.644531 267.34375 60.835938 270.992188 59.710938 274.523438 C 58.582031 278.058594 57.144531 281.5 55.703125 284.941406 C 55.671875 285.019531 55.707031 285.109375 55.785156 285.144531 C 55.863281 285.179688 55.953125 285.144531 55.988281 285.066406 C 57.558594 281.683594 59.097656 278.269531 60.285156 274.710938 C 61.476562 271.160156 62.300781 267.445312 62.398438 263.664062 Z M 54.339844 290.773438 C 54.277344 290.734375 54.195312 290.753906 54.15625 290.816406 C 53.703125 291.574219 53.289062 292.34375 52.875 293.117188 C 52.464844 293.894531 52.089844 294.6875 51.691406 295.464844 C 51.320312 296.261719 50.941406 297.054688 50.585938 297.855469 C 50.230469 298.65625 49.886719 299.464844 49.578125 300.289062 C 49.554688 300.355469 49.582031 300.4375 49.644531 300.476562 C 49.71875 300.519531 49.816406 300.496094 49.859375 300.421875 C 50.3125 299.667969 50.722656 298.894531 51.128906 298.117188 C 51.535156 297.339844 51.914062 296.546875 52.304688 295.761719 C 52.667969 294.964844 53.050781 294.175781 53.398438 293.371094 C 53.746094 292.566406 54.089844 291.757812 54.394531 290.929688 C 54.414062 290.871094 54.394531 290.804688 54.339844 290.773438 Z M 147.8125 303.320312 L 144.957031 305.734375 C 141.726562 315.664062 133.65625 331.464844 133.65625 331.464844 L 133.65625 348.464844 L 117.703125 348.464844 L 113.304688 337.539062 C 115.890625 337.699219 117.910156 336.269531 116.308594 334.792969 C 115.328125 333.894531 113.265625 333.34375 111.484375 333.019531 L 104.261719 315.074219 C 105.324219 313.535156 106.308594 311.945312 107.199219 310.300781 C 108.574219 307.761719 109.730469 305.105469 110.699219 302.382812 C 111.640625 299.652344 112.398438 296.851562 112.90625 294.011719 C 113.421875 291.167969 113.699219 288.289062 113.730469 285.40625 C 113.730469 285.335938 113.679688 285.277344 113.609375 285.273438 C 113.535156 285.269531 113.476562 285.324219 113.46875 285.398438 C 113.289062 288.257812 112.90625 291.097656 112.339844 293.902344 C 111.769531 296.703125 111.019531 299.46875 110.054688 302.15625 C 109.121094 304.855469 107.972656 307.480469 106.660156 310.015625 C 105.859375 311.570312 104.988281 313.082031 104.058594 314.566406 L 100.394531 305.453125 C 100.039062 304.5625 99.035156 304.128906 98.144531 304.480469 C 97.253906 304.832031 96.820312 305.839844 97.171875 306.730469 L 106.398438 329.660156 C 105.933594 329.308594 105.417969 329.027344 104.855469 328.84375 L 95.496094 325.777344 C 93.503906 325.125 91.3125 325.691406 89.886719 327.226562 L 89.617188 327.515625 C 89.617188 327.515625 89.621094 327.515625 89.621094 327.515625 C 89.667969 327.5625 89.671875 327.636719 89.632812 327.6875 C 88.832031 328.734375 87.964844 329.726562 87.078125 330.703125 C 86.191406 331.675781 85.269531 332.613281 84.351562 333.558594 C 83.414062 334.480469 82.480469 335.40625 81.519531 336.304688 C 80.558594 337.199219 79.59375 338.089844 78.59375 338.949219 C 78.527344 339.003906 78.429688 338.996094 78.375 338.929688 C 78.324219 338.871094 78.324219 338.78125 78.378906 338.726562 C 79.261719 337.75 80.179688 336.8125 81.097656 335.871094 L 81.847656 335.113281 L 58.140625 334.421875 L 49.699219 300.84375 L 39.789062 320.160156 L 38.664062 317.523438 C 34.203125 307.074219 24.722656 299.613281 13.515625 297.730469 C 13.515625 297.730469 12.855469 299.265625 11.808594 301.753906 C 10.261719 298.871094 9.082031 295.703125 8.496094 292.226562 C 8.496094 292.226562 22.175781 252.328125 40.867188 240.609375 C 44.820312 238.660156 47.773438 238.683594 51.613281 239.046875 C 55.207031 239.386719 58.726562 240.175781 62.273438 240.847656 C 65.652344 241.488281 69.28125 241.71875 72.417969 240.367188 L 101.640625 275.78125 C 98.707031 276.085938 96.414062 278.5625 96.414062 281.578125 C 96.414062 284.796875 99.023438 287.40625 102.242188 287.40625 C 105.460938 287.40625 108.066406 284.796875 108.066406 281.578125 C 108.066406 278.507812 105.691406 276 102.679688 275.773438 C 103.65625 273.132812 110.261719 254.398438 108.046875 236.335938 C 109.953125 236.445312 111.792969 236.675781 113.453125 237.09375 L 113.449219 237.085938 C 113.449219 237.085938 116.558594 237.871094 120.871094 239.390625 C 120.535156 240.335938 120.3125 241.28125 120.269531 242.179688 C 120.265625 242.230469 120.265625 242.277344 120.265625 242.328125 C 120.257812 242.523438 120.261719 242.71875 120.273438 242.914062 C 120.277344 242.945312 120.28125 242.980469 120.285156 243.015625 C 120.300781 243.191406 120.328125 243.359375 120.359375 243.53125 C 120.367188 243.5625 120.375 243.601562 120.382812 243.636719 C 120.421875 243.820312 120.476562 244.003906 120.539062 244.179688 C 120.550781 244.21875 120.570312 244.257812 120.585938 244.296875 C 120.65625 244.476562 120.734375 244.65625 120.832031 244.828125 C 120.832031 244.828125 120.824219 244.828125 120.820312 244.828125 C 126.445312 257.386719 132.070312 269.945312 137.699219 282.503906 C 138.296875 283.835938 138.894531 285.171875 139.5 286.503906 C 139.605469 286.734375 139.707031 286.96875 139.816406 287.199219 C 140.417969 288.53125 141.03125 289.859375 141.648438 291.183594 C 141.757812 291.410156 141.863281 291.640625 141.96875 291.867188 C 142.601562 293.210938 143.246094 294.546875 143.902344 295.878906 C 143.976562 296.023438 144.050781 296.167969 144.121094 296.316406 C 144.738281 297.550781 145.363281 298.777344 146.007812 299.992188 C 146.597656 301.109375 147.195312 302.222656 147.8125 303.320312 Z M 104.261719 315.074219 L 104.226562 314.976562 Z M 81.609375 223.246094 C 80.792969 222.933594 80.328125 222.742188 80.328125 222.742188 C 80.328125 222.757812 80.328125 222.773438 80.328125 222.789062 C 80.347656 223.324219 80.359375 223.859375 80.359375 224.394531 C 80.359375 224.492188 80.355469 224.589844 80.351562 224.6875 C 80.347656 225.144531 80.34375 225.59375 80.320312 226.046875 C 80.3125 226.269531 80.289062 226.496094 80.277344 226.71875 C 80.253906 227.042969 80.234375 227.371094 80.203125 227.695312 C 80.148438 228.246094 80.074219 228.796875 79.984375 229.34375 C 79.898438 229.847656 79.789062 230.347656 79.664062 230.84375 C 80.117188 230.109375 80.492188 229.320312 80.769531 228.496094 C 81.324219 226.808594 81.535156 225.039062 81.609375 223.246094 Z M 107.363281 236.351562 C 107.359375 236.335938 107.367188 236.316406 107.367188 236.300781 C 106.746094 236.273438 106.117188 236.257812 105.484375 236.257812 C 105.410156 235.492188 105.414062 235.019531 105.414062 235.019531 C 105.414062 235.019531 108.296875 232.777344 108.296875 230.964844 C 108.296875 229.15625 105.738281 229.035156 105.738281 229.035156 C 96.75 228.617188 86.449219 225.074219 82.253906 223.496094 C 82.167969 225.25 81.929688 227.003906 81.339844 228.695312 C 80.859375 230.027344 80.144531 231.273438 79.214844 232.34375 C 79.214844 232.347656 79.214844 232.347656 79.214844 232.351562 C 79.074219 232.753906 78.921875 233.152344 78.753906 233.542969 C 78.742188 233.566406 78.734375 233.589844 78.722656 233.609375 C 78.5625 233.980469 78.394531 234.34375 78.207031 234.695312 C 78.195312 234.722656 78.183594 234.746094 78.171875 234.765625 C 77.988281 235.109375 77.796875 235.441406 77.589844 235.769531 C 77.542969 235.84375 77.492188 235.917969 77.445312 235.992188 C 77.261719 236.273438 77.066406 236.550781 76.863281 236.816406 C 76.820312 236.871094 76.78125 236.925781 76.738281 236.980469 C 76.53125 237.238281 76.316406 237.492188 76.089844 237.734375 C 76 237.828125 75.910156 237.921875 75.816406 238.015625 C 75.589844 238.246094 75.359375 238.46875 75.117188 238.675781 C 75.015625 238.761719 74.910156 238.839844 74.808594 238.917969 C 74.621094 239.074219 74.421875 239.21875 74.222656 239.359375 C 74.101562 239.441406 73.980469 239.527344 73.855469 239.605469 C 73.597656 239.769531 73.332031 239.921875 73.054688 240.066406 L 102.125 275.300781 C 103.347656 271.9375 109.523438 253.800781 107.363281 236.351562 Z M 109.289062 196.28125 C 109.617188 195.167969 109.335938 194.105469 108.660156 193.90625 C 107.988281 193.707031 107.175781 194.449219 106.847656 195.5625 C 106.523438 196.671875 106.804688 197.730469 107.480469 197.933594 C 108.152344 198.128906 108.964844 197.390625 109.289062 196.28125 Z M 126.128906 193.90625 C 125.457031 193.707031 124.644531 194.449219 124.320312 195.5625 C 123.988281 196.671875 124.273438 197.730469 124.945312 197.933594 C 125.617188 198.128906 126.429688 197.390625 126.757812 196.28125 C 127.085938 195.167969 126.804688 194.105469 126.128906 193.90625 Z M 138.34375 186.253906 C 138.261719 186.546875 138.203125 186.84375 138.160156 187.148438 C 137.957031 188.542969 138.441406 189.964844 139.351562 190.914062 Z M 125.753906 214.167969 L 126.40625 217.179688 C 127.175781 215.230469 128.007812 213.3125 128.914062 211.421875 C 131.746094 211.808594 134.578125 212.082031 137.398438 211.625 C 138.21875 212.980469 137.054688 214.945312 135.820312 215.929688 C 134.578125 216.914062 132.957031 217.246094 131.402344 217.546875 C 131.636719 218.203125 131.839844 218.867188 132.039062 219.53125 C 131.898438 219.277344 131.757812 219.027344 131.601562 218.785156 C 131.566406 218.730469 131.496094 218.710938 131.4375 218.734375 C 131.371094 218.769531 131.339844 218.84375 131.371094 218.910156 C 131.921875 220.085938 132.375 221.300781 132.695312 222.546875 C 133.015625 223.792969 133.238281 225.066406 133.304688 226.347656 C 133.40625 227.628906 133.355469 228.917969 133.195312 230.195312 C 133.039062 231.46875 132.746094 232.730469 132.359375 233.96875 C 132.332031 234.042969 132.367188 234.121094 132.441406 234.15625 C 132.519531 234.191406 132.613281 234.15625 132.644531 234.078125 C 133.199219 232.878906 133.570312 231.589844 133.792969 230.28125 C 133.964844 229.257812 134.03125 228.21875 134.015625 227.179688 L 142.898438 223.910156 C 142.546875 224.359375 142.21875 224.816406 141.9375 225.304688 C 141.582031 225.921875 141.273438 226.5625 141.050781 227.238281 C 141.03125 227.304688 141.054688 227.382812 141.117188 227.421875 C 141.191406 227.464844 141.289062 227.441406 141.335938 227.367188 C 141.695312 226.773438 142.054688 226.191406 142.449219 225.632812 C 142.84375 225.074219 143.25 224.523438 143.6875 224.003906 C 143.84375 223.808594 144.011719 223.625 144.175781 223.441406 L 146.234375 222.683594 L 146 221.589844 C 146.191406 221.417969 146.378906 221.242188 146.574219 221.070312 C 146.617188 221.03125 146.628906 220.964844 146.601562 220.910156 C 146.566406 220.847656 146.488281 220.820312 146.425781 220.855469 C 146.246094 220.953125 146.082031 221.066406 145.910156 221.175781 L 145.78125 220.585938 C 145.464844 220.777344 145.183594 220.921875 144.984375 221.003906 C 142.90625 221.847656 140.441406 221.664062 138.511719 220.523438 C 137.511719 219.929688 136.578125 218.789062 137 217.707031 C 137.378906 216.742188 138.574219 216.453125 139.601562 216.292969 C 141.179688 216.054688 142.753906 215.8125 144.332031 215.566406 C 144.449219 215.558594 144.566406 215.558594 144.679688 215.542969 C 145.242188 215.488281 145.800781 215.414062 146.355469 215.28125 C 146.417969 215.265625 146.46875 215.210938 146.472656 215.136719 C 146.476562 215.054688 146.410156 214.976562 146.324219 214.976562 C 145.765625 214.941406 145.210938 214.945312 144.652344 214.941406 L 144.558594 214.941406 L 144.242188 213.480469 C 144.039062 213.480469 143.851562 213.472656 143.695312 213.445312 C 141.226562 213.019531 138.878906 211.917969 136.972656 210.296875 C 136.300781 209.726562 135.667969 209.066406 135.386719 208.230469 C 135.101562 207.402344 135.269531 206.363281 135.96875 205.835938 C 138.1875 206.347656 140.371094 206.984375 142.527344 207.722656 C 142.300781 207.613281 142.085938 207.484375 141.871094 207.359375 L 143.902344 208.441406 C 143.957031 208.472656 144.027344 208.457031 144.066406 208.40625 C 144.113281 208.351562 144.101562 208.269531 144.046875 208.226562 C 143.378906 207.691406 142.679688 207.207031 141.960938 206.746094 C 141.246094 206.28125 140.507812 205.859375 139.757812 205.453125 C 139.476562 205.308594 139.195312 205.164062 138.914062 205.023438 C 137.648438 203.746094 136.53125 202.277344 135.464844 200.832031 C 134.78125 199.910156 134.097656 198.601562 134.832031 197.722656 C 135.257812 197.207031 136.03125 197.101562 136.671875 197.285156 C 137.316406 197.472656 137.855469 197.894531 138.378906 198.3125 C 139.273438 199.019531 140.339844 199.722656 141.417969 200.449219 L 139.878906 193.347656 C 138.074219 193.960938 135.929688 193.722656 134.246094 192.757812 C 132.890625 191.980469 131.816406 190.816406 131.007812 189.472656 C 130.90625 197.945312 129.121094 206.398438 125.753906 214.167969 Z M 110.460938 347.0625 L 110.117188 347.089844 C 109.730469 347.113281 109.371094 347.265625 109.070312 347.492188 C 108.804688 347.046875 108.527344 346.609375 108.234375 346.183594 C 107.84375 345.605469 107.410156 345.058594 106.972656 344.519531 C 106.527344 343.984375 106.070312 343.460938 105.578125 342.96875 C 105.09375 342.46875 104.589844 341.988281 104.050781 341.546875 C 103.996094 341.5 103.914062 341.5 103.855469 341.542969 C 103.789062 341.59375 103.777344 341.691406 103.832031 341.761719 C 104.25 342.3125 104.691406 342.839844 105.132812 343.371094 L 106.449219 344.953125 L 107.773438 346.53125 C 108.113281 346.929688 108.457031 347.328125 108.800781 347.722656 C 108.6875 347.851562 108.585938 347.992188 108.503906 348.152344 L 108.34375 348.464844 L 113.96875 348.464844 L 112.898438 345.804688 C 112.328125 346.511719 111.472656 346.996094 110.460938 347.0625 Z M 39.789062 320.164062 L 39.789062 320.160156 Z M 39.789062 320.164062 " fill-opacity="1" fill-rule="nonzero"/></g></svg>