<svg xmlns="http://www.w3.org/2000/svg" xmlns:xlink="http://www.w3.org/1999/xlink" width="400" zoomAndPan="magnify" viewBox="0 0 300 449.999984" height="600" preserveAspectRatio="xMidYMid meet" version="1.0"><defs><clipPath id="c12e1a44e9"><path d="M 135.199219 15.304688 L 225.199219 15.304688 L 225.199219 202.335938 L 135.199219 202.335938 Z M 135.199219 15.304688 " clip-rule="nonzero"/></clipPath><clipPath id="e949c05f5a"><path d="M 180.199219 15.304688 C 155.347656 15.304688 135.199219 57.167969 135.199219 108.808594 C 135.199219 160.449219 155.347656 202.3125 180.199219 202.3125 C 205.054688 202.3125 225.199219 160.449219 225.199219 108.808594 C 225.199219 57.167969 205.054688 15.304688 180.199219 15.304688 Z M 180.199219 15.304688 " clip-rule="nonzero"/></clipPath><clipPath id="5c6c9dd911"><path d="M 137 15.304688 L 213 15.304688 L 213 98 L 137 98 Z M 137 15.304688 " clip-rule="nonzero"/></clipPath></defs><g clip-path="url(#c12e1a44e9)"><g clip-path="url(#e949c05f5a)"><path fill="#000000" d="M 135.199219 15.304688 L 225.199219 15.304688 L 225.199219 202.335938 L 135.199219 202.335938 Z M 135.199219 15.304688 " fill-opacity="1" fill-rule="nonzero"/></g></g><path fill="#f4b379" d="M 158.476562 124.410156 L 189.480469 116.703125 L 194.960938 120.472656 L 157.792969 183.847656 L 144.089844 148.046875 Z M 158.476562 124.410156 " fill-opacity="1" fill-rule="nonzero"/><g clip-path="url(#5c6c9dd911)"><path fill="#000000" d="M 167.042969 96.492188 C 167.042969 96.492188 207.980469 109.339844 212.433594 60.007812 C 213.632812 46.476562 211.40625 31.40625 199.757812 22.839844 C 192.222656 17.53125 182.972656 16.160156 174.066406 15.648438 C 165.328125 15.304688 156.082031 16.332031 148.714844 20.785156 C 143.40625 24.210938 139.808594 29.519531 138.097656 35.6875 C 137.582031 37.398438 137.066406 42.367188 137.066406 44.421875 C 137.066406 44.765625 167.042969 96.492188 167.042969 96.492188 Z M 167.042969 96.492188 " fill-opacity="1" fill-rule="nonzero"/></g><path fill="#f4b379" d="M 189.480469 77.652344 L 189.308594 163.976562 L 159.164062 163.636719 C 159.164062 163.636719 158.992188 100.433594 159.335938 98.375 Z M 189.480469 77.652344 " fill-opacity="1" fill-rule="nonzero"/><path fill="#000000" d="M 159.164062 100.601562 L 183.316406 99.574219 L 159.164062 118.417969 Z M 159.164062 100.601562 " fill-opacity="1" fill-rule="nonzero"/><path fill="#f4b379" d="M 215.859375 71.140625 C 214.316406 79.363281 206.4375 86.042969 198.386719 81.246094 C 198.214844 81.078125 198.046875 81.246094 198.046875 81.417969 C 198.046875 82.277344 197.703125 82.960938 197.53125 83.644531 C 194.449219 93.238281 186.398438 100.945312 176.804688 103.859375 C 162.933594 107.96875 145.460938 102.144531 139.980469 87.929688 C 139.125 85.871094 138.4375 83.132812 138.265625 80.90625 C 138.265625 80.90625 137.066406 48.53125 136.898438 44.59375 C 151.113281 44.59375 164.988281 45.621094 176.632812 37.914062 C 176.804688 37.914062 176.976562 37.914062 176.976562 38.085938 C 179.71875 44.765625 183.65625 51.273438 191.707031 54.015625 C 191.878906 54.015625 191.878906 54.015625 191.878906 54.183594 L 191.878906 63.261719 C 191.878906 63.261719 191.878906 63.433594 192.050781 63.433594 L 194.277344 63.433594 L 194.449219 63.261719 C 194.621094 62.75 195.476562 61.207031 196.503906 59.835938 C 197.359375 58.808594 198.558594 58.125 199.929688 57.78125 C 202.328125 56.753906 205.066406 56.753906 207.636719 57.609375 C 211.578125 58.808594 213.804688 61.035156 215.003906 63.949219 C 215.859375 66.003906 216.03125 68.402344 215.859375 71.140625 Z M 215.859375 71.140625 " fill-opacity="1" fill-rule="nonzero"/><path fill="#000000" d="M 153.683594 79.878906 C 153.683594 80.21875 153.339844 80.5625 152.996094 80.5625 L 151.628906 80.390625 C 151.113281 80.390625 150.597656 80.390625 150.085938 80.390625 C 149.058594 80.050781 149.570312 78.679688 149.742188 78.164062 C 150.257812 76.453125 150.597656 74.566406 151.113281 72.855469 C 151.285156 72 152.65625 72.339844 152.484375 73.199219 C 152.140625 74.398438 151.96875 75.253906 151.628906 76.453125 C 151.628906 76.964844 151.457031 77.652344 151.285156 78.164062 C 151.285156 78.507812 151.113281 78.679688 151.113281 79.019531 C 151.113281 79.191406 151.113281 79.191406 151.113281 79.363281 C 151.457031 79.363281 151.628906 79.363281 151.796875 79.363281 C 152.140625 79.363281 152.65625 79.535156 152.996094 79.535156 C 153.339844 79.535156 153.683594 79.535156 153.683594 79.878906 Z M 153.683594 79.878906 " fill-opacity="1" fill-rule="nonzero"/><path fill="#000000" d="M 145.460938 57.78125 C 147.34375 57.78125 150.085938 57.78125 151.628906 58.808594 C 152.3125 59.152344 152.484375 59.835938 151.96875 60.351562 C 151.796875 60.695312 151.628906 60.695312 151.285156 60.867188 C 149.570312 61.550781 147.859375 61.722656 146.144531 61.722656 C 144.945312 61.722656 143.75 61.722656 142.550781 61.550781 C 141.519531 61.378906 140.152344 61.207031 139.292969 60.695312 C 138.953125 60.523438 138.78125 60.179688 138.78125 59.835938 C 138.78125 59.667969 138.953125 59.324219 139.292969 59.152344 C 139.125 59.324219 139.292969 59.324219 139.292969 59.152344 C 141.179688 58.125 143.578125 57.953125 145.460938 57.78125 Z M 145.460938 57.78125 " fill-opacity="1" fill-rule="nonzero"/><path fill="#000000" d="M 171.667969 57.953125 C 173.207031 58.125 177.664062 58.636719 178.175781 60.523438 C 178.347656 61.035156 178.003906 61.378906 177.664062 61.722656 C 175.605469 62.921875 172.351562 62.578125 170.125 62.234375 C 168.925781 62.0625 164.644531 61.378906 164.300781 60.007812 C 164.132812 59.667969 164.300781 59.324219 164.644531 59.152344 C 166.359375 57.609375 169.613281 57.78125 171.667969 57.953125 Z M 171.667969 57.953125 " fill-opacity="1" fill-rule="nonzero"/><path fill="#000000" d="M 208.492188 63.09375 C 206.953125 63.949219 205.925781 64.976562 205.066406 66.519531 C 205.753906 66.859375 206.265625 67.714844 206.265625 68.402344 C 206.265625 69.429688 205.925781 70.285156 205.410156 71.140625 C 204.382812 72.855469 203.183594 74.398438 201.8125 75.9375 C 201.640625 76.28125 201.300781 76.28125 201.128906 76.28125 L 200.785156 76.28125 C 200.613281 76.28125 200.613281 76.28125 200.613281 76.28125 C 200.101562 76.28125 199.414062 75.765625 199.585938 75.082031 C 200.273438 72.339844 201.128906 69.601562 202.328125 66.859375 C 203.355469 64.632812 204.726562 62.40625 207.121094 61.378906 C 208.320312 60.867188 209.351562 62.40625 208.492188 63.09375 Z M 208.492188 63.09375 " fill-opacity="1" fill-rule="nonzero"/><path fill="#e5e5e5" d="M 148.714844 85.015625 L 164.644531 84.671875 C 164.644531 84.671875 164.988281 90.667969 156.765625 91.011719 C 148.542969 91.355469 148.714844 85.015625 148.714844 85.015625 Z M 148.714844 85.015625 " fill-opacity="1" fill-rule="nonzero"/><path fill="#000000" d="M 148.03125 67.203125 C 147.515625 66.519531 146.832031 66.175781 145.976562 65.832031 C 145.632812 65.660156 145.117188 65.660156 144.777344 65.660156 C 144.433594 65.660156 144.089844 65.660156 143.578125 65.832031 C 143.578125 65.832031 143.40625 65.832031 143.40625 65.832031 C 143.40625 65.832031 143.234375 65.832031 143.234375 65.832031 C 142.890625 65.660156 142.550781 65.320312 142.378906 65.148438 C 142.035156 64.976562 141.523438 64.804688 141.179688 64.976562 C 140.835938 64.976562 140.324219 65.320312 140.152344 65.660156 C 139.980469 66.003906 139.808594 66.347656 139.980469 66.859375 C 140.152344 67.203125 140.324219 67.546875 140.664062 67.886719 C 141.179688 68.402344 141.691406 68.746094 142.378906 68.914062 C 142.71875 69.085938 143.0625 69.085938 143.40625 69.085938 C 143.75 69.085938 144.089844 69.085938 144.433594 68.914062 C 144.605469 68.914062 144.777344 68.914062 144.777344 68.914062 C 144.945312 68.914062 144.945312 68.914062 145.117188 69.085938 C 145.289062 69.085938 145.289062 69.257812 145.460938 69.257812 C 145.460938 69.257812 145.632812 69.429688 145.632812 69.429688 C 146.144531 70.113281 147.175781 70.113281 147.859375 69.601562 C 148.371094 68.746094 148.542969 67.886719 148.03125 67.203125 Z M 148.03125 67.203125 " fill-opacity="1" fill-rule="nonzero"/><path fill="#000000" d="M 176.121094 66.519531 C 175.605469 65.832031 174.75 65.488281 174.066406 66.003906 C 173.894531 66.175781 173.550781 66.519531 173.207031 66.519531 C 173.378906 66.519531 173.378906 66.519531 173.207031 66.519531 C 173.207031 66.519531 173.039062 66.519531 173.039062 66.519531 C 173.039062 66.519531 173.039062 66.519531 172.867188 66.519531 C 172.867188 66.519531 172.867188 66.519531 172.695312 66.519531 C 172.695312 66.519531 172.523438 66.519531 172.523438 66.347656 C 172.179688 66.175781 171.839844 66.003906 171.324219 65.832031 C 169.785156 65.488281 168.242188 66.003906 166.871094 66.859375 C 166.1875 67.203125 165.84375 68.230469 166.359375 68.914062 C 166.871094 69.601562 167.726562 69.941406 168.414062 69.429688 C 168.753906 69.257812 168.925781 69.085938 169.269531 68.914062 C 169.269531 68.914062 169.441406 68.914062 169.441406 68.914062 C 169.613281 68.914062 169.785156 68.746094 169.953125 68.746094 C 169.953125 68.746094 170.125 68.746094 170.125 68.746094 C 170.125 68.746094 170.296875 68.746094 170.296875 68.746094 C 170.296875 68.746094 170.46875 68.746094 170.46875 68.746094 C 170.46875 68.746094 170.640625 68.746094 170.640625 68.746094 C 171.496094 69.257812 172.351562 69.429688 173.207031 69.257812 C 173.894531 69.085938 174.578125 68.746094 175.265625 68.402344 C 176.121094 68.230469 176.632812 67.203125 176.121094 66.519531 Z M 176.121094 66.519531 " fill-opacity="1" fill-rule="nonzero"/><path fill="#f4b379" d="M 101.953125 192.410156 C 101.441406 192.066406 103.667969 179.394531 103.839844 178.023438 C 104.523438 172.882812 105.210938 167.746094 106.921875 162.949219 C 110.519531 151.644531 118.742188 145.136719 129.1875 140.167969 C 150.597656 130.40625 135.527344 211.765625 135.527344 211.765625 C 135.527344 211.765625 101.953125 192.410156 101.953125 192.410156 Z M 101.953125 192.410156 " fill-opacity="1" fill-rule="nonzero"/><path fill="#f4b379" d="M 63.246094 138.628906 C 65.644531 133.832031 70.4375 135.542969 70.4375 135.542969 C 74.722656 131.605469 77.632812 134.515625 77.632812 134.515625 L 81.230469 133.660156 L 98.699219 134.859375 C 100.925781 137.085938 98.359375 139.65625 98.359375 139.65625 L 84.996094 141.539062 L 88.082031 155.757812 L 93.046875 144.792969 C 96.300781 141.539062 97.332031 144.453125 97.332031 144.453125 L 95.445312 162.949219 L 92.707031 166.890625 L 86.195312 179.90625 L 87.566406 187.273438 L 66.15625 190.355469 C 65.644531 186.585938 65.300781 182.820312 64.617188 179.222656 C 64.273438 177.679688 64.101562 176.140625 63.585938 174.597656 C 62.902344 172.882812 62.046875 171.171875 61.359375 169.457031 C 60.503906 166.71875 59.648438 163.976562 58.792969 161.238281 C 57.25 155.757812 55.878906 150.445312 54.679688 144.964844 C 57.765625 137.941406 63.246094 138.628906 63.246094 138.628906 Z M 63.246094 138.628906 " fill-opacity="1" fill-rule="nonzero"/><path fill="#000000" d="M 78.488281 135.375 C 79.515625 140.167969 80.203125 145.136719 80.542969 150.105469 C 80.542969 150.789062 79.6875 150.789062 79.515625 150.105469 C 79.175781 145.136719 78.488281 140.167969 77.460938 135.375 C 77.289062 134.859375 78.316406 134.6875 78.488281 135.375 Z M 78.488281 135.375 " fill-opacity="1" fill-rule="nonzero"/><path fill="#000000" d="M 70.953125 136.058594 C 72.664062 141.027344 74.207031 145.820312 75.921875 150.789062 C 76.089844 151.304688 75.234375 151.644531 75.0625 151.132812 C 73.351562 146.164062 71.808594 141.367188 70.097656 136.402344 C 69.925781 135.714844 70.78125 135.375 70.953125 136.058594 Z M 70.953125 136.058594 " fill-opacity="1" fill-rule="nonzero"/><path fill="#000000" d="M 80.375 150.273438 C 80.203125 151.304688 79.34375 152.332031 78.316406 152.671875 C 77.117188 153.015625 75.921875 152.671875 75.234375 151.816406 C 75.0625 151.644531 75.234375 151.304688 75.40625 151.132812 C 75.578125 150.960938 75.921875 151.132812 76.089844 151.304688 C 76.089844 151.304688 76.089844 151.304688 76.261719 151.472656 C 76.261719 151.472656 76.261719 151.472656 76.433594 151.644531 C 76.605469 151.644531 76.605469 151.816406 76.777344 151.816406 C 76.777344 151.816406 76.949219 151.816406 76.949219 151.816406 C 76.949219 151.816406 76.949219 151.816406 77.117188 151.816406 C 77.289062 151.816406 77.289062 151.816406 77.460938 151.816406 C 77.460938 151.816406 77.632812 151.816406 77.632812 151.816406 C 77.632812 151.816406 77.632812 151.816406 77.804688 151.816406 C 77.976562 151.816406 77.976562 151.816406 78.148438 151.816406 C 78.148438 151.816406 78.148438 151.816406 78.316406 151.816406 C 78.316406 151.816406 78.488281 151.816406 78.488281 151.816406 C 78.660156 151.816406 78.832031 151.644531 79.003906 151.644531 C 79.003906 151.644531 79.003906 151.644531 79.175781 151.644531 C 79.175781 151.644531 79.34375 151.472656 79.34375 151.472656 C 79.34375 151.472656 79.34375 151.304688 79.515625 151.304688 C 79.515625 151.304688 79.6875 151.132812 79.6875 151.132812 C 79.6875 151.132812 79.6875 150.960938 79.6875 150.960938 C 79.6875 150.789062 79.6875 150.960938 79.6875 150.960938 C 79.6875 150.789062 79.6875 150.789062 79.6875 150.617188 C 79.6875 150.445312 80.03125 150.105469 80.203125 150.273438 C 80.203125 149.761719 80.375 150.105469 80.375 150.273438 Z M 80.375 150.273438 " fill-opacity="1" fill-rule="nonzero"/><path fill="#000000" d="M 75.578125 151.644531 C 75.234375 152.160156 74.722656 152.84375 74.035156 153.1875 C 73.523438 153.53125 73.007812 153.699219 72.324219 153.699219 C 71.125 153.699219 69.925781 153.1875 69.410156 152.160156 C 69.238281 151.988281 69.238281 151.644531 69.582031 151.472656 C 69.753906 151.304688 70.097656 151.304688 70.269531 151.644531 C 70.78125 152.332031 71.464844 152.84375 72.324219 152.671875 C 72.664062 152.671875 73.179688 152.5 73.523438 152.332031 C 74.035156 151.988281 74.378906 151.472656 74.722656 150.960938 C 74.890625 150.789062 75.234375 150.789062 75.40625 150.960938 C 75.75 151.132812 75.75 151.472656 75.578125 151.644531 Z M 75.578125 151.644531 " fill-opacity="1" fill-rule="nonzero"/><path fill="#000000" d="M 63.929688 139.3125 C 65.984375 143.253906 68.039062 147.191406 70.097656 151.132812 C 70.4375 151.644531 69.410156 151.988281 69.238281 151.472656 C 67.183594 147.535156 65.128906 143.59375 63.074219 139.65625 C 62.730469 139.140625 63.585938 138.800781 63.929688 139.3125 Z M 63.929688 139.3125 " fill-opacity="1" fill-rule="nonzero"/><path fill="#000000" d="M 70.097656 151.816406 C 69.753906 153.1875 68.898438 154.214844 67.527344 154.558594 C 66.15625 154.898438 64.617188 154.558594 63.757812 153.53125 C 63.585938 153.359375 63.585938 153.015625 63.757812 152.84375 C 63.929688 152.671875 64.273438 152.671875 64.445312 152.84375 C 65.128906 153.53125 66.328125 154.042969 67.355469 153.699219 C 68.382812 153.359375 69.070312 152.671875 69.238281 151.644531 C 69.238281 151.132812 70.097656 151.132812 70.097656 151.816406 Z M 70.097656 151.816406 " fill-opacity="1" fill-rule="nonzero"/><path fill="#000000" d="M 58.621094 144.453125 C 60.503906 147.363281 62.386719 150.273438 64.445312 153.015625 C 64.785156 153.53125 63.929688 154.042969 63.585938 153.53125 C 61.53125 150.789062 59.648438 147.878906 57.765625 144.964844 C 57.59375 144.621094 58.277344 143.9375 58.621094 144.453125 Z M 58.621094 144.453125 " fill-opacity="1" fill-rule="nonzero"/><path fill="#000000" d="M 83.113281 159.867188 C 83.457031 159.351562 84.3125 160.039062 83.800781 160.550781 C 81.402344 163.804688 79.515625 167.402344 78.488281 171.171875 C 78.316406 171.6875 77.289062 171.6875 77.460938 171 C 78.832031 167.0625 80.714844 163.292969 83.113281 159.867188 Z M 83.113281 159.867188 " fill-opacity="1" fill-rule="nonzero"/><path fill="#000000" d="M 66.15625 176.652344 C 66.328125 176.652344 66.671875 176.652344 66.84375 176.996094 C 66.84375 177.167969 67.011719 177.339844 67.183594 177.679688 C 67.183594 177.679688 67.183594 177.851562 67.183594 177.851562 C 67.183594 178.023438 67.355469 178.023438 67.355469 178.195312 C 67.527344 178.367188 67.699219 178.535156 67.699219 178.707031 C 67.699219 178.707031 67.699219 178.707031 67.871094 178.878906 C 67.871094 179.050781 68.039062 179.050781 68.039062 179.050781 C 68.210938 179.222656 68.210938 179.566406 68.039062 179.734375 C 67.871094 179.90625 67.527344 179.90625 67.355469 179.734375 C 66.671875 179.050781 65.984375 178.195312 65.644531 177.167969 C 65.644531 176.996094 65.8125 176.652344 66.15625 176.652344 Z M 66.15625 176.652344 " fill-opacity="1" fill-rule="nonzero"/><path fill="#f4b379" d="M 101.953125 192.410156 C 101.953125 192.410156 97.5 239.171875 97.5 238.316406 C 97.5 237.457031 87.054688 184.359375 87.054688 184.359375 L 65.984375 188.300781 C 68.898438 213.480469 72.664062 238.484375 74.890625 263.664062 C 75.0625 266.40625 75.234375 268.972656 76.089844 271.714844 C 80.03125 283.875 94.074219 291.925781 106.410156 289.355469 C 119.597656 286.617188 121.652344 270.6875 123.878906 259.726562 C 127.820312 240.542969 132.785156 221.359375 137.582031 202.34375 C 137.582031 202.175781 137.753906 201.832031 137.753906 201.660156 Z M 101.953125 192.410156 " fill-opacity="1" fill-rule="nonzero"/><path fill="#000000" d="M 108.464844 258.527344 C 107.265625 253.902344 105.550781 249.449219 103.152344 245.167969 C 102.640625 244.136719 101.097656 244.996094 101.613281 246.023438 C 103.839844 250.132812 105.550781 254.414062 106.75 258.867188 C 107.09375 260.066406 108.804688 259.554688 108.464844 258.527344 Z M 108.464844 258.527344 " fill-opacity="1" fill-rule="nonzero"/><path fill="#3ca500" d="M 123.023438 296.378906 L 123.023438 314.878906 C 123.023438 314.878906 92.191406 416.277344 93.21875 472.457031 C 94.246094 528.8125 72.664062 741.203125 72.664062 741.203125 L 108.804688 741.203125 L 171.496094 423.128906 L 181.257812 741.203125 L 219.457031 741.203125 L 250.285156 414.222656 C 250.285156 414.222656 257.136719 346.222656 223.910156 313.335938 L 223.222656 293.808594 C 223.222656 293.808594 169.953125 285.761719 123.023438 296.378906 Z M 123.023438 296.378906 " fill-opacity="1" fill-rule="nonzero"/><path fill="#000000" d="M 158.476562 124.410156 L 129.1875 140 C 129.1875 140 127.820312 157.296875 120.625 171.6875 C 113.429688 186.074219 110.175781 204.914062 119.253906 216.734375 L 122.851562 296.378906 C 122.851562 296.378906 162.933594 313.335938 223.050781 293.808594 L 223.050781 220.671875 C 223.050781 220.671875 203.183594 178.535156 233.15625 145.652344 L 194.449219 120.300781 L 158.476562 177.339844 Z M 158.476562 124.410156 " fill-opacity="1" fill-rule="nonzero"/><path fill="#f4b379" d="M 233.328125 145.652344 C 233.328125 145.652344 248.574219 154.898438 252.171875 179.734375 C 255.765625 204.570312 257.824219 213.992188 257.824219 213.992188 L 223.566406 221.871094 C 223.566406 221.871094 194.960938 173.054688 233.328125 145.652344 Z M 233.328125 145.652344 " fill-opacity="1" fill-rule="nonzero"/><path fill="#e5e5e5" d="M 164.300781 289.355469 L 101.097656 297.234375 C 98.359375 297.578125 95.960938 295.695312 95.617188 292.953125 L 84.3125 202.175781 C 83.96875 199.433594 85.855469 197.035156 88.59375 196.691406 L 151.796875 188.8125 C 154.539062 188.472656 156.9375 190.355469 157.28125 193.097656 L 168.585938 283.875 C 168.925781 286.617188 167.042969 289.015625 164.300781 289.355469 Z M 164.300781 289.355469 " fill-opacity="1" fill-rule="nonzero"/><path fill="#000000" d="M 95.863281 195.160156 L 144.980469 189.015625 L 145.894531 196.324219 L 96.777344 202.464844 Z M 95.863281 195.160156 " fill-opacity="1" fill-rule="nonzero"/><path fill="#0965ac" d="M 135.867188 235.917969 C 133.8125 232.148438 129.53125 229.75 124.90625 230.265625 C 118.910156 230.949219 114.628906 236.429688 115.316406 242.597656 C 116 248.589844 121.480469 252.875 127.648438 252.1875 C 131.585938 251.675781 134.839844 249.105469 136.382812 245.679688 C 131.757812 244.652344 131.246094 237.457031 135.867188 235.917969 Z M 135.867188 235.917969 " fill-opacity="1" fill-rule="nonzero"/><path fill="#0965ac" d="M 125.25 228.550781 C 125.25 226.839844 126.277344 225.296875 127.476562 224.269531 C 128.847656 223.242188 130.386719 222.726562 132.101562 222.386719 C 132.273438 223.585938 131.414062 225.46875 130.730469 226.324219 C 129.359375 228.039062 127.476562 228.550781 125.25 228.550781 Z M 125.25 228.550781 " fill-opacity="1" fill-rule="nonzero"/><path fill="#f4b379" d="M 221.167969 212.792969 L 233.15625 258.183594 L 159.164062 279.421875 C 159.164062 279.421875 152.65625 278.394531 150.257812 276.167969 C 147.859375 273.941406 142.890625 273.941406 141.523438 273.597656 C 140.152344 273.429688 128.675781 272.058594 128.675781 272.058594 C 128.675781 272.058594 126.105469 273.429688 127.648438 275.3125 C 127.648438 275.3125 135.699219 278.910156 137.582031 279.421875 C 139.464844 279.9375 142.207031 282.675781 143.0625 284.734375 C 143.75 286.789062 142.207031 289.355469 142.207031 289.355469 L 123.535156 293.980469 L 113.601562 295.695312 L 104.183594 295.523438 C 104.183594 295.523438 102.125 296.378906 102.125 298.09375 C 102.125 299.632812 113.601562 300.660156 113.601562 300.660156 L 138.4375 303.058594 C 138.4375 303.058594 161.5625 297.578125 164.132812 296.722656 C 166.699219 296.039062 250.800781 286.789062 250.800781 286.789062 C 250.800781 286.789062 269.46875 283.363281 268.269531 266.40625 L 256.964844 207.484375 Z M 221.167969 212.792969 " fill-opacity="1" fill-rule="nonzero"/><path fill="#e5e5e5" d="M 104.695312 137.941406 L 57.421875 169.972656 C 57.078125 170.144531 56.566406 170.488281 56.222656 170.488281 L 49.371094 173.398438 C 48.6875 173.742188 48.171875 173.054688 48.6875 172.542969 L 53.996094 167.230469 C 54.167969 166.890625 54.507812 166.546875 54.851562 166.375 L 102.125 134.347656 C 103.496094 133.488281 105.039062 133.660156 105.722656 134.6875 C 106.066406 135.203125 106.066406 135.886719 105.894531 136.402344 C 105.894531 136.914062 105.378906 137.429688 104.695312 137.941406 Z M 104.695312 137.941406 " fill-opacity="1" fill-rule="nonzero"/><path fill="#000000" d="M 255.082031 261.4375 C 250.457031 259.210938 245.492188 257.5 240.523438 256.300781 C 239.496094 255.957031 238.980469 257.667969 240.007812 258.011719 C 244.804688 259.210938 249.601562 260.925781 254.054688 262.980469 C 255.253906 263.320312 256.109375 261.78125 255.082031 261.4375 Z M 255.082031 261.4375 " fill-opacity="1" fill-rule="nonzero"/><path fill="#000000" d="M 242.75 359.410156 C 228.363281 353.757812 220.484375 339.199219 216.03125 325.328125 C 215.6875 324.300781 213.972656 324.640625 214.316406 325.839844 C 217.914062 337.488281 223.738281 348.964844 233.671875 356.5 C 236.242188 358.382812 239.152344 360.097656 242.234375 361.296875 C 243.265625 361.46875 243.777344 359.753906 242.75 359.410156 Z M 242.75 359.410156 " fill-opacity="1" fill-rule="nonzero"/><path fill="#000000" d="M 130.386719 327.382812 C 129.1875 331.835938 127.304688 336.117188 124.734375 339.886719 C 123.535156 341.769531 121.996094 343.484375 120.453125 345.195312 C 118.910156 346.910156 116.855469 348.621094 114.457031 348.792969 C 113.429688 348.792969 113.429688 350.503906 114.457031 350.503906 C 116.855469 350.332031 118.910156 348.964844 120.625 347.421875 C 122.507812 345.710938 124.050781 343.652344 125.59375 341.597656 C 128.503906 337.488281 130.730469 332.691406 132.101562 327.722656 C 132.273438 326.695312 130.730469 326.183594 130.386719 327.382812 Z M 130.386719 327.382812 " fill-opacity="1" fill-rule="nonzero"/></svg>