<svg xmlns="http://www.w3.org/2000/svg" xmlns:xlink="http://www.w3.org/1999/xlink" width="400" zoomAndPan="magnify" viewBox="0 0 300 449.999984" height="600" preserveAspectRatio="xMidYMid meet" version="1.0"><defs><clipPath id="910662cfe0"><path d="M 132 15.304688 L 207 15.304688 L 207 97 L 132 97 Z M 132 15.304688 " clip-rule="nonzero"/></clipPath></defs><path fill="#fbb97f" d="M 153.300781 122.566406 L 183.78125 114.988281 L 189.167969 118.695312 L 152.628906 181 L 139.15625 145.804688 Z M 153.300781 122.566406 " fill-opacity="1" fill-rule="nonzero"/><g clip-path="url(#910662cfe0)"><path fill="#000000" d="M 161.722656 95.121094 C 161.722656 95.121094 201.964844 107.75 206.34375 59.253906 C 207.523438 45.949219 205.335938 31.132812 193.882812 22.714844 C 186.472656 17.492188 177.382812 16.144531 168.625 15.640625 C 160.039062 15.304688 150.945312 16.3125 143.703125 20.691406 C 138.484375 24.058594 134.949219 29.28125 133.265625 35.34375 C 132.757812 37.027344 132.253906 41.910156 132.253906 43.929688 C 132.253906 44.265625 161.722656 95.121094 161.722656 95.121094 Z M 161.722656 95.121094 " fill-opacity="1" fill-rule="nonzero"/></g><path fill="#fbb97f" d="M 183.78125 76.597656 L 183.613281 161.464844 L 153.976562 161.128906 C 153.976562 161.128906 153.808594 98.992188 154.144531 96.972656 Z M 183.78125 76.597656 " fill-opacity="1" fill-rule="nonzero"/><path fill="#000000" d="M 153.976562 99.160156 L 177.71875 98.152344 L 153.976562 116.675781 Z M 153.976562 99.160156 " fill-opacity="1" fill-rule="nonzero"/><path fill="#fbb97f" d="M 209.710938 70.199219 C 208.195312 78.28125 200.449219 84.847656 192.535156 80.132812 C 192.367188 79.964844 192.199219 80.132812 192.199219 80.300781 C 192.199219 81.144531 191.863281 81.816406 191.695312 82.492188 C 188.664062 91.921875 180.75 99.5 171.320312 102.359375 C 157.679688 106.402344 140.503906 100.675781 135.117188 86.699219 C 134.273438 84.679688 133.601562 81.984375 133.433594 79.796875 C 133.433594 79.796875 132.253906 47.972656 132.085938 44.097656 C 146.0625 44.097656 159.699219 45.109375 171.152344 37.53125 C 171.320312 37.53125 171.488281 37.53125 171.488281 37.699219 C 174.183594 44.265625 178.054688 50.664062 185.96875 53.359375 C 186.136719 53.359375 186.136719 53.359375 186.136719 53.527344 L 186.136719 62.453125 C 186.136719 62.453125 186.136719 62.621094 186.304688 62.621094 L 188.496094 62.621094 L 188.664062 62.453125 C 188.832031 61.949219 189.675781 60.433594 190.683594 59.085938 C 191.527344 58.074219 192.703125 57.402344 194.050781 57.0625 C 196.410156 56.054688 199.105469 56.054688 201.628906 56.894531 C 205.503906 58.074219 207.691406 60.265625 208.871094 63.125 C 209.710938 65.148438 209.878906 67.503906 209.710938 70.199219 Z M 209.710938 70.199219 " fill-opacity="1" fill-rule="nonzero"/><path fill="#000000" d="M 148.585938 78.785156 C 148.585938 79.125 148.25 79.460938 147.914062 79.460938 L 146.566406 79.292969 C 146.0625 79.292969 145.554688 79.292969 145.050781 79.292969 C 144.039062 78.953125 144.546875 77.609375 144.714844 77.101562 C 145.21875 75.417969 145.554688 73.566406 146.0625 71.882812 C 146.230469 71.039062 147.578125 71.378906 147.410156 72.21875 C 147.070312 73.398438 146.902344 74.238281 146.566406 75.417969 C 146.566406 75.925781 146.398438 76.597656 146.230469 77.101562 C 146.230469 77.4375 146.0625 77.609375 146.0625 77.945312 C 146.0625 78.113281 146.0625 78.113281 146.0625 78.28125 C 146.398438 78.28125 146.566406 78.28125 146.734375 78.28125 C 147.070312 78.28125 147.578125 78.449219 147.914062 78.449219 C 148.25 78.449219 148.585938 78.449219 148.585938 78.785156 Z M 148.585938 78.785156 " fill-opacity="1" fill-rule="nonzero"/><path fill="#000000" d="M 140.503906 57.0625 C 142.355469 57.0625 145.050781 57.0625 146.566406 58.074219 C 147.238281 58.410156 147.410156 59.085938 146.902344 59.589844 C 146.734375 59.925781 146.566406 59.925781 146.230469 60.09375 C 144.546875 60.769531 142.863281 60.9375 141.179688 60.9375 C 140 60.9375 138.820312 60.9375 137.640625 60.769531 C 136.632812 60.601562 135.285156 60.433594 134.441406 59.925781 C 134.105469 59.757812 133.9375 59.421875 133.9375 59.085938 C 133.9375 58.917969 134.105469 58.578125 134.441406 58.410156 C 134.273438 58.578125 134.441406 58.578125 134.441406 58.410156 C 136.292969 57.402344 138.652344 57.234375 140.503906 57.0625 Z M 140.503906 57.0625 " fill-opacity="1" fill-rule="nonzero"/><path fill="#000000" d="M 166.269531 57.234375 C 167.785156 57.402344 172.160156 57.90625 172.667969 59.757812 C 172.835938 60.265625 172.5 60.601562 172.160156 60.9375 C 170.140625 62.117188 166.941406 61.777344 164.753906 61.441406 C 163.574219 61.273438 159.363281 60.601562 159.027344 59.253906 C 158.859375 58.917969 159.027344 58.578125 159.363281 58.410156 C 161.046875 56.894531 164.246094 57.0625 166.269531 57.234375 Z M 166.269531 57.234375 " fill-opacity="1" fill-rule="nonzero"/><path fill="#000000" d="M 202.472656 62.285156 C 200.957031 63.125 199.945312 64.136719 199.105469 65.652344 C 199.777344 65.988281 200.28125 66.832031 200.28125 67.503906 C 200.28125 68.515625 199.945312 69.355469 199.441406 70.199219 C 198.429688 71.882812 197.25 73.398438 195.90625 74.914062 C 195.734375 75.25 195.398438 75.25 195.230469 75.25 L 194.894531 75.25 C 194.726562 75.25 194.726562 75.25 194.726562 75.25 C 194.21875 75.25 193.546875 74.746094 193.714844 74.070312 C 194.390625 71.378906 195.230469 68.683594 196.410156 65.988281 C 197.417969 63.800781 198.765625 61.609375 201.125 60.601562 C 202.304688 60.09375 203.3125 61.609375 202.472656 62.285156 Z M 202.472656 62.285156 " fill-opacity="1" fill-rule="nonzero"/><path fill="#f2f2f2" d="M 143.703125 83.839844 L 159.363281 83.5 C 159.363281 83.5 159.699219 89.394531 151.617188 89.730469 C 143.535156 90.070312 143.703125 83.839844 143.703125 83.839844 Z M 143.703125 83.839844 " fill-opacity="1" fill-rule="nonzero"/><path fill="#000000" d="M 143.03125 66.324219 C 142.523438 65.652344 141.851562 65.316406 141.007812 64.980469 C 140.671875 64.808594 140.167969 64.808594 139.832031 64.808594 C 139.496094 64.808594 139.15625 64.808594 138.652344 64.980469 C 138.652344 64.980469 138.484375 64.980469 138.484375 64.980469 C 138.484375 64.980469 138.316406 64.980469 138.316406 64.980469 C 137.980469 64.808594 137.640625 64.472656 137.472656 64.304688 C 137.136719 64.136719 136.632812 63.96875 136.292969 64.136719 C 135.957031 64.136719 135.453125 64.472656 135.285156 64.808594 C 135.117188 65.148438 134.949219 65.484375 135.117188 65.988281 C 135.285156 66.324219 135.453125 66.664062 135.789062 67 C 136.292969 67.503906 136.800781 67.839844 137.472656 68.007812 C 137.808594 68.179688 138.148438 68.179688 138.484375 68.179688 C 138.820312 68.179688 139.15625 68.179688 139.496094 68.007812 C 139.664062 68.007812 139.832031 68.007812 139.832031 68.007812 C 140 68.007812 140 68.007812 140.167969 68.179688 C 140.335938 68.179688 140.335938 68.347656 140.503906 68.347656 C 140.503906 68.347656 140.671875 68.515625 140.671875 68.515625 C 141.179688 69.1875 142.1875 69.1875 142.863281 68.683594 C 143.367188 67.839844 143.535156 67 143.03125 66.324219 Z M 143.03125 66.324219 " fill-opacity="1" fill-rule="nonzero"/><path fill="#000000" d="M 170.644531 65.652344 C 170.140625 64.980469 169.300781 64.640625 168.625 65.148438 C 168.457031 65.316406 168.121094 65.652344 167.785156 65.652344 C 167.953125 65.652344 167.953125 65.652344 167.785156 65.652344 C 167.785156 65.652344 167.613281 65.652344 167.613281 65.652344 C 167.613281 65.652344 167.613281 65.652344 167.445312 65.652344 C 167.445312 65.652344 167.445312 65.652344 167.277344 65.652344 C 167.277344 65.652344 167.109375 65.652344 167.109375 65.484375 C 166.773438 65.316406 166.4375 65.148438 165.929688 64.980469 C 164.414062 64.640625 162.898438 65.148438 161.554688 65.988281 C 160.878906 66.324219 160.542969 67.335938 161.046875 68.007812 C 161.554688 68.683594 162.394531 69.019531 163.070312 68.515625 C 163.40625 68.347656 163.574219 68.179688 163.910156 68.007812 C 163.910156 68.007812 164.078125 68.007812 164.078125 68.007812 C 164.246094 68.007812 164.414062 67.839844 164.585938 67.839844 C 164.585938 67.839844 164.753906 67.839844 164.753906 67.839844 C 164.753906 67.839844 164.921875 67.839844 164.921875 67.839844 C 164.921875 67.839844 165.089844 67.839844 165.089844 67.839844 C 165.089844 67.839844 165.257812 67.839844 165.257812 67.839844 C 166.097656 68.347656 166.941406 68.515625 167.785156 68.347656 C 168.457031 68.179688 169.128906 67.839844 169.804688 67.503906 C 170.644531 67.335938 171.152344 66.324219 170.644531 65.652344 Z M 170.644531 65.652344 " fill-opacity="1" fill-rule="nonzero"/><path fill="#fbb97f" d="M 97.734375 189.417969 C 97.230469 189.082031 99.417969 176.621094 99.585938 175.273438 C 100.257812 170.222656 100.933594 165.167969 102.617188 160.453125 C 106.152344 149.339844 114.234375 142.941406 124.507812 138.058594 C 145.554688 128.460938 130.738281 208.445312 130.738281 208.445312 C 130.738281 208.445312 97.734375 189.417969 97.734375 189.417969 Z M 97.734375 189.417969 " fill-opacity="1" fill-rule="nonzero"/><path fill="#fbb97f" d="M 59.679688 136.542969 C 62.035156 131.828125 66.75 133.511719 66.75 133.511719 C 70.960938 129.640625 73.824219 132.503906 73.824219 132.503906 L 77.359375 131.660156 L 94.535156 132.839844 C 96.722656 135.027344 94.199219 137.554688 94.199219 137.554688 L 81.0625 139.40625 L 84.09375 153.382812 L 88.976562 142.605469 C 92.175781 139.40625 93.1875 142.269531 93.1875 142.269531 L 91.335938 160.453125 L 88.640625 164.328125 L 82.242188 177.125 L 83.589844 184.367188 L 62.539062 187.398438 C 62.035156 183.691406 61.699219 179.988281 61.023438 176.453125 C 60.6875 174.9375 60.519531 173.421875 60.015625 171.90625 C 59.339844 170.222656 58.5 168.539062 57.824219 166.855469 C 56.984375 164.160156 56.140625 161.464844 55.300781 158.769531 C 53.785156 153.382812 52.4375 148.164062 51.257812 142.773438 C 54.289062 135.871094 59.679688 136.542969 59.679688 136.542969 Z M 59.679688 136.542969 " fill-opacity="1" fill-rule="nonzero"/><path fill="#000000" d="M 74.664062 133.34375 C 75.675781 138.058594 76.347656 142.941406 76.683594 147.824219 C 76.683594 148.5 75.84375 148.5 75.675781 147.824219 C 75.339844 142.941406 74.664062 138.058594 73.652344 133.34375 C 73.484375 132.839844 74.496094 132.671875 74.664062 133.34375 Z M 74.664062 133.34375 " fill-opacity="1" fill-rule="nonzero"/><path fill="#000000" d="M 67.253906 134.019531 C 68.9375 138.902344 70.453125 143.617188 72.140625 148.5 C 72.308594 149.003906 71.464844 149.339844 71.296875 148.835938 C 69.613281 143.953125 68.097656 139.238281 66.414062 134.355469 C 66.246094 133.679688 67.085938 133.34375 67.253906 134.019531 Z M 67.253906 134.019531 " fill-opacity="1" fill-rule="nonzero"/><path fill="#000000" d="M 76.515625 147.996094 C 76.347656 149.003906 75.507812 150.015625 74.496094 150.351562 C 73.316406 150.6875 72.140625 150.351562 71.464844 149.507812 C 71.296875 149.339844 71.464844 149.003906 71.632812 148.835938 C 71.800781 148.667969 72.140625 148.835938 72.308594 149.003906 C 72.308594 149.003906 72.308594 149.003906 72.476562 149.171875 C 72.476562 149.171875 72.476562 149.171875 72.644531 149.339844 C 72.8125 149.339844 72.8125 149.507812 72.980469 149.507812 C 72.980469 149.507812 73.148438 149.507812 73.148438 149.507812 C 73.148438 149.507812 73.148438 149.507812 73.316406 149.507812 C 73.484375 149.507812 73.484375 149.507812 73.652344 149.507812 C 73.652344 149.507812 73.824219 149.507812 73.824219 149.507812 C 73.824219 149.507812 73.824219 149.507812 73.992188 149.507812 C 74.160156 149.507812 74.160156 149.507812 74.328125 149.507812 C 74.328125 149.507812 74.328125 149.507812 74.496094 149.507812 C 74.496094 149.507812 74.664062 149.507812 74.664062 149.507812 C 74.832031 149.507812 75 149.339844 75.167969 149.339844 C 75.167969 149.339844 75.167969 149.339844 75.339844 149.339844 C 75.339844 149.339844 75.507812 149.171875 75.507812 149.171875 C 75.507812 149.171875 75.507812 149.003906 75.675781 149.003906 C 75.675781 149.003906 75.84375 148.835938 75.84375 148.835938 C 75.84375 148.835938 75.84375 148.667969 75.84375 148.667969 C 75.84375 148.5 75.84375 148.667969 75.84375 148.667969 C 75.84375 148.5 75.84375 148.5 75.84375 148.332031 C 75.84375 148.164062 76.179688 147.824219 76.347656 147.996094 C 76.347656 147.488281 76.515625 147.824219 76.515625 147.996094 Z M 76.515625 147.996094 " fill-opacity="1" fill-rule="nonzero"/><path fill="#000000" d="M 71.800781 149.339844 C 71.464844 149.847656 70.960938 150.519531 70.285156 150.855469 C 69.78125 151.195312 69.277344 151.363281 68.601562 151.363281 C 67.425781 151.363281 66.246094 150.855469 65.738281 149.847656 C 65.570312 149.679688 65.570312 149.339844 65.910156 149.171875 C 66.078125 149.003906 66.414062 149.003906 66.582031 149.339844 C 67.085938 150.015625 67.761719 150.519531 68.601562 150.351562 C 68.9375 150.351562 69.445312 150.183594 69.78125 150.015625 C 70.285156 149.679688 70.625 149.171875 70.960938 148.667969 C 71.128906 148.5 71.464844 148.5 71.632812 148.667969 C 71.96875 148.835938 71.96875 149.171875 71.800781 149.339844 Z M 71.800781 149.339844 " fill-opacity="1" fill-rule="nonzero"/><path fill="#000000" d="M 60.351562 137.21875 C 62.371094 141.089844 64.394531 144.964844 66.414062 148.835938 C 66.75 149.339844 65.738281 149.679688 65.570312 149.171875 C 63.550781 145.300781 61.53125 141.425781 59.507812 137.554688 C 59.171875 137.050781 60.015625 136.710938 60.351562 137.21875 Z M 60.351562 137.21875 " fill-opacity="1" fill-rule="nonzero"/><path fill="#000000" d="M 66.414062 149.507812 C 66.078125 150.855469 65.234375 151.867188 63.886719 152.203125 C 62.539062 152.539062 61.023438 152.203125 60.183594 151.195312 C 60.015625 151.023438 60.015625 150.6875 60.183594 150.519531 C 60.351562 150.351562 60.6875 150.351562 60.855469 150.519531 C 61.53125 151.195312 62.707031 151.699219 63.71875 151.363281 C 64.730469 151.023438 65.402344 150.351562 65.570312 149.339844 C 65.570312 148.835938 66.414062 148.835938 66.414062 149.507812 Z M 66.414062 149.507812 " fill-opacity="1" fill-rule="nonzero"/><path fill="#000000" d="M 55.132812 142.269531 C 56.984375 145.132812 58.835938 147.996094 60.855469 150.6875 C 61.195312 151.195312 60.351562 151.699219 60.015625 151.195312 C 57.992188 148.5 56.140625 145.636719 54.289062 142.773438 C 54.121094 142.4375 54.792969 141.765625 55.132812 142.269531 Z M 55.132812 142.269531 " fill-opacity="1" fill-rule="nonzero"/><path fill="#000000" d="M 79.210938 157.425781 C 79.546875 156.917969 80.390625 157.59375 79.882812 158.097656 C 77.527344 161.296875 75.675781 164.832031 74.664062 168.539062 C 74.496094 169.042969 73.484375 169.042969 73.652344 168.371094 C 75 164.496094 76.855469 160.792969 79.210938 157.425781 Z M 79.210938 157.425781 " fill-opacity="1" fill-rule="nonzero"/><path fill="#000000" d="M 62.539062 173.925781 C 62.707031 173.925781 63.046875 173.925781 63.214844 174.261719 C 63.214844 174.429688 63.382812 174.597656 63.550781 174.9375 C 63.550781 174.9375 63.550781 175.105469 63.550781 175.105469 C 63.550781 175.273438 63.71875 175.273438 63.71875 175.441406 C 63.886719 175.609375 64.054688 175.777344 64.054688 175.945312 C 64.054688 175.945312 64.054688 175.945312 64.222656 176.113281 C 64.222656 176.285156 64.394531 176.285156 64.394531 176.285156 C 64.5625 176.453125 64.5625 176.789062 64.394531 176.957031 C 64.222656 177.125 63.886719 177.125 63.71875 176.957031 C 63.046875 176.285156 62.371094 175.441406 62.035156 174.429688 C 62.035156 174.261719 62.203125 173.925781 62.539062 173.925781 Z M 62.539062 173.925781 " fill-opacity="1" fill-rule="nonzero"/><path fill="#fbb97f" d="M 97.734375 189.417969 C 97.734375 189.417969 93.355469 235.386719 93.355469 234.546875 C 93.355469 233.703125 83.085938 181.503906 83.085938 181.503906 L 62.371094 185.375 C 65.234375 210.128906 68.9375 234.714844 71.128906 259.46875 C 71.296875 262.160156 71.464844 264.6875 72.308594 267.382812 C 76.179688 279.335938 89.988281 287.25 102.113281 284.726562 C 115.078125 282.03125 117.097656 266.371094 119.289062 255.59375 C 123.160156 236.734375 128.042969 217.875 132.757812 199.183594 C 132.757812 199.015625 132.925781 198.679688 132.925781 198.511719 Z M 97.734375 189.417969 " fill-opacity="1" fill-rule="nonzero"/><path fill="#000000" d="M 104.132812 254.414062 C 102.953125 249.871094 101.269531 245.492188 98.914062 241.28125 C 98.40625 240.269531 96.890625 241.113281 97.398438 242.125 C 99.585938 246.164062 101.269531 250.375 102.449219 254.753906 C 102.785156 255.929688 104.46875 255.425781 104.132812 254.414062 Z M 104.132812 254.414062 " fill-opacity="1" fill-rule="nonzero"/><path fill="#3ca500" d="M 118.445312 291.628906 L 118.445312 309.816406 C 118.445312 309.816406 88.136719 409.5 89.144531 464.734375 C 90.15625 520.132812 68.9375 728.933594 68.9375 728.933594 L 104.46875 728.933594 L 166.097656 416.238281 L 175.699219 728.933594 L 213.25 728.933594 L 243.558594 407.480469 C 243.558594 407.480469 250.292969 340.628906 217.625 308.300781 L 216.953125 289.105469 C 216.953125 289.105469 164.585938 281.191406 118.445312 291.628906 Z M 118.445312 291.628906 " fill-opacity="1" fill-rule="nonzero"/><path fill="#000000" d="M 153.300781 122.566406 L 124.507812 137.890625 C 124.507812 137.890625 123.160156 154.898438 116.089844 169.042969 C 109.015625 183.1875 105.816406 201.710938 114.742188 213.328125 L 118.277344 291.628906 C 118.277344 291.628906 157.679688 308.300781 216.785156 289.105469 L 216.785156 217.203125 C 216.785156 217.203125 197.25 175.777344 226.71875 143.449219 L 188.664062 118.527344 L 153.300781 174.597656 Z M 153.300781 122.566406 " fill-opacity="1" fill-rule="nonzero"/><path fill="#fbb97f" d="M 226.886719 143.449219 C 226.886719 143.449219 241.875 152.539062 245.410156 176.957031 C 248.945312 201.375 250.96875 210.632812 250.96875 210.632812 L 217.289062 218.378906 C 217.289062 218.378906 189.167969 170.390625 226.886719 143.449219 Z M 226.886719 143.449219 " fill-opacity="1" fill-rule="nonzero"/><path fill="#f2f2f2" d="M 159.027344 284.726562 L 96.890625 292.472656 C 94.199219 292.808594 91.839844 290.957031 91.503906 288.261719 L 80.390625 199.015625 C 80.054688 196.320312 81.90625 193.964844 84.597656 193.628906 L 146.734375 185.882812 C 149.429688 185.542969 151.785156 187.398438 152.125 190.089844 L 163.238281 279.335938 C 163.574219 282.03125 161.722656 284.390625 159.027344 284.726562 Z M 159.027344 284.726562 " fill-opacity="1" fill-rule="nonzero"/><path fill="#000000" d="M 91.742188 192.117188 L 140.03125 186.078125 L 140.929688 193.265625 L 92.640625 199.304688 Z M 91.742188 192.117188 " fill-opacity="1" fill-rule="nonzero"/><path fill="#0965ac" d="M 131.074219 232.1875 C 129.054688 228.484375 124.84375 226.125 120.296875 226.632812 C 114.402344 227.304688 110.195312 232.695312 110.867188 238.753906 C 111.542969 244.648438 116.929688 248.859375 122.992188 248.183594 C 126.863281 247.679688 130.0625 245.15625 131.578125 241.785156 C 127.035156 240.777344 126.527344 233.703125 131.074219 232.1875 Z M 131.074219 232.1875 " fill-opacity="1" fill-rule="nonzero"/><path fill="#0965ac" d="M 120.632812 224.949219 C 120.632812 223.265625 121.644531 221.75 122.824219 220.738281 C 124.171875 219.726562 125.6875 219.222656 127.371094 218.886719 C 127.539062 220.066406 126.695312 221.917969 126.023438 222.757812 C 124.675781 224.441406 122.824219 224.949219 120.632812 224.949219 Z M 120.632812 224.949219 " fill-opacity="1" fill-rule="nonzero"/><path fill="#fbb97f" d="M 214.933594 209.457031 L 226.71875 254.078125 L 153.976562 274.960938 C 153.976562 274.960938 147.578125 273.949219 145.21875 271.761719 C 142.863281 269.570312 137.980469 269.570312 136.632812 269.234375 C 135.285156 269.066406 124.003906 267.71875 124.003906 267.71875 C 124.003906 267.71875 121.476562 269.066406 122.992188 270.917969 C 122.992188 270.917969 130.90625 274.453125 132.757812 274.960938 C 134.609375 275.464844 137.304688 278.160156 138.148438 280.179688 C 138.820312 282.199219 137.304688 284.726562 137.304688 284.726562 L 118.949219 289.273438 L 109.183594 290.957031 L 99.921875 290.789062 C 99.921875 290.789062 97.902344 291.628906 97.902344 293.3125 C 97.902344 294.828125 109.183594 295.839844 109.183594 295.839844 L 133.601562 298.195312 C 133.601562 298.195312 156.332031 292.808594 158.859375 291.964844 C 161.382812 291.292969 244.0625 282.199219 244.0625 282.199219 C 244.0625 282.199219 262.417969 278.832031 261.238281 262.160156 L 250.125 204.234375 Z M 214.933594 209.457031 " fill-opacity="1" fill-rule="nonzero"/><path fill="#f2f2f2" d="M 100.429688 135.871094 L 53.953125 167.359375 C 53.617188 167.527344 53.109375 167.863281 52.773438 167.863281 L 46.039062 170.726562 C 45.363281 171.0625 44.859375 170.390625 45.363281 169.882812 L 50.585938 164.664062 C 50.753906 164.328125 51.089844 163.992188 51.425781 163.824219 L 97.902344 132.335938 C 99.25 131.492188 100.765625 131.660156 101.4375 132.671875 C 101.773438 133.175781 101.773438 133.847656 101.605469 134.355469 C 101.605469 134.859375 101.101562 135.363281 100.429688 135.871094 Z M 100.429688 135.871094 " fill-opacity="1" fill-rule="nonzero"/><path fill="#000000" d="M 248.273438 257.277344 C 243.726562 255.089844 238.84375 253.40625 233.960938 252.226562 C 232.949219 251.890625 232.445312 253.574219 233.453125 253.910156 C 238.167969 255.089844 242.882812 256.773438 247.261719 258.792969 C 248.441406 259.128906 249.285156 257.613281 248.273438 257.277344 Z M 248.273438 257.277344 " fill-opacity="1" fill-rule="nonzero"/><path fill="#000000" d="M 236.148438 353.597656 C 222.003906 348.039062 214.257812 333.726562 209.878906 320.085938 C 209.542969 319.078125 207.859375 319.414062 208.195312 320.59375 C 211.734375 332.042969 217.457031 343.324219 227.222656 350.734375 C 229.75 352.585938 232.613281 354.269531 235.644531 355.449219 C 236.65625 355.617188 237.160156 353.933594 236.148438 353.597656 Z M 236.148438 353.597656 " fill-opacity="1" fill-rule="nonzero"/><path fill="#000000" d="M 125.6875 322.109375 C 124.507812 326.484375 122.65625 330.695312 120.128906 334.398438 C 118.949219 336.253906 117.433594 337.9375 115.917969 339.621094 C 114.402344 341.304688 112.382812 342.988281 110.027344 343.15625 C 109.015625 343.15625 109.015625 344.839844 110.027344 344.839844 C 112.382812 344.671875 114.402344 343.324219 116.089844 341.808594 C 117.941406 340.125 119.457031 338.105469 120.972656 336.085938 C 123.835938 332.042969 126.023438 327.328125 127.371094 322.445312 C 127.539062 321.433594 126.023438 320.929688 125.6875 322.109375 Z M 125.6875 322.109375 " fill-opacity="1" fill-rule="nonzero"/></svg>