<svg xmlns="http://www.w3.org/2000/svg" xmlns:xlink="http://www.w3.org/1999/xlink" width="400" zoomAndPan="magnify" viewBox="0 0 300 449.999984" height="600" preserveAspectRatio="xMidYMid meet" version="1.0"><defs><clipPath id="39f9df1720"><path d="M 67.035156 12.632812 L 203.824219 12.632812 L 203.824219 437.324219 L 67.035156 437.324219 Z M 67.035156 12.632812 " clip-rule="nonzero"/></clipPath><clipPath id="8d208e1a98"><path d="M 102.71875 124 L 300 124 L 300 306 L 102.71875 306 Z M 102.71875 124 " clip-rule="nonzero"/></clipPath></defs><g clip-path="url(#39f9df1720)"><path fill="#293241" d="M 145.710938 20 C 143.929688 18.382812 135.683594 11.585938 124.980469 12.777344 C 117.929688 13.539062 112.574219 17.53125 110.707031 19.0625 C 106.714844 22.378906 107.054688 23.90625 102.378906 27.644531 C 97.367188 31.636719 95.328125 31.125 91.421875 34.355469 C 91.421875 34.355469 85.980469 38.859375 83.605469 45.824219 C 79.015625 59.164062 89.976562 72.589844 90.742188 73.523438 C 95.328125 75.222656 100.34375 76.753906 105.863281 77.941406 C 129.910156 83.125 150.976562 79.128906 164.570312 74.96875 C 171.710938 66.472656 172.304688 60.78125 171.453125 57.039062 C 170.605469 53.304688 168.394531 52.285156 167.632812 47.523438 C 166.613281 41.320312 169.753906 39.796875 169.246094 34.355469 C 168.652344 27.816406 163.382812 20.421875 155.992188 18.808594 C 151.402344 17.707031 147.496094 19.148438 145.710938 20 Z M 81.480469 344.550781 L 159.050781 318.464844 L 188.703125 325.351562 L 203.058594 378.789062 C 201.359375 397.144531 199.746094 415.578125 198.046875 433.933594 C 189.296875 435.886719 177.828125 437.5 164.488281 437.160156 C 154.71875 436.90625 146.136719 435.632812 139 434.101562 L 135.515625 415.410156 C 133.222656 421.695312 130.929688 428.066406 128.550781 434.355469 C 118.609375 436.3125 105.949219 437.839844 91.335938 437.160156 C 82.414062 436.734375 74.511719 435.542969 67.632812 434.1875 L 68.988281 392.640625 L 81.480469 344.550781 " fill-opacity="1" fill-rule="nonzero"/></g><path fill="#e0fbfc" d="M 84.878906 172.84375 C 83.6875 167.660156 82.582031 162.480469 81.394531 157.292969 L 96.945312 139.792969 L 102.804688 134.015625 L 153.019531 136.734375 L 155.738281 138.347656 C 163.046875 156.871094 170.179688 179.472656 174.683594 205.722656 C 183.773438 258.484375 178.589844 303.515625 172.390625 333.847656 C 167.292969 336.226562 159.050781 339.28125 148.515625 340.132812 C 136.453125 341.066406 126.761719 338.6875 121.070312 336.820312 C 109.433594 284.480469 97.964844 232.0625 86.324219 179.640625 M 86.324219 179.640625 C 85.8125 177.347656 85.304688 175.136719 84.792969 172.84375 " fill-opacity="1" fill-rule="nonzero"/><path fill="#0965ac" d="M 168.054688 202.582031 C 170.09375 219.234375 170.859375 234.183594 171.792969 269.273438 C 172.472656 294.082031 172.984375 327.050781 172.390625 366.300781 C 175.277344 369.019531 180.375 373.097656 187.851562 375.902344 C 195.839844 378.875 202.890625 378.960938 206.882812 378.789062 C 203.316406 347.949219 199.832031 317.109375 196.261719 286.179688 C 197.539062 286.863281 202.976562 289.496094 209.601562 287.878906 C 217.421875 285.929688 220.988281 279.640625 221.582031 278.621094 L 221.582031 242 C 214.191406 214.304688 206.882812 186.691406 199.492188 158.992188 C 198.980469 157.125 197.792969 155.59375 196.09375 154.664062 C 191.589844 152.195312 186.660156 149.648438 181.226562 147.269531 C 171.964844 143.191406 163.296875 140.390625 155.652344 138.347656 C 159.816406 153.8125 164.746094 175.816406 168.054688 202.582031 Z M 120.308594 218.890625 C 123.195312 239.539062 123.027344 257.125 122.601562 291.535156 C 122.175781 321.015625 120.816406 345.570312 119.628906 362.820312 C 114.699219 368.34375 106.96875 375.734375 96.007812 382.105469 C 83.6875 389.328125 72.21875 392.382812 64.574219 393.832031 C 64.914062 383.210938 65.589844 366.386719 67.632812 345.742188 C 70.351562 317.957031 73.070312 307.253906 74.085938 286.265625 C 74.683594 274.035156 74.769531 255.851562 72.050781 233.421875 C 50.808594 269.785156 28.550781 293.488281 15.886719 289.242188 C 12.40625 288.054688 8.242188 284.230469 5.78125 280.066406 C 0 270.292969 3.230469 258.742188 4.675781 253.132812 C 8.582031 238.09375 12.320312 217.617188 15.886719 187.625 L 44.863281 186.183594 C 44.949219 188.476562 45.03125 190.773438 45.117188 193.066406 C 45.96875 190.683594 50.894531 176.410156 56.671875 165.027344 C 59.390625 159.675781 59.21875 160.097656 61.597656 155.9375 C 63.296875 152.964844 64.996094 150.160156 66.78125 147.441406 C 67.546875 146.25 68.820312 145.398438 70.265625 145.0625 L 97.113281 139.707031 C 111.644531 172.164062 117.589844 199.777344 120.308594 218.890625 " fill-opacity="1" fill-rule="nonzero"/><g clip-path="url(#8d208e1a98)"><path fill="#3ca500" d="M 210.027344 264.773438 C 211.300781 273.4375 216.570312 278.621094 218.183594 280.152344 C 212.066406 284.230469 206.035156 288.304688 199.917969 292.382812 C 202.378906 296.886719 204.84375 301.390625 207.308594 305.894531 C 238.234375 287.796875 269.074219 269.613281 300.003906 251.519531 C 298.304688 249.566406 291.761719 241.578125 291.761719 229.597656 C 291.761719 218.296875 297.453125 210.652344 299.152344 208.527344 L 291.335938 207.421875 L 214.953125 245.824219 C 213.847656 247.183594 208.582031 254.574219 210.027344 264.773438 Z M 144.691406 127.21875 C 145.796875 127.558594 147.664062 128.324219 149.449219 129.9375 C 152.167969 132.488281 152.847656 135.546875 153.101562 136.648438 C 153.527344 139.371094 153.953125 143.445312 153.019531 148.375 C 152 154.066406 149.703125 158.3125 148.175781 160.78125 L 136.109375 144.890625 C 132.628906 149.816406 129.144531 154.746094 125.746094 159.675781 C 122.601562 157.71875 118.949219 155 115.292969 151.347656 C 109.007812 145.0625 105.183594 138.601562 102.972656 133.929688 C 103.570312 132.574219 104.503906 130.789062 106.121094 129 C 108.246094 126.539062 110.621094 125.179688 112.066406 124.5 C 122.855469 125.433594 133.734375 126.371094 144.691406 127.21875 " fill-opacity="1" fill-rule="nonzero"/></g><path fill="#fbb97f" d="M 272.898438 267.320312 C 262.621094 263.921875 258.710938 265.027344 257.011719 266.894531 C 255.566406 268.511719 256.160156 270.378906 254.972656 273.609375 C 253.273438 278.027344 249.789062 280.832031 246.902344 282.53125 C 253.441406 286.949219 261.851562 286.691406 267.292969 282.105469 C 273.832031 276.753906 272.984375 268 272.898438 267.320312 Z M 161.597656 69.785156 C 160.324219 69.191406 158.878906 69.53125 157.691406 70.039062 C 156.84375 70.550781 156.074219 71.058594 155.226562 71.65625 C 155.480469 69.191406 155.566406 65.453125 154.125 61.460938 C 152.167969 56.019531 149.027344 54.40625 146.984375 49.140625 C 146.050781 46.675781 145.117188 42.9375 145.710938 37.585938 C 141.550781 40.472656 134.496094 44.71875 124.726562 46.675781 C 118.441406 47.949219 113 47.949219 108.921875 47.609375 C 108.070312 51.265625 106.96875 55.257812 105.355469 59.507812 C 103.230469 65.285156 100.765625 70.210938 98.472656 74.289062 C 97.875 72.84375 97.28125 71.402344 96.773438 69.957031 C 96.007812 69.785156 94.988281 69.613281 93.96875 70.039062 C 90.230469 71.484375 88.105469 79.128906 91.421875 83.632812 C 93.96875 87.117188 98.644531 87.289062 99.40625 87.289062 C 99.832031 90.003906 101.363281 97.992188 108.160156 104.703125 C 108.667969 105.210938 110.113281 106.574219 112.238281 108.101562 C 112.832031 110.992188 113.34375 115.070312 112.746094 119.910156 C 112.320312 123.394531 111.558594 126.371094 110.707031 128.664062 C 113.9375 131.804688 118.265625 135.460938 123.789062 138.859375 C 128.210938 141.578125 132.457031 143.53125 136.027344 144.976562 C 137.554688 142.851562 139.082031 140.472656 140.613281 137.921875 C 142.398438 135.035156 143.929688 132.230469 145.203125 129.511719 C 144.265625 126.027344 143.417969 121.527344 143.332031 116.175781 C 143.25 112.433594 143.585938 109.035156 144.011719 106.234375 C 149.195312 101.5625 153.355469 94.847656 155.3125 86.695312 C 156.585938 86.605469 159.730469 86.269531 162.023438 83.890625 C 166.019531 79.726562 165.082031 71.402344 161.597656 69.785156 Z M 42.90625 173.183594 C 43.078125 179.128906 40.613281 183.976562 38.488281 186.949219 C 33.816406 187.117188 29.058594 187.285156 24.382812 187.457031 C 22.347656 185.332031 16.738281 179.128906 15.210938 169.105469 C 13.679688 159.164062 16.992188 151.515625 18.355469 148.96875 C 20.476562 147.609375 23.707031 145.824219 28.039062 145.144531 C 34.496094 144.042969 41.800781 145.488281 41.972656 147.355469 C 42.058594 148.289062 40.445312 149.734375 32.796875 151.941406 C 33.902344 153.300781 35.515625 155.425781 37.214844 158.144531 C 40.019531 162.734375 42.738281 167.320312 42.90625 173.183594 " fill-opacity="1" fill-rule="nonzero"/><path fill="#293241" d="M 27.070312 131.519531 L 18.425781 118.683594 C 17.148438 116.730469 14.769531 115.964844 13.238281 117.070312 C 11.710938 118.089844 11.539062 120.550781 12.816406 122.507812 L 56.316406 187.078125 L 64.21875 192.601562 L 61.925781 183.253906 L 30.230469 136.210938 M 30.230469 136.210938 L 27.070312 131.519531 " fill-opacity="1" fill-rule="nonzero"/><path fill="#fbb97f" d="M 35.515625 169.019531 C 33.136719 165.960938 30.84375 162.902344 28.464844 159.84375 M 28.464844 159.84375 C 26.171875 156.957031 23.875 154.066406 21.582031 151.179688 C 23.960938 150.667969 28.207031 150.242188 32.882812 151.941406 C 40.101562 154.664062 45.542969 161.796875 44.179688 164.179688 C 43.757812 164.941406 42.824219 164.773438 40.019531 166.132812 C 38.066406 167.066406 36.535156 168.171875 35.515625 169.019531 " fill-opacity="1" fill-rule="nonzero"/><path fill="#293241" d="M 136.109375 68.339844 C 135.433594 68.851562 136.027344 69.957031 136.789062 69.445312 C 137.640625 68.851562 138.488281 68.511719 139.425781 68.339844 C 138.574219 68.851562 138.0625 69.785156 138.0625 70.890625 C 138.0625 72.589844 139.425781 73.949219 141.125 73.949219 C 142.824219 73.949219 144.179688 72.589844 144.179688 70.890625 C 144.179688 70.125 143.929688 69.445312 143.503906 68.933594 C 143.585938 69.019531 143.671875 69.019531 143.757812 69.105469 C 145.285156 69.957031 146.476562 71.484375 148.257812 71.824219 C 149.363281 71.996094 150.128906 70.804688 149.363281 69.957031 C 145.964844 65.960938 140.1875 65.285156 136.109375 68.339844 Z M 150.554688 59.507812 C 145.796875 57.550781 140.273438 57.296875 135.601562 59.507812 C 134.496094 60.011719 135.261719 61.628906 136.363281 61.375 C 140.953125 60.269531 145.203125 61.542969 149.703125 62.394531 C 151.746094 62.816406 152.339844 60.269531 150.554688 59.507812 Z M 121.070312 62.222656 C 122.089844 62.222656 122.347656 60.695312 121.328125 60.4375 C 118.355469 59.761719 115.550781 59.589844 112.574219 60.1875 C 110.113281 60.695312 106.714844 61.542969 105.441406 63.921875 C 105.015625 64.6875 105.523438 65.621094 106.460938 65.621094 C 108.753906 65.621094 110.792969 64.007812 113 63.328125 C 115.636719 62.648438 118.355469 62.222656 121.070312 62.222656 Z M 112.660156 71.824219 C 112.660156 73.523438 114.019531 74.882812 115.71875 74.882812 C 117.417969 74.882812 118.777344 73.523438 118.777344 71.824219 C 118.777344 70.71875 118.183594 69.703125 117.25 69.191406 C 118.097656 69.191406 118.863281 69.277344 119.628906 69.703125 C 120.140625 69.957031 120.476562 69.277344 120.054688 68.933594 C 118.183594 67.578125 116.144531 67.234375 113.9375 67.914062 C 112.066406 68.511719 109.175781 70.125 108.753906 72.164062 C 108.582031 72.757812 109.175781 73.4375 109.769531 73.183594 C 111.046875 72.84375 111.894531 71.738281 112.832031 70.890625 C 112.746094 71.230469 112.660156 71.484375 112.660156 71.824219 Z M 127.53125 81.933594 C 126.679688 82.359375 127.273438 83.890625 128.210938 83.464844 C 130.335938 82.613281 131.523438 81 131.355469 78.621094 C 131.265625 77.601562 130.585938 76.582031 130.335938 75.648438 C 129.992188 74.457031 129.992188 73.183594 129.910156 71.996094 C 129.738281 69.785156 129.992188 67.578125 129.230469 65.453125 C 128.886719 64.515625 127.699219 64.515625 127.359375 65.453125 C 126.511719 67.914062 127.019531 70.804688 127.445312 73.355469 C 127.785156 76.074219 130.757812 80.40625 127.53125 81.933594 Z M 122.769531 92.640625 C 122.6875 92.640625 122.6875 92.640625 122.601562 92.640625 C 123.027344 97.3125 128.292969 99.945312 132.035156 96.804688 C 134.070312 95.105469 135.007812 92.554688 135.601562 90.09375 C 131.4375 91.023438 127.105469 92.300781 122.769531 92.640625 Z M 121.753906 91.621094 C 121.753906 91.109375 122.007812 90.601562 122.515625 90.429688 C 126.851562 89.074219 131.777344 88.648438 136.28125 87.882812 C 136.960938 87.203125 138.488281 87.882812 138.234375 89.074219 C 137.300781 93.914062 135.007812 99.605469 129.484375 100.371094 C 124.640625 101.050781 120.902344 97.144531 120.988281 92.472656 C 120.988281 91.960938 121.328125 91.703125 121.753906 91.621094 Z M 237.214844 259.671875 C 235.855469 253.644531 236.363281 247.777344 238.488281 242 C 239.085938 240.386719 236.363281 239.199219 235.6875 240.8125 C 232.964844 247.015625 232.714844 253.8125 235.175781 260.183594 C 235.6875 261.460938 237.554688 260.949219 237.214844 259.671875 Z M 259.902344 244.890625 C 258.878906 243.023438 258.285156 240.980469 258.117188 238.945312 C 257.945312 237.160156 258.453125 235.375 258.371094 233.589844 C 258.285156 232.402344 256.671875 231.804688 256.078125 232.996094 C 254.035156 236.902344 255.824219 242.511719 257.945312 246.078125 C 258.710938 247.183594 260.578125 246.078125 259.902344 244.890625 Z M 267.972656 243.871094 C 268.648438 244.46875 269.585938 243.53125 268.90625 242.9375 C 264.65625 238.265625 267.460938 231.382812 267.972656 225.859375 C 268.140625 224.332031 265.59375 223.988281 265.25 225.519531 C 264.230469 231.296875 262.789062 239.625 267.972656 243.871094 Z M 293.96875 246.167969 C 283.179688 251.859375 272.472656 257.464844 261.769531 263.242188 C 260.410156 264.007812 261.601562 266.132812 263.042969 265.367188 C 273.664062 259.503906 284.199219 253.472656 294.5625 247.183594 C 295.160156 246.761719 294.648438 245.824219 293.96875 246.167969 Z M 250.042969 269.785156 C 241.632812 274.285156 233.390625 279.132812 225.234375 284.144531 C 217.671875 288.816406 209.347656 293.234375 202.722656 299.097656 C 201.871094 299.863281 202.976562 301.136719 203.910156 300.625 C 211.980469 296.464844 219.457031 290.429688 227.191406 285.585938 C 235.007812 280.660156 242.910156 275.816406 250.808594 271.0625 C 251.574219 270.550781 250.894531 269.363281 250.042969 269.785156 Z M 287.257812 244.722656 C 287.851562 244.722656 288.363281 244.378906 288.53125 243.871094 C 289.039062 243.53125 289.550781 243.191406 290.0625 242.769531 C 290.996094 242 289.976562 240.472656 288.957031 240.8125 C 288.703125 240.898438 288.363281 241.070312 288.109375 241.152344 C 286.832031 236.226562 286.410156 231.296875 286.746094 226.113281 C 287.089844 220.589844 287.683594 213.285156 290.824219 208.527344 C 291.335938 207.765625 290.144531 206.914062 289.636719 207.589844 C 285.984375 212.09375 285.132812 218.636719 284.453125 224.160156 C 283.691406 230.191406 283.859375 236.308594 285.472656 242.171875 C 280.886719 244.210938 276.550781 247.015625 272.222656 249.308594 C 266.1875 252.539062 260.152344 255.765625 254.125 258.992188 C 242.058594 265.453125 229.992188 271.910156 218.097656 278.535156 C 216.996094 279.132812 217.929688 280.746094 219.035156 280.152344 C 231.265625 274.035156 243.332031 267.664062 255.480469 261.289062 C 261.257812 258.230469 267.035156 255.257812 272.816406 252.195312 C 277.488281 249.820312 282.753906 247.609375 287.257812 244.722656 Z M 74.429688 192.722656 C 74.769531 177.347656 72.644531 162.136719 68.652344 147.269531 C 68.3125 146.082031 66.527344 146.589844 66.78125 147.78125 C 70.351562 162.902344 72.050781 178.453125 71.457031 193.914062 C 70.863281 208.695312 69.585938 223.394531 70.4375 238.179688 C 71.113281 249.734375 72.644531 261.203125 72.644531 272.84375 C 72.644531 289.753906 71.03125 306.660156 68.3125 323.3125 C 67.972656 325.519531 71.285156 326.453125 71.625 324.246094 C 74.597656 307.675781 76.210938 290.941406 76.128906 274.117188 C 76.128906 262.054688 74.429688 250.246094 73.75 238.179688 C 72.984375 223.058594 74.171875 207.933594 74.429688 192.722656 Z M 193.457031 243.023438 C 192.441406 227.644531 191.507812 212.265625 190.742188 196.800781 C 190.058594 182.871094 188.703125 167.660156 195.667969 154.914062 C 196.179688 154.066406 194.820312 153.214844 194.308594 154.152344 C 187.597656 165.535156 187.085938 178.367188 187.429688 191.28125 C 187.9375 207.253906 188.871094 223.226562 189.976562 239.113281 C 192.101562 271.144531 194.90625 303.171875 198.730469 335.121094 C 198.980469 336.988281 201.953125 337.074219 201.703125 335.121094 C 198.472656 304.535156 195.582031 273.863281 193.457031 243.023438 Z M 44.179688 193.402344 C 43.671875 212.519531 39.253906 230.105469 34.410156 248.375 C 33.902344 250.414062 36.703125 251.09375 37.472656 249.222656 C 44.4375 231.890625 46.222656 211.839844 46.136719 193.402344 C 46.222656 192.046875 44.179688 192.046875 44.179688 193.402344 Z M 146.304688 203.515625 C 144.4375 185.417969 141.632812 167.40625 137.640625 149.566406 C 137.382812 148.542969 135.941406 148.96875 136.109375 149.988281 C 139.507812 168.339844 142.3125 186.777344 143.84375 205.382812 C 144.605469 214.21875 145.117188 223.140625 145.371094 232.0625 C 145.628906 241.238281 145.117188 250.496094 145.628906 259.671875 C 145.710938 261.542969 148.347656 261.542969 148.515625 259.671875 C 149.363281 250.246094 148.683594 240.472656 148.257812 231.042969 C 147.921875 221.867188 147.242188 212.6875 146.304688 203.515625 Z M 158.542969 71.824219 C 157.773438 72.082031 158.03125 73.355469 158.878906 73.101562 C 159.730469 72.84375 160.324219 73.609375 160.664062 74.375 C 161.003906 75.222656 160.75 76.242188 161.597656 76.753906 C 162.023438 77.007812 162.535156 76.835938 162.789062 76.410156 C 163.550781 75.394531 162.449219 73.4375 161.683594 72.675781 C 160.921875 71.910156 159.558594 71.484375 158.542969 71.824219 Z M 91.675781 78.707031 C 92.269531 79.214844 92.953125 78.960938 93.203125 78.28125 C 93.460938 77.601562 93.035156 76.835938 93.035156 76.15625 C 93.035156 75.648438 93.203125 74.03125 94.140625 74.628906 C 94.734375 75.054688 95.246094 74.117188 94.734375 73.695312 C 92.441406 71.996094 89.976562 77.261719 91.675781 78.707031 Z M 141.632812 106.742188 C 132.628906 111.160156 122.601562 112.519531 113.34375 108.101562 C 112.574219 107.761719 111.894531 108.867188 112.660156 109.292969 C 122.175781 113.964844 133.5625 114.730469 142.824219 108.785156 C 144.097656 107.933594 142.992188 106.0625 141.632812 106.742188 Z M 42.058594 161.203125 C 42.824219 161.289062 42.90625 160.097656 42.226562 159.929688 C 37.554688 158.910156 31.949219 158.570312 27.53125 160.609375 C 26.679688 161.035156 27.105469 162.480469 28.039062 162.394531 C 30.417969 162.054688 32.628906 161.375 35.003906 161.117188 C 37.300781 160.949219 39.679688 160.949219 42.058594 161.203125 Z M 39.59375 157.210938 C 40.101562 157.382812 40.273438 156.613281 39.851562 156.445312 C 33.816406 154.238281 26.765625 153.726562 20.816406 156.363281 C 19.882812 156.785156 20.5625 158.144531 21.496094 157.890625 C 27.699219 156.191406 33.222656 155.425781 39.59375 157.210938 Z M 32.710938 152.367188 C 33.304688 152.539062 33.5625 151.601562 32.96875 151.433594 C 28.886719 150.160156 23.195312 148.886719 19.375 151.601562 C 18.355469 152.285156 19.203125 153.8125 20.308594 153.300781 C 24.132812 151.433594 28.71875 151.347656 32.710938 152.367188 Z M 44.097656 165.453125 C 38.914062 166.386719 36.109375 171.570312 31.179688 172.84375 C 29.992188 173.097656 29.570312 171.65625 30.417969 171.058594 C 32.542969 169.445312 35.003906 167.914062 37.300781 166.558594 C 39.339844 165.367188 41.464844 164.515625 43.84375 164.347656 C 44.605469 164.179688 44.777344 165.285156 44.097656 165.453125 " fill-opacity="1" fill-rule="nonzero"/></svg>