<svg xmlns="http://www.w3.org/2000/svg" xmlns:xlink="http://www.w3.org/1999/xlink" width="1910" zoomAndPan="magnify" viewBox="0 0 1432.5 1357.499964" height="1810" preserveAspectRatio="xMidYMid meet" version="1.0"><defs><clipPath id="d0aa1e9661"><path d="M 132.914062 0 L 1299.085938 0 L 1299.085938 1357 L 132.914062 1357 Z M 132.914062 0 " clip-rule="nonzero"/></clipPath><clipPath id="c559abd102"><path d="M 716 0 L 1299.085938 339.25 L 1299.085938 1017.75 L 716 1357 L 132.914062 1017.75 L 132.914062 339.25 Z M 716 0 " clip-rule="nonzero"/></clipPath><clipPath id="8d92206f0d"><path d="M 132.914062 0 L 1298.734375 0 L 1298.734375 1357 L 132.914062 1357 Z M 132.914062 0 " clip-rule="nonzero"/></clipPath><clipPath id="990e75cd14"><path d="M 716 0 L 1299.085938 339.25 L 1299.085938 1017.75 L 716 1357 L 132.914062 1017.75 L 132.914062 339.25 Z M 716 0 " clip-rule="nonzero"/></clipPath><clipPath id="702ab7e406"><path d="M 345.179688 219 L 1086.65625 219 L 1086.65625 1044.730469 L 345.179688 1044.730469 Z M 345.179688 219 " clip-rule="nonzero"/></clipPath></defs><g clip-path="url(#d0aa1e9661)"><g clip-path="url(#c559abd102)"><path fill="#fbb97f" d="M 132.914062 0 L 1299.085938 0 L 1299.085938 1357.496094 L 132.914062 1357.496094 Z M 132.914062 0 " fill-opacity="1" fill-rule="nonzero"/></g></g><g clip-path="url(#8d92206f0d)"><g clip-path="url(#990e75cd14)"><path stroke-linecap="butt" transform="matrix(0.749724, 0, 0, 0.749724, 132.914086, 0)" fill="none" stroke-linejoin="miter" d="M 777.734341 0 L 1555.468713 452.499998 L 1555.468713 1357.499995 L 777.734341 1809.999993 L -0.0000308837 1357.499995 L -0.0000308837 452.499998 Z M 777.734341 0 " stroke="#b26500" stroke-width="200" stroke-opacity="1" stroke-miterlimit="4"/></g></g><g clip-path="url(#702ab7e406)"><path fill="#b26500" d="M 1060.964844 888.300781 L 1015.816406 888.335938 C 1015.519531 888.335938 1015.316406 888.234375 1015.015625 888.015625 C 1014.816406 887.796875 1014.714844 887.566406 1014.714844 887.300781 L 1014.515625 679.589844 C 1014.515625 679.320312 1014.714844 679.085938 1014.917969 678.871094 C 1015.117188 678.65625 1015.316406 678.554688 1015.617188 678.554688 L 1060.765625 678.519531 C 1061.066406 678.519531 1061.265625 678.621094 1061.46875 678.839844 C 1061.667969 679.039062 1061.769531 679.289062 1061.769531 679.554688 L 1061.96875 887.25 C 1061.96875 887.796875 1061.464844 888.300781 1060.964844 888.300781 Z M 881.179688 851.511719 L 784.164062 764.386719 C 779.347656 760.082031 772.023438 760.113281 767.308594 764.46875 C 753.363281 777.222656 742.027344 787.882812 731.492188 798.019531 C 711.628906 817.3125 687.148438 810.109375 652.136719 796.769531 C 674.808594 774.257812 697.082031 753.230469 724.167969 728.230469 C 732.699219 721.695312 740.320312 715.359375 747.644531 709.238281 C 769.816406 690.578125 785.871094 677.105469 808.042969 675.035156 C 822.691406 673.6875 839.949219 677.421875 861.015625 686.511719 C 870.046875 690.394531 878.773438 692.214844 888.609375 692.214844 L 888.707031 692.214844 L 989.535156 692.125 L 989.738281 874.8125 L 901.550781 874.890625 C 896.828125 867.289062 890.109375 859.484375 881.179688 851.511719 Z M 884.390625 900.910156 C 884.894531 897.453125 883.890625 887.566406 864.425781 870.125 L 775.835938 790.582031 C 765.804688 799.902344 757.078125 808.109375 748.949219 815.996094 C 716.042969 847.894531 675.410156 832.40625 642.804688 819.964844 C 636.785156 817.664062 631.066406 815.515625 625.648438 813.660156 C 621.535156 812.277344 618.425781 808.914062 617.425781 804.726562 C 616.421875 800.542969 617.625 796.136719 620.636719 793.050781 C 645.617188 767.523438 669.191406 745.125 697.484375 718.84375 C 645.917969 674.753906 601.875 665.179688 552.3125 686.59375 C 544.589844 689.945312 537.164062 691.710938 529.136719 692.179688 C 528.835938 692.195312 528.636719 692.214844 528.335938 692.195312 L 442.65625 692.125 L 442.554688 874.8125 L 533.351562 874.890625 C 535.457031 870.988281 538.265625 867.4375 541.578125 864.382812 L 569.96875 838.65625 C 585.921875 824.148438 610.300781 825.230469 625.449219 841.140625 C 625.550781 841.207031 625.648438 841.289062 625.648438 841.355469 C 632.472656 848.824219 636.085938 858.429688 635.882812 868.523438 C 645.515625 869.285156 654.84375 873.507812 661.867188 881.144531 C 668.6875 888.464844 672.503906 898.636719 672.101562 909.0625 C 672.101562 909.859375 672 910.660156 671.902344 911.441406 C 680.429688 912.78125 688.554688 916.828125 694.976562 923.613281 C 695.078125 923.683594 695.179688 923.765625 695.179688 923.835938 C 702.300781 931.621094 705.914062 941.710938 705.410156 952.261719 C 705.410156 952.480469 705.308594 952.699219 705.308594 952.933594 C 714.339844 954.082031 722.964844 958.265625 729.488281 965.488281 C 741.027344 978.179688 742.632812 996.371094 735.007812 1010.679688 C 741.324219 1012.816406 747.445312 1012.164062 751.257812 1009.480469 C 757.980469 1004.726562 754.972656 994.617188 752.5625 989.019531 C 750.355469 983.679688 751.960938 977.496094 756.675781 974.042969 C 761.292969 970.589844 767.710938 970.789062 772.125 974.511719 C 781.65625 982.550781 790.988281 985.300781 797.109375 981.882812 C 802.824219 978.683594 805.535156 970.292969 804.03125 960.507812 C 803.328125 956.050781 805.132812 951.582031 808.644531 948.800781 C 812.15625 945.996094 816.871094 945.328125 821.085938 947.027344 C 831.519531 951.28125 840.246094 950.230469 844.863281 944.164062 C 848.273438 939.589844 848.675781 933.289062 845.765625 929.484375 C 841.652344 924.25 842.457031 916.746094 847.371094 912.394531 C 851.683594 908.675781 857.804688 908.359375 862.421875 911.292969 C 865.53125 911.640625 874.058594 910.605469 880.078125 906.554688 C 883.988281 903.894531 884.289062 901.640625 884.390625 900.910156 Z M 674.808594 1015.101562 C 669.492188 1009.195312 669.890625 1000.0625 675.8125 994.707031 L 690.558594 981.316406 C 696.476562 975.960938 705.609375 976.414062 711.027344 982.316406 C 716.34375 988.203125 715.839844 997.355469 710.023438 1002.710938 L 695.273438 1016.085938 C 689.355469 1021.4375 680.226562 1020.988281 674.808594 1015.101562 Z M 657.253906 977.828125 C 651.332031 983.183594 642.503906 982.699219 636.683594 976.734375 C 631.464844 970.828125 631.96875 961.757812 637.789062 956.4375 L 656.25 939.664062 C 662.167969 934.292969 670.996094 934.777344 676.816406 940.757812 C 679.324219 943.582031 680.53125 947.230469 680.429688 951.050781 C 680.226562 954.917969 678.523438 958.46875 675.710938 961.054688 L 673.808594 962.773438 C 673.808594 962.789062 673.808594 962.789062 673.808594 962.808594 L 659.058594 976.179688 C 659.058594 976.179688 659.058594 976.179688 659.058594 976.195312 Z M 604.78125 946.863281 C 600.96875 946.679688 597.355469 945.015625 594.847656 942.175781 C 592.238281 939.34375 590.933594 935.640625 591.136719 931.773438 C 591.335938 927.90625 592.941406 924.355469 595.753906 921.78125 L 623.042969 897.085938 C 625.75 894.585938 629.261719 893.347656 632.671875 893.347656 C 636.585938 893.347656 640.597656 894.9375 643.40625 898.070312 C 643.507812 898.15625 643.507812 898.222656 643.605469 898.304688 C 645.914062 900.773438 647.21875 904.359375 647.117188 908.160156 C 646.917969 912.210938 645.3125 915.863281 642.402344 918.484375 L 639.492188 921.132812 L 639.492188 921.152344 L 615.214844 943.160156 C 612.40625 945.730469 608.691406 947.066406 604.78125 946.863281 Z M 553.714844 892.90625 C 553.914062 889.035156 555.621094 885.484375 558.429688 882.917969 L 586.820312 857.183594 C 592.640625 851.816406 601.46875 852.296875 607.289062 858.285156 C 609.796875 861.105469 611.101562 864.757812 610.902344 868.570312 C 610.699219 872.445312 608.996094 875.996094 606.183594 878.578125 L 578.996094 903.257812 C 578.597656 903.609375 578.195312 903.960938 577.894531 904.328125 L 577.894531 904.296875 C 571.972656 909.648438 562.84375 909.199219 557.425781 903.3125 C 554.917969 900.472656 553.511719 896.773438 553.714844 892.90625 Z M 417.472656 887.300781 C 417.472656 887.832031 416.96875 888.335938 416.46875 888.335938 L 371.320312 888.300781 C 370.820312 888.300781 370.316406 887.796875 370.316406 887.25 L 370.417969 679.554688 C 370.417969 679.007812 370.921875 678.519531 371.523438 678.519531 L 416.667969 678.554688 C 416.96875 678.554688 417.171875 678.65625 417.371094 678.871094 C 417.570312 679.085938 417.671875 679.324219 417.671875 679.589844 Z M 686.746094 499.957031 C 692.464844 499.226562 698.082031 498.109375 703.601562 496.640625 L 703.601562 518.6875 C 698.6875 511.949219 692.964844 505.679688 686.746094 499.957031 Z M 615.515625 564.558594 C 642.101562 579.902344 673.101562 583.234375 701.996094 574.179688 C 695.375 544.632812 677.015625 519.449219 650.429688 504.125 C 644.308594 500.589844 637.988281 497.722656 631.464844 495.472656 C 629.960938 495.019531 628.457031 494.535156 626.953125 494.039062 C 606.484375 487.917969 584.714844 488 563.945312 494.503906 C 570.570312 524.054688 589.03125 549.234375 615.515625 564.558594 Z M 563.945312 391.417969 C 592.839844 382.359375 623.839844 385.714844 650.429688 401.039062 C 677.015625 416.359375 695.375 441.542969 701.996094 471.109375 C 681.230469 477.609375 659.359375 477.675781 638.789062 471.507812 C 637.386719 471.027344 635.980469 470.574219 634.476562 470.140625 C 628.054688 467.894531 621.636719 465.023438 615.515625 461.488281 C 589.03125 446.160156 570.570312 420.980469 563.945312 391.417969 Z M 716.144531 248.136719 C 690.660156 271.117188 676.210938 303.402344 676.210938 338.152344 C 676.210938 372.871094 690.660156 405.171875 716.144531 428.152344 C 741.625 405.171875 756.074219 372.871094 756.074219 338.136719 C 756.074219 303.402344 741.625 271.117188 716.144531 248.136719 Z M 868.339844 391.417969 C 861.714844 420.980469 843.257812 446.160156 816.671875 461.488281 C 810.652344 465.023438 804.230469 467.871094 797.707031 470.140625 C 796.304688 470.578125 794.898438 471.042969 793.394531 471.523438 C 772.929688 477.679688 751.058594 477.613281 730.289062 471.109375 C 736.910156 441.542969 755.273438 416.359375 781.855469 401.039062 C 808.34375 385.714844 839.34375 382.359375 868.339844 391.417969 Z M 728.683594 518.6875 L 728.683594 496.636719 C 734.203125 498.105469 739.820312 499.222656 745.4375 499.957031 C 739.21875 505.679688 733.601562 511.949219 728.683594 518.6875 Z M 816.671875 564.558594 C 843.257812 549.234375 861.714844 524.054688 868.339844 494.503906 C 847.570312 488 825.699219 487.933594 805.234375 494.039062 C 803.726562 494.535156 802.324219 495.023438 800.820312 495.472656 C 794.296875 497.722656 787.976562 500.589844 781.855469 504.125 C 755.273438 519.449219 736.910156 544.632812 730.289062 574.179688 C 759.183594 583.253906 790.183594 579.902344 816.671875 564.558594 Z M 1086.847656 679.539062 C 1086.75 672.585938 1084.039062 666.046875 1079.121094 661.128906 C 1074.207031 656.207031 1067.683594 653.507812 1060.761719 653.507812 L 1015.617188 653.539062 C 1008.59375 653.539062 1002.070312 656.257812 997.15625 661.191406 C 995.351562 662.980469 993.945312 664.964844 992.742188 667.097656 L 888.703125 667.199219 C 888.601562 667.199219 888.601562 667.199219 888.601562 667.199219 C 882.179688 667.199219 876.863281 666.09375 870.945312 663.542969 C 845.960938 652.757812 824.59375 648.367188 805.730469 650.136719 C 775.832031 652.921875 755.269531 670.132812 731.488281 690.058594 C 730.585938 690.859375 729.582031 691.675781 728.679688 692.476562 L 728.679688 599.726562 C 739.816406 602.695312 751.253906 604.195312 762.691406 604.195312 C 785.667969 604.195312 808.542969 598.160156 829.207031 586.222656 C 865.425781 565.308594 889.304688 529.503906 894.820312 487.96875 C 895.523438 482.367188 892.414062 476.945312 887.195312 474.777344 C 876.058594 470.175781 864.621094 467.140625 853.085938 465.621094 C 875.859375 444.695312 890.710938 416.449219 894.820312 384.878906 C 895.523438 379.273438 892.414062 373.875 887.195312 371.703125 C 850.976562 356.679688 810.949219 358.183594 776.234375 375.621094 C 779.445312 363.566406 781.050781 350.996094 781.050781 338.136719 C 781.050781 292.246094 760.179688 249.886719 723.761719 221.941406 C 719.246094 218.507812 713.027344 218.507812 708.511719 221.941406 C 672.09375 249.890625 651.226562 292.246094 651.226562 338.152344 C 651.226562 350.996094 652.832031 363.570312 655.941406 375.625 C 621.328125 358.183594 581.296875 356.683594 545.078125 371.703125 C 539.863281 373.875 536.652344 379.273438 537.453125 384.878906 C 541.570312 416.449219 556.417969 444.695312 579.191406 465.625 C 567.550781 467.140625 556.113281 470.179688 545.078125 474.78125 C 539.863281 476.949219 536.652344 482.367188 537.453125 487.96875 C 542.871094 529.507812 566.75 565.3125 602.96875 586.222656 C 623.734375 598.160156 646.609375 604.195312 669.585938 604.195312 C 681.023438 604.195312 692.359375 602.699219 703.59375 599.726562 L 703.59375 691.480469 C 682.625 674.9375 662.863281 663.929688 642.796875 657.429688 C 609.6875 646.722656 576.882812 648.738281 542.367188 663.632812 C 537.453125 665.765625 533.039062 666.863281 528.023438 667.183594 L 439.535156 667.097656 C 438.332031 664.960938 436.828125 662.980469 435.121094 661.191406 C 430.101562 656.261719 423.582031 653.539062 416.660156 653.539062 L 371.511719 653.507812 C 357.167969 653.507812 345.429688 665.179688 345.429688 679.539062 L 345.226562 887.234375 C 345.226562 901.609375 356.867188 913.296875 371.3125 913.3125 L 416.460938 913.34375 C 426.292969 913.34375 434.820312 907.878906 439.335938 899.820312 L 529.226562 899.90625 C 530.429688 907.394531 533.742188 914.378906 538.957031 920.117188 C 545.980469 927.851562 555.613281 932.421875 566.046875 932.957031 C 566.148438 942.628906 569.757812 951.796875 576.28125 958.984375 C 584.003906 967.558594 594.742188 971.910156 605.476562 971.910156 C 606.480469 971.910156 607.382812 971.84375 608.386719 971.777344 C 609.289062 979.664062 612.597656 987.335938 618.316406 993.65625 C 618.316406 993.722656 618.417969 993.792969 618.515625 993.871094 C 626.140625 1001.875 636.074219 1006.113281 646.105469 1006.511719 C 646.40625 1015.597656 649.71875 1024.65625 656.339844 1031.910156 C 663.363281 1039.679688 673.09375 1044.246094 683.628906 1044.765625 C 684.328125 1044.796875 684.933594 1044.8125 685.636719 1044.8125 C 695.464844 1044.8125 704.796875 1041.226562 712.019531 1034.59375 L 717.238281 1029.90625 C 725.164062 1034.609375 733.992188 1037.027344 742.421875 1037.027344 C 750.847656 1037.027344 758.875 1034.691406 765.695312 1029.90625 C 772.417969 1025.136719 778.238281 1017.269531 779.839844 1006.730469 C 790.375 1009.578125 800.507812 1008.644531 809.335938 1003.691406 C 819.871094 997.773438 826.695312 987.253906 828.699219 974.460938 C 845.355469 975.84375 857.796875 968.390625 864.71875 959.285156 C 870.136719 952.164062 872.847656 943.746094 872.746094 935.503906 C 877.160156 934.734375 880.46875 933.6875 881.375 933.402344 C 897.226562 928.167969 907.359375 917.542969 909.265625 904.289062 C 909.464844 902.839844 909.464844 901.371094 909.464844 899.882812 L 992.9375 899.816406 C 994.140625 901.953125 995.644531 903.9375 997.351562 905.722656 C 1002.265625 910.625 1008.789062 913.34375 1015.808594 913.34375 L 1060.957031 913.3125 C 1075.304688 913.296875 1086.941406 901.585938 1086.941406 887.230469 Z M 1086.847656 679.539062 " fill-opacity="1" fill-rule="evenodd"/></g></svg>