<svg xmlns="http://www.w3.org/2000/svg" xmlns:xlink="http://www.w3.org/1999/xlink" width="1910" zoomAndPan="magnify" viewBox="0 0 1432.5 1357.499964" height="1810" preserveAspectRatio="xMidYMid meet" version="1.0"><defs><clipPath id="4bae54e45f"><path d="M 132.914062 0 L 1299.085938 0 L 1299.085938 1357 L 132.914062 1357 Z M 132.914062 0 " clip-rule="nonzero"/></clipPath><clipPath id="87f50b67a2"><path d="M 716 0 L 1299.085938 339.25 L 1299.085938 1017.75 L 716 1357 L 132.914062 1017.75 L 132.914062 339.25 Z M 716 0 " clip-rule="nonzero"/></clipPath><clipPath id="7fb44b92da"><path d="M 132.914062 0 L 1298.734375 0 L 1298.734375 1357 L 132.914062 1357 Z M 132.914062 0 " clip-rule="nonzero"/></clipPath><clipPath id="3ec61b3d9e"><path d="M 716 0 L 1299.085938 339.25 L 1299.085938 1017.75 L 716 1357 L 132.914062 1017.75 L 132.914062 339.25 Z M 716 0 " clip-rule="nonzero"/></clipPath><clipPath id="8f8b5661a2"><path d="M 315 430.871094 L 915 430.871094 L 915 640 L 315 640 Z M 315 430.871094 " clip-rule="nonzero"/></clipPath></defs><g clip-path="url(#4bae54e45f)"><g clip-path="url(#87f50b67a2)"><path fill="#ecacff" d="M 132.914062 0 L 1299.085938 0 L 1299.085938 1357.496094 L 132.914062 1357.496094 Z M 132.914062 0 " fill-opacity="1" fill-rule="nonzero"/></g></g><g clip-path="url(#7fb44b92da)"><g clip-path="url(#3ec61b3d9e)"><path stroke-linecap="butt" transform="matrix(0.749724, 0, 0, 0.749724, 132.914086, 0)" fill="none" stroke-linejoin="miter" d="M 777.734341 0 L 1555.468713 452.499998 L 1555.468713 1357.499995 L 777.734341 1809.999993 L -0.0000308837 1357.499995 L -0.0000308837 452.499998 Z M 777.734341 0 " stroke="#892e7a" stroke-width="200" stroke-opacity="1" stroke-miterlimit="4"/></g></g><path fill="#892e7a" d="M 277.78125 714.335938 L 277.78125 877.765625 C 277.78125 880.421875 279.941406 882.578125 282.597656 882.578125 L 383.980469 882.578125 C 386.636719 882.578125 388.785156 880.421875 388.785156 877.765625 L 388.785156 714.335938 C 388.785156 711.679688 386.636719 709.527344 383.980469 709.527344 L 282.597656 709.527344 C 279.941406 709.527344 277.78125 711.679688 277.78125 714.335938 Z M 403.25 796.035156 C 403.257812 830.0625 403 864.109375 403.355469 898.140625 C 403.546875 916.890625 395.859375 926.019531 376.253906 925.546875 C 347.527344 924.84375 318.769531 924.972656 290.035156 925.496094 C 270.683594 925.851562 262.515625 916.527344 262.542969 897.949219 C 262.644531 829.113281 262.636719 760.289062 262.558594 691.457031 C 262.539062 673.621094 271.117188 665.125 288.988281 665.253906 C 318.484375 665.472656 347.988281 665.5 377.484375 665.246094 C 395.589844 665.089844 403.53125 673.703125 403.347656 691.648438 C 402.988281 726.441406 403.242188 761.238281 403.25 796.035156 " fill-opacity="1" fill-rule="nonzero"/><path fill="#892e7a" d="M 786.917969 765.628906 L 786.917969 815.707031 C 786.917969 820.4375 783.082031 824.292969 778.328125 824.292969 L 629.695312 824.292969 C 627.640625 824.292969 625.996094 825.941406 625.996094 827.976562 L 625.996094 847.738281 C 625.996094 849.769531 627.628906 851.421875 629.652344 851.421875 C 641.753906 851.472656 654.019531 851.59375 666.3125 851.78125 C 670.300781 851.839844 676.03125 855.863281 677.816406 859.566406 C 684.90625 874.195312 691.019531 889.296875 697.578125 904.734375 C 698.480469 906.859375 696.925781 909.21875 694.625 909.21875 L 533.511719 909.21875 C 531.097656 909.21875 529.546875 906.613281 530.691406 904.488281 C 539.265625 888.570312 547.914062 872.523438 558.304688 853.179688 C 558.878906 852.109375 560.003906 851.421875 561.21875 851.421875 C 574.578125 851.421875 588.9375 851.378906 603.855469 851.378906 C 605.886719 851.378906 607.550781 849.730469 607.550781 847.695312 L 607.550781 827.976562 C 607.550781 825.941406 605.902344 824.292969 603.855469 824.292969 L 439.058594 824.292969 C 434.324219 824.292969 430.472656 820.4375 430.472656 815.707031 L 430.472656 765.628906 C 430.472656 760.890625 434.324219 757.039062 439.058594 757.039062 L 778.328125 757.039062 C 783.082031 757.039062 786.917969 760.890625 786.917969 765.628906 " fill-opacity="1" fill-rule="nonzero"/><g clip-path="url(#8f8b5661a2)"><path fill="#892e7a" d="M 316.167969 639.03125 L 316.898438 639.023438 C 327.070312 639.023438 336.8125 638.921875 347.578125 638.902344 C 349.695312 638.902344 351.425781 637.1875 351.425781 635.0625 C 351.425781 613.789062 351.425781 510.113281 351.425781 477.917969 C 351.425781 472.632812 355.710938 468.359375 361 468.359375 L 869.835938 468.359375 C 875.125 468.359375 879.414062 472.644531 879.414062 477.929688 L 879.414062 517.917969 C 879.414062 518.65625 880.007812 519.257812 880.746094 519.257812 L 912.855469 519.257812 C 913.742188 519.257812 914.460938 518.519531 914.460938 517.628906 C 914.460938 497.871094 914.492188 479.59375 914.457031 461.320312 C 914.414062 440.734375 903.792969 430.902344 883.476562 430.902344 C 704.40625 430.910156 525.332031 430.800781 346.261719 431.042969 C 323.394531 431.078125 316.027344 439.5 315.949219 463.308594 C 315.777344 516.203125 315.84375 569.089844 315.984375 621.984375 C 315.992188 626.40625 315.890625 630.90625 316.113281 635.269531 L 316.167969 639.03125 " fill-opacity="1" fill-rule="nonzero"/></g><path fill="#892e7a" d="M 1043.691406 707.445312 L 1043.691406 870.875 C 1043.691406 873.53125 1045.84375 875.683594 1048.5 875.683594 L 1149.882812 875.683594 C 1152.539062 875.683594 1154.695312 873.53125 1154.695312 870.875 L 1154.695312 707.445312 C 1154.695312 704.789062 1152.539062 702.632812 1149.882812 702.632812 L 1048.5 702.632812 C 1045.84375 702.632812 1043.691406 704.789062 1043.691406 707.445312 Z M 1169.160156 789.132812 C 1169.160156 823.171875 1168.910156 857.210938 1169.257812 891.246094 C 1169.457031 909.996094 1161.765625 919.128906 1142.164062 918.648438 C 1113.4375 917.945312 1084.679688 918.082031 1055.941406 918.605469 C 1036.59375 918.957031 1028.425781 909.636719 1028.453125 891.054688 C 1028.554688 822.222656 1028.546875 753.390625 1028.46875 684.558594 C 1028.449219 666.71875 1037.019531 658.234375 1054.898438 658.359375 C 1084.394531 658.574219 1113.898438 658.609375 1143.390625 658.347656 C 1161.5 658.191406 1169.441406 666.8125 1169.25 684.753906 C 1168.898438 719.542969 1169.152344 754.347656 1169.160156 789.132812 " fill-opacity="1" fill-rule="nonzero"/><path fill="#892e7a" d="M 990.132812 869.054688 L 990.152344 869.054688 C 990.152344 863.820312 990.167969 858.570312 990.167969 853.277344 L 990.132812 869.054688 " fill-opacity="1" fill-rule="nonzero"/><path fill="#892e7a" d="M 1086.621094 618.910156 C 1086.621094 619.621094 1086.058594 620.171875 1085.371094 620.171875 C 1079.734375 620.160156 1074.003906 620.136719 1068.214844 620.121094 C 1067.523438 620.101562 1066.949219 619.542969 1066.949219 618.855469 L 1066.949219 584.578125 C 1066.949219 577.519531 1061.238281 571.804688 1054.183594 571.804688 L 846.5 571.804688 C 839.445312 571.804688 833.734375 577.519531 833.734375 584.589844 L 833.734375 837.382812 C 833.734375 844.4375 839.46875 850.152344 846.5 850.152344 L 987.0625 850.152344 C 988.769531 850.152344 990.132812 851.515625 990.167969 853.199219 L 990.167969 853.277344 L 990.132812 869.054688 L 990.152344 869.054688 L 990.074219 908.027344 C 990.054688 909.734375 988.671875 911.117188 986.964844 911.117188 C 942.125 911.195312 897.285156 911.152344 852.402344 910.980469 C 824.726562 910.867188 814.101562 900.320312 814.042969 872.445312 C 813.816406 775.808594 813.816406 679.144531 814.042969 582.507812 C 814.121094 555.535156 824.167969 545.027344 850.816406 544.851562 C 917.261719 544.410156 983.707031 544.445312 1050.152344 544.816406 C 1076.992188 544.972656 1086.484375 555.128906 1086.5625 582.0625 C 1086.597656 594.351562 1086.621094 606.644531 1086.621094 618.910156 " fill-opacity="1" fill-rule="nonzero"/></svg>