<svg xmlns="http://www.w3.org/2000/svg" xmlns:xlink="http://www.w3.org/1999/xlink" width="1910" zoomAndPan="magnify" viewBox="0 0 1432.5 1357.499964" height="1810" preserveAspectRatio="xMidYMid meet" version="1.0"><defs><clipPath id="fe974d56a6"><path d="M 132.914062 0 L 1299.085938 0 L 1299.085938 1357 L 132.914062 1357 Z M 132.914062 0 " clip-rule="nonzero"/></clipPath><clipPath id="50a990f238"><path d="M 716 0 L 1299.085938 339.25 L 1299.085938 1017.75 L 716 1357 L 132.914062 1017.75 L 132.914062 339.25 Z M 716 0 " clip-rule="nonzero"/></clipPath><clipPath id="729d29426f"><path d="M 132.914062 0 L 1298.734375 0 L 1298.734375 1357 L 132.914062 1357 Z M 132.914062 0 " clip-rule="nonzero"/></clipPath><clipPath id="26f4c3a2db"><path d="M 716 0 L 1299.085938 339.25 L 1299.085938 1017.75 L 716 1357 L 132.914062 1017.75 L 132.914062 339.25 Z M 716 0 " clip-rule="nonzero"/></clipPath><clipPath id="60d845de83"><path d="M 812.09375 773.542969 L 1081.761719 773.542969 L 1081.761719 1040.929688 L 812.09375 1040.929688 Z M 812.09375 773.542969 " clip-rule="nonzero"/></clipPath><clipPath id="6faad59731"><path d="M 795 316.066406 L 1080 316.066406 L 1080 613 L 795 613 Z M 795 316.066406 " clip-rule="nonzero"/></clipPath><clipPath id="af799fefd9"><path d="M 350.230469 744.828125 L 634.140625 744.828125 L 634.140625 1040.929688 L 350.230469 1040.929688 Z M 350.230469 744.828125 " clip-rule="nonzero"/></clipPath></defs><g clip-path="url(#fe974d56a6)"><g clip-path="url(#50a990f238)"><path fill="#f69d9d" d="M 132.914062 0 L 1299.085938 0 L 1299.085938 1357.496094 L 132.914062 1357.496094 Z M 132.914062 0 " fill-opacity="1" fill-rule="nonzero"/></g></g><g clip-path="url(#729d29426f)"><g clip-path="url(#26f4c3a2db)"><path stroke-linecap="butt" transform="matrix(0.749724, 0, 0, 0.749724, 132.914086, 0)" fill="none" stroke-linejoin="miter" d="M 777.734341 0 L 1555.468713 452.499998 L 1555.468713 1357.499995 L 777.734341 1809.999993 L -0.0000308837 1357.499995 L -0.0000308837 452.499998 Z M 777.734341 0 " stroke="#a23f3f" stroke-width="200" stroke-opacity="1" stroke-miterlimit="4"/></g></g><path fill="#a23f3f" d="M 699.195312 837.230469 C 679.902344 837.164062 662.757812 825.730469 655.246094 809.222656 C 653.371094 805.320312 652.035156 801.121094 651.359375 796.707031 C 649.285156 783.132812 653.222656 769.574219 662.160156 759.199219 C 671.15625 748.765625 684.167969 742.964844 697.882812 742.964844 C 697.9375 742.964844 697.992188 742.964844 698.050781 742.964844 L 710.699219 742.832031 L 710.898438 688.492188 L 649.582031 688.226562 C 645.871094 688.214844 642.871094 685.171875 642.886719 681.457031 L 642.953125 662.292969 C 642.988281 652.496094 638.710938 643.164062 631.222656 636.707031 C 623.660156 630.183594 614.03125 627.421875 604.089844 628.929688 C 598.339844 629.804688 593.105469 632.265625 588.726562 635.8125 C 581.410156 642.242188 576.765625 651.882812 576.726562 662.433594 L 576.65625 680.765625 C 576.648438 683.753906 574.671875 686.265625 571.972656 687.128906 C 571.027344 687.617188 569.984375 687.921875 568.898438 687.921875 C 568.894531 687.921875 568.886719 687.921875 568.875 687.921875 L 508.128906 687.6875 L 507.964844 733.792969 C 517.617188 729.457031 529.363281 731.160156 537.359375 739.011719 C 540.734375 742.328125 543.015625 746.339844 544.226562 750.59375 L 547.878906 746.902344 C 552.816406 741.875 559.4375 739.035156 566.515625 739.035156 C 566.597656 739.035156 566.679688 739.035156 566.761719 739.035156 C 573.753906 739.035156 580.324219 741.6875 585.292969 746.566406 C 588.722656 749.929688 591.085938 754.078125 592.28125 758.621094 C 596.648438 755.515625 601.851562 753.792969 607.347656 753.742188 C 614.449219 753.617188 621.097656 756.359375 626.125 761.296875 C 636.035156 771.03125 636.621094 786.703125 627.828125 797.164062 C 632.242188 798.3125 636.296875 800.566406 639.628906 803.832031 C 650.039062 814.050781 650.191406 830.835938 639.976562 841.246094 L 605.113281 876.75 C 609.734375 877.886719 613.980469 880.226562 617.421875 883.667969 C 619.578125 885.820312 621.285156 888.304688 622.566406 890.984375 L 710.167969 891.296875 L 710.359375 837.273438 L 699.195312 837.230469 " fill-opacity="1" fill-rule="nonzero"/><path fill="#a23f3f" d="M 843.988281 885.875 L 850.328125 892.015625 L 892.984375 892.378906 C 893.027344 892.378906 893.070312 892.378906 893.113281 892.378906 C 902.1875 892.378906 910.726562 888.667969 917.171875 882.304688 C 923.628906 875.921875 927.207031 867.3125 927.238281 858.257812 L 927.84375 690.09375 L 873.816406 689.875 L 873.777344 700.769531 C 873.738281 711.554688 870.128906 721.648438 864.070312 729.777344 C 856.917969 740.015625 846.023438 747.328125 833.40625 749.269531 C 831.03125 749.632812 828.648438 749.8125 826.285156 749.8125 C 815.183594 749.8125 804.390625 745.855469 795.859375 738.511719 C 785.328125 729.445312 779.320312 716.292969 779.371094 702.417969 L 779.414062 689.511719 L 724.511719 689.3125 L 724.296875 749.425781 C 724.292969 750.375 724.078125 751.292969 723.699219 752.144531 C 722.765625 754.738281 720.316406 756.605469 717.371094 756.589844 L 698.265625 756.523438 C 688.5625 756.480469 679.242188 760.746094 672.800781 768.210938 C 666.269531 775.777344 663.503906 785.429688 665.015625 795.390625 C 665.453125 798.285156 666.304688 801.050781 667.476562 803.644531 C 673.035156 815.027344 685.238281 822.867188 698.980469 822.917969 L 717.3125 822.980469 C 719.09375 822.988281 720.804688 823.703125 722.058594 824.96875 C 723.316406 826.230469 724.015625 827.945312 724.011719 829.726562 L 723.785156 891.347656 L 802.617188 891.628906 C 803.566406 890.054688 804.691406 888.546875 806 887.148438 C 816.125 876.324219 833.164062 875.753906 843.988281 885.875 " fill-opacity="1" fill-rule="nonzero"/><path fill="#a23f3f" d="M 635.703125 471.355469 C 634.53125 473.828125 632.988281 476.128906 631.070312 478.179688 C 625.785156 483.832031 618.617188 486.683594 611.429688 486.683594 C 604.851562 486.683594 598.257812 484.292969 593.082031 479.453125 L 584.230469 471.351562 L 543.039062 471.382812 C 542.996094 471.382812 542.953125 471.382812 542.910156 471.382812 C 533.839844 471.382812 525.308594 474.722656 518.867188 481.117188 C 512.398438 487.539062 508.816406 496.007812 508.785156 505.121094 L 508.425781 604.457031 C 508.992188 605.988281 509.003906 607.660156 508.410156 609.195312 L 508.175781 673.808594 L 562.203125 674 L 562.242188 663.21875 C 562.296875 648.074219 569.324219 634.261719 580.292969 625.363281 C 586.652344 619.894531 594.4375 616.121094 603.015625 614.8125 C 616.636719 612.734375 630.417969 616.683594 640.820312 625.652344 C 651.296875 634.683594 657.273438 647.75 657.226562 661.5 L 657.179688 674.332031 L 711.507812 674.527344 L 711.722656 614.300781 C 711.734375 611.675781 713.261719 609.460938 715.457031 608.363281 C 716.613281 607.503906 718.007812 607.039062 719.460938 607.039062 C 719.464844 607.039062 719.472656 607.039062 719.484375 607.039062 L 738.515625 607.039062 C 738.554688 607.039062 738.589844 607.039062 738.632812 607.039062 C 748.222656 607.039062 757.371094 602.816406 763.746094 595.433594 C 766.972656 591.699219 769.300781 587.351562 770.648438 582.703125 C 771.832031 578.269531 772.097656 573.570312 771.375 568.804688 C 768.921875 552.675781 754.164062 540.46875 737.042969 540.402344 L 718.710938 540.339844 C 716.929688 540.335938 715.222656 539.621094 713.964844 538.351562 C 712.710938 537.089844 712.007812 535.375 712.015625 533.597656 L 712.238281 471.632812 L 635.703125 471.355469 " fill-opacity="1" fill-rule="nonzero"/><path fill="#a23f3f" d="M 509.394531 471.558594 C 518.371094 462.644531 530.269531 457.902344 542.910156 457.902344 C 542.96875 457.902344 543.027344 457.902344 543.085938 457.902344 L 569.796875 457.839844 L 540.25 430.121094 C 540.195312 430.070312 540.144531 429.984375 540.089844 429.929688 L 537.417969 427.246094 C 535.710938 428.785156 533.9375 430.242188 532.125 431.648438 C 518.46875 442.597656 504.753906 448.140625 491.214844 448.140625 C 490.765625 448.140625 490.316406 448.132812 489.867188 448.121094 C 469.433594 447.566406 457.332031 434.320312 456.828125 433.753906 C 456.734375 433.648438 456.671875 433.53125 456.585938 433.421875 C 456.441406 433.238281 456.304688 433.058594 456.179688 432.867188 C 456.0625 432.679688 455.960938 432.488281 455.859375 432.292969 C 455.761719 432.097656 455.667969 431.902344 455.589844 431.699219 C 455.507812 431.492188 455.445312 431.28125 455.386719 431.070312 C 455.328125 430.867188 455.273438 430.664062 455.238281 430.453125 C 455.199219 430.238281 455.175781 430.023438 455.160156 429.800781 C 455.144531 429.589844 455.128906 429.382812 455.132812 429.171875 C 455.136719 428.957031 455.15625 428.742188 455.179688 428.527344 C 455.203125 428.316406 455.230469 428.101562 455.277344 427.890625 C 455.320312 427.679688 455.378906 427.472656 455.445312 427.265625 C 455.507812 427.066406 455.578125 426.859375 455.660156 426.660156 C 455.746094 426.453125 455.847656 426.257812 455.957031 426.0625 C 456.058594 425.871094 456.164062 425.6875 456.285156 425.511719 C 456.417969 425.316406 456.566406 425.136719 456.71875 424.953125 C 456.804688 424.851562 456.871094 424.738281 456.964844 424.632812 C 457.027344 424.570312 457.101562 424.523438 457.167969 424.464844 C 457.230469 424.402344 457.277344 424.328125 457.347656 424.261719 C 457.453125 424.167969 457.570312 424.105469 457.679688 424.019531 C 457.863281 423.878906 458.042969 423.738281 458.238281 423.613281 C 458.421875 423.496094 458.609375 423.398438 458.800781 423.300781 C 459 423.195312 459.199219 423.101562 459.40625 423.019531 C 459.609375 422.941406 459.8125 422.878906 460.015625 422.820312 C 460.226562 422.765625 460.433594 422.710938 460.648438 422.671875 C 460.859375 422.632812 461.070312 422.613281 461.28125 422.597656 C 461.5 422.578125 461.710938 422.566406 461.929688 422.566406 C 462.140625 422.570312 462.347656 422.589844 462.558594 422.609375 C 462.777344 422.636719 462.992188 422.664062 463.207031 422.707031 C 463.414062 422.75 463.617188 422.808594 463.820312 422.875 C 464.027344 422.9375 464.230469 423.007812 464.433594 423.089844 C 464.640625 423.179688 464.832031 423.277344 465.03125 423.386719 C 465.21875 423.484375 465.402344 423.59375 465.582031 423.710938 C 465.777344 423.84375 465.957031 423.992188 466.140625 424.148438 C 466.246094 424.234375 466.363281 424.300781 466.46875 424.402344 C 482.664062 439.8125 505.699219 434.914062 523.558594 421.277344 C 526.59375 418.851562 529.648438 416.117188 532.722656 413.035156 C 532.863281 412.898438 533.019531 412.796875 533.164062 412.675781 C 533.34375 412.527344 533.515625 412.367188 533.707031 412.234375 C 533.90625 412.097656 534.121094 411.996094 534.332031 411.882812 C 534.507812 411.789062 534.679688 411.679688 534.867188 411.601562 C 535.097656 411.503906 535.339844 411.441406 535.578125 411.371094 C 535.761719 411.320312 535.9375 411.25 536.125 411.210938 C 536.382812 411.15625 536.644531 411.144531 536.90625 411.121094 C 537.070312 411.109375 537.226562 411.070312 537.390625 411.070312 C 537.410156 411.070312 537.421875 411.070312 537.4375 411.070312 C 537.867188 411.070312 538.292969 411.109375 538.71875 411.1875 C 538.726562 411.1875 538.734375 411.1875 538.742188 411.1875 C 539.175781 411.273438 539.601562 411.394531 540.015625 411.5625 C 540.082031 411.589844 540.136719 411.632812 540.203125 411.664062 C 540.539062 411.808594 540.871094 411.972656 541.183594 412.179688 C 541.453125 412.355469 541.691406 412.574219 541.933594 412.789062 C 542.03125 412.878906 542.136719 412.941406 542.230469 413.03125 C 542.230469 413.035156 542.234375 413.035156 542.234375 413.042969 L 549.507812 420.296875 L 602.265625 469.632812 C 607.675781 474.691406 616.191406 474.410156 621.253906 469 C 623.683594 466.394531 624.960938 462.976562 624.839844 459.375 C 624.71875 455.773438 623.21875 452.449219 620.613281 450.015625 L 617.03125 446.660156 C 616.429688 446.371094 615.851562 446.003906 615.34375 445.519531 L 588.59375 420.066406 L 541.882812 376.378906 C 541.480469 376 541.152344 375.578125 540.863281 375.136719 C 520.058594 358.566406 492.660156 351.449219 466.039062 356.011719 C 463.8125 356.398438 461.558594 355.636719 460.015625 354 L 453.992188 347.617188 L 432.191406 326.871094 C 428.601562 323.457031 422.910156 323.597656 419.496094 327.1875 L 357.78125 392.042969 C 356.128906 393.78125 355.25 396.054688 355.308594 398.453125 C 355.367188 400.851562 356.355469 403.085938 358.09375 404.734375 L 377.695312 423.386719 C 379.726562 414.859375 382.820312 406.496094 387.015625 398.492188 C 388.738281 395.207031 392.804688 393.941406 396.089844 395.664062 C 399.378906 397.382812 400.644531 401.453125 398.921875 404.734375 C 379.457031 441.851562 387.007812 487.890625 417.285156 516.703125 L 495.03125 590.691406 L 495.339844 505.066406 C 495.386719 492.359375 500.378906 480.507812 509.394531 471.558594 " fill-opacity="1" fill-rule="nonzero"/><g clip-path="url(#60d845de83)"><path fill="#a23f3f" d="M 926.621094 891.746094 C 917.644531 900.613281 905.75 905.578125 893.117188 905.578125 C 893.054688 905.578125 893 905.578125 892.941406 905.578125 L 864.757812 905.386719 L 896.824219 935.332031 C 896.878906 935.382812 896.929688 935.410156 896.980469 935.460938 L 899.648438 938.109375 C 901.910156 936.054688 904.253906 934.144531 906.652344 932.371094 C 920.195312 921.964844 933.785156 916.871094 947.203125 917.210938 C 967.636719 917.765625 979.734375 931.007812 980.242188 931.574219 C 980.332031 931.675781 980.394531 931.792969 980.480469 931.898438 C 980.628906 932.085938 980.769531 932.269531 980.894531 932.464844 C 981.011719 932.648438 981.109375 932.835938 981.207031 933.027344 C 981.308594 933.226562 981.40625 933.425781 981.488281 933.632812 C 981.5625 933.835938 981.625 934.042969 981.683594 934.25 C 981.742188 934.460938 981.796875 934.664062 981.835938 934.875 C 981.871094 935.089844 981.894531 935.300781 981.914062 935.519531 C 981.929688 935.734375 981.941406 935.945312 981.941406 936.15625 C 981.933594 936.371094 981.917969 936.582031 981.894531 936.796875 C 981.867188 937.011719 981.839844 937.222656 981.796875 937.4375 C 981.75 937.644531 981.691406 937.851562 981.628906 938.054688 C 981.5625 938.265625 981.496094 938.46875 981.410156 938.671875 C 981.324219 938.875 981.222656 939.066406 981.117188 939.261719 C 981.011719 939.453125 980.90625 939.640625 980.78125 939.820312 C 980.652344 940.011719 980.507812 940.1875 980.359375 940.367188 C 980.269531 940.472656 980.203125 940.589844 980.105469 940.691406 C 980.039062 940.757812 979.96875 940.804688 979.902344 940.867188 C 979.835938 940.929688 979.789062 941.003906 979.722656 941.0625 C 979.617188 941.15625 979.5 941.222656 979.390625 941.304688 C 979.210938 941.449219 979.03125 941.585938 978.839844 941.707031 C 978.644531 941.828125 978.453125 941.933594 978.253906 942.035156 C 978.066406 942.132812 977.875 942.222656 977.675781 942.300781 C 977.460938 942.382812 977.246094 942.449219 977.023438 942.511719 C 976.832031 942.5625 976.640625 942.613281 976.441406 942.652344 C 976.214844 942.691406 975.988281 942.714844 975.757812 942.734375 C 975.558594 942.75 975.359375 942.761719 975.164062 942.757812 C 974.933594 942.753906 974.710938 942.734375 974.484375 942.710938 C 974.28125 942.6875 974.082031 942.664062 973.878906 942.621094 C 973.660156 942.578125 973.449219 942.515625 973.234375 942.445312 C 973.035156 942.382812 972.835938 942.320312 972.640625 942.238281 C 972.433594 942.152344 972.238281 942.046875 972.039062 941.9375 C 971.851562 941.835938 971.667969 941.734375 971.488281 941.613281 C 971.300781 941.484375 971.117188 941.339844 970.941406 941.1875 C 970.832031 941.097656 970.710938 941.027344 970.601562 940.929688 C 959.660156 930.511719 947.019531 930.421875 938.347656 932.179688 C 929.933594 933.886719 921.179688 938.144531 913.273438 944.242188 C 910.316406 946.621094 907.339844 949.296875 904.347656 952.289062 C 904.199219 952.4375 904.03125 952.546875 903.875 952.675781 C 903.710938 952.816406 903.546875 952.964844 903.375 953.085938 C 903.15625 953.234375 902.929688 953.347656 902.699219 953.464844 C 902.539062 953.550781 902.382812 953.652344 902.210938 953.722656 C 901.96875 953.824219 901.710938 953.890625 901.460938 953.964844 C 901.289062 954.015625 901.125 954.082031 900.949219 954.117188 C 900.683594 954.171875 900.414062 954.1875 900.140625 954.207031 C 899.988281 954.222656 899.835938 954.257812 899.679688 954.261719 C 899.667969 954.261719 899.652344 954.257812 899.632812 954.257812 C 899.621094 954.257812 899.609375 954.261719 899.59375 954.261719 C 897.875 954.261719 896.15625 953.605469 894.839844 952.292969 C 894.835938 952.292969 894.835938 952.289062 894.835938 952.285156 L 887.5625 945.03125 L 834.8125 895.691406 C 829.398438 890.636719 820.878906 890.917969 815.820312 896.328125 C 810.757812 901.738281 811.046875 910.253906 816.453125 915.316406 L 820.042969 918.667969 C 820.640625 918.964844 821.214844 919.320312 821.726562 919.804688 L 848.488281 945.273438 L 895.1875 988.945312 C 895.589844 989.324219 895.917969 989.75 896.210938 990.191406 C 917.011719 1006.761719 944.410156 1013.882812 971.03125 1009.316406 C 973.257812 1008.933594 975.511719 1009.691406 977.054688 1011.324219 L 983.078125 1017.707031 L 1004.882812 1038.457031 C 1006.617188 1040.105469 1008.886719 1040.980469 1011.296875 1040.929688 C 1013.691406 1040.867188 1015.921875 1039.878906 1017.574219 1038.140625 L 1079.292969 973.285156 C 1082.703125 969.699219 1082.566406 964.003906 1078.976562 960.59375 L 1059.375 941.9375 C 1057.347656 950.46875 1054.253906 958.832031 1050.058594 966.832031 C 1048.855469 969.125 1046.515625 970.4375 1044.097656 970.4375 C 1043.042969 970.4375 1041.980469 970.1875 1040.980469 969.664062 C 1037.695312 967.941406 1036.425781 963.878906 1038.152344 960.589844 C 1057.617188 923.476562 1050.0625 877.4375 1019.785156 848.625 L 940.988281 773.632812 L 940.6875 858.242188 C 940.640625 870.90625 935.644531 882.832031 926.621094 891.746094 " fill-opacity="1" fill-rule="nonzero"/></g><g clip-path="url(#6faad59731)"><path fill="#a23f3f" d="M 896.261719 371.597656 L 852.03125 415.851562 L 826.652344 441.691406 C 826.171875 442.183594 825.617188 442.554688 825.035156 442.867188 L 821.644531 446.261719 C 817.519531 450.386719 816.75 456.617188 819.335938 461.527344 C 819.351562 461.546875 819.355469 461.566406 819.367188 461.578125 C 819.957031 462.6875 820.71875 463.730469 821.652344 464.664062 C 826.722656 469.738281 834.984375 469.738281 840.054688 464.660156 L 870.863281 433.835938 L 885.773438 418.648438 L 893.957031 410.296875 C 896.558594 407.640625 900.8125 407.605469 903.464844 410.199219 C 906.117188 412.796875 906.15625 417.050781 903.5625 419.703125 L 900.691406 422.628906 C 900.402344 423.140625 900.070312 423.625 899.632812 424.058594 L 880.441406 443.265625 L 799.183594 526.011719 C 796.769531 528.472656 795.453125 531.753906 795.484375 535.246094 C 795.519531 538.734375 796.894531 541.992188 799.359375 544.414062 C 801.824219 546.832031 805.109375 548.097656 808.597656 548.117188 C 811.9375 548.085938 815.058594 546.808594 817.445312 544.539062 L 866.601562 494.492188 C 866.804688 494.199219 867.019531 493.910156 867.273438 493.640625 L 885.066406 475.488281 C 887.660156 472.835938 891.914062 472.792969 894.566406 475.390625 C 897.222656 477.988281 897.265625 482.242188 894.664062 484.898438 L 891.921875 487.695312 C 891.675781 488.078125 891.394531 488.433594 891.0625 488.765625 L 847.070312 533.5625 C 847.042969 533.585938 847.023438 533.625 846.992188 533.65625 L 827.355469 553.660156 C 827.257812 553.761719 827.144531 553.847656 827.046875 553.945312 L 812.703125 568.550781 C 807.675781 573.667969 807.746094 581.925781 812.863281 586.953125 C 815.328125 589.371094 818.597656 590.660156 822.101562 590.660156 C 825.59375 590.628906 828.847656 589.25 831.269531 586.789062 L 895.054688 521.84375 C 895.265625 521.550781 895.480469 521.257812 895.738281 520.992188 L 913.527344 502.839844 C 916.128906 500.179688 920.382812 500.144531 923.035156 502.738281 C 925.6875 505.339844 925.726562 509.59375 923.128906 512.246094 L 920.386719 515.046875 C 920.140625 515.421875 919.859375 515.785156 919.53125 516.113281 L 853.535156 583.304688 C 853.535156 583.308594 853.535156 583.308594 853.527344 583.308594 C 848.5 588.425781 848.578125 596.683594 853.695312 601.710938 C 858.816406 606.742188 867.070312 606.664062 872.101562 601.546875 L 902.230469 570.84375 L 957.917969 514.015625 C 960.515625 511.359375 964.769531 511.324219 967.421875 513.917969 C 970.070312 516.519531 970.113281 520.769531 967.519531 523.425781 L 912.101562 579.976562 C 912.101562 579.980469 912.101562 579.980469 912.101562 579.980469 L 911.859375 580.21875 L 901.46875 590.832031 C 896.4375 595.953125 896.507812 604.210938 901.628906 609.238281 C 904.09375 611.660156 907.339844 612.929688 910.867188 612.945312 C 914.355469 612.914062 917.613281 611.242188 920.03125 608.777344 L 993.996094 533.171875 C 994 533.171875 994 533.171875 994 533.171875 L 1022.640625 504.3125 C 1042.832031 483.753906 1052.050781 455.613281 1047.933594 426.84375 C 1047.652344 424.886719 1048.246094 422.988281 1049.554688 421.511719 L 1055.769531 414.527344 C 1055.847656 414.441406 1055.925781 414.375 1056.003906 414.292969 L 1076.863281 393.070312 C 1078.480469 391.417969 1079.363281 389.242188 1079.34375 386.933594 C 1079.320312 384.621094 1078.402344 382.460938 1076.753906 380.839844 L 1014.210938 319.410156 C 1010.808594 316.066406 1005.320312 316.121094 1001.976562 319.523438 L 981.328125 340.546875 L 975.648438 346.988281 C 974.164062 348.675781 971.929688 349.5 969.695312 349.203125 C 943.539062 345.613281 917.007812 353.46875 897.226562 370.335938 C 896.960938 370.785156 896.644531 371.214844 896.261719 371.597656 " fill-opacity="1" fill-rule="nonzero"/></g><path fill="#a23f3f" d="M 784.90625 565.984375 C 786.085938 573.839844 785.296875 581.730469 782.738281 589.007812 C 780.816406 594.714844 777.808594 599.757812 773.78125 604.425781 C 764.792969 614.84375 751.8125 620.515625 738.144531 620.515625 C 738.089844 620.515625 738.03125 620.515625 737.976562 620.515625 L 726.15625 620.773438 L 725.960938 675.507812 L 786.441406 675.800781 C 788.222656 675.808594 789.929688 676.558594 791.183594 677.824219 C 792.445312 679.085938 793.144531 680.820312 793.140625 682.601562 L 793.066406 701.671875 C 793.035156 711.367188 797.28125 720.613281 804.714844 727.03125 C 812.183594 733.476562 822.101562 736.3125 831.9375 734.835938 C 840.671875 733.511719 848.234375 728.585938 853.363281 721.660156 C 857.242188 715.914062 859.535156 708.921875 859.5625 701.476562 L 859.628906 683.074219 C 859.636719 681.292969 860.347656 679.582031 861.613281 678.328125 C 862.582031 677.363281 863.820312 676.4375 865.144531 676.191406 C 865.773438 675.996094 866.429688 675.5625 867.125 675.5625 C 867.132812 675.5625 867.136719 675.5625 867.144531 675.5625 L 927.894531 676.082031 L 928.097656 619.621094 C 923.363281 623.75 917.367188 626.132812 910.984375 626.132812 C 910.902344 626.132812 910.820312 626.132812 910.742188 626.132812 C 903.75 626.132812 897.179688 623.582031 892.210938 618.699219 C 888.835938 615.386719 886.554688 611.4375 885.34375 607.183594 L 881.695312 611.199219 C 876.757812 616.226562 870.136719 619.390625 863.054688 619.390625 C 862.972656 619.390625 862.886719 619.390625 862.808594 619.390625 C 855.816406 619.390625 849.246094 616.449219 844.273438 611.566406 C 840.773438 608.125 838.460938 604.003906 837.289062 599.570312 C 832.917969 602.671875 827.71875 604.507812 822.222656 604.507812 C 822.140625 604.507812 822.0625 604.507812 821.980469 604.507812 C 814.988281 604.507812 808.414062 601.625 803.445312 596.746094 C 793.535156 587.011719 792.949219 571.238281 801.738281 560.777344 C 797.328125 559.628906 793.269531 557.320312 789.941406 554.058594 C 784.914062 549.117188 782.109375 542.476562 782.046875 535.394531 C 781.980469 528.3125 784.660156 521.628906 789.59375 516.601562 L 824.453125 481.097656 C 819.945312 479.980469 815.667969 477.691406 812.152344 474.171875 C 811.449219 473.476562 810.804688 472.738281 810.203125 471.984375 L 726.691406 471.683594 L 726.496094 525.976562 L 737.59375 526.019531 C 761.152344 526.101562 781.488281 543.285156 784.90625 565.984375 " fill-opacity="1" fill-rule="nonzero"/><g clip-path="url(#af799fefd9)"><path fill="#a23f3f" d="M 427.589844 1038.316406 L 448.242188 1017.296875 L 453.917969 1010.851562 C 455.410156 1009.167969 457.636719 1008.335938 459.875 1008.640625 C 486.027344 1012.21875 512.558594 1004.371094 532.339844 987.5 C 532.609375 987.054688 532.921875 986.628906 533.304688 986.242188 L 577.566406 941.957031 L 602.914062 916.152344 C 603.398438 915.652344 603.953125 915.28125 604.539062 914.96875 L 607.925781 911.582031 C 610.367188 909.136719 611.710938 905.867188 611.707031 902.375 C 611.707031 901.253906 611.554688 900.160156 611.285156 899.105469 C 611.277344 899.066406 611.261719 899.027344 611.253906 898.988281 C 610.675781 896.804688 609.546875 894.804688 607.917969 893.175781 C 602.84375 888.101562 594.585938 888.105469 589.511719 893.179688 L 558.734375 923.976562 L 543.269531 939.726562 L 535.609375 947.542969 C 534.292969 948.886719 532.550781 949.5625 530.808594 949.5625 C 529.113281 949.5625 527.414062 948.921875 526.105469 947.640625 C 523.453125 945.042969 523.410156 940.785156 526.007812 938.136719 L 528.875 935.210938 C 529.164062 934.703125 529.5 934.214844 529.933594 933.78125 L 549.140625 914.5625 L 630.378906 831.832031 C 635.410156 826.707031 635.332031 818.636719 630.210938 813.609375 C 627.773438 811.21875 624.542969 810.089844 621.097656 810.089844 C 621.054688 810.089844 621.015625 810.089844 620.972656 810.089844 C 617.617188 810.089844 614.488281 811.21875 612.101562 813.507812 L 562.96875 863.4375 C 562.761719 863.730469 562.550781 863.976562 562.289062 864.242188 L 544.503906 882.371094 C 543.1875 883.71875 541.445312 884.378906 539.703125 884.378906 C 538.007812 884.378906 536.308594 883.734375 535 882.453125 C 532.347656 879.855469 532.304688 875.597656 534.902344 872.945312 L 537.648438 870.140625 C 537.890625 869.765625 538.175781 869.40625 538.503906 869.074219 L 582.503906 824.273438 C 582.53125 824.246094 582.546875 824.210938 582.574219 824.1875 L 602.214844 804.179688 C 602.3125 804.078125 602.421875 803.992188 602.519531 803.894531 L 616.867188 789.289062 C 619.289062 786.824219 620.605469 783.542969 620.574219 780.050781 C 620.542969 776.558594 619.167969 773.304688 616.703125 770.882812 C 611.582031 765.855469 603.328125 765.933594 598.300781 771.050781 L 585.632812 783.945312 C 585.632812 783.949219 585.628906 783.949219 585.628906 783.953125 C 585.628906 783.953125 585.625 783.953125 585.625 783.953125 L 534.523438 835.980469 C 534.3125 836.28125 534.09375 836.578125 533.828125 836.847656 L 516.039062 855.003906 C 514.722656 856.34375 512.980469 857.019531 511.238281 857.019531 C 509.542969 857.019531 507.84375 856.378906 506.535156 855.097656 C 503.882812 852.5 503.839844 848.246094 506.4375 845.59375 L 509.183594 842.792969 C 509.425781 842.417969 509.710938 842.054688 510.039062 841.722656 L 576.042969 774.523438 C 578.460938 772.0625 579.773438 768.78125 579.742188 765.292969 C 579.710938 761.800781 578.339844 758.453125 575.875 756.035156 C 573.4375 753.640625 570.203125 752.234375 566.757812 752.234375 C 566.71875 752.234375 566.675781 752.234375 566.636719 752.234375 C 563.144531 752.234375 559.890625 753.734375 557.46875 756.199219 L 528.132812 786.136719 L 471.652344 843.800781 C 470.335938 845.144531 468.59375 845.828125 466.851562 845.828125 C 465.15625 845.828125 463.457031 845.195312 462.148438 843.914062 C 459.496094 841.316406 459.453125 837.0625 462.050781 834.414062 L 517.464844 777.859375 C 517.464844 777.859375 517.464844 777.859375 517.46875 777.859375 L 517.820312 777.5 L 528.097656 767.007812 C 533.132812 761.882812 533.058594 753.628906 527.941406 748.597656 C 522.820312 743.574219 514.566406 743.644531 509.535156 748.765625 L 471.710938 787.273438 C 471.710938 787.273438 471.710938 787.277344 471.710938 787.277344 L 406.929688 853.230469 C 386.738281 873.785156 377.519531 902.074219 381.632812 930.84375 C 381.914062 932.800781 381.320312 934.777344 380.011719 936.253906 L 373.800781 943.273438 C 373.722656 943.359375 373.644531 943.445312 373.5625 943.527344 L 352.703125 964.761719 C 349.363281 968.164062 349.410156 973.652344 352.816406 976.996094 L 415.359375 1038.425781 C 418.757812 1041.769531 424.25 1041.722656 427.589844 1038.316406 " fill-opacity="1" fill-rule="nonzero"/></g></svg>