<svg xmlns="http://www.w3.org/2000/svg" xmlns:xlink="http://www.w3.org/1999/xlink" width="1910" zoomAndPan="magnify" viewBox="0 0 1432.5 1357.499964" height="1810" preserveAspectRatio="xMidYMid meet" version="1.0"><defs><clipPath id="87568057c9"><path d="M 132.914062 0 L 1299.085938 0 L 1299.085938 1357 L 132.914062 1357 Z M 132.914062 0 " clip-rule="nonzero"/></clipPath><clipPath id="7f26ae4111"><path d="M 716 0 L 1299.085938 339.25 L 1299.085938 1017.75 L 716 1357 L 132.914062 1017.75 L 132.914062 339.25 Z M 716 0 " clip-rule="nonzero"/></clipPath><clipPath id="4d778e8dd9"><path d="M 132.914062 0 L 1298.734375 0 L 1298.734375 1357 L 132.914062 1357 Z M 132.914062 0 " clip-rule="nonzero"/></clipPath><clipPath id="11e6169fa0"><path d="M 716 0 L 1299.085938 339.25 L 1299.085938 1017.75 L 716 1357 L 132.914062 1017.75 L 132.914062 339.25 Z M 716 0 " clip-rule="nonzero"/></clipPath><clipPath id="c97e33bbd7"><path d="M 690.214844 428.84375 L 953.367188 428.84375 L 953.367188 691.996094 L 690.214844 691.996094 Z M 690.214844 428.84375 " clip-rule="nonzero"/></clipPath></defs><g clip-path="url(#87568057c9)"><g clip-path="url(#7f26ae4111)"><path fill="#fae282" d="M 132.914062 0 L 1299.085938 0 L 1299.085938 1357.496094 L 132.914062 1357.496094 Z M 132.914062 0 " fill-opacity="1" fill-rule="nonzero"/></g></g><g clip-path="url(#4d778e8dd9)"><g clip-path="url(#11e6169fa0)"><path stroke-linecap="butt" transform="matrix(0.749724, 0, 0, 0.749724, 132.914086, 0)" fill="none" stroke-linejoin="miter" d="M 777.734341 0 L 1555.468713 452.499998 L 1555.468713 1357.499995 L 777.734341 1809.999993 L -0.0000308837 1357.499995 L -0.0000308837 452.499998 Z M 777.734341 0 " stroke="#928c00" stroke-width="200" stroke-opacity="1" stroke-miterlimit="4"/></g></g><path fill="#928c00" d="M 516.140625 762.449219 L 341.539062 937.027344 C 319.628906 958.960938 319.628906 994.507812 341.539062 1016.414062 C 363.445312 1038.300781 398.996094 1038.300781 420.902344 1016.414062 L 595.503906 841.816406 Z M 516.140625 762.449219 " fill-opacity="1" fill-rule="nonzero"/><path fill="#928c00" d="M 1007.292969 350.660156 C 903.003906 246.394531 733.34375 246.394531 629.101562 350.660156 C 534.152344 445.542969 525.929688 594.457031 603.773438 699.148438 L 551.332031 751.566406 L 606.410156 806.601562 L 658.851562 754.15625 C 763.449219 832.023438 912.390625 823.804688 1007.292969 728.875 C 1111.582031 624.609375 1111.582031 454.953125 1007.292969 350.660156 Z M 967.46875 689.050781 C 885.132812 771.410156 751.191406 771.410156 668.878906 689.050781 C 586.546875 606.742188 586.546875 472.796875 668.878906 390.460938 C 751.214844 308.152344 885.15625 308.152344 967.46875 390.460938 C 1049.800781 472.820312 1049.800781 606.742188 967.46875 689.050781 Z M 967.46875 689.050781 " fill-opacity="1" fill-rule="nonzero"/><path fill="#928c00" d="M 924.03125 379.054688 C 859.851562 336.714844 776.828125 336.617188 712.601562 378.914062 C 706.113281 383.214844 704.285156 391.933594 708.5625 398.398438 C 709.109375 399.207031 709.726562 399.964844 710.367188 400.609375 C 715 405.242188 722.390625 406.144531 728.046875 402.414062 C 782.910156 366.34375 853.722656 366.390625 908.539062 402.558594 C 915.027344 406.882812 923.769531 405.050781 928.023438 398.589844 C 932.277344 392.125 930.566406 383.382812 924.03125 379.054688 Z M 924.03125 379.054688 " fill-opacity="1" fill-rule="nonzero"/><g clip-path="url(#c97e33bbd7)"><path fill="#928c00" d="M 949.007812 683.222656 L 944.621094 683.222656 L 944.621094 608.664062 C 944.621094 608.375 944.59375 608.089844 944.539062 607.808594 C 944.480469 607.523438 944.398438 607.25 944.289062 606.984375 C 944.179688 606.71875 944.042969 606.464844 943.882812 606.226562 C 943.722656 605.988281 943.542969 605.765625 943.339844 605.5625 C 943.132812 605.359375 942.914062 605.175781 942.671875 605.015625 C 942.433594 604.855469 942.179688 604.722656 941.914062 604.609375 C 941.648438 604.5 941.375 604.417969 941.09375 604.363281 C 940.808594 604.304688 940.523438 604.277344 940.238281 604.277344 L 913.921875 604.277344 C 913.632812 604.277344 913.347656 604.304688 913.066406 604.363281 C 912.785156 604.417969 912.507812 604.5 912.242188 604.609375 C 911.976562 604.722656 911.722656 604.855469 911.484375 605.015625 C 911.246094 605.175781 911.023438 605.359375 910.820312 605.5625 C 910.617188 605.765625 910.433594 605.988281 910.273438 606.226562 C 910.113281 606.464844 909.980469 606.71875 909.871094 606.984375 C 909.757812 607.25 909.675781 607.523438 909.621094 607.808594 C 909.5625 608.089844 909.535156 608.375 909.535156 608.664062 L 909.535156 683.222656 L 891.992188 683.222656 L 891.992188 433.226562 C 891.992188 432.941406 891.964844 432.65625 891.90625 432.371094 C 891.851562 432.089844 891.769531 431.816406 891.660156 431.550781 C 891.546875 431.285156 891.414062 431.03125 891.253906 430.792969 C 891.09375 430.550781 890.910156 430.332031 890.707031 430.125 C 890.503906 429.921875 890.28125 429.742188 890.042969 429.582031 C 889.804688 429.421875 889.550781 429.285156 889.285156 429.175781 C 889.019531 429.066406 888.746094 428.984375 888.460938 428.925781 C 888.179688 428.871094 887.894531 428.84375 887.605469 428.84375 L 861.292969 428.84375 C 861.003906 428.84375 860.71875 428.871094 860.433594 428.925781 C 860.152344 428.984375 859.878906 429.066406 859.613281 429.175781 C 859.347656 429.285156 859.09375 429.421875 858.855469 429.582031 C 858.613281 429.742188 858.394531 429.921875 858.191406 430.125 C 857.984375 430.332031 857.804688 430.550781 857.644531 430.792969 C 857.484375 431.03125 857.347656 431.285156 857.238281 431.550781 C 857.128906 431.816406 857.046875 432.089844 856.988281 432.371094 C 856.933594 432.65625 856.90625 432.941406 856.90625 433.226562 L 856.90625 683.222656 L 839.363281 683.222656 L 839.363281 481.472656 C 839.363281 481.183594 839.332031 480.898438 839.277344 480.617188 C 839.222656 480.335938 839.136719 480.058594 839.027344 479.792969 C 838.917969 479.527344 838.78125 479.277344 838.621094 479.035156 C 838.460938 478.796875 838.28125 478.574219 838.078125 478.371094 C 837.875 478.167969 837.652344 477.984375 837.414062 477.824219 C 837.171875 477.664062 836.921875 477.53125 836.652344 477.421875 C 836.386719 477.308594 836.113281 477.226562 835.832031 477.171875 C 835.550781 477.113281 835.265625 477.085938 834.976562 477.085938 L 808.660156 477.085938 C 808.371094 477.085938 808.085938 477.113281 807.804688 477.171875 C 807.523438 477.226562 807.25 477.308594 806.980469 477.421875 C 806.714844 477.53125 806.464844 477.664062 806.222656 477.824219 C 805.984375 477.984375 805.761719 478.167969 805.558594 478.371094 C 805.355469 478.574219 805.171875 478.796875 805.015625 479.035156 C 804.855469 479.277344 804.71875 479.527344 804.609375 479.792969 C 804.5 480.058594 804.414062 480.335938 804.359375 480.617188 C 804.300781 480.898438 804.273438 481.183594 804.273438 481.472656 L 804.273438 683.222656 L 786.730469 683.222656 L 786.730469 564.804688 C 786.730469 564.515625 786.703125 564.230469 786.648438 563.949219 C 786.589844 563.667969 786.507812 563.390625 786.398438 563.125 C 786.285156 562.859375 786.152344 562.605469 785.992188 562.367188 C 785.832031 562.128906 785.648438 561.90625 785.445312 561.703125 C 785.242188 561.5 785.019531 561.316406 784.78125 561.15625 C 784.542969 560.996094 784.289062 560.863281 784.023438 560.753906 C 783.757812 560.640625 783.484375 560.558594 783.199219 560.503906 C 782.917969 560.445312 782.632812 560.417969 782.34375 560.417969 L 756.03125 560.417969 C 755.742188 560.417969 755.457031 560.445312 755.175781 560.503906 C 754.890625 560.558594 754.617188 560.640625 754.351562 560.753906 C 754.085938 560.863281 753.832031 560.996094 753.59375 561.15625 C 753.355469 561.316406 753.132812 561.5 752.929688 561.703125 C 752.726562 561.90625 752.542969 562.128906 752.382812 562.367188 C 752.222656 562.605469 752.089844 562.859375 751.976562 563.125 C 751.867188 563.390625 751.785156 563.667969 751.726562 563.949219 C 751.671875 564.230469 751.644531 564.515625 751.644531 564.804688 L 751.644531 683.222656 L 734.101562 683.222656 L 734.101562 520.945312 C 734.101562 520.65625 734.074219 520.371094 734.015625 520.089844 C 733.960938 519.808594 733.875 519.535156 733.765625 519.265625 C 733.65625 519 733.519531 518.75 733.359375 518.507812 C 733.203125 518.269531 733.019531 518.046875 732.816406 517.84375 C 732.613281 517.640625 732.390625 517.457031 732.152344 517.300781 C 731.910156 517.140625 731.660156 517.003906 731.394531 516.894531 C 731.125 516.785156 730.851562 516.699219 730.570312 516.644531 C 730.289062 516.585938 730.003906 516.558594 729.714844 516.558594 L 703.398438 516.558594 C 703.109375 516.558594 702.824219 516.585938 702.542969 516.644531 C 702.261719 516.699219 701.988281 516.785156 701.722656 516.894531 C 701.453125 517.003906 701.203125 517.140625 700.960938 517.300781 C 700.722656 517.457031 700.5 517.640625 700.296875 517.84375 C 700.09375 518.046875 699.914062 518.269531 699.753906 518.507812 C 699.59375 518.75 699.457031 519 699.347656 519.265625 C 699.238281 519.535156 699.152344 519.808594 699.097656 520.089844 C 699.042969 520.371094 699.011719 520.65625 699.011719 520.945312 L 699.011719 683.222656 L 694.628906 683.222656 C 694.339844 683.222656 694.054688 683.25 693.773438 683.308594 C 693.488281 683.363281 693.214844 683.445312 692.949219 683.558594 C 692.683594 683.667969 692.429688 683.800781 692.191406 683.960938 C 691.953125 684.121094 691.730469 684.304688 691.527344 684.507812 C 691.324219 684.710938 691.140625 684.933594 690.980469 685.171875 C 690.820312 685.410156 690.6875 685.664062 690.574219 685.929688 C 690.464844 686.195312 690.382812 686.472656 690.324219 686.753906 C 690.269531 687.035156 690.242188 687.320312 690.242188 687.609375 C 690.242188 687.898438 690.269531 688.183594 690.324219 688.464844 C 690.382812 688.746094 690.464844 689.023438 690.574219 689.289062 C 690.6875 689.554688 690.820312 689.804688 690.980469 690.046875 C 691.140625 690.285156 691.324219 690.507812 691.527344 690.710938 C 691.730469 690.914062 691.953125 691.097656 692.191406 691.257812 C 692.429688 691.414062 692.683594 691.550781 692.949219 691.660156 C 693.214844 691.769531 693.488281 691.855469 693.773438 691.910156 C 694.054688 691.96875 694.339844 691.996094 694.628906 691.996094 L 949.007812 691.996094 C 949.296875 691.996094 949.582031 691.96875 949.863281 691.910156 C 950.148438 691.855469 950.421875 691.769531 950.6875 691.660156 C 950.953125 691.550781 951.207031 691.414062 951.445312 691.257812 C 951.683594 691.097656 951.90625 690.914062 952.109375 690.710938 C 952.3125 690.507812 952.496094 690.285156 952.65625 690.046875 C 952.816406 689.804688 952.949219 689.554688 953.0625 689.289062 C 953.171875 689.023438 953.253906 688.746094 953.308594 688.464844 C 953.367188 688.183594 953.394531 687.898438 953.394531 687.609375 C 953.394531 687.320312 953.367188 687.035156 953.308594 686.753906 C 953.253906 686.472656 953.171875 686.195312 953.0625 685.929688 C 952.949219 685.664062 952.816406 685.410156 952.65625 685.171875 C 952.496094 684.933594 952.3125 684.710938 952.109375 684.507812 C 951.90625 684.304688 951.683594 684.121094 951.445312 683.960938 C 951.207031 683.800781 950.953125 683.667969 950.6875 683.558594 C 950.421875 683.445312 950.148438 683.363281 949.863281 683.308594 C 949.582031 683.25 949.296875 683.222656 949.007812 683.222656 Z M 949.007812 683.222656 " fill-opacity="1" fill-rule="nonzero"/></g></svg>