<svg xmlns="http://www.w3.org/2000/svg" xmlns:xlink="http://www.w3.org/1999/xlink" width="1360" zoomAndPan="magnify" viewBox="0 0 1020 225" height="300" preserveAspectRatio="xMidYMid meet" version="1.0"><defs><clipPath id="56f8cc6638"><path d="M 0 157.5 L 464.273438 157.5 L 464.273438 225 L 0 225 Z M 0 157.5 " clip-rule="nonzero"/></clipPath><clipPath id="268e345f8d"><path d="M 187.300781 157.5 C 34.414062 157.5 -89.527344 279.097656 -89.527344 429.09375 C -89.527344 579.09375 34.414062 700.691406 187.300781 700.691406 C 340.191406 700.691406 464.132812 579.09375 464.132812 429.09375 C 464.132812 279.097656 340.191406 157.5 187.300781 157.5 Z M 187.300781 157.5 " clip-rule="nonzero"/></clipPath><clipPath id="54016b3f4f"><path d="M 0 157.5 L 463.972656 157.5 L 463.972656 225 L 0 225 Z M 0 157.5 " clip-rule="nonzero"/></clipPath><clipPath id="e6987af984"><path d="M 187.300781 157.5 C 34.414062 157.5 -89.527344 279.097656 -89.527344 429.09375 C -89.527344 579.089844 34.414062 700.6875 187.300781 700.6875 C 340.1875 700.6875 464.125 579.089844 464.125 429.09375 C 464.125 279.097656 340.1875 157.5 187.300781 157.5 Z M 187.300781 157.5 " clip-rule="nonzero"/></clipPath><clipPath id="387daeb445"><path d="M 110.890625 134.84375 L 665 134.84375 L 665 225 L 110.890625 225 Z M 110.890625 134.84375 " clip-rule="nonzero"/></clipPath><clipPath id="abd19b375c"><path d="M 387.71875 134.84375 C 234.828125 134.84375 110.890625 253.78125 110.890625 400.5 C 110.890625 547.21875 234.828125 666.15625 387.71875 666.15625 C 540.605469 666.15625 664.546875 547.21875 664.546875 400.5 C 664.546875 253.78125 540.605469 134.84375 387.71875 134.84375 Z M 387.71875 134.84375 " clip-rule="nonzero"/></clipPath><clipPath id="2343389a08"><path d="M 110.890625 134.84375 L 664.390625 134.84375 L 664.390625 225 L 110.890625 225 Z M 110.890625 134.84375 " clip-rule="nonzero"/></clipPath><clipPath id="4456fed4f5"><path d="M 387.714844 134.84375 C 234.828125 134.84375 110.890625 253.78125 110.890625 400.496094 C 110.890625 547.210938 234.828125 666.148438 387.714844 666.148438 C 540.601562 666.148438 664.539062 547.210938 664.539062 400.496094 C 664.539062 253.78125 540.601562 134.84375 387.714844 134.84375 Z M 387.714844 134.84375 " clip-rule="nonzero"/></clipPath><clipPath id="9e5904541d"><path d="M 420.261719 170.664062 L 973.917969 170.664062 L 973.917969 225 L 420.261719 225 Z M 420.261719 170.664062 " clip-rule="nonzero"/></clipPath><clipPath id="828407286d"><path d="M 697.089844 170.664062 C 544.203125 170.664062 420.261719 294.601562 420.261719 447.492188 C 420.261719 600.378906 544.203125 724.320312 697.089844 724.320312 C 849.980469 724.320312 973.917969 600.378906 973.917969 447.492188 C 973.917969 294.601562 849.980469 170.664062 697.089844 170.664062 Z M 697.089844 170.664062 " clip-rule="nonzero"/></clipPath><clipPath id="17cd3caed9"><path d="M 420.261719 170.664062 L 973.761719 170.664062 L 973.761719 225 L 420.261719 225 Z M 420.261719 170.664062 " clip-rule="nonzero"/></clipPath><clipPath id="2d03a9dc3e"><path d="M 697.085938 170.664062 C 544.199219 170.664062 420.261719 294.601562 420.261719 447.488281 C 420.261719 600.375 544.199219 724.316406 697.085938 724.316406 C 849.976562 724.316406 973.914062 600.375 973.914062 447.488281 C 973.914062 294.601562 849.976562 170.664062 697.085938 170.664062 Z M 697.085938 170.664062 " clip-rule="nonzero"/></clipPath><clipPath id="eeddfed064"><path d="M 754.1875 67.5 L 831.4375 67.5 L 831.4375 157.5 L 754.1875 157.5 Z M 754.1875 67.5 " clip-rule="nonzero"/></clipPath><clipPath id="3a66ab670d"><path d="M 650.214844 93.828125 L 1020 93.828125 L 1020 225 L 650.214844 225 Z M 650.214844 93.828125 " clip-rule="nonzero"/></clipPath><clipPath id="38f9c47051"><path d="M 927.042969 93.828125 C 774.152344 93.828125 650.214844 217.765625 650.214844 370.65625 C 650.214844 523.542969 774.152344 647.484375 927.042969 647.484375 C 1079.929688 647.484375 1203.871094 523.542969 1203.871094 370.65625 C 1203.871094 217.765625 1079.929688 93.828125 927.042969 93.828125 Z M 927.042969 93.828125 " clip-rule="nonzero"/></clipPath><clipPath id="0b1855080e"><path d="M 650.214844 93.828125 L 1020 93.828125 L 1020 225 L 650.214844 225 Z M 650.214844 93.828125 " clip-rule="nonzero"/></clipPath><clipPath id="3aee82da14"><path d="M 927.039062 93.828125 C 774.152344 93.828125 650.214844 217.765625 650.214844 370.652344 C 650.214844 523.539062 774.152344 647.480469 927.039062 647.480469 C 1079.925781 647.480469 1203.867188 523.539062 1203.867188 370.652344 C 1203.867188 217.765625 1079.925781 93.828125 927.039062 93.828125 Z M 927.039062 93.828125 " clip-rule="nonzero"/></clipPath><clipPath id="a4b45530f8"><path d="M 158.878906 167.664062 L 312.664062 167.664062 L 312.664062 225 L 158.878906 225 Z M 158.878906 167.664062 " clip-rule="nonzero"/></clipPath><clipPath id="2ed8748142"><path d="M 235.613281 167.664062 C 193.234375 167.664062 158.878906 190.976562 158.878906 219.738281 C 158.878906 248.5 193.234375 271.8125 235.613281 271.8125 C 277.992188 271.8125 312.347656 248.5 312.347656 219.738281 C 312.347656 190.976562 277.992188 167.664062 235.613281 167.664062 Z M 235.613281 167.664062 " clip-rule="nonzero"/></clipPath><clipPath id="9b5759c402"><path d="M 447.050781 192.71875 L 600.839844 192.71875 L 600.839844 225 L 447.050781 225 Z M 447.050781 192.71875 " clip-rule="nonzero"/></clipPath><clipPath id="29ac5afd9e"><path d="M 523.785156 192.71875 C 481.40625 192.71875 447.050781 216.035156 447.050781 244.796875 C 447.050781 273.554688 481.40625 296.871094 523.785156 296.871094 C 566.167969 296.871094 600.523438 273.554688 600.523438 244.796875 C 600.523438 216.035156 566.167969 192.71875 523.785156 192.71875 Z M 523.785156 192.71875 " clip-rule="nonzero"/></clipPath><clipPath id="8cd8bef3f6"><path d="M 669.808594 174.617188 L 823.320312 174.617188 L 823.320312 225 L 669.808594 225 Z M 669.808594 174.617188 " clip-rule="nonzero"/></clipPath><clipPath id="47a7ef1084"><path d="M 746.542969 174.617188 C 704.164062 174.617188 669.808594 197.175781 669.808594 225 C 669.808594 252.824219 704.164062 275.382812 746.542969 275.382812 C 788.921875 275.382812 823.277344 252.824219 823.277344 225 C 823.277344 197.175781 788.921875 174.617188 746.542969 174.617188 Z M 746.542969 174.617188 " clip-rule="nonzero"/></clipPath></defs><g clip-path="url(#56f8cc6638)"><g clip-path="url(#268e345f8d)"><path fill="#3ca500" d="M -89.527344 157.5 L 464.273438 157.5 L 464.273438 700.691406 L -89.527344 700.691406 Z M -89.527344 157.5 " fill-opacity="1" fill-rule="nonzero"/></g></g><g clip-path="url(#54016b3f4f)"><g clip-path="url(#e6987af984)"><path stroke-linecap="butt" transform="matrix(0.75, 0, 0, 0.75, -89.526229, 157.501292)" fill="none" stroke-linejoin="miter" d="M 369.102696 -0.00172298 C 165.253729 -0.00172298 -0.00148624 162.128492 -0.00148624 362.123292 C -0.00148624 562.118092 165.253729 724.248307 369.102696 724.248307 C 572.951663 724.248307 738.20167 562.118092 738.20167 362.123292 C 738.20167 162.128492 572.951663 -0.00172298 369.102696 -0.00172298 Z M 369.102696 -0.00172298 " stroke="#006b07" stroke-width="8" stroke-opacity="1" stroke-miterlimit="4"/></g></g><g clip-path="url(#387daeb445)"><g clip-path="url(#abd19b375c)"><path fill="#3ca500" d="M 110.890625 134.84375 L 665.03125 134.84375 L 665.03125 666.15625 L 110.890625 666.15625 Z M 110.890625 134.84375 " fill-opacity="1" fill-rule="nonzero"/></g></g><g clip-path="url(#2343389a08)"><g clip-path="url(#4456fed4f5)"><path stroke-linecap="butt" transform="matrix(0.75, 0, 0, 0.75, 110.891055, 134.843558)" fill="none" stroke-linejoin="miter" d="M 369.098425 0.000256025 C 165.249445 0.000256025 -0.000572773 158.583606 -0.000572773 354.203418 C -0.000572773 549.823231 165.249445 708.406581 369.098425 708.406581 C 572.947404 708.406581 738.197422 549.823231 738.197422 354.203418 C 738.197422 158.583606 572.947404 0.000256025 369.098425 0.000256025 Z M 369.098425 0.000256025 " stroke="#006b07" stroke-width="8" stroke-opacity="1" stroke-miterlimit="4"/></g></g><g clip-path="url(#9e5904541d)"><g clip-path="url(#828407286d)"><path fill="#3ca500" d="M 420.261719 170.664062 L 973.917969 170.664062 L 973.917969 724.320312 L 420.261719 724.320312 Z M 420.261719 170.664062 " fill-opacity="1" fill-rule="nonzero"/></g></g><g clip-path="url(#17cd3caed9)"><g clip-path="url(#2d03a9dc3e)"><path stroke-linecap="butt" transform="matrix(0.75, 0, 0, 0.75, 420.261702, 170.66306)" fill="none" stroke-linejoin="miter" d="M 369.098995 0.00133708 C 165.250029 0.00133708 0.0000216812 165.251344 0.0000216812 369.100311 C 0.0000216812 572.949278 165.250029 738.204493 369.098995 738.204493 C 572.953171 738.204493 738.203177 572.949278 738.203177 369.100311 C 738.203177 165.251344 572.953171 0.00133708 369.098995 0.00133708 Z M 369.098995 0.00133708 " stroke="#006b07" stroke-width="8" stroke-opacity="1" stroke-miterlimit="4"/></g></g><g clip-path="url(#eeddfed064)"><path fill="#0965ac" d="M 767.320312 131.511719 C 768.097656 131.875 768.875 132.1875 769.617188 132.503906 C 769.902344 138.984375 767.871094 142.234375 762.601562 146.6875 C 761.722656 147.429688 760.960938 147.148438 760.449219 146.632812 C 760.195312 146.378906 760.058594 146.066406 760.058594 145.8125 C 760.054688 145.558594 760.125 145.292969 760.5625 144.925781 C 763.222656 142.691406 765.15625 140.925781 766.296875 138.613281 C 767.246094 136.671875 767.539062 134.433594 767.320312 131.511719 Z M 819.171875 118.457031 L 826.601562 118.457031 C 828.070312 118.457031 828.566406 118.722656 828.824219 119.054688 C 829.089844 119.390625 829.28125 120.191406 829.28125 121.589844 L 829.28125 150.464844 C 829.28125 152.476562 828.941406 153.566406 828.417969 154.128906 C 827.894531 154.691406 826.925781 155.03125 824.988281 155.03125 L 763.136719 155.03125 C 762.453125 155.03125 762.339844 154.796875 762.277344 154.371094 C 762.210938 153.945312 762.382812 153.3125 763.152344 152.847656 L 775.597656 145.21875 C 776.953125 144.382812 777.976562 143.5 778.867188 142.574219 C 779.328125 142.597656 779.78125 142.542969 780.21875 142.414062 C 781.085938 142.160156 781.894531 141.625 782.40625 140.804688 C 782.914062 139.988281 783.078125 138.898438 782.773438 137.804688 L 787.640625 131.761719 C 788.871094 130.238281 789.726562 129.300781 790.59375 128.769531 C 791.460938 128.238281 792.410156 127.988281 794.128906 127.988281 L 798.367188 127.988281 C 802.292969 127.988281 804.230469 127.488281 807.230469 125.273438 L 813.46875 120.679688 C 815.949219 118.847656 816.433594 118.457031 819.171875 118.457031 Z M 803.589844 109.355469 C 804.257812 109.617188 804.863281 110.070312 805.230469 110.507812 C 805.40625 110.722656 805.894531 111.769531 806.304688 113.0625 C 806.710938 114.363281 807.125 115.9375 807.554688 117.457031 C 807.875 118.589844 808.617188 119.445312 809.507812 119.875 C 809.726562 119.980469 809.953125 120.058594 810.175781 120.117188 L 805.800781 123.34375 C 802.691406 125.378906 800.792969 125.585938 798.035156 125.585938 C 802.179688 120.914062 803.582031 115.441406 803.589844 109.355469 Z M 798.773438 107.070312 L 801.179688 108.21875 C 801.371094 114.871094 800.058594 120.246094 795.351562 124.9375 C 794.933594 125.363281 794.59375 125.441406 794.265625 125.421875 C 793.9375 125.40625 793.585938 125.234375 793.320312 124.957031 C 793.050781 124.683594 792.890625 124.324219 792.871094 123.996094 C 792.859375 123.664062 792.949219 123.332031 793.378906 122.914062 C 797.96875 118.480469 799.261719 113.726562 798.773438 107.070312 Z M 782.277344 106.894531 C 782.671875 106.800781 783.179688 107.34375 783.054688 108.058594 C 782.316406 112.253906 776.8125 116.355469 771.207031 114.722656 C 770.4375 114.5 769.671875 115.074219 769.664062 115.875 L 769.664062 125.847656 C 769.664062 126.359375 769.992188 126.816406 770.46875 126.980469 C 772.394531 127.660156 775.191406 129.398438 777.179688 131.398438 C 778.640625 133.125 779.550781 135.335938 780.460938 138.441406 C 780.613281 138.964844 780.53125 139.253906 780.367188 139.515625 C 780.203125 139.773438 779.898438 139.992188 779.546875 140.097656 C 779.191406 140.199219 778.824219 140.175781 778.546875 140.046875 C 778.269531 139.914062 778.039062 139.714844 777.886719 139.1875 C 777.011719 136.210938 776.203125 134.378906 775.066406 133.070312 C 773.925781 131.765625 772.285156 131.027344 770.707031 130.347656 C 769.117188 129.667969 767.566406 129.042969 766.527344 128.289062 C 764.65625 126.925781 764.078125 125.714844 764.082031 122.523438 L 764.089844 117.398438 C 764.089844 116.347656 762.832031 115.800781 762.0625 116.519531 C 758.839844 119.53125 758.722656 124.730469 759.304688 128.863281 C 759.46875 130.035156 759.019531 130.21875 758.554688 130.289062 C 758.085938 130.355469 757.585938 130.25 757.429688 129.289062 C 756.921875 126.058594 756.664062 122.902344 757.296875 120.109375 C 757.925781 117.324219 759.367188 114.886719 762.519531 112.816406 C 764.027344 111.835938 767.570312 111.664062 770.296875 112.429688 C 773.613281 113.363281 776.167969 113.246094 778.097656 112.191406 C 780.035156 111.140625 781.066406 109.234375 781.945312 107.207031 C 782.023438 107.027344 782.148438 106.925781 782.277344 106.894531 Z M 766.613281 100.234375 C 766.808594 100.21875 767.003906 100.226562 767.191406 100.246094 C 767.453125 100.269531 767.707031 100.316406 767.949219 100.386719 C 768.933594 100.667969 769.796875 101.320312 770.316406 102.277344 C 771.367188 104.179688 770.648438 106.546875 768.667969 107.609375 C 766.695312 108.667969 764.277344 107.953125 763.234375 106.046875 C 762.1875 104.132812 762.902344 101.785156 764.875 100.730469 C 765.425781 100.425781 766.023438 100.269531 766.613281 100.234375 Z M 814.695312 81.546875 C 815.015625 81.523438 815.382812 81.761719 815.5625 82.125 C 815.753906 82.492188 815.800781 82.816406 815.367188 83.261719 C 811.578125 87.160156 807.335938 89.285156 802.480469 89.710938 C 801.859375 89.769531 801.386719 90.28125 801.382812 90.902344 L 801.28125 101.238281 C 801.277344 101.683594 801.515625 102.09375 801.90625 102.304688 L 807.355469 105.339844 C 808.003906 105.699219 808.605469 106.21875 809.183594 106.808594 C 810.453125 108.347656 811.65625 112.726562 812.597656 116.03125 C 812.75 116.582031 812.660156 116.894531 812.484375 117.164062 C 812.308594 117.441406 811.996094 117.667969 811.621094 117.773438 C 811.246094 117.878906 810.855469 117.855469 810.558594 117.714844 C 810.269531 117.566406 810.023438 117.347656 809.867188 116.800781 C 809.445312 115.3125 809.03125 113.71875 808.59375 112.339844 C 808.164062 110.957031 807.816406 109.816406 807.070312 108.957031 C 806.386719 108.160156 805.484375 107.597656 804.695312 107.21875 L 797.769531 103.9375 C 796.808594 103.484375 796.300781 102.902344 795.941406 101.972656 C 795.578125 101.046875 795.433594 99.738281 795.496094 98.0625 L 795.539062 92.789062 C 795.550781 91.734375 794.300781 91.179688 793.519531 91.894531 C 790.199219 94.945312 790.023438 100.296875 790.582031 104.550781 C 790.746094 105.78125 790.265625 105.980469 789.761719 106.046875 C 789.265625 106.117188 788.734375 105.988281 788.585938 104.984375 C 788.089844 101.648438 787.847656 98.382812 788.523438 95.507812 C 789.203125 92.632812 790.640625 90.011719 793.988281 88.023438 C 796.140625 86.738281 798.214844 86.9375 799.980469 86.988281 C 805.449219 87.148438 809.523438 85.507812 814.144531 81.804688 C 814.378906 81.605469 814.546875 81.554688 814.695312 81.546875 Z M 798.136719 74.855469 C 798.679688 74.800781 799.214844 74.855469 799.722656 75.007812 C 800.742188 75.308594 801.636719 76.003906 802.171875 76.996094 C 803.242188 78.992188 802.472656 81.441406 800.40625 82.527344 C 798.355469 83.605469 795.832031 82.839844 794.769531 80.851562 C 793.703125 78.855469 794.46875 76.414062 796.527344 75.332031 C 797.050781 75.0625 797.59375 74.902344 798.136719 74.855469 Z M 816.011719 69.898438 C 817.660156 69.933594 820.339844 70.789062 823.425781 71.121094 C 822.539062 71.773438 821.679688 72.359375 820.292969 72.777344 C 818.734375 73.242188 816.90625 73.832031 815.285156 75.234375 L 813.910156 70.375 C 814.667969 69.992188 815.308594 69.878906 816.011719 69.898438 Z M 816.066406 67.496094 C 814.796875 67.464844 813.449219 67.808594 812.09375 68.652344 C 811.316406 69.140625 811.203125 69.609375 811.363281 70.179688 L 813.929688 79.257812 C 813.476562 79.378906 813.027344 79.601562 812.632812 79.925781 C 808.746094 83.035156 805.773438 84.402344 801.667969 84.574219 C 804.757812 82.851562 805.957031 78.972656 804.285156 75.863281 L 804.285156 75.851562 C 803.441406 74.273438 802.027344 73.195312 800.421875 72.71875 C 799.8125 72.535156 799.1875 72.441406 798.550781 72.441406 C 797.488281 72.433594 796.414062 72.675781 795.410156 73.199219 C 792.21875 74.878906 790.960938 78.824219 792.652344 81.988281 C 793.332031 83.257812 794.390625 84.203125 795.609375 84.777344 C 794.636719 84.976562 793.683594 85.335938 792.675781 85.996094 C 788.941406 88.40625 786.976562 91.582031 786.1875 94.960938 C 785.394531 98.335938 785.6875 101.890625 786.203125 105.332031 C 786.515625 107.445312 788.398438 108.667969 790.09375 108.429688 C 791.78125 108.199219 793.261719 106.464844 792.964844 104.238281 C 792.753906 102.621094 792.738281 100.90625 792.925781 99.28125 L 793.097656 99.289062 C 793.121094 100.597656 793.285156 101.785156 793.691406 102.847656 C 794.175781 104.078125 795.054688 105.113281 796.242188 105.8125 C 797.03125 112.933594 796.1875 116.855469 791.703125 121.1875 C 790.847656 122.015625 790.429688 123.089844 790.464844 124.085938 C 790.492188 124.785156 790.726562 125.421875 791.085938 125.976562 C 790.460938 126.152344 789.875 126.390625 789.339844 126.71875 C 788.035156 127.523438 787.023438 128.683594 785.769531 130.25 L 781.882812 135.078125 C 781.140625 133.058594 780.273438 131.308594 778.578125 129.492188 C 776.890625 127.675781 774.335938 126.1875 772.082031 125.238281 L 772.082031 117.128906 C 778.53125 118.109375 784.589844 113.902344 785.433594 108.421875 C 785.703125 106.691406 784.730469 105.207031 783.425781 104.6875 C 782.777344 104.425781 782.015625 104.386719 781.304688 104.664062 C 780.597656 104.941406 780.003906 105.554688 779.703125 106.347656 C 779.011719 108.152344 778.171875 109.414062 776.949219 110.082031 C 775.730469 110.75 773.917969 110.941406 770.953125 110.109375 C 770.527344 109.992188 770.09375 109.894531 769.648438 109.804688 C 769.703125 109.78125 769.757812 109.757812 769.804688 109.726562 C 772.914062 108.0625 774.109375 104.183594 772.429688 101.113281 C 771.589844 99.585938 770.195312 98.535156 768.617188 98.082031 C 768.027344 97.910156 767.414062 97.820312 766.792969 97.828125 C 765.761719 97.828125 764.710938 98.074219 763.742188 98.59375 C 760.636719 100.257812 759.445312 104.128906 761.128906 107.199219 C 761.75 108.339844 762.675781 109.207031 763.753906 109.761719 C 762.832031 109.972656 761.976562 110.316406 761.210938 110.785156 C 757.65625 112.972656 755.714844 116.410156 754.953125 119.582031 C 754.210938 122.871094 754.535156 126.328125 755.058594 129.660156 C 755.386719 131.726562 757.238281 132.902344 758.894531 132.660156 C 760.554688 132.421875 761.996094 130.699219 761.6875 128.523438 C 761.46875 126.957031 761.417969 125.28125 761.582031 123.699219 L 761.746094 123.699219 C 761.917969 126.472656 762.945312 128.480469 764.757812 129.945312 C 764.757812 129.984375 764.757812 130.027344 764.761719 130.0625 C 765.230469 133.660156 764.996094 135.78125 764.132812 137.546875 C 763.265625 139.316406 761.628906 140.886719 759.015625 143.074219 C 758.121094 143.820312 757.652344 144.847656 757.65625 145.824219 C 757.664062 146.804688 758.101562 147.679688 758.746094 148.324219 C 760.023438 149.609375 762.386719 150.015625 764.160156 148.515625 C 769.324219 144.15625 771.976562 140.03125 772.046875 133.710938 C 772.546875 134.023438 772.984375 134.339844 773.292969 134.683594 C 773.988281 135.503906 774.742188 137.027344 775.574219 139.863281 C 775.765625 140.515625 776.113281 141.058594 776.53125 141.496094 C 775.917969 142.070312 775.226562 142.621094 774.34375 143.164062 L 761.890625 150.789062 C 760.390625 151.710938 759.679688 153.285156 759.894531 154.71875 C 760.113281 156.160156 761.441406 157.425781 763.140625 157.425781 L 824.992188 157.425781 C 827.210938 157.425781 828.988281 157.027344 830.175781 155.769531 C 831.359375 154.511719 831.691406 152.722656 831.691406 150.457031 L 831.691406 121.589844 C 831.691406 120.035156 831.589844 118.664062 830.730469 117.566406 C 829.867188 116.46875 828.417969 116.042969 826.605469 116.042969 L 819.175781 116.042969 C 817.46875 116.042969 816.234375 116.316406 815.035156 116.863281 C 815.085938 116.386719 815.054688 115.878906 814.914062 115.371094 C 814 112.136719 813.160156 107.640625 811.007812 105.21875 C 810.269531 104.386719 809.347656 103.683594 808.535156 103.230469 L 803.707031 100.546875 L 803.785156 91.804688 C 808.25 91.175781 812.347656 89.308594 815.90625 86.085938 C 816.5625 87.183594 818.503906 86.511719 818.078125 85.097656 L 817.746094 84.003906 C 818.203125 83.023438 818.15625 81.898438 817.730469 81.046875 C 817.464844 80.515625 817.054688 80.054688 816.5625 79.71875 L 816.039062 77.882812 C 816.070312 77.859375 816.09375 77.828125 816.117188 77.800781 C 817.476562 76.175781 819.121094 75.644531 820.992188 75.085938 C 822.859375 74.523438 825.011719 73.941406 826.511719 71.945312 C 826.753906 71.628906 827.214844 71.332031 827.074219 70.34375 C 827.007812 69.851562 826.550781 69.34375 826.15625 69.171875 C 825.769531 69 825.4375 68.988281 825.066406 68.992188 C 821.3125 69.058594 819.023438 67.566406 816.066406 67.496094 Z M 816.066406 67.496094 " fill-opacity="1" fill-rule="nonzero"/></g><g clip-path="url(#3a66ab670d)"><g clip-path="url(#38f9c47051)"><path fill="#3ca500" d="M 650.214844 93.828125 L 1203.871094 93.828125 L 1203.871094 647.484375 L 650.214844 647.484375 Z M 650.214844 93.828125 " fill-opacity="1" fill-rule="nonzero"/></g></g><g clip-path="url(#0b1855080e)"><g clip-path="url(#3aee82da14)"><path stroke-linecap="butt" transform="matrix(0.75, 0, 0, 0.75, 650.213469, 93.827027)" fill="none" stroke-linejoin="miter" d="M 369.100807 0.00146415 C 165.25184 0.00146415 0.00183312 165.251471 0.00183312 369.100438 C 0.00183312 572.949405 165.25184 738.20462 369.100807 738.20462 C 572.949774 738.20462 738.204989 572.949405 738.204989 369.100438 C 738.204989 165.251471 572.949774 0.00146415 369.100807 0.00146415 Z M 369.100807 0.00146415 " stroke="#006b07" stroke-width="8" stroke-opacity="1" stroke-miterlimit="4"/></g></g><path fill="#b6d5f0" d="M 720.691406 48.179688 C 716.511719 36.679688 699.855469 31.65625 687.402344 38.035156 C 681.617188 22.515625 664.316406 23.128906 659.195312 39.027344 C 648.414062 33.875 635.070312 39.878906 633.175781 50.972656 C 620.542969 51.015625 610.527344 58.261719 610.550781 66.96875 C 610.574219 76.726562 623.40625 83.988281 637.082031 81.972656 C 643.488281 94.480469 669.152344 97.222656 681.417969 86.601562 C 690.800781 97.191406 713.488281 94.453125 717.378906 82.164062 C 732.226562 86.9375 751.234375 79.96875 751.234375 65.597656 C 751.234375 52.390625 735.109375 45.308594 720.691406 48.179688 " fill-opacity="1" fill-rule="nonzero"/><path fill="#b6d5f0" d="M 720.691406 48.179688 C 716.511719 36.679688 699.855469 31.65625 687.402344 38.035156 C 681.617188 22.515625 664.316406 23.128906 659.195312 39.027344 C 648.414062 33.875 635.070312 39.878906 633.175781 50.972656 C 620.542969 51.015625 610.527344 58.261719 610.550781 66.96875 C 610.574219 76.726562 623.40625 83.988281 637.082031 81.972656 C 643.488281 94.480469 669.152344 97.222656 681.417969 86.601562 C 690.800781 97.191406 713.488281 94.453125 717.378906 82.164062 C 732.226562 86.9375 751.234375 79.96875 751.234375 65.597656 C 751.234375 52.390625 735.109375 45.308594 720.691406 48.179688 " fill-opacity="1" fill-rule="nonzero"/><path fill="#b6d5f0" d="M 633.066406 50.972656 C 632.308594 52.390625 631.765625 53.933594 631.480469 55.59375 C 622.542969 55.621094 614.875 59.070312 610.917969 64.070312 C 612.820312 56.734375 621.921875 51.046875 633.066406 50.972656 " fill-opacity="1" fill-rule="nonzero"/><path fill="#b6d5f0" d="M 750.597656 61.226562 C 745.066406 53.945312 733.109375 50.597656 722.105469 52.753906 C 717.777344 41.054688 700.53125 35.949219 687.636719 42.4375 C 681.640625 26.652344 663.722656 27.273438 658.421875 43.441406 C 649.015625 39.027344 637.714844 42.671875 633.230469 50.683594 C 635.308594 39.769531 648.511719 33.921875 659.199219 39.023438 C 664.316406 23.125 681.617188 22.515625 687.40625 38.035156 C 699.855469 31.660156 716.511719 36.683594 720.691406 48.179688 C 733.429688 45.648438 747.488281 50.875 750.597656 61.226562 " fill-opacity="1" fill-rule="nonzero"/><path fill="#b6d5f0" d="M 633.230469 50.683594 C 633.207031 50.777344 633.191406 50.875 633.175781 50.972656 L 633.066406 50.972656 C 633.117188 50.875 633.175781 50.777344 633.230469 50.683594 " fill-opacity="1" fill-rule="nonzero"/><path fill="#0965ac" d="M 717.375 82.164062 C 713.507812 94.421875 690.828125 97.21875 681.414062 86.601562 C 669.132812 97.242188 643.46875 94.457031 637.082031 81.96875 C 621.929688 84.21875 607.851562 75.011719 610.984375 63.828125 C 613.34375 72.046875 624.960938 77.59375 637.082031 75.796875 C 640.417969 82.3125 649.914062 87.011719 661.113281 87.011719 C 669.425781 87.011719 676.921875 79.6875 681.535156 75.691406 C 685.042969 79.648438 691.089844 87.011719 698.109375 87.011719 C 707.511719 87.011719 715.382812 82.300781 717.375 75.988281 C 731.078125 80.394531 748.410156 74.808594 750.925781 62.511719 C 754.164062 78.351562 733.753906 87.429688 717.375 82.164062 " fill-opacity="1" fill-rule="nonzero"/><path fill="#0965ac" d="M 738.554688 75.726562 C 728.960938 83.886719 715.933594 80.605469 711.324219 68.941406 C 718.507812 75.863281 728.964844 78.46875 738.554688 75.726562 " fill-opacity="1" fill-rule="nonzero"/><path fill="#0965ac" d="M 646.738281 71.605469 C 639.863281 82.15625 626.4375 82.714844 618.699219 72.84375 C 627.554688 77.433594 638.324219 76.960938 646.738281 71.605469 " fill-opacity="1" fill-rule="nonzero"/><path fill="#0965ac" d="M 695.984375 70.445312 C 689.109375 81 675.683594 81.554688 667.945312 71.683594 C 676.800781 76.277344 687.566406 75.800781 695.984375 70.445312 " fill-opacity="1" fill-rule="nonzero"/><path fill="#b6d5f0" d="M 650.359375 60.5625 C 657.234375 50.011719 670.660156 49.453125 678.398438 59.324219 C 669.542969 54.734375 658.773438 55.207031 650.359375 60.5625 " fill-opacity="1" fill-rule="nonzero"/><path fill="#b6d5f0" d="M 715.660156 56.417969 C 722.535156 45.863281 735.960938 45.308594 743.699219 55.179688 C 734.84375 50.585938 724.078125 51.0625 715.660156 56.417969 " fill-opacity="1" fill-rule="nonzero"/><path fill="#b6d5f0" d="M 684.5 45.890625 C 690.578125 34.859375 703.925781 33.308594 712.371094 42.582031 C 703.199219 38.65625 692.496094 39.925781 684.5 45.890625 " fill-opacity="1" fill-rule="nonzero"/><path fill="#b6d5f0" d="M 634.636719 46.835938 C 641.410156 36.21875 654.832031 35.53125 662.664062 45.324219 C 653.765625 40.820312 643.003906 41.402344 634.636719 46.835938 " fill-opacity="1" fill-rule="nonzero"/><path fill="#b6d5f0" d="M 940.421875 4.917969 C 936.242188 -6.578125 919.582031 -11.605469 907.132812 -5.226562 C 901.347656 -20.742188 884.042969 -20.132812 878.925781 -4.234375 C 868.144531 -9.382812 854.800781 -3.382812 852.90625 7.710938 C 840.273438 7.753906 830.257812 15 830.28125 23.710938 C 830.304688 33.464844 843.136719 40.726562 856.8125 38.710938 C 863.21875 51.21875 888.882812 53.964844 901.148438 43.34375 C 910.53125 53.929688 933.21875 51.195312 937.109375 38.90625 C 951.957031 43.679688 970.964844 36.710938 970.964844 22.339844 C 970.964844 9.132812 954.839844 2.046875 940.421875 4.917969 " fill-opacity="1" fill-rule="nonzero"/><path fill="#b6d5f0" d="M 940.421875 4.917969 C 936.242188 -6.578125 919.582031 -11.605469 907.132812 -5.226562 C 901.347656 -20.742188 884.042969 -20.132812 878.925781 -4.234375 C 868.144531 -9.382812 854.800781 -3.382812 852.90625 7.710938 C 840.273438 7.753906 830.257812 15 830.28125 23.710938 C 830.304688 33.464844 843.136719 40.726562 856.8125 38.710938 C 863.21875 51.21875 888.882812 53.964844 901.148438 43.34375 C 910.53125 53.929688 933.21875 51.195312 937.109375 38.90625 C 951.957031 43.679688 970.964844 36.710938 970.964844 22.339844 C 970.964844 9.132812 954.839844 2.046875 940.421875 4.917969 " fill-opacity="1" fill-rule="nonzero"/><path fill="#b6d5f0" d="M 852.796875 7.714844 C 852.039062 9.128906 851.496094 10.671875 851.210938 12.335938 C 842.273438 12.363281 834.605469 15.808594 830.648438 20.808594 C 832.550781 13.472656 841.652344 7.789062 852.796875 7.714844 " fill-opacity="1" fill-rule="nonzero"/><path fill="#b6d5f0" d="M 970.328125 17.964844 C 964.796875 10.683594 952.839844 7.339844 941.835938 9.496094 C 937.507812 -2.203125 920.257812 -7.3125 907.367188 -0.824219 C 901.371094 -16.609375 883.453125 -15.984375 878.152344 0.179688 C 868.746094 -4.230469 857.445312 -0.589844 852.960938 7.421875 C 855.039062 -3.492188 868.242188 -9.339844 878.929688 -4.234375 C 884.046875 -20.132812 901.347656 -20.746094 907.136719 -5.222656 C 919.585938 -11.601562 936.238281 -6.578125 940.421875 4.917969 C 953.160156 2.386719 967.21875 7.613281 970.328125 17.964844 " fill-opacity="1" fill-rule="nonzero"/><path fill="#b6d5f0" d="M 852.960938 7.421875 C 852.9375 7.519531 852.921875 7.613281 852.90625 7.714844 L 852.796875 7.714844 C 852.847656 7.613281 852.90625 7.519531 852.960938 7.421875 " fill-opacity="1" fill-rule="nonzero"/><path fill="#0965ac" d="M 937.105469 38.902344 C 933.238281 51.160156 910.558594 53.960938 901.144531 43.34375 C 888.863281 53.980469 863.199219 51.199219 856.8125 38.710938 C 841.660156 40.957031 827.582031 31.753906 830.714844 20.570312 C 833.074219 28.789062 844.691406 34.332031 856.8125 32.535156 C 860.148438 39.054688 869.644531 43.75 880.84375 43.75 C 889.15625 43.75 896.648438 36.425781 901.265625 32.429688 C 904.773438 36.386719 910.816406 43.75 917.839844 43.75 C 927.242188 43.75 935.113281 39.042969 937.105469 32.726562 C 950.808594 37.136719 968.140625 31.546875 970.65625 19.25 C 973.894531 35.09375 953.484375 44.171875 937.105469 38.902344 " fill-opacity="1" fill-rule="nonzero"/><path fill="#0965ac" d="M 958.285156 32.46875 C 948.691406 40.628906 935.664062 37.34375 931.054688 25.679688 C 938.238281 32.601562 948.695312 35.207031 958.285156 32.46875 " fill-opacity="1" fill-rule="nonzero"/><path fill="#0965ac" d="M 866.46875 28.34375 C 859.59375 38.898438 846.167969 39.453125 838.429688 29.582031 C 847.285156 34.175781 858.054688 33.699219 866.46875 28.34375 " fill-opacity="1" fill-rule="nonzero"/><path fill="#0965ac" d="M 915.714844 27.183594 C 908.835938 37.738281 895.414062 38.296875 887.675781 28.425781 C 896.53125 33.015625 907.296875 32.539062 915.714844 27.183594 " fill-opacity="1" fill-rule="nonzero"/><path fill="#b6d5f0" d="M 870.085938 17.304688 C 876.964844 6.75 890.390625 6.195312 898.128906 16.066406 C 889.273438 11.472656 878.503906 11.949219 870.085938 17.304688 " fill-opacity="1" fill-rule="nonzero"/><path fill="#b6d5f0" d="M 935.390625 13.15625 C 942.265625 2.605469 955.691406 2.046875 963.429688 11.917969 C 954.574219 7.328125 943.808594 7.800781 935.390625 13.15625 " fill-opacity="1" fill-rule="nonzero"/><path fill="#b6d5f0" d="M 904.230469 2.632812 C 910.308594 -8.402344 923.652344 -9.949219 932.101562 -0.679688 C 922.929688 -4.601562 912.226562 -3.332031 904.230469 2.632812 " fill-opacity="1" fill-rule="nonzero"/><path fill="#b6d5f0" d="M 854.367188 3.578125 C 861.140625 -7.042969 874.5625 -7.730469 882.394531 2.066406 C 873.496094 -2.4375 862.734375 -1.859375 854.367188 3.578125 " fill-opacity="1" fill-rule="nonzero"/><g clip-path="url(#a4b45530f8)"><g clip-path="url(#2ed8748142)"><path fill="#3ca500" d="M 158.878906 167.664062 L 312.257812 167.664062 L 312.257812 271.8125 L 158.878906 271.8125 Z M 158.878906 167.664062 " fill-opacity="1" fill-rule="nonzero"/></g></g><g clip-path="url(#9b5759c402)"><g clip-path="url(#29ac5afd9e)"><path fill="#3ca500" d="M 447.050781 192.71875 L 600.429688 192.71875 L 600.429688 296.871094 L 447.050781 296.871094 Z M 447.050781 192.71875 " fill-opacity="1" fill-rule="nonzero"/></g></g><g clip-path="url(#8cd8bef3f6)"><g clip-path="url(#47a7ef1084)"><path fill="#3ca500" d="M 669.808594 174.617188 L 823.320312 174.617188 L 823.320312 275.382812 L 669.808594 275.382812 Z M 669.808594 174.617188 " fill-opacity="1" fill-rule="nonzero"/></g></g></svg>