<svg xmlns="http://www.w3.org/2000/svg" xmlns:xlink="http://www.w3.org/1999/xlink" width="191" zoomAndPan="magnify" viewBox="0 0 143.25 184.499993" height="246" preserveAspectRatio="xMidYMid meet" version="1.0"><defs><clipPath id="6f5c0d6fc3"><path d="M 14.25 143.484375 L 128.253906 143.484375 L 128.253906 152.902344 L 14.25 152.902344 Z M 14.25 143.484375 " clip-rule="nonzero"/></clipPath><clipPath id="33d9ff46c5"><path d="M 0 73 L 127 73 L 127 183.769531 L 0 183.769531 Z M 0 73 " clip-rule="nonzero"/></clipPath><clipPath id="e06904166d"><path d="M 16 75 L 142.503906 75 L 142.503906 183.769531 L 16 183.769531 Z M 16 75 " clip-rule="nonzero"/></clipPath><clipPath id="5b2f81d7f0"><path d="M 55.089844 95.0625 L 88.90625 95.0625 L 88.90625 128.878906 L 55.089844 128.878906 Z M 55.089844 95.0625 " clip-rule="nonzero"/></clipPath><clipPath id="69ee0b817e"><path d="M 71.996094 95.0625 C 62.660156 95.0625 55.089844 102.632812 55.089844 111.96875 C 55.089844 121.308594 62.660156 128.878906 71.996094 128.878906 C 81.335938 128.878906 88.90625 121.308594 88.90625 111.96875 C 88.90625 102.632812 81.335938 95.0625 71.996094 95.0625 Z M 71.996094 95.0625 " clip-rule="nonzero"/></clipPath><clipPath id="9c8efc789e"><path d="M 59.691406 99.636719 L 84.3125 99.636719 L 84.3125 124.257812 L 59.691406 124.257812 Z M 59.691406 99.636719 " clip-rule="nonzero"/></clipPath><clipPath id="7d5464c5fc"><path d="M 25.007812 77.410156 L 58.820312 77.410156 L 58.820312 111.222656 L 25.007812 111.222656 Z M 25.007812 77.410156 " clip-rule="nonzero"/></clipPath><clipPath id="18d322951a"><path d="M 41.914062 77.410156 C 32.578125 77.410156 25.007812 84.980469 25.007812 94.316406 C 25.007812 103.652344 32.578125 111.222656 41.914062 111.222656 C 51.25 111.222656 58.820312 103.652344 58.820312 94.316406 C 58.820312 84.980469 51.25 77.410156 41.914062 77.410156 Z M 41.914062 77.410156 " clip-rule="nonzero"/></clipPath><clipPath id="bf49274881"><path d="M 31.101562 96 L 39 96 L 39 103.648438 L 31.101562 103.648438 Z M 31.101562 96 " clip-rule="nonzero"/></clipPath><clipPath id="eea0820dbd"><path d="M 37 82.011719 L 52.738281 82.011719 L 52.738281 98 L 37 98 Z M 37 82.011719 " clip-rule="nonzero"/></clipPath><clipPath id="2e42b902e0"><path d="M 37.4375 45.085938 L 71.25 45.085938 L 71.25 78.902344 L 37.4375 78.902344 Z M 37.4375 45.085938 " clip-rule="nonzero"/></clipPath><clipPath id="7c10745db4"><path d="M 54.34375 45.085938 C 45.007812 45.085938 37.4375 52.65625 37.4375 61.992188 C 37.4375 71.332031 45.007812 78.902344 54.34375 78.902344 C 63.683594 78.902344 71.25 71.332031 71.25 61.992188 C 71.25 52.65625 63.683594 45.085938 54.34375 45.085938 Z M 54.34375 45.085938 " clip-rule="nonzero"/></clipPath><clipPath id="be6d0305f7"><path d="M 43.738281 61 L 50 61 L 50 72.554688 L 43.738281 72.554688 Z M 43.738281 61 " clip-rule="nonzero"/></clipPath><clipPath id="b24f097729"><path d="M 51 56 L 58 56 L 58 72.554688 L 51 72.554688 Z M 51 56 " clip-rule="nonzero"/></clipPath><clipPath id="26878af734"><path d="M 59 52 L 64.628906 52 L 64.628906 72 L 59 72 Z M 59 52 " clip-rule="nonzero"/></clipPath><clipPath id="e198034392"><path d="M 58 51.664062 L 64.628906 51.664062 L 64.628906 72.554688 L 58 72.554688 Z M 58 51.664062 " clip-rule="nonzero"/></clipPath><clipPath id="641e24acd2"><path d="M 71.996094 45.085938 L 105.8125 45.085938 L 105.8125 78.902344 L 71.996094 78.902344 Z M 71.996094 45.085938 " clip-rule="nonzero"/></clipPath><clipPath id="8c21178b21"><path d="M 88.90625 45.085938 C 79.566406 45.085938 71.996094 52.65625 71.996094 61.992188 C 71.996094 71.332031 79.566406 78.902344 88.90625 78.902344 C 98.242188 78.902344 105.8125 71.332031 105.8125 61.992188 C 105.8125 52.65625 98.242188 45.085938 88.90625 45.085938 Z M 88.90625 45.085938 " clip-rule="nonzero"/></clipPath><clipPath id="a379a028d6"><path d="M 76 49.089844 L 102 49.089844 L 102 75 L 76 75 Z M 76 49.089844 " clip-rule="nonzero"/></clipPath><clipPath id="ddee257f63"><path d="M 85.027344 77.410156 L 118.839844 77.410156 L 118.839844 111.222656 L 85.027344 111.222656 Z M 85.027344 77.410156 " clip-rule="nonzero"/></clipPath><clipPath id="6a53b027a0"><path d="M 101.933594 77.410156 C 92.59375 77.410156 85.027344 84.980469 85.027344 94.316406 C 85.027344 103.652344 92.59375 111.222656 101.933594 111.222656 C 111.269531 111.222656 118.839844 103.652344 118.839844 94.316406 C 118.839844 84.980469 111.269531 77.410156 101.933594 77.410156 Z M 101.933594 77.410156 " clip-rule="nonzero"/></clipPath><clipPath id="34e957c1b8"><path d="M 97 85.765625 L 107 85.765625 L 107 90 L 97 90 Z M 97 85.765625 " clip-rule="nonzero"/></clipPath><clipPath id="0ce4bf7161"><path d="M 91.128906 89 L 112.765625 89 L 112.765625 96 L 91.128906 96 Z M 91.128906 89 " clip-rule="nonzero"/></clipPath><clipPath id="023735ec84"><path d="M 91.128906 96 L 112.765625 96 L 112.765625 102.925781 L 91.128906 102.925781 Z M 91.128906 96 " clip-rule="nonzero"/></clipPath><clipPath id="b6ff359c1c"><path d="M 14.25 143.484375 L 128.253906 143.484375 L 128.253906 152.902344 L 14.25 152.902344 Z M 14.25 143.484375 " clip-rule="nonzero"/></clipPath></defs><g clip-path="url(#6f5c0d6fc3)"><path fill="#0965ac" d="M 14.25 143.484375 L 128.238281 143.484375 L 128.238281 152.902344 L 14.25 152.902344 Z M 14.25 143.484375 " fill-opacity="1" fill-rule="nonzero"/></g><g clip-path="url(#33d9ff46c5)"><path stroke-linecap="butt" transform="matrix(0.739665, 0.0977331, -0.0977331, 0.739665, 13.418973, 120.234661)" fill="none" stroke-linejoin="miter" d="M 3.863959 20.740242 C 29.55073 1.751098 55.238253 1.752718 80.925844 20.739913 " stroke="#3ca500" stroke-width="13" stroke-opacity="1" stroke-miterlimit="4"/></g><g clip-path="url(#e06904166d)"><path stroke-linecap="butt" transform="matrix(0.739665, -0.0977331, 0.0977331, 0.739665, 67.032636, 130.506098)" fill="none" stroke-linejoin="miter" d="M 3.330457 17.986217 C 29.018923 2.669508 54.705761 2.673078 80.392343 17.986546 " stroke="#3ca500" stroke-width="13" stroke-opacity="1" stroke-miterlimit="4"/></g><g clip-path="url(#5b2f81d7f0)"><g clip-path="url(#69ee0b817e)"><path fill="#3ca500" d="M 55.089844 95.0625 L 88.90625 95.0625 L 88.90625 128.878906 L 55.089844 128.878906 Z M 55.089844 95.0625 " fill-opacity="1" fill-rule="nonzero"/></g></g><g clip-path="url(#9c8efc789e)"><path fill="#ffffff" d="M 83.402344 113.863281 C 83.886719 113.863281 84.28125 113.46875 84.28125 112.988281 L 84.28125 110.863281 C 84.28125 110.382812 83.886719 109.988281 83.402344 109.988281 L 82.492188 109.988281 C 82.011719 109.988281 81.5 109.609375 81.355469 109.148438 L 80.578125 107.257812 C 80.351562 106.832031 80.441406 106.207031 80.785156 105.863281 L 81.429688 105.21875 C 81.769531 104.878906 81.769531 104.320312 81.429688 103.976562 L 79.929688 102.476562 C 79.585938 102.136719 79.027344 102.136719 78.6875 102.476562 L 78.042969 103.121094 C 77.699219 103.464844 77.074219 103.554688 76.648438 103.328125 L 74.757812 102.550781 C 74.296875 102.410156 73.921875 101.898438 73.921875 101.414062 L 73.921875 100.503906 C 73.921875 100.019531 73.527344 99.625 73.042969 99.625 L 70.917969 99.625 C 70.4375 99.625 70.042969 100.019531 70.042969 100.503906 L 70.042969 101.414062 C 70.042969 101.898438 69.664062 102.410156 69.203125 102.550781 L 67.316406 103.328125 C 66.890625 103.554688 66.261719 103.464844 65.921875 103.121094 L 65.277344 102.476562 C 64.933594 102.136719 64.375 102.136719 64.035156 102.476562 L 62.53125 103.976562 C 62.191406 104.320312 62.191406 104.878906 62.53125 105.21875 L 63.179688 105.863281 C 63.519531 106.207031 63.613281 106.832031 63.382812 107.257812 L 62.605469 109.148438 C 62.464844 109.609375 61.953125 109.984375 61.46875 109.984375 L 60.558594 109.984375 C 60.078125 109.984375 59.679688 110.382812 59.679688 110.863281 L 59.679688 112.988281 C 59.679688 113.46875 60.078125 113.863281 60.558594 113.863281 L 61.46875 113.863281 C 61.953125 113.863281 62.464844 114.242188 62.605469 114.703125 L 63.382812 116.59375 C 63.613281 117.019531 63.519531 117.644531 63.179688 117.988281 L 62.535156 118.632812 C 62.191406 118.972656 62.191406 119.53125 62.535156 119.875 L 64.035156 121.375 C 64.375 121.714844 64.933594 121.714844 65.277344 121.375 L 65.921875 120.730469 C 66.261719 120.386719 66.890625 120.296875 67.316406 120.523438 L 69.203125 121.300781 C 69.664062 121.441406 70.042969 121.953125 70.042969 122.4375 L 70.042969 123.347656 C 70.042969 123.832031 70.4375 124.226562 70.921875 124.226562 L 73.042969 124.226562 C 73.527344 124.226562 73.921875 123.832031 73.921875 123.347656 L 73.921875 122.4375 C 73.921875 121.953125 74.296875 121.441406 74.757812 121.300781 L 76.648438 120.523438 C 77.074219 120.296875 77.699219 120.386719 78.042969 120.730469 L 78.6875 121.375 C 79.027344 121.714844 79.589844 121.714844 79.929688 121.375 L 81.429688 119.875 C 81.769531 119.53125 81.769531 118.972656 81.429688 118.632812 L 80.785156 117.988281 C 80.441406 117.644531 80.351562 117.015625 80.578125 116.59375 L 81.355469 114.703125 C 81.5 114.242188 82.011719 113.863281 82.492188 113.863281 Z M 71.980469 116.988281 C 69.1875 116.988281 66.921875 114.71875 66.921875 111.925781 C 66.921875 109.128906 69.1875 106.863281 71.980469 106.863281 C 74.777344 106.863281 77.042969 109.128906 77.042969 111.925781 C 77.042969 114.71875 74.777344 116.988281 71.980469 116.988281 Z M 71.980469 116.988281 " fill-opacity="1" fill-rule="nonzero"/></g><g clip-path="url(#7d5464c5fc)"><g clip-path="url(#18d322951a)"><path fill="#3ca500" d="M 25.007812 77.410156 L 58.820312 77.410156 L 58.820312 111.222656 L 25.007812 111.222656 Z M 25.007812 77.410156 " fill-opacity="1" fill-rule="nonzero"/></g></g><g clip-path="url(#bf49274881)"><path fill="#ffffff" d="M 36.449219 96.109375 L 31.679688 100.878906 C 31.082031 101.480469 31.082031 102.449219 31.679688 103.046875 C 32.28125 103.644531 33.25 103.644531 33.847656 103.046875 L 38.617188 98.277344 Z M 36.449219 96.109375 " fill-opacity="1" fill-rule="nonzero"/></g><g clip-path="url(#eea0820dbd)"><path fill="#ffffff" d="M 49.867188 84.863281 C 47.015625 82.015625 42.382812 82.015625 39.535156 84.863281 C 36.941406 87.453125 36.71875 91.523438 38.84375 94.382812 L 37.410156 95.8125 L 38.917969 97.316406 L 40.347656 95.882812 C 43.207031 98.011719 47.273438 97.785156 49.867188 95.195312 C 52.714844 92.347656 52.714844 87.710938 49.867188 84.863281 Z M 48.777344 94.105469 C 46.53125 96.355469 42.871094 96.355469 40.621094 94.105469 C 38.375 91.859375 38.375 88.199219 40.621094 85.949219 C 42.871094 83.703125 46.53125 83.703125 48.777344 85.949219 C 51.027344 88.199219 51.027344 91.859375 48.777344 94.105469 Z M 48.777344 94.105469 " fill-opacity="1" fill-rule="nonzero"/></g><path fill="#ffffff" d="M 47.59375 85.636719 C 45.839844 84.480469 43.570312 84.480469 41.816406 85.632812 C 41.640625 85.753906 41.589844 85.992188 41.707031 86.167969 C 41.722656 86.1875 41.738281 86.210938 41.753906 86.226562 C 41.882812 86.355469 42.085938 86.378906 42.238281 86.277344 C 43.738281 85.292969 45.671875 85.292969 47.167969 86.28125 C 47.347656 86.398438 47.585938 86.347656 47.699219 86.171875 C 47.816406 85.996094 47.769531 85.757812 47.59375 85.636719 Z M 47.59375 85.636719 " fill-opacity="1" fill-rule="nonzero"/><g clip-path="url(#2e42b902e0)"><g clip-path="url(#7c10745db4)"><path fill="#3ca500" d="M 37.4375 45.085938 L 71.25 45.085938 L 71.25 78.902344 L 37.4375 78.902344 Z M 37.4375 45.085938 " fill-opacity="1" fill-rule="nonzero"/></g></g><path fill="#ffffff" d="M 44.59375 62.3125 C 44.542969 62.3125 44.503906 62.355469 44.503906 62.40625 L 44.503906 71.488281 C 44.503906 71.539062 44.542969 71.582031 44.59375 71.582031 L 48.996094 71.582031 C 49.046875 71.582031 49.085938 71.539062 49.085938 71.488281 L 49.085938 62.40625 C 49.085938 62.355469 49.046875 62.3125 48.996094 62.3125 Z M 44.59375 62.3125 " fill-opacity="1" fill-rule="nonzero"/><g clip-path="url(#be6d0305f7)"><path fill="#ffffff" d="M 44.59375 61.585938 C 44.144531 61.585938 43.773438 61.953125 43.773438 62.40625 L 43.773438 71.488281 C 43.773438 71.941406 44.144531 72.308594 44.59375 72.308594 L 48.996094 72.308594 C 49.445312 72.308594 49.816406 71.941406 49.816406 71.488281 L 49.816406 62.40625 C 49.816406 61.953125 49.445312 61.585938 48.996094 61.585938 Z M 49.085938 62.40625 L 49.085938 71.488281 C 49.085938 71.539062 49.046875 71.582031 48.996094 71.582031 L 44.59375 71.582031 C 44.542969 71.582031 44.503906 71.539062 44.503906 71.488281 L 44.503906 62.40625 C 44.503906 62.355469 44.542969 62.3125 44.59375 62.3125 L 48.996094 62.3125 C 49.046875 62.3125 49.085938 62.355469 49.085938 62.40625 Z M 49.085938 62.40625 " fill-opacity="1" fill-rule="nonzero"/></g><path fill="#ffffff" d="M 56.539062 57.039062 L 52.136719 57.039062 C 52.085938 57.039062 52.046875 57.082031 52.046875 57.132812 L 52.046875 71.488281 C 52.046875 71.539062 52.085938 71.582031 52.136719 71.582031 L 56.539062 71.582031 C 56.589844 71.582031 56.628906 71.539062 56.628906 71.488281 L 56.628906 57.132812 C 56.628906 57.082031 56.589844 57.039062 56.539062 57.039062 Z M 56.539062 57.039062 " fill-opacity="1" fill-rule="nonzero"/><g clip-path="url(#b24f097729)"><path fill="#ffffff" d="M 56.539062 56.3125 L 52.136719 56.3125 C 51.6875 56.3125 51.320312 56.679688 51.320312 57.132812 L 51.320312 71.488281 C 51.320312 71.941406 51.6875 72.308594 52.136719 72.308594 L 56.539062 72.308594 C 56.988281 72.308594 57.359375 71.941406 57.359375 71.488281 L 57.359375 57.132812 C 57.359375 56.679688 56.988281 56.3125 56.539062 56.3125 Z M 56.628906 71.488281 C 56.628906 71.539062 56.589844 71.582031 56.539062 71.582031 L 52.136719 71.582031 C 52.085938 71.582031 52.046875 71.539062 52.046875 71.488281 L 52.046875 57.132812 C 52.046875 57.082031 52.085938 57.039062 52.136719 57.039062 L 56.539062 57.039062 C 56.589844 57.039062 56.628906 57.082031 56.628906 57.132812 Z M 56.628906 71.488281 " fill-opacity="1" fill-rule="nonzero"/></g><g clip-path="url(#26878af734)"><path fill="#ffffff" d="M 59.679688 71.582031 L 64.082031 71.582031 C 64.132812 71.582031 64.171875 71.539062 64.171875 71.488281 L 64.171875 52.484375 C 64.171875 52.433594 64.132812 52.394531 64.082031 52.394531 L 59.679688 52.394531 C 59.628906 52.394531 59.589844 52.433594 59.589844 52.484375 L 59.589844 71.488281 C 59.589844 71.539062 59.628906 71.582031 59.679688 71.582031 Z M 59.679688 71.582031 " fill-opacity="1" fill-rule="nonzero"/></g><g clip-path="url(#e198034392)"><path fill="#ffffff" d="M 59.679688 72.308594 L 64.082031 72.308594 C 64.535156 72.308594 64.902344 71.941406 64.902344 71.488281 L 64.902344 52.484375 C 64.902344 52.03125 64.535156 51.664062 64.082031 51.664062 L 59.679688 51.664062 C 59.230469 51.664062 58.863281 52.03125 58.863281 52.484375 L 58.863281 71.488281 C 58.863281 71.941406 59.230469 72.308594 59.679688 72.308594 Z M 59.589844 52.484375 C 59.589844 52.433594 59.628906 52.394531 59.679688 52.394531 L 64.082031 52.394531 C 64.132812 52.394531 64.171875 52.433594 64.171875 52.484375 L 64.171875 71.488281 C 64.171875 71.539062 64.132812 71.582031 64.082031 71.582031 L 59.679688 71.582031 C 59.628906 71.582031 59.589844 71.539062 59.589844 71.488281 Z M 59.589844 52.484375 " fill-opacity="1" fill-rule="nonzero"/></g><g clip-path="url(#641e24acd2)"><g clip-path="url(#8c21178b21)"><path fill="#3ca500" d="M 71.996094 45.085938 L 105.8125 45.085938 L 105.8125 78.902344 L 71.996094 78.902344 Z M 71.996094 45.085938 " fill-opacity="1" fill-rule="nonzero"/></g></g><g clip-path="url(#a379a028d6)"><path fill="#ffffff" d="M 86.554688 73.652344 C 86.328125 73.464844 86.164062 73.234375 86.210938 72.980469 C 86.339844 72.289062 86.800781 72.929688 86.800781 72.546875 C 86.800781 72.160156 86.570312 72.085938 86.570312 72.085938 C 86.902344 72.007812 87.082031 71.648438 87.3125 71.46875 C 87.542969 71.292969 87.695312 70.523438 87.695312 70.523438 C 88.769531 70.550781 88.875 69.039062 89.128906 68.707031 C 89.386719 68.375 90.5625 68.042969 89.691406 67.632812 C 88.824219 67.222656 88.566406 67.324219 87.851562 67.042969 C 87.132812 66.761719 86.597656 66.789062 86.597656 66.789062 C 86.699219 66.710938 86.828125 65.765625 85.90625 65.660156 C 84.984375 65.558594 84.265625 64.84375 84.265625 64.84375 C 83.371094 64.917969 82.785156 64.40625 82.785156 64.40625 C 82.09375 64.382812 81.785156 65.097656 81.785156 65.097656 C 81.351562 64.816406 80.992188 65.097656 80.992188 65.097656 C 80.660156 64.894531 80.632812 64.535156 80.632812 64.535156 C 80.632812 63.691406 80.402344 63.820312 80.402344 63.820312 C 79.761719 63.820312 79.890625 63.613281 79.890625 63.613281 C 79.867188 63.28125 80.070312 62.640625 80.070312 62.640625 C 79.6875 62.640625 79.480469 62.949219 79.480469 62.949219 C 78.636719 64.023438 78.253906 61.746094 78.664062 61.183594 C 79.074219 60.621094 79.558594 61.003906 79.558594 61.003906 C 79.636719 60.824219 80.53125 60.570312 80.558594 61.003906 C 80.582031 61.4375 80.992188 61.949219 80.992188 61.949219 C 81.070312 61.457031 80.972656 60.523438 80.972656 60.523438 C 82.007812 59.890625 81.855469 59.488281 81.855469 59.488281 C 82.183594 58.242188 83.082031 58.394531 83.082031 58.394531 C 82.949219 57.835938 84.003906 57.585938 84.003906 57.585938 C 83.78125 58.085938 84.734375 57.566406 84.734375 57.566406 C 85.023438 57.300781 84.617188 57.359375 84.617188 57.359375 C 84.042969 57.472656 84.273438 56.761719 84.273438 56.761719 C 83.667969 56.714844 83.378906 57.007812 83.289062 57.121094 C 83.703125 56.53125 84.160156 56.472656 84.160156 56.472656 C 85.191406 56.53125 85.441406 56.40625 85.5 56.339844 C 85.351562 56.625 85 56.992188 85.730469 57.011719 C 86.5 57.03125 86.632812 56.703125 86.15625 56.648438 C 85.675781 56.589844 85.808594 56.378906 85.808594 56.378906 C 86.308594 55.589844 85.195312 55.265625 85.214844 55.207031 C 85.234375 55.148438 85.195312 53.980469 84.984375 54.324219 C 84.773438 54.671875 84.332031 54.671875 84.332031 54.671875 C 84.332031 54.671875 84.273438 53.960938 83.582031 53.902344 C 82.890625 53.84375 83.007812 54.054688 83.007812 54.496094 C 83.007812 54.9375 83.449219 54.902344 82.835938 55.207031 C 82.21875 55.515625 82.296875 55.820312 82.199219 56.167969 C 82.105469 56.511719 81.96875 56.226562 81.96875 56.226562 C 82.007812 55.148438 81.796875 55.265625 81.796875 55.265625 C 80.628906 54.902344 81.085938 54.496094 81.683594 53.84375 C 82.277344 53.191406 82.855469 53.519531 82.855469 53.519531 C 83.410156 53.59375 82.699219 53.117188 82.855469 53.117188 C 83.007812 53.117188 83.410156 52.769531 83.660156 52.519531 C 83.910156 52.269531 83.582031 52.214844 83.179688 52.464844 C 82.777344 52.710938 83.121094 51.828125 83.121094 51.828125 C 82.929688 51.773438 82.871094 52.445312 81.894531 52.617188 C 81.746094 52.644531 81.628906 52.652344 81.53125 52.652344 C 83.558594 51.050781 86.121094 50.089844 88.898438 50.089844 C 91.34375 50.089844 93.621094 50.832031 95.515625 52.105469 C 95.507812 52.105469 95.5 52.109375 95.496094 52.113281 C 95.230469 52.226562 95.335938 52.355469 95.335938 52.355469 C 95.464844 52.800781 95.628906 53.570312 95.359375 53.761719 C 95.09375 53.953125 95.234375 54.121094 95.234375 54.121094 C 95.949219 55.554688 95.769531 54.121094 96.21875 54.632812 C 96.664062 55.144531 96.242188 55.347656 96.71875 55.363281 C 97.191406 55.375 97.371094 54.621094 96.960938 54.390625 C 96.550781 54.160156 96.449219 53.238281 96.449219 53.238281 C 96.652344 53.136719 96.679688 53.300781 96.679688 53.300781 C 96.613281 53.441406 96.882812 54.160156 97.125 54.25 C 97.371094 54.335938 97.460938 54.402344 97.546875 54.824219 C 97.636719 55.246094 97.742188 55.195312 97.742188 55.195312 C 97.882812 55.695312 97.230469 55.488281 96.539062 55.644531 C 95.847656 55.796875 96.039062 56.207031 96.039062 56.207031 L 95.808594 56.207031 L 95.679688 56.527344 C 94.527344 57.113281 95.449219 57.191406 95.449219 57.191406 C 95.449219 57.191406 95.960938 57.957031 95.339844 57.984375 C 94.71875 58.011719 94.554688 58.367188 94.503906 58.855469 C 94.453125 59.339844 95.195312 59.441406 95.195312 59.441406 L 95.339844 59.722656 C 95.339844 59.722656 94.683594 60.234375 94.527344 60.800781 C 94.375 61.363281 93.558594 62.054688 93.453125 62.207031 C 93.351562 62.359375 93.710938 63.152344 93.378906 63.613281 C 93.046875 64.074219 93.378906 64.535156 93.378906 64.535156 C 93.734375 64.5625 94.273438 66.300781 94.9375 65.96875 C 94.984375 65.945312 95.027344 65.925781 95.070312 65.90625 C 95.667969 65.640625 96.089844 65.6875 96.089844 65.6875 C 96.910156 65.328125 96.984375 65.996094 96.984375 65.996094 C 97.523438 65.816406 97.445312 66.351562 97.445312 66.351562 C 96.78125 67.09375 97.394531 67.042969 97.164062 68.066406 C 96.933594 69.089844 96.269531 69.117188 96.21875 69.910156 C 96.167969 70.703125 95.246094 71.804688 95.246094 71.804688 C 95.246094 71.804688 95.292969 71.902344 95.476562 71.898438 C 93.589844 73.152344 91.328125 73.882812 88.898438 73.882812 C 88.097656 73.882812 87.3125 73.804688 86.554688 73.652344 Z M 77.003906 61.988281 C 77.003906 61.664062 77.015625 61.339844 77.042969 61.023438 C 77.347656 61.785156 77.832031 62.203125 77.820312 62.488281 C 77.792969 62.972656 77.691406 63.230469 78.636719 63.613281 C 79.585938 63.996094 80.070312 64.585938 80.277344 64.792969 C 80.480469 64.996094 80.914062 65.558594 81.195312 65.355469 C 81.476562 65.148438 82.167969 65.96875 81.8125 66.300781 C 81.453125 66.632812 81.632812 67.144531 81.632812 67.144531 C 81.632812 67.144531 82.195312 69.066406 83.421875 69.398438 C 84.652344 69.730469 84.445312 70.164062 84.445312 70.164062 C 84.417969 71.976562 85.359375 73.011719 86.207031 73.578125 C 80.941406 72.355469 77.003906 67.621094 77.003906 61.988281 Z M 96.5625 58.1875 C 96.539062 57.921875 96.984375 58.035156 96.984375 58.035156 C 97.074219 57.742188 97.332031 57.855469 97.332031 57.855469 C 97.34375 57.996094 97.753906 58.417969 98.085938 58.546875 C 98.417969 58.675781 98.546875 58.886719 98.253906 59.027344 C 97.957031 59.167969 98.214844 59.277344 98.214844 59.277344 C 98.394531 59.417969 98.574219 58.984375 98.558594 58.714844 C 98.546875 58.445312 98.417969 58.394531 98.203125 58.242188 C 97.984375 58.085938 97.6875 57.601562 97.6875 57.601562 C 98.800781 58.152344 98.890625 58.945312 99.058594 59.175781 C 99.222656 59.40625 99.171875 59.710938 99.339844 59.339844 C 99.507812 58.96875 98.855469 58.839844 99.328125 58.546875 C 99.800781 58.253906 99.621094 57.410156 99.621094 57.410156 C 99.824219 57.75 99.949219 57.726562 99.996094 57.699219 C 100.070312 57.890625 100.140625 58.085938 100.203125 58.285156 C 100.148438 58.246094 100.09375 58.222656 100.054688 58.242188 C 99.953125 58.292969 100.109375 58.417969 99.800781 58.484375 C 99.492188 58.546875 99.660156 58.90625 99.660156 58.90625 C 99.773438 59.582031 100.480469 59.609375 100.480469 59.609375 L 100.480469 60.570312 C 99.878906 60.582031 99.339844 60.183594 99.339844 60.183594 C 98.980469 60.082031 99.03125 60.644531 99.03125 60.644531 C 98.007812 59.648438 97.714844 60.734375 97.832031 59.75 C 97.945312 58.765625 96.421875 59.722656 95.859375 59.75 C 95.296875 59.777344 95.566406 59.378906 95.566406 59.378906 C 96.207031 59.480469 96.191406 58.382812 96.257812 58.457031 C 96.320312 58.535156 96.589844 58.457031 96.5625 58.1875 Z M 88.898438 49.085938 C 81.785156 49.085938 76 54.875 76 61.988281 C 76 69.101562 81.785156 74.886719 88.898438 74.886719 C 96.011719 74.886719 101.800781 69.101562 101.800781 61.988281 C 101.800781 54.875 96.011719 49.085938 88.898438 49.085938 " fill-opacity="1" fill-rule="nonzero"/></g><path fill="#ffffff" d="M 80.429688 62.488281 C 80.429688 62.488281 80.78125 62.4375 81.347656 62.847656 C 81.914062 63.257812 82.117188 62.847656 82.117188 62.847656 C 82.117188 62.847656 80.863281 62.0625 80.429688 62.488281 " fill-opacity="1" fill-rule="nonzero"/><path fill="#ffffff" d="M 82.324219 63.117188 C 82.324219 63.117188 82.5 63.382812 82.835938 63.320312 C 83.167969 63.257812 83.332031 63.261719 83.511719 63.328125 C 83.511719 63.328125 82.65625 62.808594 82.324219 63.117188 " fill-opacity="1" fill-rule="nonzero"/><path fill="#ffffff" d="M 94.542969 55.34375 C 94.542969 55.542969 94.859375 55.535156 94.773438 55.9375 C 94.6875 56.339844 94.804688 56.519531 94.917969 56.503906 C 94.917969 56.503906 95.519531 56.425781 95.636719 56.253906 C 95.75 56.082031 95.90625 55.898438 95.40625 55.765625 C 94.90625 55.628906 94.886719 54.9375 94.792969 54.832031 C 94.695312 54.726562 94.398438 54.824219 94.4375 54.613281 C 94.476562 54.402344 93.917969 54.671875 94.136719 54.902344 C 94.359375 55.132812 94.542969 55.140625 94.542969 55.34375 " fill-opacity="1" fill-rule="nonzero"/><path fill="#ffffff" d="M 94.085938 56.253906 C 94.167969 56.207031 94.464844 56.167969 94.484375 55.832031 C 94.503906 55.496094 94.363281 55.371094 94.285156 55.371094 C 94.207031 55.371094 93.921875 55.371094 94.003906 55.8125 C 94.085938 56.253906 94.085938 56.253906 94.085938 56.253906 " fill-opacity="1" fill-rule="nonzero"/><g clip-path="url(#ddee257f63)"><g clip-path="url(#6a53b027a0)"><path fill="#3ca500" d="M 85.027344 77.410156 L 118.839844 77.410156 L 118.839844 111.222656 L 85.027344 111.222656 Z M 85.027344 77.410156 " fill-opacity="1" fill-rule="nonzero"/></g></g><g clip-path="url(#34e957c1b8)"><path fill="#ffffff" d="M 106.128906 89.523438 L 104.871094 89.523438 L 104.871094 88.261719 C 104.867188 88.101562 104.835938 87.945312 104.773438 87.796875 C 104.714844 87.648438 104.625 87.515625 104.511719 87.402344 C 104.398438 87.289062 104.265625 87.199219 104.117188 87.140625 C 103.96875 87.078125 103.8125 87.046875 103.652344 87.042969 L 100.210938 87.042969 C 100.050781 87.046875 99.894531 87.078125 99.746094 87.140625 C 99.597656 87.199219 99.46875 87.289062 99.355469 87.402344 C 99.242188 87.515625 99.152344 87.648438 99.09375 87.796875 C 99.03125 87.945312 99 88.101562 99 88.261719 L 99 89.523438 L 97.738281 89.523438 L 97.738281 88.261719 C 97.738281 87.933594 97.800781 87.617188 97.925781 87.316406 C 98.050781 87.011719 98.230469 86.742188 98.460938 86.511719 C 98.695312 86.277344 98.960938 86.101562 99.265625 85.972656 C 99.566406 85.847656 99.882812 85.785156 100.210938 85.785156 L 103.652344 85.785156 C 103.980469 85.785156 104.296875 85.847656 104.601562 85.972656 C 104.902344 86.101562 105.171875 86.277344 105.402344 86.511719 C 105.636719 86.742188 105.8125 87.011719 105.941406 87.3125 C 106.066406 87.617188 106.128906 87.933594 106.128906 88.261719 Z M 106.128906 89.523438 " fill-opacity="1" fill-rule="nonzero"/></g><g clip-path="url(#0ce4bf7161)"><path fill="#ffffff" d="M 111.125 89.410156 L 92.738281 89.410156 C 92.542969 89.410156 92.355469 89.445312 92.171875 89.523438 C 91.992188 89.597656 91.832031 89.703125 91.691406 89.84375 C 91.554688 89.980469 91.445312 90.140625 91.371094 90.324219 C 91.296875 90.503906 91.257812 90.695312 91.257812 90.890625 L 91.257812 94.785156 C 91.332031 95.027344 91.472656 95.222656 91.679688 95.371094 C 91.882812 95.519531 92.113281 95.59375 92.367188 95.585938 L 111.484375 95.585938 C 111.734375 95.589844 111.964844 95.519531 112.167969 95.371094 C 112.371094 95.222656 112.511719 95.027344 112.585938 94.785156 L 112.585938 90.890625 C 112.585938 90.695312 112.550781 90.507812 112.476562 90.328125 C 112.402344 90.148438 112.296875 89.988281 112.160156 89.847656 C 112.023438 89.710938 111.863281 89.601562 111.683594 89.527344 C 111.503906 89.449219 111.320312 89.410156 111.125 89.410156 Z M 111.125 89.410156 " fill-opacity="1" fill-rule="nonzero"/></g><g clip-path="url(#023735ec84)"><path fill="#ffffff" d="M 111.484375 96.847656 L 104.769531 96.847656 L 104.769531 97.609375 C 104.769531 97.84375 104.722656 98.0625 104.636719 98.277344 C 104.546875 98.492188 104.421875 98.679688 104.257812 98.84375 C 104.097656 99.007812 103.90625 99.132812 103.695312 99.222656 C 103.480469 99.3125 103.257812 99.355469 103.027344 99.355469 L 100.835938 99.355469 C 100.601562 99.355469 100.382812 99.3125 100.167969 99.222656 C 99.953125 99.132812 99.765625 99.007812 99.605469 98.84375 C 99.441406 98.679688 99.316406 98.492188 99.226562 98.277344 C 99.136719 98.0625 99.09375 97.84375 99.09375 97.609375 L 99.09375 96.847656 L 92.367188 96.847656 C 91.976562 96.847656 91.605469 96.761719 91.257812 96.582031 L 91.257812 101.425781 C 91.257812 101.621094 91.296875 101.808594 91.371094 101.992188 C 91.449219 102.171875 91.554688 102.332031 91.695312 102.472656 C 91.832031 102.609375 91.992188 102.71875 92.171875 102.792969 C 92.355469 102.867188 92.542969 102.90625 92.738281 102.90625 L 111.125 102.90625 C 111.320312 102.90625 111.507812 102.867188 111.691406 102.792969 C 111.871094 102.71875 112.03125 102.609375 112.167969 102.472656 C 112.308594 102.332031 112.414062 102.171875 112.492188 101.992188 C 112.566406 101.808594 112.605469 101.621094 112.605469 101.425781 L 112.605469 96.582031 C 112.253906 96.761719 111.878906 96.851562 111.484375 96.847656 Z M 111.484375 96.847656 " fill-opacity="1" fill-rule="nonzero"/></g><path fill="#ffffff" d="M 100.355469 97.609375 C 100.355469 97.742188 100.402344 97.859375 100.496094 97.953125 C 100.589844 98.046875 100.703125 98.09375 100.835938 98.097656 L 103.035156 98.097656 C 103.167969 98.09375 103.28125 98.046875 103.375 97.953125 C 103.46875 97.859375 103.515625 97.742188 103.515625 97.609375 L 103.515625 96.847656 L 100.363281 96.847656 L 100.363281 96.890625 Z M 100.355469 97.609375 " fill-opacity="1" fill-rule="nonzero"/><g clip-path="url(#b6ff359c1c)"><path fill="#0965ac" d="M 14.25 143.484375 L 128.238281 143.484375 L 128.238281 152.902344 L 14.25 152.902344 Z M 14.25 143.484375 " fill-opacity="1" fill-rule="nonzero"/></g></svg>