<svg xmlns="http://www.w3.org/2000/svg" xmlns:xlink="http://www.w3.org/1999/xlink" width="191" zoomAndPan="magnify" viewBox="0 0 143.25 184.499993" height="246" preserveAspectRatio="xMidYMid meet" version="1.0"><defs><clipPath id="e290f524d9"><path d="M 0 0.230469 L 142.503906 0.230469 L 142.503906 183.769531 L 0 183.769531 Z M 0 0.230469 " clip-rule="nonzero"/></clipPath><clipPath id="c30cef9c91"><path d="M 51.402344 150.097656 L 96.871094 150.097656 L 96.871094 169.519531 L 51.402344 169.519531 Z M 51.402344 150.097656 " clip-rule="nonzero"/></clipPath><clipPath id="54100c3544"><path d="M 64.421875 104.625 L 83.84375 104.625 L 83.84375 152.128906 L 64.421875 152.128906 Z M 64.421875 104.625 " clip-rule="nonzero"/></clipPath><clipPath id="927b279030"><path d="M 64 76 L 102 76 L 102 116 L 64 116 Z M 64 76 " clip-rule="nonzero"/></clipPath><clipPath id="c0c93e5124"><path d="M 64.425781 103.273438 L 86.609375 76.578125 L 101.546875 88.996094 L 79.363281 115.691406 Z M 64.425781 103.273438 " clip-rule="nonzero"/></clipPath><clipPath id="46eaf66704"><path d="M 39 55 L 82 55 L 82 111 L 39 111 Z M 39 55 " clip-rule="nonzero"/></clipPath><clipPath id="05204632e3"><path d="M 65.691406 110.757812 L 39.675781 64.691406 L 55.84375 55.558594 L 81.859375 101.625 Z M 65.691406 110.757812 " clip-rule="nonzero"/></clipPath><clipPath id="aba8f32395"><path d="M 13.058594 85.21875 L 51.820312 85.21875 L 51.820312 123.980469 L 13.058594 123.980469 Z M 13.058594 85.21875 " clip-rule="nonzero"/></clipPath><clipPath id="67da5ca3a7"><path d="M 32.441406 85.21875 C 21.734375 85.21875 13.058594 93.894531 13.058594 104.597656 C 13.058594 115.304688 21.734375 123.980469 32.441406 123.980469 C 43.144531 123.980469 51.820312 115.304688 51.820312 104.597656 C 51.820312 93.894531 43.144531 85.21875 32.441406 85.21875 Z M 32.441406 85.21875 " clip-rule="nonzero"/></clipPath><clipPath id="b2d590eec6"><path d="M 8.875 47.132812 L 38.5625 47.132812 L 38.5625 76.820312 L 8.875 76.820312 Z M 8.875 47.132812 " clip-rule="nonzero"/></clipPath><clipPath id="0bff6fa9d4"><path d="M 23.71875 47.132812 C 15.523438 47.132812 8.875 53.777344 8.875 61.976562 C 8.875 70.171875 15.523438 76.820312 23.71875 76.820312 C 31.917969 76.820312 38.5625 70.171875 38.5625 61.976562 C 38.5625 53.777344 31.917969 47.132812 23.71875 47.132812 Z M 23.71875 47.132812 " clip-rule="nonzero"/></clipPath><clipPath id="31beb570aa"><path d="M 71.898438 40.726562 L 100.820312 40.726562 L 100.820312 69.761719 L 71.898438 69.761719 Z M 71.898438 40.726562 " clip-rule="nonzero"/></clipPath><clipPath id="e7366ef353"><path d="M 86.359375 40.726562 C 78.375 40.726562 71.898438 47.210938 71.898438 55.207031 C 71.898438 63.203125 78.375 69.6875 86.359375 69.6875 C 94.347656 69.6875 100.820312 63.203125 100.820312 55.207031 C 100.820312 47.210938 94.347656 40.726562 86.359375 40.726562 Z M 86.359375 40.726562 " clip-rule="nonzero"/></clipPath><clipPath id="83128e0b06"><path d="M 72.949219 16.9375 L 92.964844 16.9375 L 92.964844 36.953125 L 72.949219 36.953125 Z M 72.949219 16.9375 " clip-rule="nonzero"/></clipPath><clipPath id="c4cefb02db"><path d="M 82.957031 16.9375 C 77.429688 16.9375 72.949219 21.417969 72.949219 26.945312 C 72.949219 32.472656 77.429688 36.953125 82.957031 36.953125 C 88.484375 36.953125 92.964844 32.472656 92.964844 26.945312 C 92.964844 21.417969 88.484375 16.9375 82.957031 16.9375 Z M 82.957031 16.9375 " clip-rule="nonzero"/></clipPath><clipPath id="3d5d16df41"><path d="M 31.847656 12.265625 L 66.714844 12.265625 L 66.714844 47.132812 L 31.847656 47.132812 Z M 31.847656 12.265625 " clip-rule="nonzero"/></clipPath><clipPath id="487b9b86c0"><path d="M 49.28125 12.265625 C 39.652344 12.265625 31.847656 20.070312 31.847656 29.699219 C 31.847656 39.328125 39.652344 47.132812 49.28125 47.132812 C 58.90625 47.132812 66.714844 39.328125 66.714844 29.699219 C 66.714844 20.070312 58.90625 12.265625 49.28125 12.265625 Z M 49.28125 12.265625 " clip-rule="nonzero"/></clipPath><clipPath id="3b5b8975bd"><path d="M 106.769531 39.5625 L 127.378906 39.5625 L 127.378906 60.171875 L 106.769531 60.171875 Z M 106.769531 39.5625 " clip-rule="nonzero"/></clipPath><clipPath id="7b7a6191bf"><path d="M 117.074219 39.5625 C 111.382812 39.5625 106.769531 44.175781 106.769531 49.867188 C 106.769531 55.558594 111.382812 60.171875 117.074219 60.171875 C 122.765625 60.171875 127.378906 55.558594 127.378906 49.867188 C 127.378906 44.175781 122.765625 39.5625 117.074219 39.5625 Z M 117.074219 39.5625 " clip-rule="nonzero"/></clipPath><clipPath id="01a88c4ead"><path d="M 102.292969 66.042969 L 129.78125 66.042969 L 129.78125 93.527344 L 102.292969 93.527344 Z M 102.292969 66.042969 " clip-rule="nonzero"/></clipPath><clipPath id="23be67d736"><path d="M 116.039062 66.042969 C 108.449219 66.042969 102.292969 72.195312 102.292969 79.785156 C 102.292969 87.375 108.449219 93.527344 116.039062 93.527344 C 123.628906 93.527344 129.78125 87.375 129.78125 79.785156 C 129.78125 72.195312 123.628906 66.042969 116.039062 66.042969 Z M 116.039062 66.042969 " clip-rule="nonzero"/></clipPath><clipPath id="1010c31520"><path d="M 18.015625 90.171875 L 47 90.171875 L 47 119 L 18.015625 119 Z M 18.015625 90.171875 " clip-rule="nonzero"/></clipPath><clipPath id="9da45ea19c"><path d="M 39.585938 16.9375 L 58.984375 16.9375 L 58.984375 42.304688 L 39.585938 42.304688 Z M 39.585938 16.9375 " clip-rule="nonzero"/></clipPath><clipPath id="14f21aebc5"><path d="M 15.46875 61 L 21 61 L 21 70.355469 L 15.46875 70.355469 Z M 15.46875 61 " clip-rule="nonzero"/></clipPath><clipPath id="f884edd021"><path d="M 21 57 L 27 57 L 27 70.355469 L 21 70.355469 Z M 21 57 " clip-rule="nonzero"/></clipPath><clipPath id="15ec1ae83b"><path d="M 27 54 L 31.882812 54 L 31.882812 70 L 27 70 Z M 27 54 " clip-rule="nonzero"/></clipPath><clipPath id="21cc5e5aaa"><path d="M 27 53.941406 L 31.882812 53.941406 L 31.882812 70.355469 L 27 70.355469 Z M 27 53.941406 " clip-rule="nonzero"/></clipPath><clipPath id="449607635c"><path d="M 71.863281 42.03125 L 100.960938 42.03125 L 100.960938 71 L 71.863281 71 Z M 71.863281 42.03125 " clip-rule="nonzero"/></clipPath><clipPath id="d036094b7f"><path d="M 106.183594 69.929688 L 125.582031 69.929688 L 125.582031 89.328125 L 106.183594 89.328125 Z M 106.183594 69.929688 " clip-rule="nonzero"/></clipPath><clipPath id="0a17cab01b"><path d="M 77.097656 27 L 82 27 L 82 32 L 77.097656 32 Z M 77.097656 27 " clip-rule="nonzero"/></clipPath><clipPath id="12f1ce5dff"><path d="M 80 20.335938 L 89 20.335938 L 89 29 L 80 29 Z M 80 20.335938 " clip-rule="nonzero"/></clipPath><clipPath id="b91f376ebb"><path d="M 114 44.207031 L 120 44.207031 L 120 47 L 114 47 Z M 114 44.207031 " clip-rule="nonzero"/></clipPath><clipPath id="c2ddad7916"><path d="M 110 46 L 124.121094 46 L 124.121094 51 L 110 51 Z M 110 46 " clip-rule="nonzero"/></clipPath><clipPath id="3c0e55d1ff"><path d="M 110 51 L 124.121094 51 L 124.121094 55.398438 L 110 55.398438 Z M 110 51 " clip-rule="nonzero"/></clipPath></defs><g clip-path="url(#e290f524d9)"><path fill="#ffffff" d="M 0 0.230469 L 142.503906 0.230469 L 142.503906 183.769531 L 0 183.769531 Z M 0 0.230469 " fill-opacity="1" fill-rule="nonzero"/><path fill="#ffffff" d="M 0 0.230469 L 142.503906 0.230469 L 142.503906 183.769531 L 0 183.769531 Z M 0 0.230469 " fill-opacity="1" fill-rule="nonzero"/></g><g clip-path="url(#c30cef9c91)"><path fill="#3ca500" d="M 51.402344 150.097656 L 96.851562 150.097656 L 96.851562 169.519531 L 51.402344 169.519531 Z M 51.402344 150.097656 " fill-opacity="1" fill-rule="nonzero"/></g><g clip-path="url(#54100c3544)"><path fill="#3ca500" d="M 64.421875 152.128906 L 64.421875 104.628906 L 83.84375 104.628906 L 83.84375 152.128906 Z M 64.421875 152.128906 " fill-opacity="1" fill-rule="nonzero"/></g><g clip-path="url(#927b279030)"><g clip-path="url(#c0c93e5124)"><path fill="#3ca500" d="M 64.425781 103.273438 L 86.585938 76.609375 L 101.523438 89.023438 L 79.363281 115.691406 Z M 64.425781 103.273438 " fill-opacity="1" fill-rule="nonzero"/></g></g><g clip-path="url(#46eaf66704)"><g clip-path="url(#05204632e3)"><path fill="#3ca500" d="M 65.691406 110.757812 L 39.6875 64.710938 L 55.855469 55.582031 L 81.859375 101.625 Z M 65.691406 110.757812 " fill-opacity="1" fill-rule="nonzero"/></g></g><g clip-path="url(#aba8f32395)"><g clip-path="url(#67da5ca3a7)"><path fill="#0965ac" d="M 13.058594 85.21875 L 51.820312 85.21875 L 51.820312 123.980469 L 13.058594 123.980469 Z M 13.058594 85.21875 " fill-opacity="1" fill-rule="nonzero"/></g></g><g clip-path="url(#b2d590eec6)"><g clip-path="url(#0bff6fa9d4)"><path fill="#0965ac" d="M 8.875 47.132812 L 38.5625 47.132812 L 38.5625 76.820312 L 8.875 76.820312 Z M 8.875 47.132812 " fill-opacity="1" fill-rule="nonzero"/></g></g><g clip-path="url(#31beb570aa)"><g clip-path="url(#e7366ef353)"><path fill="#ffffff" d="M 71.898438 40.726562 L 100.820312 40.726562 L 100.820312 69.648438 L 71.898438 69.648438 Z M 71.898438 40.726562 " fill-opacity="1" fill-rule="nonzero"/></g></g><g clip-path="url(#83128e0b06)"><g clip-path="url(#c4cefb02db)"><path fill="#0965ac" d="M 72.949219 16.9375 L 92.964844 16.9375 L 92.964844 36.953125 L 72.949219 36.953125 Z M 72.949219 16.9375 " fill-opacity="1" fill-rule="nonzero"/></g></g><g clip-path="url(#3d5d16df41)"><g clip-path="url(#487b9b86c0)"><path fill="#0965ac" d="M 31.847656 12.265625 L 66.714844 12.265625 L 66.714844 47.132812 L 31.847656 47.132812 Z M 31.847656 12.265625 " fill-opacity="1" fill-rule="nonzero"/></g></g><g clip-path="url(#3b5b8975bd)"><g clip-path="url(#7b7a6191bf)"><path fill="#0965ac" d="M 106.769531 39.5625 L 127.378906 39.5625 L 127.378906 60.171875 L 106.769531 60.171875 Z M 106.769531 39.5625 " fill-opacity="1" fill-rule="nonzero"/></g></g><g clip-path="url(#01a88c4ead)"><g clip-path="url(#23be67d736)"><path fill="#0965ac" d="M 102.292969 66.042969 L 129.78125 66.042969 L 129.78125 93.527344 L 102.292969 93.527344 Z M 102.292969 66.042969 " fill-opacity="1" fill-rule="nonzero"/></g></g><g clip-path="url(#1010c31520)"><path fill="#ffffff" d="M 45.804688 106.847656 C 46.371094 106.847656 46.832031 106.386719 46.832031 105.820312 L 46.832031 103.332031 C 46.832031 102.765625 46.371094 102.304688 45.804688 102.304688 L 44.738281 102.304688 C 44.171875 102.304688 43.570312 101.863281 43.40625 101.320312 L 42.492188 99.109375 C 42.226562 98.609375 42.335938 97.875 42.734375 97.472656 L 43.492188 96.71875 C 43.890625 96.316406 43.890625 95.664062 43.492188 95.261719 L 41.730469 93.503906 C 41.332031 93.101562 40.675781 93.101562 40.277344 93.503906 L 39.519531 94.257812 C 39.121094 94.660156 38.382812 94.769531 37.886719 94.5 L 35.671875 93.589844 C 35.132812 93.421875 34.691406 92.824219 34.691406 92.257812 L 34.691406 91.1875 C 34.691406 90.625 34.226562 90.160156 33.660156 90.160156 L 31.171875 90.160156 C 30.609375 90.160156 30.144531 90.625 30.144531 91.1875 L 30.144531 92.257812 C 30.144531 92.824219 29.703125 93.421875 29.160156 93.589844 L 26.949219 94.5 C 26.449219 94.769531 25.714844 94.660156 25.316406 94.257812 L 24.558594 93.503906 C 24.160156 93.101562 23.503906 93.101562 23.105469 93.503906 L 21.34375 95.261719 C 20.945312 95.664062 20.945312 96.316406 21.34375 96.71875 L 22.101562 97.472656 C 22.5 97.875 22.609375 98.609375 22.34375 99.109375 L 21.429688 101.320312 C 21.265625 101.863281 20.664062 102.304688 20.097656 102.304688 L 19.03125 102.304688 C 18.464844 102.304688 18.003906 102.765625 18.003906 103.332031 L 18.003906 105.820312 C 18.003906 106.386719 18.464844 106.847656 19.03125 106.847656 L 20.097656 106.847656 C 20.664062 106.847656 21.265625 107.292969 21.429688 107.832031 L 22.34375 110.046875 C 22.609375 110.542969 22.5 111.28125 22.101562 111.679688 L 21.34375 112.4375 C 20.945312 112.835938 20.945312 113.492188 21.34375 113.890625 L 23.105469 115.648438 C 23.503906 116.050781 24.160156 116.050781 24.558594 115.648438 L 25.316406 114.894531 C 25.714844 114.492188 26.449219 114.386719 26.949219 114.652344 L 29.160156 115.566406 C 29.703125 115.730469 30.144531 116.328125 30.144531 116.894531 L 30.144531 117.964844 C 30.144531 118.53125 30.609375 118.992188 31.175781 118.992188 L 33.660156 118.992188 C 34.226562 118.992188 34.691406 118.53125 34.691406 117.964844 L 34.691406 116.894531 C 34.691406 116.328125 35.132812 115.730469 35.671875 115.5625 L 37.886719 114.652344 C 38.386719 114.386719 39.121094 114.492188 39.519531 114.894531 L 40.277344 115.648438 C 40.675781 116.050781 41.332031 116.050781 41.730469 115.648438 L 43.492188 113.890625 C 43.890625 113.492188 43.890625 112.835938 43.492188 112.4375 L 42.734375 111.679688 C 42.335938 111.28125 42.226562 110.542969 42.492188 110.046875 L 43.40625 107.832031 C 43.570312 107.292969 44.171875 106.847656 44.738281 106.847656 Z M 32.417969 110.507812 C 29.140625 110.507812 26.488281 107.851562 26.488281 104.578125 C 26.488281 101.300781 29.140625 98.644531 32.417969 98.644531 C 35.691406 98.644531 38.347656 101.300781 38.347656 104.578125 C 38.347656 107.851562 35.691406 110.507812 32.417969 110.507812 Z M 32.417969 110.507812 " fill-opacity="1" fill-rule="nonzero"/></g><g clip-path="url(#9da45ea19c)"><path fill="#ffffff" d="M 58.96875 40.066406 L 58.96875 18.894531 C 58.96875 18.355469 58.75 17.867188 58.394531 17.511719 C 58.039062 17.15625 57.550781 16.9375 57.011719 16.9375 L 41.550781 16.9375 C 41.011719 16.9375 40.519531 17.15625 40.167969 17.511719 C 39.8125 17.867188 39.589844 18.355469 39.589844 18.894531 L 39.589844 40.066406 C 39.589844 40.605469 39.8125 41.097656 40.167969 41.453125 C 40.519531 41.804688 41.011719 42.027344 41.550781 42.027344 L 57.011719 42.027344 C 57.550781 42.027344 58.039062 41.804688 58.394531 41.453125 C 58.75 41.097656 58.96875 40.605469 58.96875 40.066406 Z M 42.457031 26.820312 L 44.421875 26.820312 C 44.761719 26.820312 45.066406 26.9375 45.289062 27.132812 C 45.511719 27.324219 45.652344 27.59375 45.652344 27.886719 L 45.652344 29.460938 C 45.652344 29.753906 45.511719 30.019531 45.289062 30.214844 C 45.066406 30.40625 44.761719 30.527344 44.421875 30.527344 L 42.457031 30.527344 C 42.117188 30.527344 41.808594 30.40625 41.589844 30.214844 C 41.367188 30.019531 41.226562 29.753906 41.226562 29.460938 L 41.226562 27.886719 C 41.226562 27.59375 41.367188 27.324219 41.589844 27.132812 C 41.808594 26.9375 42.117188 26.820312 42.457031 26.820312 Z M 48.128906 26.820312 L 50.097656 26.820312 C 50.4375 26.820312 50.742188 26.9375 50.964844 27.132812 C 51.1875 27.324219 51.324219 27.59375 51.324219 27.886719 L 51.324219 29.460938 C 51.324219 29.753906 51.1875 30.019531 50.964844 30.214844 C 50.742188 30.40625 50.4375 30.527344 50.097656 30.527344 L 48.128906 30.527344 C 47.792969 30.527344 47.484375 30.40625 47.261719 30.214844 C 47.039062 30.019531 46.902344 29.753906 46.902344 29.460938 L 46.902344 27.886719 C 46.902344 27.59375 47.039062 27.324219 47.261719 27.132812 C 47.484375 26.9375 47.792969 26.820312 48.128906 26.820312 Z M 53.804688 26.820312 L 55.773438 26.820312 C 56.109375 26.820312 56.417969 26.9375 56.640625 27.132812 C 56.863281 27.324219 57 27.59375 57 27.886719 L 57 29.460938 C 57 29.753906 56.863281 30.019531 56.640625 30.214844 C 56.417969 30.40625 56.109375 30.527344 55.773438 30.527344 L 53.804688 30.527344 C 53.464844 30.527344 53.160156 30.40625 52.9375 30.214844 C 52.714844 30.019531 52.578125 29.753906 52.578125 29.460938 L 52.578125 27.886719 C 52.578125 27.59375 52.714844 27.324219 52.9375 27.132812 C 53.160156 26.9375 53.464844 26.820312 53.804688 26.820312 Z M 42.457031 31.691406 L 44.421875 31.691406 C 44.761719 31.691406 45.066406 31.8125 45.289062 32.007812 C 45.511719 32.199219 45.652344 32.464844 45.652344 32.761719 L 45.652344 34.332031 C 45.652344 34.628906 45.511719 34.894531 45.289062 35.085938 C 45.066406 35.28125 44.761719 35.402344 44.421875 35.402344 L 42.457031 35.402344 C 42.117188 35.402344 41.808594 35.28125 41.589844 35.085938 C 41.367188 34.894531 41.226562 34.628906 41.226562 34.332031 L 41.226562 32.761719 C 41.226562 32.464844 41.367188 32.199219 41.589844 32.007812 C 41.808594 31.8125 42.117188 31.691406 42.457031 31.691406 Z M 48.128906 31.691406 L 50.097656 31.691406 C 50.4375 31.691406 50.742188 31.8125 50.964844 32.007812 C 51.1875 32.199219 51.324219 32.464844 51.324219 32.761719 L 51.324219 34.332031 C 51.324219 34.628906 51.1875 34.894531 50.964844 35.085938 C 50.742188 35.28125 50.4375 35.402344 50.097656 35.402344 L 48.128906 35.402344 C 47.792969 35.402344 47.484375 35.28125 47.261719 35.085938 C 47.039062 34.894531 46.902344 34.628906 46.902344 34.332031 L 46.902344 32.761719 C 46.902344 32.464844 47.039062 32.199219 47.261719 32.007812 C 47.484375 31.8125 47.792969 31.691406 48.128906 31.691406 Z M 53.804688 31.691406 L 55.773438 31.691406 C 56.109375 31.691406 56.417969 31.8125 56.640625 32.007812 C 56.863281 32.199219 57 32.464844 57 32.761719 L 57 39.207031 C 57 39.5 56.863281 39.769531 56.640625 39.960938 C 56.417969 40.15625 56.109375 40.273438 55.773438 40.273438 L 53.804688 40.273438 C 53.464844 40.273438 53.160156 40.15625 52.9375 39.960938 C 52.714844 39.769531 52.578125 39.5 52.578125 39.207031 L 52.578125 32.761719 C 52.578125 32.464844 52.714844 32.199219 52.9375 32.007812 C 53.160156 31.8125 53.464844 31.691406 53.804688 31.691406 Z M 42.457031 36.566406 L 44.421875 36.566406 C 44.761719 36.566406 45.066406 36.6875 45.289062 36.878906 C 45.511719 37.074219 45.652344 37.339844 45.652344 37.632812 L 45.652344 39.207031 C 45.652344 39.5 45.511719 39.769531 45.289062 39.960938 C 45.066406 40.15625 44.761719 40.273438 44.421875 40.273438 L 42.457031 40.273438 C 42.117188 40.273438 41.808594 40.15625 41.589844 39.960938 C 41.367188 39.769531 41.226562 39.5 41.226562 39.207031 L 41.226562 37.632812 C 41.226562 37.339844 41.367188 37.074219 41.589844 36.878906 C 41.808594 36.6875 42.117188 36.566406 42.457031 36.566406 Z M 48.128906 36.566406 L 50.097656 36.566406 C 50.4375 36.566406 50.742188 36.6875 50.964844 36.878906 C 51.1875 37.074219 51.324219 37.339844 51.324219 37.632812 L 51.324219 39.207031 C 51.324219 39.5 51.1875 39.769531 50.964844 39.960938 C 50.742188 40.15625 50.4375 40.273438 50.097656 40.273438 L 48.128906 40.273438 C 47.792969 40.273438 47.484375 40.15625 47.261719 39.960938 C 47.039062 39.769531 46.902344 39.5 46.902344 39.207031 L 46.902344 37.632812 C 46.902344 37.339844 47.039062 37.074219 47.261719 36.878906 C 47.484375 36.6875 47.792969 36.566406 48.128906 36.566406 Z M 57.046875 23.996094 C 57.046875 24.238281 56.9375 24.460938 56.765625 24.625 C 56.59375 24.785156 56.355469 24.886719 56.09375 24.886719 L 42.464844 24.886719 C 42.203125 24.886719 41.96875 24.785156 41.796875 24.625 C 41.621094 24.460938 41.515625 24.238281 41.515625 23.996094 L 41.515625 20.082031 C 41.515625 19.839844 41.621094 19.617188 41.796875 19.453125 C 41.96875 19.292969 42.203125 19.191406 42.464844 19.191406 L 56.09375 19.191406 C 56.355469 19.191406 56.59375 19.292969 56.765625 19.453125 C 56.9375 19.617188 57.046875 19.839844 57.046875 20.082031 L 57.046875 23.996094 " fill-opacity="1" fill-rule="evenodd"/></g><path fill="#ffffff" d="M 16.132812 62.226562 C 16.09375 62.226562 16.0625 62.257812 16.0625 62.296875 L 16.0625 69.367188 C 16.0625 69.40625 16.09375 69.4375 16.132812 69.4375 L 19.558594 69.4375 C 19.597656 69.4375 19.628906 69.40625 19.628906 69.367188 L 19.628906 62.296875 C 19.628906 62.257812 19.597656 62.226562 19.558594 62.226562 Z M 16.132812 62.226562 " fill-opacity="1" fill-rule="nonzero"/><g clip-path="url(#14f21aebc5)"><path fill="#ffffff" d="M 16.132812 61.660156 C 15.78125 61.660156 15.496094 61.945312 15.496094 62.296875 L 15.496094 69.367188 C 15.496094 69.71875 15.78125 70.003906 16.132812 70.003906 L 19.558594 70.003906 C 19.910156 70.003906 20.195312 69.71875 20.195312 69.367188 L 20.195312 62.296875 C 20.195312 61.945312 19.910156 61.660156 19.558594 61.660156 Z M 19.628906 62.296875 L 19.628906 69.367188 C 19.628906 69.40625 19.597656 69.4375 19.558594 69.4375 L 16.132812 69.4375 C 16.09375 69.4375 16.0625 69.40625 16.0625 69.367188 L 16.0625 62.296875 C 16.0625 62.257812 16.09375 62.226562 16.132812 62.226562 L 19.558594 62.226562 C 19.597656 62.226562 19.628906 62.257812 19.628906 62.296875 Z M 19.628906 62.296875 " fill-opacity="1" fill-rule="nonzero"/></g><path fill="#ffffff" d="M 25.429688 58.125 L 22.003906 58.125 C 21.964844 58.125 21.933594 58.15625 21.933594 58.195312 L 21.933594 69.367188 C 21.933594 69.40625 21.964844 69.4375 22.003906 69.4375 L 25.429688 69.4375 C 25.46875 69.4375 25.5 69.40625 25.5 69.367188 L 25.5 58.195312 C 25.5 58.15625 25.46875 58.125 25.429688 58.125 Z M 25.429688 58.125 " fill-opacity="1" fill-rule="nonzero"/><g clip-path="url(#f884edd021)"><path fill="#ffffff" d="M 25.429688 57.558594 L 22.003906 57.558594 C 21.652344 57.558594 21.367188 57.84375 21.367188 58.195312 L 21.367188 69.367188 C 21.367188 69.71875 21.652344 70.003906 22.003906 70.003906 L 25.429688 70.003906 C 25.78125 70.003906 26.066406 69.71875 26.066406 69.367188 L 26.066406 58.195312 C 26.066406 57.84375 25.78125 57.558594 25.429688 57.558594 Z M 25.5 69.367188 C 25.5 69.40625 25.46875 69.4375 25.429688 69.4375 L 22.003906 69.4375 C 21.964844 69.4375 21.933594 69.40625 21.933594 69.367188 L 21.933594 58.195312 C 21.933594 58.15625 21.964844 58.125 22.003906 58.125 L 25.429688 58.125 C 25.46875 58.125 25.5 58.15625 25.5 58.195312 Z M 25.5 69.367188 " fill-opacity="1" fill-rule="nonzero"/></g><g clip-path="url(#15ec1ae83b)"><path fill="#ffffff" d="M 27.875 69.4375 L 31.296875 69.4375 C 31.335938 69.4375 31.367188 69.40625 31.367188 69.367188 L 31.367188 54.578125 C 31.367188 54.539062 31.335938 54.507812 31.296875 54.507812 L 27.875 54.507812 C 27.832031 54.507812 27.800781 54.539062 27.800781 54.578125 L 27.800781 69.367188 C 27.800781 69.40625 27.832031 69.4375 27.875 69.4375 Z M 27.875 69.4375 " fill-opacity="1" fill-rule="nonzero"/></g><g clip-path="url(#21cc5e5aaa)"><path fill="#ffffff" d="M 27.875 70.003906 L 31.296875 70.003906 C 31.648438 70.003906 31.933594 69.71875 31.933594 69.367188 L 31.933594 54.578125 C 31.933594 54.226562 31.648438 53.941406 31.296875 53.941406 L 27.875 53.941406 C 27.523438 53.941406 27.234375 54.226562 27.234375 54.578125 L 27.234375 69.367188 C 27.234375 69.71875 27.523438 70.003906 27.875 70.003906 Z M 27.800781 54.578125 C 27.800781 54.539062 27.832031 54.507812 27.875 54.507812 L 31.296875 54.507812 C 31.335938 54.507812 31.367188 54.539062 31.367188 54.578125 L 31.367188 69.367188 C 31.367188 69.40625 31.335938 69.4375 31.296875 69.4375 L 27.875 69.4375 C 27.832031 69.4375 27.800781 69.40625 27.800781 69.367188 Z M 27.800781 54.578125 " fill-opacity="1" fill-rule="nonzero"/></g><g clip-path="url(#449607635c)"><path fill="#0965ac" d="M 100.820312 56.511719 C 100.820312 64.496094 94.324219 70.992188 86.339844 70.992188 C 78.355469 70.992188 71.863281 64.496094 71.863281 56.511719 C 71.863281 48.527344 78.355469 42.03125 86.339844 42.03125 C 94.324219 42.03125 100.820312 48.527344 100.820312 56.511719 Z M 91.511719 59.035156 C 91.511719 57.089844 90.339844 55.996094 87.621094 55.453125 L 86.269531 55.179688 C 84.746094 54.875 84.136719 54.386719 84.136719 53.597656 C 84.136719 52.675781 84.976562 52.066406 86.25 52.039062 C 86.28125 52.039062 86.308594 52.054688 86.339844 52.054688 C 86.367188 52.054688 86.390625 52.042969 86.417969 52.039062 C 87.480469 52.0625 88.277344 52.457031 88.695312 53.402344 C 88.996094 53.953125 89.367188 54.191406 89.972656 54.191406 C 90.65625 54.191406 91.121094 53.757812 91.121094 53.117188 C 91.121094 52.886719 91.085938 52.699219 91.023438 52.519531 C 90.546875 51.128906 89.234375 50.222656 87.453125 49.953125 L 87.453125 48.714844 C 87.453125 48.101562 86.957031 47.601562 86.339844 47.601562 C 85.722656 47.601562 85.226562 48.101562 85.226562 48.714844 L 85.226562 49.953125 C 82.96875 50.308594 81.441406 51.738281 81.441406 53.765625 C 81.441406 55.675781 82.695312 56.902344 85.253906 57.410156 L 86.613281 57.675781 C 88.222656 58.007812 88.828125 58.484375 88.828125 59.332031 C 88.828125 60.273438 87.847656 60.964844 86.410156 60.964844 C 85.183594 60.964844 84.179688 60.523438 83.761719 59.542969 C 83.441406 58.976562 83.078125 58.761719 82.523438 58.761719 C 81.832031 58.761719 81.34375 59.234375 81.34375 59.945312 C 81.34375 60.183594 81.398438 60.433594 81.484375 60.664062 C 81.921875 61.859375 83.222656 62.792969 85.226562 63.050781 L 85.226562 64.308594 C 85.226562 64.921875 85.726562 65.421875 86.339844 65.421875 C 86.339844 65.421875 86.339844 65.421875 86.34375 65.421875 C 86.957031 65.421875 87.453125 64.921875 87.453125 64.308594 L 87.453125 63.054688 C 89.992188 62.726562 91.511719 61.238281 91.511719 59.035156 Z M 91.511719 59.035156 " fill-opacity="1" fill-rule="nonzero"/></g><g clip-path="url(#d036094b7f)"><path fill="#ffffff" d="M 114.242188 88.6875 C 114.070312 88.546875 113.945312 88.371094 113.980469 88.175781 C 114.078125 87.648438 114.429688 88.136719 114.429688 87.84375 C 114.429688 87.550781 114.253906 87.492188 114.253906 87.492188 C 114.507812 87.433594 114.644531 87.160156 114.820312 87.023438 C 115 86.886719 115.117188 86.300781 115.117188 86.300781 C 115.9375 86.320312 116.015625 85.167969 116.210938 84.914062 C 116.40625 84.660156 117.304688 84.40625 116.640625 84.09375 C 115.976562 83.777344 115.78125 83.855469 115.234375 83.640625 C 114.683594 83.425781 114.273438 83.445312 114.273438 83.445312 C 114.351562 83.386719 114.449219 82.664062 113.746094 82.585938 C 113.042969 82.507812 112.496094 81.960938 112.496094 81.960938 C 111.8125 82.019531 111.363281 81.628906 111.363281 81.628906 C 110.835938 81.609375 110.601562 82.15625 110.601562 82.15625 C 110.269531 81.941406 109.996094 82.15625 109.996094 82.15625 C 109.742188 82 109.722656 81.726562 109.722656 81.726562 C 109.722656 81.082031 109.546875 81.179688 109.546875 81.179688 C 109.058594 81.179688 109.15625 81.023438 109.15625 81.023438 C 109.136719 80.769531 109.292969 80.28125 109.292969 80.28125 C 109 80.28125 108.84375 80.515625 108.84375 80.515625 C 108.199219 81.335938 107.902344 79.597656 108.214844 79.167969 C 108.53125 78.738281 108.902344 79.03125 108.902344 79.03125 C 108.960938 78.894531 109.644531 78.699219 109.664062 79.03125 C 109.683594 79.363281 109.996094 79.753906 109.996094 79.753906 C 110.054688 79.378906 109.980469 78.664062 109.980469 78.664062 C 110.773438 78.179688 110.65625 77.871094 110.65625 77.871094 C 110.902344 76.917969 111.59375 77.035156 111.59375 77.035156 C 111.488281 76.613281 112.296875 76.421875 112.296875 76.421875 C 112.125 76.800781 112.851562 76.40625 112.851562 76.40625 C 113.074219 76.203125 112.765625 76.246094 112.765625 76.246094 C 112.324219 76.332031 112.5 75.792969 112.5 75.792969 C 112.039062 75.753906 111.816406 75.976562 111.75 76.066406 C 112.066406 75.613281 112.414062 75.570312 112.414062 75.570312 C 113.203125 75.613281 113.394531 75.519531 113.4375 75.46875 C 113.324219 75.6875 113.054688 75.96875 113.617188 75.980469 C 114.203125 75.996094 114.304688 75.746094 113.9375 75.703125 C 113.570312 75.660156 113.675781 75.496094 113.675781 75.496094 C 114.054688 74.898438 113.207031 74.648438 113.21875 74.605469 C 113.234375 74.558594 113.207031 73.664062 113.042969 73.929688 C 112.882812 74.195312 112.546875 74.195312 112.546875 74.195312 C 112.546875 74.195312 112.5 73.652344 111.972656 73.605469 C 111.445312 73.5625 111.535156 73.722656 111.535156 74.0625 C 111.535156 74.398438 111.871094 74.371094 111.402344 74.605469 C 110.933594 74.839844 110.992188 75.074219 110.917969 75.335938 C 110.84375 75.601562 110.742188 75.378906 110.742188 75.378906 C 110.773438 74.558594 110.609375 74.648438 110.609375 74.648438 C 109.71875 74.371094 110.070312 74.0625 110.523438 73.5625 C 110.976562 73.066406 111.417969 73.3125 111.417969 73.3125 C 111.84375 73.371094 111.300781 73.007812 111.417969 73.007812 C 111.535156 73.007812 111.84375 72.742188 112.03125 72.550781 C 112.222656 72.363281 111.972656 72.316406 111.667969 72.507812 C 111.359375 72.699219 111.621094 72.023438 111.621094 72.023438 C 111.476562 71.980469 111.433594 72.492188 110.683594 72.625 C 110.570312 72.644531 110.480469 72.652344 110.40625 72.652344 C 111.957031 71.429688 113.910156 70.695312 116.035156 70.695312 C 117.902344 70.695312 119.640625 71.261719 121.085938 72.234375 C 121.082031 72.234375 121.074219 72.238281 121.070312 72.238281 C 120.871094 72.328125 120.949219 72.425781 120.949219 72.425781 C 121.046875 72.765625 121.171875 73.351562 120.96875 73.5 C 120.761719 73.644531 120.871094 73.773438 120.871094 73.773438 C 121.417969 74.867188 121.28125 73.773438 121.625 74.164062 C 121.964844 74.554688 121.640625 74.710938 122.003906 74.722656 C 122.367188 74.730469 122.503906 74.15625 122.191406 73.980469 C 121.878906 73.804688 121.800781 73.097656 121.800781 73.097656 C 121.957031 73.019531 121.976562 73.148438 121.976562 73.148438 C 121.925781 73.253906 122.132812 73.804688 122.316406 73.871094 C 122.503906 73.941406 122.570312 73.988281 122.640625 74.3125 C 122.707031 74.632812 122.785156 74.59375 122.785156 74.59375 C 122.894531 74.976562 122.394531 74.820312 121.867188 74.9375 C 121.339844 75.054688 121.488281 75.367188 121.488281 75.367188 L 121.308594 75.367188 L 121.210938 75.609375 C 120.332031 76.058594 121.035156 76.117188 121.035156 76.117188 C 121.035156 76.117188 121.425781 76.703125 120.953125 76.722656 C 120.476562 76.742188 120.351562 77.015625 120.3125 77.390625 C 120.273438 77.761719 120.839844 77.839844 120.839844 77.839844 L 120.953125 78.054688 C 120.953125 78.054688 120.449219 78.445312 120.332031 78.875 C 120.214844 79.304688 119.589844 79.832031 119.511719 79.949219 C 119.433594 80.066406 119.707031 80.671875 119.453125 81.023438 C 119.199219 81.375 119.453125 81.726562 119.453125 81.726562 C 119.726562 81.746094 120.136719 83.074219 120.644531 82.820312 C 120.679688 82.804688 120.714844 82.789062 120.746094 82.773438 C 121.203125 82.574219 121.523438 82.605469 121.523438 82.605469 C 122.152344 82.332031 122.210938 82.839844 122.210938 82.839844 C 122.621094 82.703125 122.5625 83.113281 122.5625 83.113281 C 122.054688 83.679688 122.523438 83.640625 122.347656 84.425781 C 122.171875 85.207031 121.660156 85.226562 121.625 85.832031 C 121.585938 86.4375 120.878906 87.277344 120.878906 87.277344 C 120.878906 87.277344 120.917969 87.355469 121.054688 87.347656 C 119.617188 88.308594 117.890625 88.867188 116.035156 88.867188 C 115.421875 88.867188 114.824219 88.804688 114.242188 88.6875 Z M 106.949219 79.78125 C 106.949219 79.535156 106.957031 79.289062 106.976562 79.042969 C 107.214844 79.628906 107.582031 79.945312 107.570312 80.164062 C 107.550781 80.535156 107.472656 80.730469 108.199219 81.023438 C 108.921875 81.316406 109.292969 81.765625 109.449219 81.921875 C 109.605469 82.078125 109.9375 82.507812 110.152344 82.351562 C 110.367188 82.195312 110.894531 82.820312 110.621094 83.074219 C 110.347656 83.328125 110.484375 83.71875 110.484375 83.71875 C 110.484375 83.71875 110.914062 85.1875 111.851562 85.441406 C 112.789062 85.695312 112.632812 86.027344 112.632812 86.027344 C 112.613281 87.410156 113.332031 88.199219 113.976562 88.632812 C 109.957031 87.699219 106.949219 84.085938 106.949219 79.78125 Z M 121.886719 76.878906 C 121.867188 76.675781 122.210938 76.761719 122.210938 76.761719 C 122.277344 76.539062 122.472656 76.625 122.472656 76.625 C 122.484375 76.734375 122.796875 77.054688 123.050781 77.152344 C 123.304688 77.25 123.402344 77.410156 123.175781 77.519531 C 122.953125 77.628906 123.148438 77.710938 123.148438 77.710938 C 123.285156 77.820312 123.421875 77.488281 123.410156 77.28125 C 123.402344 77.078125 123.304688 77.035156 123.136719 76.917969 C 122.972656 76.800781 122.746094 76.429688 122.746094 76.429688 C 123.597656 76.851562 123.664062 77.457031 123.792969 77.632812 C 123.917969 77.808594 123.878906 78.042969 124.007812 77.761719 C 124.132812 77.476562 123.636719 77.378906 123.996094 77.152344 C 124.359375 76.929688 124.222656 76.285156 124.222656 76.285156 C 124.378906 76.542969 124.472656 76.527344 124.507812 76.503906 C 124.566406 76.652344 124.617188 76.800781 124.667969 76.953125 C 124.625 76.921875 124.582031 76.90625 124.554688 76.917969 C 124.476562 76.957031 124.59375 77.054688 124.359375 77.105469 C 124.125 77.152344 124.25 77.429688 124.25 77.429688 C 124.339844 77.945312 124.875 77.964844 124.875 77.964844 L 124.875 78.699219 C 124.417969 78.707031 124.007812 78.40625 124.007812 78.40625 C 123.734375 78.328125 123.773438 78.757812 123.773438 78.757812 C 122.992188 77.996094 122.765625 78.824219 122.855469 78.074219 C 122.941406 77.324219 121.78125 78.054688 121.347656 78.074219 C 120.917969 78.09375 121.125 77.789062 121.125 77.789062 C 121.613281 77.867188 121.601562 77.027344 121.652344 77.085938 C 121.703125 77.144531 121.90625 77.085938 121.886719 76.878906 Z M 116.035156 69.929688 C 110.601562 69.929688 106.183594 74.351562 106.183594 79.78125 C 106.183594 85.214844 110.601562 89.632812 116.035156 89.632812 C 121.464844 89.632812 125.886719 85.214844 125.886719 79.78125 C 125.886719 74.351562 121.464844 69.929688 116.035156 69.929688 " fill-opacity="1" fill-rule="nonzero"/></g><path fill="#ffffff" d="M 109.566406 80.164062 C 109.566406 80.164062 109.835938 80.125 110.265625 80.4375 C 110.699219 80.75 110.855469 80.4375 110.855469 80.4375 C 110.855469 80.4375 109.898438 79.839844 109.566406 80.164062 " fill-opacity="1" fill-rule="nonzero"/><path fill="#ffffff" d="M 111.011719 80.644531 C 111.011719 80.644531 111.148438 80.847656 111.402344 80.800781 C 111.65625 80.75 111.785156 80.753906 111.921875 80.804688 C 111.921875 80.804688 111.265625 80.410156 111.011719 80.644531 " fill-opacity="1" fill-rule="nonzero"/><path fill="#ffffff" d="M 120.34375 74.707031 C 120.34375 74.859375 120.585938 74.851562 120.519531 75.160156 C 120.453125 75.46875 120.542969 75.605469 120.628906 75.59375 C 120.628906 75.59375 121.089844 75.535156 121.179688 75.402344 C 121.265625 75.269531 121.382812 75.132812 121.003906 75.027344 C 120.621094 74.925781 120.605469 74.398438 120.535156 74.316406 C 120.460938 74.238281 120.234375 74.3125 120.261719 74.148438 C 120.292969 73.988281 119.867188 74.195312 120.035156 74.371094 C 120.203125 74.546875 120.34375 74.550781 120.34375 74.707031 " fill-opacity="1" fill-rule="nonzero"/><path fill="#ffffff" d="M 119.996094 75.402344 C 120.058594 75.367188 120.285156 75.335938 120.300781 75.082031 C 120.3125 74.824219 120.207031 74.730469 120.148438 74.730469 C 120.085938 74.730469 119.871094 74.730469 119.933594 75.066406 C 119.996094 75.402344 119.996094 75.402344 119.996094 75.402344 " fill-opacity="1" fill-rule="nonzero"/><g clip-path="url(#0a17cab01b)"><path fill="#ffffff" d="M 79.996094 27.980469 L 77.410156 30.566406 C 77.085938 30.890625 77.085938 31.414062 77.410156 31.738281 C 77.734375 32.0625 78.261719 32.0625 78.585938 31.738281 L 81.167969 29.15625 Z M 79.996094 27.980469 " fill-opacity="1" fill-rule="nonzero"/></g><g clip-path="url(#12f1ce5dff)"><path fill="#ffffff" d="M 87.265625 21.882812 C 85.722656 20.339844 83.210938 20.339844 81.667969 21.882812 C 80.261719 23.289062 80.140625 25.492188 81.292969 27.042969 L 80.515625 27.820312 L 81.332031 28.632812 L 82.109375 27.855469 C 83.65625 29.011719 85.863281 28.886719 87.265625 27.484375 C 88.8125 25.9375 88.8125 23.425781 87.265625 21.882812 Z M 86.675781 26.894531 C 85.457031 28.113281 83.476562 28.113281 82.257812 26.894531 C 81.039062 25.675781 81.039062 23.691406 82.257812 22.472656 C 83.476562 21.253906 85.457031 21.253906 86.675781 22.472656 C 87.898438 23.691406 87.898438 25.675781 86.675781 26.894531 Z M 86.675781 26.894531 " fill-opacity="1" fill-rule="nonzero"/></g><path fill="#ffffff" d="M 86.035156 22.304688 C 85.082031 21.675781 83.855469 21.675781 82.902344 22.300781 C 82.808594 22.363281 82.78125 22.492188 82.84375 22.589844 C 82.851562 22.601562 82.859375 22.613281 82.871094 22.621094 C 82.9375 22.691406 83.046875 22.703125 83.132812 22.648438 C 83.945312 22.113281 84.992188 22.117188 85.804688 22.652344 C 85.902344 22.714844 86.03125 22.6875 86.09375 22.59375 C 86.15625 22.496094 86.132812 22.367188 86.035156 22.304688 Z M 86.035156 22.304688 " fill-opacity="1" fill-rule="nonzero"/><g clip-path="url(#b91f376ebb)"><path fill="#ffffff" d="M 119.84375 46.6875 L 119.011719 46.6875 L 119.011719 45.855469 C 119.011719 45.632812 118.929688 45.445312 118.773438 45.289062 C 118.617188 45.132812 118.429688 45.050781 118.207031 45.050781 L 115.9375 45.050781 C 115.714844 45.050781 115.527344 45.132812 115.371094 45.289062 C 115.214844 45.445312 115.136719 45.632812 115.136719 45.855469 L 115.136719 46.6875 L 114.304688 46.6875 L 114.304688 45.855469 C 114.304688 45.636719 114.347656 45.429688 114.429688 45.230469 C 114.511719 45.03125 114.628906 44.851562 114.78125 44.699219 C 114.933594 44.546875 115.113281 44.429688 115.3125 44.34375 C 115.511719 44.261719 115.71875 44.21875 115.9375 44.21875 L 118.207031 44.21875 C 118.425781 44.21875 118.632812 44.261719 118.832031 44.34375 C 119.035156 44.425781 119.210938 44.546875 119.363281 44.699219 C 119.515625 44.851562 119.636719 45.027344 119.71875 45.230469 C 119.800781 45.429688 119.84375 45.636719 119.84375 45.855469 Z M 119.84375 46.6875 " fill-opacity="1" fill-rule="nonzero"/></g><g clip-path="url(#c2ddad7916)"><path fill="#ffffff" d="M 123.140625 46.613281 L 111.003906 46.613281 C 110.734375 46.613281 110.503906 46.707031 110.3125 46.898438 C 110.121094 47.089844 110.027344 47.320312 110.027344 47.589844 L 110.027344 50.160156 C 110.074219 50.320312 110.167969 50.449219 110.304688 50.546875 C 110.441406 50.648438 110.589844 50.695312 110.757812 50.691406 L 123.375 50.691406 C 123.542969 50.691406 123.695312 50.644531 123.828125 50.546875 C 123.964844 50.449219 124.054688 50.320312 124.105469 50.160156 L 124.105469 47.589844 C 124.105469 47.320312 124.011719 47.09375 123.824219 46.902344 C 123.636719 46.710938 123.40625 46.617188 123.140625 46.613281 Z M 123.140625 46.613281 " fill-opacity="1" fill-rule="nonzero"/></g><g clip-path="url(#3c0e55d1ff)"><path fill="#ffffff" d="M 123.375 51.523438 L 118.945312 51.523438 L 118.945312 52.027344 C 118.945312 52.179688 118.914062 52.324219 118.859375 52.464844 C 118.800781 52.605469 118.714844 52.730469 118.609375 52.839844 C 118.5 52.949219 118.375 53.03125 118.234375 53.089844 C 118.09375 53.148438 117.949219 53.179688 117.796875 53.179688 L 116.347656 53.179688 C 116.195312 53.179688 116.046875 53.148438 115.90625 53.089844 C 115.765625 53.03125 115.644531 52.949219 115.535156 52.839844 C 115.429688 52.730469 115.34375 52.605469 115.285156 52.464844 C 115.226562 52.324219 115.199219 52.179688 115.199219 52.027344 L 115.199219 51.523438 L 110.757812 51.523438 C 110.5 51.523438 110.257812 51.464844 110.027344 51.347656 L 110.027344 54.542969 C 110.027344 54.8125 110.125 55.042969 110.3125 55.234375 C 110.503906 55.425781 110.734375 55.519531 111.003906 55.523438 L 123.140625 55.523438 C 123.410156 55.519531 123.640625 55.425781 123.828125 55.234375 C 124.019531 55.042969 124.117188 54.8125 124.117188 54.542969 L 124.117188 51.347656 C 123.886719 51.464844 123.636719 51.523438 123.375 51.523438 Z M 123.375 51.523438 " fill-opacity="1" fill-rule="nonzero"/></g><path fill="#ffffff" d="M 116.03125 52.027344 C 116.03125 52.113281 116.0625 52.1875 116.125 52.25 C 116.1875 52.3125 116.261719 52.34375 116.347656 52.347656 L 117.800781 52.347656 C 117.886719 52.34375 117.960938 52.3125 118.023438 52.25 C 118.085938 52.1875 118.117188 52.113281 118.117188 52.027344 L 118.117188 51.523438 L 116.035156 51.523438 L 116.035156 51.550781 Z M 116.03125 52.027344 " fill-opacity="1" fill-rule="nonzero"/></svg>