<svg xmlns="http://www.w3.org/2000/svg" xmlns:xlink="http://www.w3.org/1999/xlink" width="191" zoomAndPan="magnify" viewBox="0 0 143.25 184.499993" height="246" preserveAspectRatio="xMidYMid meet" version="1.0"><defs><clipPath id="e658ba747e"><path d="M 18.761719 27.714844 L 122.433594 27.714844 L 122.433594 126.746094 L 18.761719 126.746094 Z M 18.761719 27.714844 " clip-rule="nonzero"/></clipPath><clipPath id="eabfc31bd5"><path d="M 70.550781 27.714844 C 41.949219 27.714844 18.761719 49.882812 18.761719 77.230469 C 18.761719 104.578125 41.949219 126.746094 70.550781 126.746094 C 99.152344 126.746094 122.335938 104.578125 122.335938 77.230469 C 122.335938 49.882812 99.152344 27.714844 70.550781 27.714844 Z M 70.550781 27.714844 " clip-rule="nonzero"/></clipPath><clipPath id="6804795ec1"><path d="M 54.34375 14.480469 L 88.160156 14.480469 L 88.160156 48.296875 L 54.34375 48.296875 Z M 54.34375 14.480469 " clip-rule="nonzero"/></clipPath><clipPath id="7dde27d79f"><path d="M 71.25 14.480469 C 61.914062 14.480469 54.34375 22.050781 54.34375 31.390625 C 54.34375 40.726562 61.914062 48.296875 71.25 48.296875 C 80.589844 48.296875 88.160156 40.726562 88.160156 31.390625 C 88.160156 22.050781 80.589844 14.480469 71.25 14.480469 Z M 71.25 14.480469 " clip-rule="nonzero"/></clipPath><clipPath id="f3ff1f66df"><path d="M 58.945312 19.054688 L 83.566406 19.054688 L 83.566406 43.675781 L 58.945312 43.675781 Z M 58.945312 19.054688 " clip-rule="nonzero"/></clipPath><clipPath id="3b2f14c310"><path d="M 8.59375 48.296875 L 42.40625 48.296875 L 42.40625 82.113281 L 8.59375 82.113281 Z M 8.59375 48.296875 " clip-rule="nonzero"/></clipPath><clipPath id="78e4cbdf0e"><path d="M 25.5 48.296875 C 16.164062 48.296875 8.59375 55.867188 8.59375 65.203125 C 8.59375 74.542969 16.164062 82.113281 25.5 82.113281 C 34.835938 82.113281 42.40625 74.542969 42.40625 65.203125 C 42.40625 55.867188 34.835938 48.296875 25.5 48.296875 Z M 25.5 48.296875 " clip-rule="nonzero"/></clipPath><clipPath id="805e5aeac2"><path d="M 14.6875 67 L 23 67 L 23 74.539062 L 14.6875 74.539062 Z M 14.6875 67 " clip-rule="nonzero"/></clipPath><clipPath id="e6b0b10cc1"><path d="M 25.5 99.488281 L 59.3125 99.488281 L 59.3125 133.300781 L 25.5 133.300781 Z M 25.5 99.488281 " clip-rule="nonzero"/></clipPath><clipPath id="a3cbe217ff"><path d="M 42.40625 99.488281 C 33.070312 99.488281 25.5 107.054688 25.5 116.394531 C 25.5 125.730469 33.070312 133.300781 42.40625 133.300781 C 51.746094 133.300781 59.3125 125.730469 59.3125 116.394531 C 59.3125 107.054688 51.746094 99.488281 42.40625 99.488281 Z M 42.40625 99.488281 " clip-rule="nonzero"/></clipPath><clipPath id="0921122660"><path d="M 31.800781 115 L 38 115 L 38 126.957031 L 31.800781 126.957031 Z M 31.800781 115 " clip-rule="nonzero"/></clipPath><clipPath id="c1de5f8c41"><path d="M 39 110 L 46 110 L 46 126.957031 L 39 126.957031 Z M 39 110 " clip-rule="nonzero"/></clipPath><clipPath id="1ca7e9b883"><path d="M 47 106.066406 L 52.691406 106.066406 L 52.691406 126 L 47 126 Z M 47 106.066406 " clip-rule="nonzero"/></clipPath><clipPath id="0afd04327d"><path d="M 46 106.066406 L 52.691406 106.066406 L 52.691406 126.957031 L 46 126.957031 Z M 46 106.066406 " clip-rule="nonzero"/></clipPath><clipPath id="4c4b951e7b"><path d="M 83.175781 99.488281 L 116.988281 99.488281 L 116.988281 133.300781 L 83.175781 133.300781 Z M 83.175781 99.488281 " clip-rule="nonzero"/></clipPath><clipPath id="6d501d7c3b"><path d="M 100.082031 99.488281 C 90.746094 99.488281 83.175781 107.054688 83.175781 116.394531 C 83.175781 125.730469 90.746094 133.300781 100.082031 133.300781 C 109.417969 133.300781 116.988281 125.730469 116.988281 116.394531 C 116.988281 107.054688 109.417969 99.488281 100.082031 99.488281 Z M 100.082031 99.488281 " clip-rule="nonzero"/></clipPath><clipPath id="9bf2eeb741"><path d="M 87.175781 103.488281 L 113 103.488281 L 113 129.601562 L 87.175781 129.601562 Z M 87.175781 103.488281 " clip-rule="nonzero"/></clipPath><clipPath id="987874b336"><path d="M 100.082031 48.296875 L 133.898438 48.296875 L 133.898438 82.113281 L 100.082031 82.113281 Z M 100.082031 48.296875 " clip-rule="nonzero"/></clipPath><clipPath id="587a1eafdf"><path d="M 116.988281 48.296875 C 107.652344 48.296875 100.082031 55.867188 100.082031 65.203125 C 100.082031 74.542969 107.652344 82.113281 116.988281 82.113281 C 126.328125 82.113281 133.898438 74.542969 133.898438 65.203125 C 133.898438 55.867188 126.328125 48.296875 116.988281 48.296875 Z M 116.988281 48.296875 " clip-rule="nonzero"/></clipPath><clipPath id="1a585ed75b"><path d="M 112 56.652344 L 122 56.652344 L 122 61 L 112 61 Z M 112 56.652344 " clip-rule="nonzero"/></clipPath><clipPath id="fdd9f8edac"><path d="M 106.1875 60 L 127.824219 60 L 127.824219 67 L 106.1875 67 Z M 106.1875 60 " clip-rule="nonzero"/></clipPath><clipPath id="9edcc3160c"><path d="M 106.1875 67 L 127.824219 67 L 127.824219 73.8125 L 106.1875 73.8125 Z M 106.1875 67 " clip-rule="nonzero"/></clipPath><clipPath id="c1841f071a"><path d="M 54.34375 60.328125 L 88.160156 60.328125 L 88.160156 94.140625 L 54.34375 94.140625 Z M 54.34375 60.328125 " clip-rule="nonzero"/></clipPath><clipPath id="7b918673cc"><path d="M 71.25 60.328125 C 61.914062 60.328125 54.34375 67.898438 54.34375 77.234375 C 54.34375 86.570312 61.914062 94.140625 71.25 94.140625 C 80.589844 94.140625 88.160156 86.570312 88.160156 77.234375 C 88.160156 67.898438 80.589844 60.328125 71.25 60.328125 Z M 71.25 60.328125 " clip-rule="nonzero"/></clipPath><clipPath id="b1917ff767"><path d="M 60.421875 64.113281 L 80.566406 64.113281 L 80.566406 88.734375 L 60.421875 88.734375 Z M 60.421875 64.113281 " clip-rule="nonzero"/></clipPath></defs><g clip-path="url(#e658ba747e)"><g clip-path="url(#eabfc31bd5)"><path stroke-linecap="butt" transform="matrix(0.746094, 0, 0, 0.746094, 18.760867, 27.714046)" fill="none" stroke-linejoin="miter" d="M 69.414757 0.00106968 C 31.079677 0.00106968 0.00114127 29.713113 0.00114127 66.367565 C 0.00114127 103.022016 31.079677 132.73406 69.414757 132.73406 C 107.749837 132.73406 138.823137 103.022016 138.823137 66.367565 C 138.823137 29.713113 107.749837 0.00106968 69.414757 0.00106968 Z M 69.414757 0.00106968 " stroke="#0965ac" stroke-width="20" stroke-opacity="1" stroke-miterlimit="4"/></g></g><g clip-path="url(#6804795ec1)"><g clip-path="url(#7dde27d79f)"><path fill="#3ca500" d="M 54.34375 14.480469 L 88.160156 14.480469 L 88.160156 48.296875 L 54.34375 48.296875 Z M 54.34375 14.480469 " fill-opacity="1" fill-rule="nonzero"/></g></g><g clip-path="url(#f3ff1f66df)"><path fill="#ffffff" d="M 82.65625 33.285156 C 83.140625 33.285156 83.535156 32.890625 83.535156 32.40625 L 83.535156 30.285156 C 83.535156 29.800781 83.140625 29.40625 82.65625 29.40625 L 81.746094 29.40625 C 81.265625 29.40625 80.753906 29.027344 80.609375 28.566406 L 79.832031 26.679688 C 79.605469 26.253906 79.695312 25.625 80.039062 25.285156 L 80.683594 24.640625 C 81.023438 24.296875 81.023438 23.738281 80.683594 23.398438 L 79.183594 21.898438 C 78.839844 21.554688 78.28125 21.554688 77.941406 21.898438 L 77.296875 22.542969 C 76.953125 22.882812 76.328125 22.976562 75.902344 22.746094 L 74.011719 21.96875 C 73.550781 21.828125 73.175781 21.316406 73.175781 20.832031 L 73.175781 19.921875 C 73.175781 19.441406 72.78125 19.042969 72.296875 19.042969 L 70.171875 19.042969 C 69.691406 19.042969 69.296875 19.441406 69.296875 19.921875 L 69.296875 20.832031 C 69.296875 21.316406 68.917969 21.828125 68.457031 21.96875 L 66.570312 22.746094 C 66.144531 22.976562 65.515625 22.882812 65.175781 22.542969 L 64.53125 21.898438 C 64.1875 21.554688 63.628906 21.554688 63.289062 21.898438 L 61.785156 23.398438 C 61.445312 23.738281 61.445312 24.296875 61.785156 24.640625 L 62.433594 25.285156 C 62.773438 25.625 62.867188 26.253906 62.636719 26.679688 L 61.859375 28.566406 C 61.71875 29.027344 61.207031 29.40625 60.722656 29.40625 L 59.8125 29.40625 C 59.332031 29.40625 58.933594 29.800781 58.933594 30.285156 L 58.933594 32.40625 C 58.933594 32.890625 59.332031 33.285156 59.8125 33.285156 L 60.722656 33.285156 C 61.207031 33.285156 61.71875 33.664062 61.859375 34.125 L 62.636719 36.011719 C 62.867188 36.4375 62.773438 37.066406 62.433594 37.40625 L 61.789062 38.050781 C 61.445312 38.394531 61.445312 38.953125 61.789062 39.292969 L 63.289062 40.792969 C 63.628906 41.136719 64.1875 41.136719 64.53125 40.792969 L 65.175781 40.148438 C 65.515625 39.808594 66.144531 39.714844 66.570312 39.941406 L 68.457031 40.722656 C 68.917969 40.863281 69.296875 41.375 69.296875 41.855469 L 69.296875 42.769531 C 69.296875 43.25 69.691406 43.644531 70.175781 43.644531 L 72.296875 43.644531 C 72.78125 43.644531 73.175781 43.25 73.175781 42.769531 L 73.175781 41.855469 C 73.175781 41.375 73.550781 40.863281 74.011719 40.722656 L 75.902344 39.941406 C 76.328125 39.714844 76.953125 39.808594 77.296875 40.148438 L 77.941406 40.792969 C 78.28125 41.136719 78.84375 41.136719 79.183594 40.792969 L 80.683594 39.292969 C 81.023438 38.953125 81.023438 38.394531 80.683594 38.050781 L 80.039062 37.40625 C 79.695312 37.066406 79.605469 36.4375 79.832031 36.011719 L 80.609375 34.125 C 80.753906 33.664062 81.265625 33.285156 81.746094 33.285156 Z M 71.234375 36.40625 C 68.441406 36.40625 66.175781 34.140625 66.175781 31.34375 C 66.175781 28.550781 68.441406 26.285156 71.234375 26.285156 C 74.03125 26.285156 76.296875 28.550781 76.296875 31.34375 C 76.296875 34.140625 74.03125 36.40625 71.234375 36.40625 Z M 71.234375 36.40625 " fill-opacity="1" fill-rule="nonzero"/></g><g clip-path="url(#3b2f14c310)"><g clip-path="url(#78e4cbdf0e)"><path fill="#3ca500" d="M 8.59375 48.296875 L 42.40625 48.296875 L 42.40625 82.113281 L 8.59375 82.113281 Z M 8.59375 48.296875 " fill-opacity="1" fill-rule="nonzero"/></g></g><g clip-path="url(#805e5aeac2)"><path fill="#ffffff" d="M 20.035156 67 L 15.265625 71.765625 C 14.667969 72.367188 14.667969 73.335938 15.265625 73.9375 C 15.867188 74.535156 16.835938 74.535156 17.433594 73.9375 L 22.203125 69.167969 Z M 20.035156 67 " fill-opacity="1" fill-rule="nonzero"/></g><path fill="#ffffff" d="M 33.453125 55.75 C 30.601562 52.902344 25.96875 52.902344 23.121094 55.75 C 20.527344 58.34375 20.304688 62.410156 22.429688 65.269531 L 20.996094 66.703125 L 22.503906 68.203125 L 23.933594 66.773438 C 26.792969 68.898438 30.859375 68.675781 33.453125 66.082031 C 36.300781 63.234375 36.300781 58.597656 33.453125 55.75 Z M 32.363281 64.992188 C 30.117188 67.242188 26.457031 67.242188 24.207031 64.992188 C 21.960938 62.746094 21.960938 59.085938 24.207031 56.835938 C 26.457031 54.589844 30.117188 54.589844 32.363281 56.835938 C 34.613281 59.085938 34.613281 62.746094 32.363281 64.992188 Z M 32.363281 64.992188 " fill-opacity="1" fill-rule="nonzero"/><path fill="#ffffff" d="M 31.179688 56.527344 C 29.425781 55.371094 27.15625 55.367188 25.402344 56.523438 C 25.226562 56.640625 25.175781 56.878906 25.292969 57.054688 C 25.308594 57.078125 25.324219 57.097656 25.339844 57.113281 C 25.46875 57.242188 25.671875 57.265625 25.824219 57.164062 C 27.324219 56.179688 29.257812 56.179688 30.753906 57.167969 C 30.933594 57.285156 31.171875 57.238281 31.285156 57.058594 C 31.402344 56.882812 31.355469 56.644531 31.179688 56.527344 Z M 31.179688 56.527344 " fill-opacity="1" fill-rule="nonzero"/><g clip-path="url(#e6b0b10cc1)"><g clip-path="url(#a3cbe217ff)"><path fill="#3ca500" d="M 25.5 99.488281 L 59.3125 99.488281 L 59.3125 133.300781 L 25.5 133.300781 Z M 25.5 99.488281 " fill-opacity="1" fill-rule="nonzero"/></g></g><path fill="#ffffff" d="M 32.65625 116.710938 C 32.605469 116.710938 32.566406 116.753906 32.566406 116.804688 L 32.566406 125.890625 C 32.566406 125.941406 32.605469 125.980469 32.65625 125.980469 L 37.058594 125.980469 C 37.109375 125.980469 37.148438 125.941406 37.148438 125.890625 L 37.148438 116.804688 C 37.148438 116.753906 37.109375 116.710938 37.058594 116.710938 Z M 32.65625 116.710938 " fill-opacity="1" fill-rule="nonzero"/><g clip-path="url(#0921122660)"><path fill="#ffffff" d="M 32.65625 115.984375 C 32.207031 115.984375 31.835938 116.351562 31.835938 116.804688 L 31.835938 125.890625 C 31.835938 126.339844 32.207031 126.707031 32.65625 126.707031 L 37.058594 126.707031 C 37.507812 126.707031 37.878906 126.339844 37.878906 125.890625 L 37.878906 116.804688 C 37.878906 116.351562 37.507812 115.984375 37.058594 115.984375 Z M 37.148438 116.804688 L 37.148438 125.890625 C 37.148438 125.941406 37.109375 125.980469 37.058594 125.980469 L 32.65625 125.980469 C 32.605469 125.980469 32.566406 125.941406 32.566406 125.890625 L 32.566406 116.804688 C 32.566406 116.753906 32.605469 116.710938 32.65625 116.710938 L 37.058594 116.710938 C 37.109375 116.710938 37.148438 116.753906 37.148438 116.804688 Z M 37.148438 116.804688 " fill-opacity="1" fill-rule="nonzero"/></g><path fill="#ffffff" d="M 44.601562 111.441406 L 40.199219 111.441406 C 40.148438 111.441406 40.109375 111.480469 40.109375 111.53125 L 40.109375 125.890625 C 40.109375 125.941406 40.148438 125.980469 40.199219 125.980469 L 44.601562 125.980469 C 44.652344 125.980469 44.691406 125.941406 44.691406 125.890625 L 44.691406 111.53125 C 44.691406 111.480469 44.652344 111.441406 44.601562 111.441406 Z M 44.601562 111.441406 " fill-opacity="1" fill-rule="nonzero"/><g clip-path="url(#c1de5f8c41)"><path fill="#ffffff" d="M 44.601562 110.710938 L 40.199219 110.710938 C 39.75 110.710938 39.382812 111.078125 39.382812 111.53125 L 39.382812 125.890625 C 39.382812 126.339844 39.75 126.707031 40.199219 126.707031 L 44.601562 126.707031 C 45.050781 126.707031 45.421875 126.339844 45.421875 125.890625 L 45.421875 111.53125 C 45.421875 111.078125 45.050781 110.710938 44.601562 110.710938 Z M 44.691406 125.890625 C 44.691406 125.941406 44.652344 125.980469 44.601562 125.980469 L 40.199219 125.980469 C 40.148438 125.980469 40.109375 125.941406 40.109375 125.890625 L 40.109375 111.53125 C 40.109375 111.480469 40.148438 111.441406 40.199219 111.441406 L 44.601562 111.441406 C 44.652344 111.441406 44.691406 111.480469 44.691406 111.53125 Z M 44.691406 125.890625 " fill-opacity="1" fill-rule="nonzero"/></g><g clip-path="url(#1ca7e9b883)"><path fill="#ffffff" d="M 47.742188 125.980469 L 52.144531 125.980469 C 52.195312 125.980469 52.234375 125.941406 52.234375 125.890625 L 52.234375 106.882812 C 52.234375 106.835938 52.195312 106.792969 52.144531 106.792969 L 47.742188 106.792969 C 47.691406 106.792969 47.652344 106.835938 47.652344 106.882812 L 47.652344 125.890625 C 47.652344 125.941406 47.691406 125.980469 47.742188 125.980469 Z M 47.742188 125.980469 " fill-opacity="1" fill-rule="nonzero"/></g><g clip-path="url(#0afd04327d)"><path fill="#ffffff" d="M 47.742188 126.707031 L 52.144531 126.707031 C 52.597656 126.707031 52.964844 126.339844 52.964844 125.890625 L 52.964844 106.882812 C 52.964844 106.433594 52.597656 106.066406 52.144531 106.066406 L 47.742188 106.066406 C 47.292969 106.066406 46.925781 106.433594 46.925781 106.882812 L 46.925781 125.890625 C 46.925781 126.339844 47.292969 126.707031 47.742188 126.707031 Z M 47.652344 106.882812 C 47.652344 106.835938 47.691406 106.792969 47.742188 106.792969 L 52.144531 106.792969 C 52.195312 106.792969 52.234375 106.835938 52.234375 106.882812 L 52.234375 125.890625 C 52.234375 125.941406 52.195312 125.980469 52.144531 125.980469 L 47.742188 125.980469 C 47.691406 125.980469 47.652344 125.941406 47.652344 125.890625 Z M 47.652344 106.882812 " fill-opacity="1" fill-rule="nonzero"/></g><g clip-path="url(#4c4b951e7b)"><g clip-path="url(#6d501d7c3b)"><path fill="#3ca500" d="M 83.175781 99.488281 L 116.988281 99.488281 L 116.988281 133.300781 L 83.175781 133.300781 Z M 83.175781 99.488281 " fill-opacity="1" fill-rule="nonzero"/></g></g><g clip-path="url(#9bf2eeb741)"><path fill="#ffffff" d="M 97.730469 128.050781 C 97.507812 127.863281 97.34375 127.632812 97.390625 127.378906 C 97.515625 126.6875 97.976562 127.328125 97.976562 126.945312 C 97.976562 126.5625 97.746094 126.484375 97.746094 126.484375 C 98.078125 126.40625 98.257812 126.050781 98.488281 125.871094 C 98.71875 125.691406 98.875 124.921875 98.875 124.921875 C 99.949219 124.949219 100.050781 123.4375 100.304688 123.105469 C 100.5625 122.773438 101.738281 122.441406 100.871094 122.03125 C 100 121.621094 99.742188 121.726562 99.027344 121.441406 C 98.308594 121.160156 97.773438 121.1875 97.773438 121.1875 C 97.875 121.109375 98.003906 120.164062 97.082031 120.0625 C 96.160156 119.957031 95.445312 119.242188 95.445312 119.242188 C 94.546875 119.320312 93.960938 118.808594 93.960938 118.808594 C 93.269531 118.78125 92.960938 119.5 92.960938 119.5 C 92.527344 119.21875 92.167969 119.5 92.167969 119.5 C 91.835938 119.292969 91.808594 118.933594 91.808594 118.933594 C 91.808594 118.089844 91.582031 118.21875 91.582031 118.21875 C 90.941406 118.21875 91.070312 118.015625 91.070312 118.015625 C 91.042969 117.679688 91.246094 117.042969 91.246094 117.042969 C 90.863281 117.042969 90.660156 117.347656 90.660156 117.347656 C 89.8125 118.421875 89.429688 116.144531 89.839844 115.582031 C 90.25 115.019531 90.734375 115.402344 90.734375 115.402344 C 90.8125 115.222656 91.707031 114.96875 91.734375 115.402344 C 91.757812 115.839844 92.167969 116.351562 92.167969 116.351562 C 92.246094 115.859375 92.148438 114.925781 92.148438 114.925781 C 93.1875 114.289062 93.03125 113.886719 93.03125 113.886719 C 93.359375 112.640625 94.261719 112.792969 94.261719 112.792969 C 94.125 112.238281 95.183594 111.988281 95.183594 111.988281 C 94.957031 112.484375 95.910156 111.96875 95.910156 111.96875 C 96.199219 111.699219 95.796875 111.757812 95.796875 111.757812 C 95.21875 111.871094 95.449219 111.164062 95.449219 111.164062 C 94.84375 111.117188 94.554688 111.40625 94.464844 111.519531 C 94.878906 110.929688 95.335938 110.875 95.335938 110.875 C 96.367188 110.929688 96.617188 110.808594 96.679688 110.738281 C 96.527344 111.023438 96.175781 111.394531 96.910156 111.410156 C 97.675781 111.429688 97.8125 111.105469 97.332031 111.046875 C 96.851562 110.988281 96.984375 110.777344 96.984375 110.777344 C 97.484375 109.992188 96.371094 109.664062 96.390625 109.609375 C 96.410156 109.550781 96.371094 108.378906 96.160156 108.726562 C 95.949219 109.070312 95.507812 109.070312 95.507812 109.070312 C 95.507812 109.070312 95.449219 108.359375 94.757812 108.300781 C 94.070312 108.246094 94.183594 108.457031 94.183594 108.898438 C 94.183594 109.339844 94.625 109.300781 94.011719 109.609375 C 93.398438 109.914062 93.472656 110.222656 93.378906 110.566406 C 93.28125 110.914062 93.148438 110.625 93.148438 110.625 C 93.1875 109.550781 92.976562 109.664062 92.976562 109.664062 C 91.804688 109.300781 92.265625 108.898438 92.859375 108.246094 C 93.453125 107.59375 94.03125 107.917969 94.03125 107.917969 C 94.585938 107.996094 93.878906 107.515625 94.03125 107.515625 C 94.183594 107.515625 94.585938 107.171875 94.835938 106.921875 C 95.085938 106.671875 94.757812 106.613281 94.355469 106.863281 C 93.953125 107.113281 94.300781 106.230469 94.300781 106.230469 C 94.105469 106.171875 94.050781 106.84375 93.070312 107.015625 C 92.921875 107.042969 92.804688 107.054688 92.707031 107.054688 C 94.734375 105.449219 97.296875 104.492188 100.074219 104.492188 C 102.523438 104.492188 104.796875 105.234375 106.691406 106.503906 C 106.683594 106.507812 106.679688 106.507812 106.671875 106.511719 C 106.410156 106.625 106.511719 106.753906 106.511719 106.753906 C 106.640625 107.203125 106.804688 107.96875 106.539062 108.160156 C 106.269531 108.355469 106.410156 108.519531 106.410156 108.519531 C 107.125 109.953125 106.945312 108.519531 107.394531 109.03125 C 107.84375 109.542969 107.421875 109.75 107.894531 109.761719 C 108.367188 109.773438 108.546875 109.019531 108.136719 108.789062 C 107.726562 108.558594 107.625 107.636719 107.625 107.636719 C 107.828125 107.535156 107.855469 107.703125 107.855469 107.703125 C 107.792969 107.84375 108.058594 108.558594 108.304688 108.648438 C 108.546875 108.738281 108.636719 108.800781 108.726562 109.222656 C 108.816406 109.644531 108.917969 109.59375 108.917969 109.59375 C 109.058594 110.09375 108.40625 109.890625 107.714844 110.042969 C 107.023438 110.195312 107.214844 110.605469 107.214844 110.605469 L 106.984375 110.605469 L 106.859375 110.925781 C 105.707031 111.515625 106.628906 111.589844 106.628906 111.589844 C 106.628906 111.589844 107.140625 112.359375 106.515625 112.382812 C 105.894531 112.410156 105.730469 112.769531 105.679688 113.253906 C 105.628906 113.742188 106.371094 113.84375 106.371094 113.84375 L 106.515625 114.125 C 106.515625 114.125 105.859375 114.636719 105.707031 115.199219 C 105.550781 115.761719 104.734375 116.453125 104.632812 116.605469 C 104.527344 116.761719 104.886719 117.554688 104.554688 118.015625 C 104.222656 118.472656 104.554688 118.933594 104.554688 118.933594 C 104.914062 118.960938 105.449219 120.699219 106.117188 120.367188 C 106.160156 120.347656 106.203125 120.324219 106.246094 120.308594 C 106.84375 120.042969 107.265625 120.085938 107.265625 120.085938 C 108.085938 119.730469 108.164062 120.394531 108.164062 120.394531 C 108.699219 120.214844 108.625 120.753906 108.625 120.753906 C 107.957031 121.496094 108.570312 121.441406 108.34375 122.464844 C 108.113281 123.492188 107.445312 123.515625 107.394531 124.308594 C 107.34375 125.101562 106.421875 126.203125 106.421875 126.203125 C 106.421875 126.203125 106.46875 126.304688 106.652344 126.296875 C 104.765625 127.550781 102.503906 128.285156 100.074219 128.285156 C 99.273438 128.285156 98.488281 128.203125 97.730469 128.050781 Z M 88.179688 116.386719 C 88.179688 116.0625 88.191406 115.742188 88.21875 115.421875 C 88.523438 116.1875 89.011719 116.601562 88.996094 116.886719 C 88.96875 117.375 88.867188 117.628906 89.8125 118.015625 C 90.761719 118.398438 91.246094 118.988281 91.453125 119.191406 C 91.65625 119.394531 92.09375 119.957031 92.375 119.753906 C 92.65625 119.550781 93.347656 120.367188 92.988281 120.699219 C 92.628906 121.035156 92.808594 121.546875 92.808594 121.546875 C 92.808594 121.546875 93.371094 123.464844 94.597656 123.796875 C 95.828125 124.128906 95.625 124.566406 95.625 124.566406 C 95.59375 126.375 96.535156 127.414062 97.382812 127.976562 C 92.117188 126.753906 88.179688 122.023438 88.179688 116.386719 Z M 107.738281 112.589844 C 107.714844 112.320312 108.164062 112.433594 108.164062 112.433594 C 108.253906 112.140625 108.507812 112.257812 108.507812 112.257812 C 108.519531 112.398438 108.929688 112.820312 109.261719 112.945312 C 109.59375 113.074219 109.722656 113.285156 109.429688 113.425781 C 109.136719 113.570312 109.390625 113.675781 109.390625 113.675781 C 109.570312 113.816406 109.75 113.382812 109.738281 113.113281 C 109.722656 112.84375 109.59375 112.792969 109.378906 112.640625 C 109.160156 112.488281 108.867188 112 108.867188 112 C 109.980469 112.550781 110.070312 113.34375 110.234375 113.574219 C 110.402344 113.804688 110.351562 114.113281 110.515625 113.742188 C 110.683594 113.371094 110.03125 113.242188 110.503906 112.945312 C 110.976562 112.652344 110.796875 111.808594 110.796875 111.808594 C 111.003906 112.148438 111.125 112.128906 111.171875 112.097656 C 111.246094 112.289062 111.316406 112.484375 111.382812 112.683594 C 111.324219 112.644531 111.273438 112.621094 111.234375 112.640625 C 111.128906 112.691406 111.285156 112.820312 110.976562 112.882812 C 110.671875 112.945312 110.835938 113.304688 110.835938 113.304688 C 110.953125 113.984375 111.65625 114.007812 111.65625 114.007812 L 111.65625 114.96875 C 111.054688 114.980469 110.515625 114.585938 110.515625 114.585938 C 110.160156 114.484375 110.210938 115.046875 110.210938 115.046875 C 109.1875 114.046875 108.890625 115.136719 109.007812 114.152344 C 109.121094 113.167969 107.601562 114.125 107.035156 114.148438 C 106.472656 114.175781 106.742188 113.777344 106.742188 113.777344 C 107.382812 113.882812 107.371094 112.78125 107.433594 112.859375 C 107.496094 112.933594 107.765625 112.859375 107.738281 112.589844 Z M 100.074219 103.488281 C 92.964844 103.488281 87.175781 109.273438 87.175781 116.386719 C 87.175781 123.5 92.964844 129.289062 100.074219 129.289062 C 107.1875 129.289062 112.976562 123.5 112.976562 116.386719 C 112.976562 109.273438 107.1875 103.488281 100.074219 103.488281 " fill-opacity="1" fill-rule="nonzero"/></g><path fill="#ffffff" d="M 91.605469 116.886719 C 91.605469 116.886719 91.960938 116.835938 92.523438 117.246094 C 93.089844 117.65625 93.292969 117.246094 93.292969 117.246094 C 93.292969 117.246094 92.039062 116.464844 91.605469 116.886719 " fill-opacity="1" fill-rule="nonzero"/><path fill="#ffffff" d="M 93.5 117.515625 C 93.5 117.515625 93.679688 117.785156 94.011719 117.71875 C 94.34375 117.65625 94.511719 117.664062 94.6875 117.730469 C 94.6875 117.730469 93.832031 117.207031 93.5 117.515625 " fill-opacity="1" fill-rule="nonzero"/><path fill="#ffffff" d="M 105.71875 109.742188 C 105.71875 109.945312 106.035156 109.933594 105.949219 110.335938 C 105.863281 110.738281 105.980469 110.921875 106.09375 110.902344 C 106.09375 110.902344 106.699219 110.828125 106.8125 110.652344 C 106.925781 110.480469 107.082031 110.296875 106.582031 110.164062 C 106.082031 110.03125 106.0625 109.339844 105.96875 109.234375 C 105.871094 109.128906 105.574219 109.222656 105.613281 109.011719 C 105.652344 108.800781 105.09375 109.070312 105.316406 109.300781 C 105.535156 109.53125 105.71875 109.539062 105.71875 109.742188 " fill-opacity="1" fill-rule="nonzero"/><path fill="#ffffff" d="M 105.265625 110.652344 C 105.34375 110.605469 105.640625 110.566406 105.660156 110.230469 C 105.679688 109.894531 105.542969 109.769531 105.460938 109.769531 C 105.382812 109.769531 105.097656 109.769531 105.179688 110.210938 C 105.265625 110.652344 105.265625 110.652344 105.265625 110.652344 " fill-opacity="1" fill-rule="nonzero"/><g clip-path="url(#987874b336)"><g clip-path="url(#587a1eafdf)"><path fill="#3ca500" d="M 100.082031 48.296875 L 133.898438 48.296875 L 133.898438 82.113281 L 100.082031 82.113281 Z M 100.082031 48.296875 " fill-opacity="1" fill-rule="nonzero"/></g></g><g clip-path="url(#1a585ed75b)"><path fill="#ffffff" d="M 121.1875 60.410156 L 119.925781 60.410156 L 119.925781 59.148438 C 119.925781 58.988281 119.894531 58.832031 119.832031 58.683594 C 119.769531 58.535156 119.683594 58.40625 119.566406 58.289062 C 119.453125 58.175781 119.324219 58.089844 119.175781 58.027344 C 119.023438 57.964844 118.871094 57.933594 118.710938 57.933594 L 115.265625 57.933594 C 115.105469 57.933594 114.953125 57.964844 114.804688 58.027344 C 114.65625 58.089844 114.523438 58.175781 114.410156 58.289062 C 114.296875 58.40625 114.210938 58.535156 114.148438 58.683594 C 114.085938 58.832031 114.054688 58.988281 114.054688 59.148438 L 114.054688 60.410156 L 112.796875 60.410156 L 112.796875 59.148438 C 112.796875 58.820312 112.859375 58.503906 112.984375 58.203125 C 113.109375 57.898438 113.289062 57.632812 113.519531 57.398438 C 113.75 57.167969 114.019531 56.988281 114.320312 56.863281 C 114.625 56.734375 114.9375 56.671875 115.265625 56.671875 L 118.710938 56.671875 C 119.039062 56.671875 119.351562 56.734375 119.65625 56.863281 C 119.960938 56.988281 120.226562 57.167969 120.460938 57.398438 C 120.691406 57.632812 120.871094 57.898438 120.996094 58.203125 C 121.121094 58.503906 121.1875 58.820312 121.1875 59.148438 Z M 121.1875 60.410156 " fill-opacity="1" fill-rule="nonzero"/></g><g clip-path="url(#fdd9f8edac)"><path fill="#ffffff" d="M 126.179688 60.296875 L 107.796875 60.296875 C 107.597656 60.296875 107.410156 60.335938 107.230469 60.410156 C 107.046875 60.484375 106.886719 60.589844 106.75 60.730469 C 106.609375 60.871094 106.503906 61.03125 106.425781 61.210938 C 106.351562 61.390625 106.3125 61.582031 106.3125 61.777344 L 106.3125 65.675781 C 106.390625 65.917969 106.527344 66.113281 106.734375 66.261719 C 106.941406 66.410156 107.171875 66.480469 107.425781 66.476562 L 126.539062 66.476562 C 126.792969 66.480469 127.019531 66.40625 127.226562 66.257812 C 127.429688 66.109375 127.570312 65.914062 127.644531 65.675781 L 127.644531 61.777344 C 127.644531 61.582031 127.605469 61.394531 127.53125 61.214844 C 127.457031 61.035156 127.351562 60.875 127.214844 60.738281 C 127.078125 60.597656 126.921875 60.492188 126.742188 60.414062 C 126.5625 60.339844 126.375 60.300781 126.179688 60.296875 Z M 126.179688 60.296875 " fill-opacity="1" fill-rule="nonzero"/></g><g clip-path="url(#9edcc3160c)"><path fill="#ffffff" d="M 126.539062 67.734375 L 119.824219 67.734375 L 119.824219 68.5 C 119.824219 68.730469 119.78125 68.953125 119.691406 69.164062 C 119.605469 69.378906 119.480469 69.566406 119.316406 69.730469 C 119.152344 69.894531 118.964844 70.019531 118.75 70.109375 C 118.539062 70.199219 118.316406 70.246094 118.085938 70.246094 L 115.890625 70.246094 C 115.660156 70.246094 115.4375 70.199219 115.226562 70.109375 C 115.011719 70.019531 114.824219 69.894531 114.660156 69.730469 C 114.496094 69.566406 114.371094 69.378906 114.285156 69.164062 C 114.195312 68.953125 114.152344 68.730469 114.152344 68.5 L 114.152344 67.734375 L 107.425781 67.734375 C 107.03125 67.738281 106.664062 67.648438 106.3125 67.472656 L 106.3125 72.3125 C 106.316406 72.507812 106.351562 72.699219 106.429688 72.878906 C 106.503906 73.058594 106.613281 73.21875 106.75 73.359375 C 106.890625 73.496094 107.046875 73.605469 107.230469 73.679688 C 107.410156 73.753906 107.601562 73.792969 107.796875 73.792969 L 126.179688 73.792969 C 126.375 73.792969 126.566406 73.753906 126.746094 73.679688 C 126.925781 73.605469 127.085938 73.496094 127.226562 73.359375 C 127.363281 73.21875 127.472656 73.058594 127.546875 72.878906 C 127.621094 72.699219 127.660156 72.507812 127.660156 72.3125 L 127.660156 67.472656 C 127.308594 67.652344 126.933594 67.738281 126.539062 67.734375 Z M 126.539062 67.734375 " fill-opacity="1" fill-rule="nonzero"/></g><path fill="#ffffff" d="M 115.410156 68.5 C 115.410156 68.632812 115.457031 68.746094 115.550781 68.839844 C 115.644531 68.933594 115.757812 68.984375 115.890625 68.984375 L 118.089844 68.984375 C 118.222656 68.984375 118.335938 68.933594 118.429688 68.839844 C 118.523438 68.746094 118.570312 68.632812 118.570312 68.5 L 118.570312 67.734375 L 115.417969 67.734375 L 115.417969 67.78125 Z M 115.410156 68.5 " fill-opacity="1" fill-rule="nonzero"/><g clip-path="url(#c1841f071a)"><g clip-path="url(#7b918673cc)"><path fill="#3ca500" d="M 54.34375 60.328125 L 88.160156 60.328125 L 88.160156 94.140625 L 54.34375 94.140625 Z M 54.34375 60.328125 " fill-opacity="1" fill-rule="nonzero"/></g></g><g clip-path="url(#b1917ff767)"><path fill="#ffffff" d="M 79.328125 67.65625 C 79.015625 66.679688 78.65625 65.722656 78.28125 64.769531 C 78.0625 64.203125 77.65625 64.113281 77.179688 64.5 C 76.933594 64.695312 76.6875 64.894531 76.46875 65.117188 C 74.898438 66.710938 73.035156 67.871094 71.058594 68.890625 C 68.59375 70.164062 66.292969 71.671875 64.371094 73.699219 C 62.585938 75.582031 61.378906 77.746094 61.042969 80.351562 C 60.433594 85.089844 63.570312 88.765625 68.308594 88.84375 C 68.859375 88.851562 69.417969 88.847656 69.96875 88.804688 C 75.054688 88.394531 79.058594 84.972656 80.140625 80.019531 C 80.441406 78.644531 80.535156 77.21875 80.671875 76.199219 C 80.441406 73.042969 80.183594 70.300781 79.328125 67.65625 Z M 67.671875 73.871094 C 68.261719 75.097656 67.9375 76.265625 68.0625 77.367188 C 68.191406 78.460938 68.246094 79.574219 68.328125 80.675781 C 67.296875 78.542969 67.070312 76.441406 67.671875 73.871094 Z M 67.984375 85.167969 C 70.011719 84.941406 72.039062 84.71875 74.0625 84.484375 C 72.277344 85.636719 70.054688 85.804688 67.984375 85.167969 Z M 75.792969 75.851562 C 74.160156 76.457031 73.40625 77.738281 72.59375 79.195312 C 73.949219 79.496094 75.03125 78.867188 76.171875 78.660156 C 76.554688 78.589844 76.933594 78.511719 77.324219 78.457031 C 77.382812 78.449219 77.503906 78.542969 77.503906 78.585938 C 77.503906 78.714844 77.492188 78.933594 77.425781 78.953125 C 76.457031 79.265625 75.492188 79.578125 74.503906 79.820312 C 73.738281 80.007812 72.953125 80.09375 72.171875 80.214844 C 71.183594 80.367188 70.71875 81 70.4375 81.953125 C 72.609375 82.597656 74.503906 81.457031 76.808594 81.289062 C 75.734375 82.375 74.613281 82.441406 73.578125 82.648438 C 72.964844 82.769531 72.289062 82.847656 71.691406 82.726562 C 69.558594 82.28125 68.441406 83.332031 67.804688 85.179688 C 67.089844 85.851562 66.382812 86.527344 65.65625 87.183594 C 65.566406 87.269531 65.332031 87.289062 65.226562 87.230469 C 65.125 87.164062 65.058594 86.96875 65.050781 86.828125 C 65.039062 86.679688 65.066406 86.488281 65.152344 86.382812 C 65.867188 85.5625 65.507812 84.832031 65.070312 84.023438 C 64.269531 82.542969 64.039062 80.90625 64.003906 79.246094 C 63.996094 79.050781 64.144531 78.855469 64.382812 78.261719 C 64.9375 80.621094 64.832031 82.8125 66.21875 84.722656 C 67.238281 83.496094 68.726562 82.714844 68.398438 80.847656 C 68.796875 80.804688 69.234375 81.308594 69.601562 80.734375 C 69.816406 80.40625 70.101562 80.125 70.355469 79.820312 C 72.425781 77.359375 72.289062 77.832031 71.851562 75.203125 C 71.800781 74.894531 71.78125 74.566406 71.804688 74.257812 C 71.875 73.347656 71.976562 72.4375 72.066406 71.53125 C 73.199219 72.234375 72.480469 73.359375 72.671875 74.277344 C 72.78125 74.804688 72.691406 75.371094 72.691406 76.304688 C 73.203125 75.835938 73.535156 75.664062 73.664062 75.394531 C 74.304688 74.042969 74.875 72.65625 75.5 71.292969 C 75.679688 70.898438 75.957031 70.550781 76.398438 69.84375 C 76.742188 72.058594 75.484375 73.492188 75.179688 75.277344 C 76.59375 75.089844 77.304688 73.929688 78.792969 73.089844 C 77.957031 74.734375 76.925781 75.433594 75.792969 75.851562 Z M 75.792969 75.851562 " fill-opacity="1" fill-rule="nonzero"/></g></svg>