<svg xmlns="http://www.w3.org/2000/svg" xmlns:xlink="http://www.w3.org/1999/xlink" width="190" zoomAndPan="magnify" viewBox="0 0 142.5 162.75" height="217" preserveAspectRatio="xMidYMid meet" version="1.0"><defs><clipPath id="e82e339c8b"><path d="M 0 0.160156 L 142 0.160156 L 142 162.339844 L 0 162.339844 Z M 0 0.160156 " clip-rule="nonzero"/></clipPath><clipPath id="36d8ff8efc"><path d="M 18.992188 113.433594 L 70.742188 113.433594 L 70.742188 162.339844 L 18.992188 162.339844 Z M 18.992188 113.433594 " clip-rule="nonzero"/></clipPath><clipPath id="b4abad8830"><path d="M 0 70.449219 L 64.597656 70.449219 L 64.597656 162.339844 L 0 162.339844 Z M 0 70.449219 " clip-rule="nonzero"/></clipPath><clipPath id="4de5a70c24"><path d="M 13.511719 70.449219 C -14.703125 70.449219 -37.574219 93.320312 -37.574219 121.535156 C -37.574219 149.746094 -14.703125 172.617188 13.511719 172.617188 C 41.722656 172.617188 64.597656 149.746094 64.597656 121.535156 C 64.597656 93.320312 41.722656 70.449219 13.511719 70.449219 Z M 13.511719 70.449219 " clip-rule="nonzero"/></clipPath><clipPath id="d9ee850fa2"><path d="M 68.933594 113.425781 L 120.683594 113.425781 L 120.683594 162.339844 L 68.933594 162.339844 Z M 68.933594 113.425781 " clip-rule="nonzero"/></clipPath><clipPath id="10fbcd68b5"><path d="M 78.257812 70.148438 L 142 70.148438 L 142 162.339844 L 78.257812 162.339844 Z M 78.257812 70.148438 " clip-rule="nonzero"/></clipPath><clipPath id="4f70b98ed2"><path d="M 129.675781 70.148438 C 101.28125 70.148438 78.257812 93.167969 78.257812 121.566406 C 78.257812 149.964844 101.28125 172.984375 129.675781 172.984375 C 158.074219 172.984375 181.097656 149.964844 181.097656 121.566406 C 181.097656 93.167969 158.074219 70.148438 129.675781 70.148438 Z M 129.675781 70.148438 " clip-rule="nonzero"/></clipPath><clipPath id="fa4a80f955"><path d="M 64.597656 75.222656 L 78.257812 75.222656 L 78.257812 126.976562 L 64.597656 126.976562 Z M 64.597656 75.222656 " clip-rule="nonzero"/></clipPath><clipPath id="7350bcfa43"><path d="M 64 47 L 100 47 L 100 86 L 64 86 Z M 64 47 " clip-rule="nonzero"/></clipPath><clipPath id="3ef43674c8"><path d="M 64.378906 75.027344 L 86.902344 47.925781 L 99.277344 58.210938 L 76.753906 85.3125 Z M 64.378906 75.027344 " clip-rule="nonzero"/></clipPath><clipPath id="1ee793b45a"><path d="M 41 47 L 78 47 L 78 87 L 41 87 Z M 41 47 " clip-rule="nonzero"/></clipPath><clipPath id="d9ff98c7a2"><path d="M 53.074219 47.929688 L 77.246094 76.652344 L 65.9375 86.167969 L 41.769531 57.445312 Z M 53.074219 47.929688 " clip-rule="nonzero"/></clipPath><clipPath id="8c8c284bda"><path d="M 100.222656 27.464844 L 141.15625 27.464844 L 141.15625 68.398438 L 100.222656 68.398438 Z M 100.222656 27.464844 " clip-rule="nonzero"/></clipPath><clipPath id="183fc982bf"><path d="M 120.691406 27.464844 C 109.386719 27.464844 100.222656 36.628906 100.222656 47.929688 C 100.222656 59.234375 109.386719 68.398438 120.691406 68.398438 C 131.992188 68.398438 141.15625 59.234375 141.15625 47.929688 C 141.15625 36.628906 131.992188 27.464844 120.691406 27.464844 Z M 120.691406 27.464844 " clip-rule="nonzero"/></clipPath><clipPath id="b163699399"><path d="M 0.835938 27.464844 L 41.773438 27.464844 L 41.773438 68.398438 L 0.835938 68.398438 Z M 0.835938 27.464844 " clip-rule="nonzero"/></clipPath><clipPath id="46126e26fc"><path d="M 21.304688 27.464844 C 10 27.464844 0.835938 36.628906 0.835938 47.929688 C 0.835938 59.234375 10 68.398438 21.304688 68.398438 C 32.609375 68.398438 41.773438 59.234375 41.773438 47.929688 C 41.773438 36.628906 32.609375 27.464844 21.304688 27.464844 Z M 21.304688 27.464844 " clip-rule="nonzero"/></clipPath><clipPath id="b3c8607d34"><path d="M 49.375 0.160156 L 90.308594 0.160156 L 90.308594 41.09375 L 49.375 41.09375 Z M 49.375 0.160156 " clip-rule="nonzero"/></clipPath><clipPath id="728f2ebae2"><path d="M 69.839844 0.160156 C 58.539062 0.160156 49.375 9.324219 49.375 20.628906 C 49.375 31.929688 58.539062 41.09375 69.839844 41.09375 C 81.144531 41.09375 90.308594 31.929688 90.308594 20.628906 C 90.308594 9.324219 81.144531 0.160156 69.839844 0.160156 Z M 69.839844 0.160156 " clip-rule="nonzero"/></clipPath><clipPath id="c402705baf"><path d="M 13.511719 80.632812 L 54.445312 80.632812 L 54.445312 121.566406 L 13.511719 121.566406 Z M 13.511719 80.632812 " clip-rule="nonzero"/></clipPath><clipPath id="f25fe826eb"><path d="M 33.976562 80.632812 C 22.671875 80.632812 13.511719 89.796875 13.511719 101.097656 C 13.511719 112.402344 22.671875 121.566406 33.976562 121.566406 C 45.28125 121.566406 54.445312 112.402344 54.445312 101.097656 C 54.445312 89.796875 45.28125 80.632812 33.976562 80.632812 Z M 33.976562 80.632812 " clip-rule="nonzero"/></clipPath><clipPath id="e9493ae683"><path d="M 19.078125 86.167969 L 48.785156 86.167969 L 48.785156 115.875 L 19.078125 115.875 Z M 19.078125 86.167969 " clip-rule="nonzero"/></clipPath><clipPath id="e2046e267d"><path d="M 8.21875 50 L 18 50 L 18 58.933594 L 8.21875 58.933594 Z M 8.21875 50 " clip-rule="nonzero"/></clipPath><clipPath id="ec52a63a6f"><path d="M 15 33.035156 L 34 33.035156 L 34 52 L 15 52 Z M 15 33.035156 " clip-rule="nonzero"/></clipPath><clipPath id="247a5bf7a7"><path d="M 57 20 L 65 20 L 65 33.257812 L 57 33.257812 Z M 57 20 " clip-rule="nonzero"/></clipPath><clipPath id="20352334e9"><path d="M 66 13 L 74 13 L 74 33.257812 L 66 33.257812 Z M 66 13 " clip-rule="nonzero"/></clipPath><clipPath id="45f400f770"><path d="M 75 8.125 L 82.898438 8.125 L 82.898438 33.257812 L 75 33.257812 Z M 75 8.125 " clip-rule="nonzero"/></clipPath><clipPath id="1999e37abb"><path d="M 105.066406 32.308594 L 136.296875 32.308594 L 136.296875 63.539062 L 105.066406 63.539062 Z M 105.066406 32.308594 " clip-rule="nonzero"/></clipPath><clipPath id="3a69b1bca0"><path d="M 55.480469 111.929688 L 64.597656 111.929688 L 64.597656 121.566406 L 55.480469 121.566406 Z M 55.480469 111.929688 " clip-rule="nonzero"/></clipPath><clipPath id="6fbf30a4e7"><path d="M 78.257812 111.144531 L 87.371094 111.144531 L 87.371094 120.785156 L 78.257812 120.785156 Z M 78.257812 111.144531 " clip-rule="nonzero"/></clipPath><clipPath id="cd1bab32e8"><path d="M 88.742188 80.597656 L 129.675781 80.597656 L 129.675781 121.535156 L 88.742188 121.535156 Z M 88.742188 80.597656 " clip-rule="nonzero"/></clipPath><clipPath id="9106cf66f9"><path d="M 109.210938 80.597656 C 97.90625 80.597656 88.742188 89.761719 88.742188 101.066406 C 88.742188 112.371094 97.90625 121.535156 109.210938 121.535156 C 120.515625 121.535156 129.675781 112.371094 129.675781 101.066406 C 129.675781 89.761719 120.515625 80.597656 109.210938 80.597656 Z M 109.210938 80.597656 " clip-rule="nonzero"/></clipPath><clipPath id="efc8772f3f"><path d="M 104 90.714844 L 115 90.714844 L 115 96 L 104 96 Z M 104 90.714844 " clip-rule="nonzero"/></clipPath><clipPath id="5b8faf861a"><path d="M 96.132812 95 L 122.03125 95 L 122.03125 103 L 96.132812 103 Z M 96.132812 95 " clip-rule="nonzero"/></clipPath><clipPath id="8c0e536cf9"><path d="M 96.132812 103 L 122.03125 103 L 122.03125 111.28125 L 96.132812 111.28125 Z M 96.132812 103 " clip-rule="nonzero"/></clipPath></defs><g clip-path="url(#e82e339c8b)"><path fill="#ffffff" d="M 0 0.160156 L 142 0.160156 L 142 162.339844 L 0 162.339844 Z M 0 0.160156 " fill-opacity="1" fill-rule="nonzero"/><path fill="#ffffff" d="M 0 0.160156 L 142 0.160156 L 142 162.339844 L 0 162.339844 Z M 0 0.160156 " fill-opacity="1" fill-rule="nonzero"/></g><g clip-path="url(#36d8ff8efc)"><path fill="#3ca500" d="M 18.992188 113.433594 L 70.742188 113.433594 L 70.742188 165.183594 L 18.992188 165.183594 Z M 18.992188 113.433594 " fill-opacity="1" fill-rule="nonzero"/></g><g clip-path="url(#b4abad8830)"><g clip-path="url(#4de5a70c24)"><path fill="#ffffff" d="M -37.574219 70.449219 L 64.597656 70.449219 L 64.597656 172.617188 L -37.574219 172.617188 Z M -37.574219 70.449219 " fill-opacity="1" fill-rule="nonzero"/></g></g><g clip-path="url(#d9ee850fa2)"><path fill="#3ca500" d="M 120.683594 165.179688 L 68.933594 165.179688 L 68.933594 113.425781 L 120.683594 113.425781 Z M 120.683594 165.179688 " fill-opacity="1" fill-rule="nonzero"/></g><g clip-path="url(#10fbcd68b5)"><g clip-path="url(#4f70b98ed2)"><path fill="#ffffff" d="M 78.257812 70.148438 L 181.097656 70.148438 L 181.097656 172.984375 L 78.257812 172.984375 Z M 78.257812 70.148438 " fill-opacity="1" fill-rule="nonzero"/></g></g><g clip-path="url(#fa4a80f955)"><path fill="#3ca500" d="M 64.597656 75.222656 L 78.257812 75.222656 L 78.257812 126.992188 L 64.597656 126.992188 Z M 64.597656 75.222656 " fill-opacity="1" fill-rule="nonzero"/></g><g clip-path="url(#7350bcfa43)"><g clip-path="url(#3ef43674c8)"><path fill="#3ca500" d="M 64.378906 75.027344 L 86.917969 47.90625 L 99.292969 58.191406 L 76.753906 85.3125 Z M 64.378906 75.027344 " fill-opacity="1" fill-rule="nonzero"/></g></g><g clip-path="url(#1ee793b45a)"><g clip-path="url(#d9ff98c7a2)"><path fill="#3ca500" d="M 53.074219 47.929688 L 77.234375 76.640625 L 65.929688 86.15625 L 41.769531 57.445312 Z M 53.074219 47.929688 " fill-opacity="1" fill-rule="nonzero"/></g></g><g clip-path="url(#8c8c284bda)"><g clip-path="url(#183fc982bf)"><path fill="#0965ac" d="M 100.222656 27.464844 L 141.15625 27.464844 L 141.15625 68.398438 L 100.222656 68.398438 Z M 100.222656 27.464844 " fill-opacity="1" fill-rule="nonzero"/></g></g><g clip-path="url(#b163699399)"><g clip-path="url(#46126e26fc)"><path fill="#0965ac" d="M 0.835938 27.464844 L 41.773438 27.464844 L 41.773438 68.398438 L 0.835938 68.398438 Z M 0.835938 27.464844 " fill-opacity="1" fill-rule="nonzero"/></g></g><g clip-path="url(#b3c8607d34)"><g clip-path="url(#728f2ebae2)"><path fill="#0965ac" d="M 49.375 0.160156 L 90.308594 0.160156 L 90.308594 41.09375 L 49.375 41.09375 Z M 49.375 0.160156 " fill-opacity="1" fill-rule="nonzero"/></g></g><g clip-path="url(#c402705baf)"><g clip-path="url(#f25fe826eb)"><path fill="#0965ac" d="M 13.511719 80.632812 L 54.445312 80.632812 L 54.445312 121.566406 L 13.511719 121.566406 Z M 13.511719 80.632812 " fill-opacity="1" fill-rule="nonzero"/></g></g><g clip-path="url(#e9493ae683)"><path fill="#ffffff" d="M 47.78125 103.390625 C 48.367188 103.390625 48.847656 102.914062 48.847656 102.328125 L 48.847656 99.761719 C 48.847656 99.175781 48.367188 98.699219 47.78125 98.699219 L 46.679688 98.699219 C 46.09375 98.699219 45.476562 98.242188 45.304688 97.683594 L 44.363281 95.394531 C 44.085938 94.882812 44.199219 94.121094 44.613281 93.707031 L 45.394531 92.925781 C 45.804688 92.515625 45.804688 91.839844 45.394531 91.425781 L 43.578125 89.609375 C 43.164062 89.195312 42.488281 89.195312 42.074219 89.609375 L 41.292969 90.390625 C 40.878906 90.800781 40.121094 90.914062 39.605469 90.636719 L 37.320312 89.695312 C 36.761719 89.523438 36.304688 88.90625 36.304688 88.320312 L 36.304688 87.21875 C 36.304688 86.632812 35.824219 86.15625 35.242188 86.15625 L 32.671875 86.15625 C 32.085938 86.15625 31.609375 86.632812 31.609375 87.21875 L 31.609375 88.320312 C 31.609375 88.90625 31.152344 89.523438 30.59375 89.695312 L 28.308594 90.636719 C 27.792969 90.914062 27.03125 90.800781 26.621094 90.386719 L 25.839844 89.609375 C 25.425781 89.195312 24.75 89.195312 24.335938 89.609375 L 22.519531 91.425781 C 22.105469 91.835938 22.105469 92.515625 22.519531 92.925781 L 23.300781 93.707031 C 23.714844 94.121094 23.824219 94.882812 23.550781 95.394531 L 22.609375 97.683594 C 22.4375 98.242188 21.816406 98.699219 21.234375 98.699219 L 20.128906 98.699219 C 19.546875 98.699219 19.066406 99.175781 19.066406 99.761719 L 19.066406 102.328125 C 19.066406 102.914062 19.546875 103.390625 20.128906 103.390625 L 21.234375 103.390625 C 21.816406 103.390625 22.4375 103.847656 22.609375 104.40625 L 23.550781 106.695312 C 23.828125 107.207031 23.714844 107.96875 23.300781 108.382812 L 22.519531 109.164062 C 22.105469 109.574219 22.105469 110.25 22.519531 110.664062 L 24.335938 112.480469 C 24.75 112.894531 25.425781 112.894531 25.839844 112.480469 L 26.621094 111.699219 C 27.035156 111.289062 27.792969 111.175781 28.308594 111.453125 L 30.59375 112.394531 C 31.152344 112.566406 31.609375 113.183594 31.609375 113.769531 L 31.609375 114.871094 C 31.609375 115.457031 32.085938 115.933594 32.671875 115.933594 L 35.242188 115.933594 C 35.824219 115.933594 36.304688 115.457031 36.304688 114.871094 L 36.304688 113.769531 C 36.304688 113.183594 36.761719 112.566406 37.320312 112.394531 L 39.605469 111.453125 C 40.121094 111.175781 40.878906 111.289062 41.292969 111.699219 L 42.074219 112.480469 C 42.488281 112.894531 43.164062 112.894531 43.578125 112.480469 L 45.394531 110.664062 C 45.804688 110.253906 45.808594 109.574219 45.394531 109.164062 L 44.613281 108.382812 C 44.199219 107.96875 44.085938 107.207031 44.363281 106.695312 L 45.304688 104.40625 C 45.476562 103.847656 46.09375 103.390625 46.679688 103.390625 Z M 33.957031 107.171875 C 30.574219 107.171875 27.832031 104.429688 27.832031 101.046875 C 27.832031 97.660156 30.574219 94.917969 33.957031 94.917969 C 37.339844 94.917969 40.082031 97.660156 40.082031 101.046875 C 40.082031 104.429688 37.339844 107.171875 33.957031 107.171875 Z M 33.957031 107.171875 " fill-opacity="1" fill-rule="nonzero"/></g><g clip-path="url(#e2046e267d)"><path fill="#ffffff" d="M 14.691406 50.109375 L 8.917969 55.882812 C 8.191406 56.605469 8.191406 57.78125 8.917969 58.507812 C 9.640625 59.230469 10.816406 59.230469 11.542969 58.507812 L 17.316406 52.734375 Z M 14.691406 50.109375 " fill-opacity="1" fill-rule="nonzero"/></g><g clip-path="url(#ec52a63a6f)"><path fill="#ffffff" d="M 30.9375 36.488281 C 27.488281 33.039062 21.875 33.039062 18.429688 36.488281 C 15.289062 39.625 15.015625 44.550781 17.589844 48.015625 L 15.855469 49.746094 L 17.679688 51.566406 L 19.414062 49.832031 C 22.871094 52.410156 27.796875 52.136719 30.9375 48.996094 C 34.386719 45.546875 34.386719 39.9375 30.9375 36.488281 Z M 29.621094 47.679688 C 26.898438 50.402344 22.46875 50.402344 19.746094 47.679688 C 17.019531 44.957031 17.019531 40.527344 19.746094 37.804688 C 22.46875 35.082031 26.898438 35.082031 29.621094 37.804688 C 32.34375 40.527344 32.34375 44.957031 29.621094 47.679688 Z M 29.621094 47.679688 " fill-opacity="1" fill-rule="nonzero"/></g><path fill="#ffffff" d="M 28.183594 37.425781 C 26.0625 36.027344 23.316406 36.023438 21.191406 37.421875 C 20.976562 37.566406 20.914062 37.851562 21.058594 38.066406 C 21.074219 38.09375 21.09375 38.117188 21.117188 38.140625 C 21.269531 38.292969 21.515625 38.324219 21.703125 38.199219 C 23.515625 37.007812 25.859375 37.007812 27.671875 38.203125 C 27.886719 38.347656 28.175781 38.285156 28.316406 38.074219 C 28.457031 37.859375 28.398438 37.570312 28.183594 37.425781 Z M 28.183594 37.425781 " fill-opacity="1" fill-rule="nonzero"/><path fill="#ffffff" d="M 58.03125 21.019531 C 57.972656 21.019531 57.921875 21.070312 57.921875 21.128906 L 57.921875 32.132812 C 57.921875 32.195312 57.972656 32.246094 58.03125 32.246094 L 63.363281 32.246094 C 63.421875 32.246094 63.472656 32.195312 63.472656 32.132812 L 63.472656 21.128906 C 63.472656 21.070312 63.421875 21.019531 63.363281 21.019531 Z M 58.03125 21.019531 " fill-opacity="1" fill-rule="nonzero"/><g clip-path="url(#247a5bf7a7)"><path fill="#ffffff" d="M 58.03125 20.136719 C 57.484375 20.136719 57.039062 20.582031 57.039062 21.128906 L 57.039062 32.132812 C 57.039062 32.679688 57.484375 33.125 58.03125 33.125 L 63.363281 33.125 C 63.910156 33.125 64.355469 32.679688 64.355469 32.132812 L 64.355469 21.128906 C 64.355469 20.582031 63.910156 20.136719 63.363281 20.136719 Z M 63.472656 21.128906 L 63.472656 32.132812 C 63.472656 32.195312 63.421875 32.246094 63.363281 32.246094 L 58.03125 32.246094 C 57.972656 32.246094 57.921875 32.195312 57.921875 32.132812 L 57.921875 21.128906 C 57.921875 21.070312 57.972656 21.019531 58.03125 21.019531 L 63.363281 21.019531 C 63.421875 21.019531 63.472656 21.070312 63.472656 21.128906 Z M 63.472656 21.128906 " fill-opacity="1" fill-rule="nonzero"/></g><path fill="#ffffff" d="M 72.496094 14.632812 L 67.167969 14.632812 C 67.105469 14.632812 67.058594 14.683594 67.058594 14.746094 L 67.058594 32.132812 C 67.058594 32.195312 67.105469 32.246094 67.167969 32.246094 L 72.496094 32.246094 C 72.558594 32.246094 72.609375 32.195312 72.609375 32.132812 L 72.609375 14.746094 C 72.609375 14.683594 72.558594 14.632812 72.496094 14.632812 Z M 72.496094 14.632812 " fill-opacity="1" fill-rule="nonzero"/><g clip-path="url(#20352334e9)"><path fill="#ffffff" d="M 72.496094 13.753906 L 67.167969 13.753906 C 66.621094 13.753906 66.175781 14.199219 66.175781 14.746094 L 66.175781 32.132812 C 66.175781 32.679688 66.621094 33.125 67.167969 33.125 L 72.5 33.125 C 73.046875 33.125 73.492188 32.679688 73.492188 32.132812 L 73.492188 14.746094 C 73.492188 14.199219 73.046875 13.753906 72.496094 13.753906 Z M 72.609375 32.132812 C 72.609375 32.195312 72.558594 32.246094 72.496094 32.246094 L 67.167969 32.246094 C 67.105469 32.246094 67.058594 32.195312 67.058594 32.132812 L 67.058594 14.746094 C 67.058594 14.683594 67.105469 14.632812 67.167969 14.632812 L 72.5 14.632812 C 72.558594 14.632812 72.609375 14.683594 72.609375 14.746094 Z M 72.609375 32.132812 " fill-opacity="1" fill-rule="nonzero"/></g><path fill="#ffffff" d="M 76.304688 32.246094 L 81.632812 32.246094 C 81.695312 32.246094 81.746094 32.195312 81.746094 32.132812 L 81.746094 9.117188 C 81.746094 9.054688 81.695312 9.003906 81.632812 9.003906 L 76.304688 9.003906 C 76.242188 9.003906 76.191406 9.054688 76.191406 9.117188 L 76.191406 32.132812 C 76.191406 32.195312 76.242188 32.246094 76.304688 32.246094 Z M 76.304688 32.246094 " fill-opacity="1" fill-rule="nonzero"/><g clip-path="url(#45f400f770)"><path fill="#ffffff" d="M 76.304688 33.125 L 81.632812 33.125 C 82.179688 33.125 82.625 32.679688 82.625 32.132812 L 82.625 9.117188 C 82.625 8.570312 82.179688 8.125 81.632812 8.125 L 76.304688 8.125 C 75.757812 8.125 75.3125 8.570312 75.3125 9.117188 L 75.3125 32.132812 C 75.3125 32.679688 75.757812 33.125 76.304688 33.125 Z M 76.191406 9.117188 C 76.191406 9.054688 76.242188 9.003906 76.304688 9.003906 L 81.632812 9.003906 C 81.695312 9.003906 81.746094 9.054688 81.746094 9.117188 L 81.746094 32.132812 C 81.746094 32.195312 81.695312 32.246094 81.632812 32.246094 L 76.304688 32.246094 C 76.242188 32.246094 76.191406 32.195312 76.191406 32.132812 Z M 76.191406 9.117188 " fill-opacity="1" fill-rule="nonzero"/></g><g clip-path="url(#1999e37abb)"><path fill="#ffffff" d="M 117.847656 62.054688 C 117.574219 61.824219 117.378906 61.546875 117.433594 61.238281 C 117.589844 60.402344 118.148438 61.179688 118.148438 60.714844 C 118.148438 60.25 117.867188 60.15625 117.867188 60.15625 C 118.269531 60.0625 118.488281 59.628906 118.765625 59.410156 C 119.046875 59.195312 119.230469 58.265625 119.230469 58.265625 C 120.53125 58.296875 120.65625 56.46875 120.964844 56.066406 C 121.277344 55.664062 122.703125 55.257812 121.648438 54.761719 C 120.59375 54.269531 120.285156 54.390625 119.417969 54.050781 C 118.550781 53.710938 117.898438 53.742188 117.898438 53.742188 C 118.023438 53.648438 118.179688 52.5 117.0625 52.378906 C 115.945312 52.253906 115.078125 51.386719 115.078125 51.386719 C 113.992188 51.480469 113.28125 50.859375 113.28125 50.859375 C 112.445312 50.828125 112.074219 51.695312 112.074219 51.695312 C 111.546875 51.355469 111.113281 51.695312 111.113281 51.695312 C 110.710938 51.449219 110.679688 51.011719 110.679688 51.011719 C 110.679688 49.992188 110.398438 50.144531 110.398438 50.144531 C 109.625 50.144531 109.78125 49.898438 109.78125 49.898438 C 109.75 49.496094 109.996094 48.71875 109.996094 48.71875 C 109.53125 48.71875 109.285156 49.09375 109.285156 49.09375 C 108.261719 50.394531 107.796875 47.636719 108.292969 46.953125 C 108.789062 46.273438 109.378906 46.738281 109.378906 46.738281 C 109.46875 46.519531 110.554688 46.210938 110.585938 46.738281 C 110.617188 47.265625 111.113281 47.882812 111.113281 47.882812 C 111.207031 47.289062 111.089844 46.15625 111.089844 46.15625 C 112.34375 45.390625 112.160156 44.902344 112.160156 44.902344 C 112.554688 43.390625 113.644531 43.578125 113.644531 43.578125 C 113.484375 42.902344 114.761719 42.601562 114.761719 42.601562 C 114.488281 43.203125 115.644531 42.578125 115.644531 42.578125 C 115.992188 42.25 115.503906 42.320312 115.503906 42.320312 C 114.808594 42.460938 115.085938 41.601562 115.085938 41.601562 C 114.355469 41.542969 114 41.898438 113.894531 42.035156 C 114.394531 41.320312 114.949219 41.253906 114.949219 41.253906 C 116.195312 41.320312 116.5 41.171875 116.574219 41.089844 C 116.390625 41.433594 115.964844 41.878906 116.851562 41.902344 C 117.78125 41.925781 117.945312 41.53125 117.363281 41.460938 C 116.78125 41.390625 116.945312 41.136719 116.945312 41.136719 C 117.550781 40.183594 116.203125 39.789062 116.226562 39.71875 C 116.25 39.648438 116.203125 38.230469 115.945312 38.648438 C 115.691406 39.066406 115.15625 39.066406 115.15625 39.066406 C 115.15625 39.066406 115.085938 38.207031 114.25 38.136719 C 113.414062 38.066406 113.550781 38.324219 113.550781 38.859375 C 113.550781 39.394531 114.085938 39.347656 113.34375 39.71875 C 112.601562 40.089844 112.691406 40.460938 112.578125 40.878906 C 112.460938 41.300781 112.296875 40.949219 112.296875 40.949219 C 112.34375 39.648438 112.089844 39.789062 112.089844 39.789062 C 110.671875 39.347656 111.226562 38.859375 111.949219 38.066406 C 112.667969 37.277344 113.367188 37.671875 113.367188 37.671875 C 114.039062 37.765625 113.179688 37.183594 113.367188 37.183594 C 113.550781 37.183594 114.039062 36.765625 114.34375 36.464844 C 114.644531 36.164062 114.25 36.09375 113.761719 36.394531 C 113.273438 36.695312 113.691406 35.628906 113.691406 35.628906 C 113.460938 35.558594 113.390625 36.371094 112.203125 36.582031 C 112.027344 36.613281 111.882812 36.625 111.765625 36.625 C 114.222656 34.683594 117.320312 33.523438 120.6875 33.523438 C 123.648438 33.523438 126.40625 34.421875 128.699219 35.960938 C 128.691406 35.964844 128.683594 35.964844 128.675781 35.96875 C 128.355469 36.109375 128.480469 36.261719 128.480469 36.261719 C 128.636719 36.804688 128.835938 37.734375 128.511719 37.96875 C 128.1875 38.199219 128.359375 38.402344 128.359375 38.402344 C 129.226562 40.136719 129.007812 38.402344 129.550781 39.019531 C 130.09375 39.640625 129.582031 39.890625 130.15625 39.90625 C 130.726562 39.921875 130.945312 39.003906 130.449219 38.726562 C 129.953125 38.449219 129.828125 37.332031 129.828125 37.332031 C 130.078125 37.207031 130.109375 37.410156 130.109375 37.410156 C 130.03125 37.582031 130.355469 38.449219 130.652344 38.558594 C 130.945312 38.664062 131.054688 38.742188 131.160156 39.253906 C 131.269531 39.765625 131.394531 39.703125 131.394531 39.703125 C 131.566406 40.308594 130.773438 40.058594 129.9375 40.246094 C 129.101562 40.429688 129.332031 40.925781 129.332031 40.925781 L 129.054688 40.925781 L 128.898438 41.3125 C 127.503906 42.027344 128.621094 42.121094 128.621094 42.121094 C 128.621094 42.121094 129.242188 43.050781 128.488281 43.082031 C 127.734375 43.113281 127.535156 43.546875 127.472656 44.132812 C 127.410156 44.722656 128.3125 44.847656 128.3125 44.847656 L 128.488281 45.1875 C 128.488281 45.1875 127.691406 45.808594 127.503906 46.488281 C 127.320312 47.171875 126.328125 48.007812 126.203125 48.195312 C 126.078125 48.378906 126.515625 49.339844 126.109375 49.898438 C 125.707031 50.457031 126.109375 51.011719 126.109375 51.011719 C 126.542969 51.042969 127.195312 53.152344 128 52.75 C 128.054688 52.722656 128.109375 52.695312 128.160156 52.675781 C 128.882812 52.355469 129.394531 52.40625 129.394531 52.40625 C 130.386719 51.976562 130.480469 52.78125 130.480469 52.78125 C 131.132812 52.5625 131.039062 53.214844 131.039062 53.214844 C 130.230469 54.113281 130.976562 54.050781 130.699219 55.289062 C 130.417969 56.53125 129.613281 56.5625 129.550781 57.519531 C 129.488281 58.480469 128.371094 59.816406 128.371094 59.816406 C 128.371094 59.816406 128.429688 59.933594 128.652344 59.929688 C 126.367188 61.449219 123.628906 62.335938 120.6875 62.335938 C 119.714844 62.335938 118.765625 62.238281 117.847656 62.054688 Z M 106.28125 47.929688 C 106.28125 47.535156 106.296875 47.144531 106.328125 46.761719 C 106.699219 47.683594 107.289062 48.191406 107.269531 48.535156 C 107.238281 49.125 107.113281 49.433594 108.261719 49.898438 C 109.40625 50.363281 109.996094 51.074219 110.246094 51.324219 C 110.492188 51.570312 111.019531 52.253906 111.359375 52.003906 C 111.699219 51.757812 112.539062 52.75 112.105469 53.152344 C 111.671875 53.554688 111.886719 54.175781 111.886719 54.175781 C 111.886719 54.175781 112.570312 56.5 114.054688 56.902344 C 115.542969 57.304688 115.296875 57.832031 115.296875 57.832031 C 115.261719 60.023438 116.402344 61.277344 117.429688 61.964844 C 111.050781 60.480469 106.28125 54.75 106.28125 47.929688 Z M 129.96875 43.328125 C 129.9375 43.003906 130.480469 43.140625 130.480469 43.140625 C 130.589844 42.785156 130.898438 42.925781 130.898438 42.925781 C 130.914062 43.097656 131.410156 43.609375 131.8125 43.761719 C 132.214844 43.917969 132.371094 44.171875 132.015625 44.34375 C 131.660156 44.515625 131.96875 44.644531 131.96875 44.644531 C 132.183594 44.816406 132.402344 44.289062 132.386719 43.964844 C 132.371094 43.636719 132.214844 43.578125 131.953125 43.390625 C 131.6875 43.203125 131.332031 42.617188 131.332031 42.617188 C 132.679688 43.28125 132.789062 44.242188 132.988281 44.519531 C 133.191406 44.800781 133.128906 45.171875 133.332031 44.722656 C 133.53125 44.273438 132.742188 44.117188 133.316406 43.761719 C 133.886719 43.40625 133.671875 42.382812 133.671875 42.382812 C 133.917969 42.792969 134.066406 42.769531 134.125 42.734375 C 134.214844 42.964844 134.300781 43.203125 134.378906 43.441406 C 134.308594 43.398438 134.246094 43.367188 134.199219 43.390625 C 134.074219 43.453125 134.261719 43.609375 133.890625 43.683594 C 133.515625 43.761719 133.71875 44.195312 133.71875 44.195312 C 133.859375 45.019531 134.710938 45.046875 134.710938 45.046875 L 134.710938 46.210938 C 133.980469 46.226562 133.332031 45.746094 133.332031 45.746094 C 132.898438 45.621094 132.960938 46.304688 132.960938 46.304688 C 131.71875 45.09375 131.363281 46.414062 131.503906 45.21875 C 131.640625 44.027344 129.796875 45.1875 129.117188 45.21875 C 128.433594 45.25 128.761719 44.769531 128.761719 44.769531 C 129.535156 44.894531 129.519531 43.5625 129.597656 43.652344 C 129.675781 43.746094 130 43.652344 129.96875 43.328125 Z M 120.6875 32.308594 C 112.074219 32.308594 105.066406 39.316406 105.066406 47.929688 C 105.066406 56.542969 112.074219 63.550781 120.6875 63.550781 C 129.300781 63.550781 136.308594 56.542969 136.308594 47.929688 C 136.308594 39.316406 129.300781 32.308594 120.6875 32.308594 " fill-opacity="1" fill-rule="nonzero"/></g><path fill="#ffffff" d="M 110.429688 48.535156 C 110.429688 48.535156 110.859375 48.472656 111.542969 48.96875 C 112.226562 49.464844 112.476562 48.96875 112.476562 48.96875 C 112.476562 48.96875 110.957031 48.019531 110.429688 48.535156 " fill-opacity="1" fill-rule="nonzero"/><path fill="#ffffff" d="M 112.722656 49.292969 C 112.722656 49.292969 112.941406 49.621094 113.34375 49.542969 C 113.746094 49.464844 113.949219 49.472656 114.164062 49.554688 C 114.164062 49.554688 113.125 48.921875 112.722656 49.292969 " fill-opacity="1" fill-rule="nonzero"/><path fill="#ffffff" d="M 127.519531 39.882812 C 127.519531 40.125 127.902344 40.113281 127.800781 40.601562 C 127.695312 41.089844 127.839844 41.308594 127.972656 41.285156 C 127.972656 41.285156 128.707031 41.195312 128.84375 40.984375 C 128.984375 40.777344 129.171875 40.554688 128.566406 40.390625 C 127.960938 40.230469 127.9375 39.394531 127.824219 39.265625 C 127.707031 39.136719 127.347656 39.253906 127.394531 38.996094 C 127.441406 38.742188 126.765625 39.066406 127.03125 39.347656 C 127.300781 39.625 127.519531 39.636719 127.519531 39.882812 " fill-opacity="1" fill-rule="nonzero"/><path fill="#ffffff" d="M 126.96875 40.984375 C 127.066406 40.925781 127.425781 40.878906 127.453125 40.472656 C 127.472656 40.066406 127.308594 39.914062 127.210938 39.914062 C 127.113281 39.914062 126.769531 39.914062 126.871094 40.449219 C 126.96875 40.984375 126.96875 40.984375 126.96875 40.984375 " fill-opacity="1" fill-rule="nonzero"/><g clip-path="url(#3a69b1bca0)"><path fill="#ffffff" d="M 55.480469 111.929688 L 64.597656 111.929688 L 64.597656 121.578125 L 55.480469 121.578125 Z M 55.480469 111.929688 " fill-opacity="1" fill-rule="nonzero"/></g><g clip-path="url(#6fbf30a4e7)"><path fill="#ffffff" d="M 78.257812 111.144531 L 87.371094 111.144531 L 87.371094 120.792969 L 78.257812 120.792969 Z M 78.257812 111.144531 " fill-opacity="1" fill-rule="nonzero"/></g><g clip-path="url(#cd1bab32e8)"><g clip-path="url(#9106cf66f9)"><path fill="#0965ac" d="M 88.742188 80.597656 L 129.675781 80.597656 L 129.675781 121.535156 L 88.742188 121.535156 Z M 88.742188 80.597656 " fill-opacity="1" fill-rule="nonzero"/></g></g><g clip-path="url(#efc8772f3f)"><path fill="#ffffff" d="M 114.292969 95.265625 L 112.765625 95.265625 L 112.765625 93.738281 C 112.765625 93.542969 112.726562 93.355469 112.652344 93.175781 C 112.574219 92.996094 112.46875 92.835938 112.332031 92.699219 C 112.191406 92.558594 112.035156 92.453125 111.855469 92.378906 C 111.675781 92.304688 111.488281 92.265625 111.292969 92.265625 L 107.121094 92.265625 C 106.929688 92.265625 106.742188 92.304688 106.5625 92.378906 C 106.382812 92.453125 106.222656 92.558594 106.085938 92.699219 C 105.949219 92.835938 105.84375 92.996094 105.769531 93.175781 C 105.695312 93.355469 105.65625 93.542969 105.65625 93.738281 L 105.65625 95.265625 L 104.128906 95.265625 L 104.128906 93.738281 C 104.128906 93.339844 104.207031 92.957031 104.355469 92.589844 C 104.507812 92.222656 104.726562 91.898438 105.003906 91.617188 C 105.285156 91.335938 105.609375 91.121094 105.976562 90.96875 C 106.34375 90.816406 106.726562 90.738281 107.121094 90.738281 L 111.292969 90.738281 C 111.6875 90.738281 112.070312 90.816406 112.4375 90.96875 C 112.804688 91.121094 113.128906 91.335938 113.410156 91.617188 C 113.691406 91.898438 113.910156 92.222656 114.0625 92.589844 C 114.214844 92.957031 114.292969 93.339844 114.292969 93.738281 Z M 114.292969 95.265625 " fill-opacity="1" fill-rule="nonzero"/></g><g clip-path="url(#5b8faf861a)"><path fill="#ffffff" d="M 120.339844 95.128906 L 98.074219 95.128906 C 97.835938 95.128906 97.609375 95.171875 97.386719 95.265625 C 97.167969 95.355469 96.972656 95.484375 96.804688 95.652344 C 96.636719 95.820312 96.507812 96.015625 96.417969 96.234375 C 96.328125 96.453125 96.28125 96.683594 96.28125 96.921875 L 96.28125 101.640625 C 96.371094 101.933594 96.539062 102.171875 96.789062 102.351562 C 97.039062 102.53125 97.316406 102.617188 97.625 102.609375 L 120.773438 102.609375 C 121.082031 102.613281 121.355469 102.527344 121.605469 102.347656 C 121.851562 102.167969 122.019531 101.933594 122.109375 101.640625 L 122.109375 96.921875 C 122.109375 96.683594 122.066406 96.457031 121.976562 96.238281 C 121.886719 96.023438 121.757812 95.828125 121.59375 95.660156 C 121.425781 95.492188 121.234375 95.363281 121.019531 95.269531 C 120.800781 95.179688 120.574219 95.128906 120.339844 95.128906 Z M 120.339844 95.128906 " fill-opacity="1" fill-rule="nonzero"/></g><g clip-path="url(#8c0e536cf9)"><path fill="#ffffff" d="M 120.773438 104.136719 L 112.644531 104.136719 L 112.644531 105.0625 C 112.644531 105.339844 112.589844 105.609375 112.484375 105.867188 C 112.375 106.125 112.222656 106.355469 112.027344 106.554688 C 111.828125 106.75 111.601562 106.90625 111.34375 107.011719 C 111.085938 107.121094 110.816406 107.175781 110.535156 107.175781 L 107.878906 107.175781 C 107.597656 107.175781 107.328125 107.121094 107.070312 107.011719 C 106.8125 106.90625 106.585938 106.75 106.386719 106.554688 C 106.191406 106.355469 106.039062 106.125 105.929688 105.867188 C 105.824219 105.609375 105.769531 105.339844 105.769531 105.0625 L 105.769531 104.136719 L 97.625 104.136719 C 97.152344 104.136719 96.703125 104.03125 96.28125 103.816406 L 96.28125 109.679688 C 96.28125 109.917969 96.328125 110.144531 96.417969 110.367188 C 96.511719 110.585938 96.640625 110.777344 96.808594 110.945312 C 96.976562 111.113281 97.171875 111.246094 97.390625 111.335938 C 97.609375 111.425781 97.835938 111.472656 98.074219 111.472656 L 120.339844 111.472656 C 120.578125 111.472656 120.804688 111.425781 121.023438 111.335938 C 121.242188 111.246094 121.4375 111.113281 121.605469 110.945312 C 121.773438 110.777344 121.902344 110.585938 121.996094 110.367188 C 122.085938 110.144531 122.132812 109.917969 122.132812 109.679688 L 122.132812 103.816406 C 121.707031 104.035156 121.253906 104.140625 120.773438 104.136719 Z M 120.773438 104.136719 " fill-opacity="1" fill-rule="nonzero"/></g><path fill="#ffffff" d="M 107.296875 105.0625 C 107.296875 105.222656 107.355469 105.359375 107.46875 105.472656 C 107.582031 105.589844 107.71875 105.644531 107.878906 105.648438 L 110.542969 105.648438 C 110.703125 105.644531 110.839844 105.589844 110.953125 105.472656 C 111.066406 105.359375 111.125 105.222656 111.125 105.0625 L 111.125 104.136719 L 107.304688 104.136719 L 107.304688 104.191406 Z M 107.296875 105.0625 " fill-opacity="1" fill-rule="nonzero"/></svg>