<svg xmlns="http://www.w3.org/2000/svg" xmlns:xlink="http://www.w3.org/1999/xlink" width="191" zoomAndPan="magnify" viewBox="0 0 143.25 135.749996" height="181" preserveAspectRatio="xMidYMid meet" version="1.0"><defs><clipPath id="6ae8906d19"><path d="M 14.25 9.554688 L 127.949219 9.554688 L 127.949219 126.648438 L 14.25 126.648438 Z M 14.25 9.554688 " clip-rule="nonzero"/></clipPath><clipPath id="aa17c35801"><path d="M 71.246094 9.554688 L 128.242188 54.386719 L 106.472656 126.921875 L 36.019531 126.921875 L 14.25 54.386719 Z M 71.246094 9.554688 " clip-rule="nonzero"/></clipPath><clipPath id="71cf56b060"><path d="M 52.03125 0.230469 L 90.488281 0.230469 L 90.488281 38.683594 L 52.03125 38.683594 Z M 52.03125 0.230469 " clip-rule="nonzero"/></clipPath><clipPath id="8693bc3a28"><path d="M 71.261719 0.230469 C 60.640625 0.230469 52.03125 8.835938 52.03125 19.457031 C 52.03125 30.078125 60.640625 38.683594 71.261719 38.683594 C 81.878906 38.683594 90.488281 30.078125 90.488281 19.457031 C 90.488281 8.835938 81.878906 0.230469 71.261719 0.230469 Z M 71.261719 0.230469 " clip-rule="nonzero"/></clipPath><clipPath id="4cb0e7eea8"><path d="M 57.265625 5.429688 L 85.265625 5.429688 L 85.265625 33.429688 L 57.265625 33.429688 Z M 57.265625 5.429688 " clip-rule="nonzero"/></clipPath><clipPath id="cd75a15d56"><path d="M 0 38.683594 L 38.457031 38.683594 L 38.457031 77.140625 L 0 77.140625 Z M 0 38.683594 " clip-rule="nonzero"/></clipPath><clipPath id="da164e7f19"><path d="M 19.226562 38.683594 C 8.609375 38.683594 0 47.292969 0 57.914062 C 0 68.53125 8.609375 77.140625 19.226562 77.140625 C 29.847656 77.140625 38.457031 68.53125 38.457031 57.914062 C 38.457031 47.292969 29.847656 38.683594 19.226562 38.683594 Z M 19.226562 38.683594 " clip-rule="nonzero"/></clipPath><clipPath id="e974d41b9d"><path d="M 7 59 L 16 59 L 16 68.527344 L 7 68.527344 Z M 7 59 " clip-rule="nonzero"/></clipPath><clipPath id="9a4080fb61"><path d="M 19.226562 96.902344 L 57.683594 96.902344 L 57.683594 135.273438 L 19.226562 135.273438 Z M 19.226562 96.902344 " clip-rule="nonzero"/></clipPath><clipPath id="ecda32bcb6"><path d="M 38.457031 96.902344 C 27.835938 96.902344 19.226562 105.511719 19.226562 116.128906 C 19.226562 126.75 27.835938 135.359375 38.457031 135.359375 C 49.074219 135.359375 57.683594 126.75 57.683594 116.128906 C 57.683594 105.511719 49.074219 96.902344 38.457031 96.902344 Z M 38.457031 96.902344 " clip-rule="nonzero"/></clipPath><clipPath id="642da5a9eb"><path d="M 26.394531 115 L 34 115 L 34 128 L 26.394531 128 Z M 26.394531 115 " clip-rule="nonzero"/></clipPath><clipPath id="ca4fa74914"><path d="M 43 104.382812 L 50.152344 104.382812 L 50.152344 128 L 43 128 Z M 43 104.382812 " clip-rule="nonzero"/></clipPath><clipPath id="62e75546cc"><path d="M 84.820312 96.902344 L 123.277344 96.902344 L 123.277344 135.273438 L 84.820312 135.273438 Z M 84.820312 96.902344 " clip-rule="nonzero"/></clipPath><clipPath id="ee7437b00b"><path d="M 104.046875 96.902344 C 93.429688 96.902344 84.820312 105.511719 84.820312 116.128906 C 84.820312 126.75 93.429688 135.359375 104.046875 135.359375 C 114.667969 135.359375 123.277344 126.75 123.277344 116.128906 C 123.277344 105.511719 114.667969 96.902344 104.046875 96.902344 Z M 104.046875 96.902344 " clip-rule="nonzero"/></clipPath><clipPath id="a3038f966a"><path d="M 89.371094 101.453125 L 119 101.453125 L 119 131 L 89.371094 131 Z M 89.371094 101.453125 " clip-rule="nonzero"/></clipPath><clipPath id="a79c575f46"><path d="M 104.046875 38.683594 L 142.503906 38.683594 L 142.503906 77.140625 L 104.046875 77.140625 Z M 104.046875 38.683594 " clip-rule="nonzero"/></clipPath><clipPath id="60622d8915"><path d="M 123.277344 38.683594 C 112.65625 38.683594 104.046875 47.292969 104.046875 57.914062 C 104.046875 68.53125 112.65625 77.140625 123.277344 77.140625 C 133.894531 77.140625 142.503906 68.53125 142.503906 57.914062 C 142.503906 47.292969 133.894531 38.683594 123.277344 38.683594 Z M 123.277344 38.683594 " clip-rule="nonzero"/></clipPath><clipPath id="ad69c67302"><path d="M 118 48.1875 L 129 48.1875 L 129 53 L 118 53 Z M 118 48.1875 " clip-rule="nonzero"/></clipPath><clipPath id="c26f445629"><path d="M 111 52 L 135.597656 52 L 135.597656 60 L 111 60 Z M 111 52 " clip-rule="nonzero"/></clipPath><clipPath id="9d90c8f0da"><path d="M 111 60 L 135.597656 60 L 135.597656 67.703125 L 111 67.703125 Z M 111 60 " clip-rule="nonzero"/></clipPath><clipPath id="3485095407"><path d="M 52.03125 52.367188 L 90.488281 52.367188 L 90.488281 90.824219 L 52.03125 90.824219 Z M 52.03125 52.367188 " clip-rule="nonzero"/></clipPath><clipPath id="42c9a2b316"><path d="M 71.261719 52.367188 C 60.640625 52.367188 52.03125 60.976562 52.03125 71.59375 C 52.03125 82.214844 60.640625 90.824219 71.261719 90.824219 C 81.878906 90.824219 90.488281 82.214844 90.488281 71.59375 C 90.488281 60.976562 81.878906 52.367188 71.261719 52.367188 Z M 71.261719 52.367188 " clip-rule="nonzero"/></clipPath><clipPath id="15550dc590"><path d="M 59 56.675781 L 81.851562 56.675781 L 81.851562 84.675781 L 59 84.675781 Z M 59 56.675781 " clip-rule="nonzero"/></clipPath></defs><g clip-path="url(#6ae8906d19)"><g clip-path="url(#aa17c35801)"><path stroke-linecap="butt" transform="matrix(0.848505, 0, 0, 0.848505, 14.250389, 9.554444)" fill="none" stroke-linejoin="miter" d="M 67.171929 0.000286478 L 134.344316 52.836795 L 108.687972 138.322646 L 25.655885 138.322646 L -0.000458543 52.836795 Z M 67.171929 0.000286478 " stroke="#0965ac" stroke-width="26.37912" stroke-opacity="1" stroke-miterlimit="4"/></g></g><g clip-path="url(#71cf56b060)"><g clip-path="url(#8693bc3a28)"><path fill="#3ca500" d="M 52.03125 0.230469 L 90.488281 0.230469 L 90.488281 38.683594 L 52.03125 38.683594 Z M 52.03125 0.230469 " fill-opacity="1" fill-rule="nonzero"/></g></g><g clip-path="url(#4cb0e7eea8)"><path fill="#ffffff" d="M 84.230469 21.613281 C 84.78125 21.613281 85.230469 21.164062 85.230469 20.613281 L 85.230469 18.199219 C 85.230469 17.652344 84.78125 17.203125 84.230469 17.203125 L 83.195312 17.203125 C 82.644531 17.203125 82.066406 16.773438 81.902344 16.246094 L 81.019531 14.101562 C 80.757812 13.617188 80.863281 12.902344 81.253906 12.515625 L 81.988281 11.78125 C 82.375 11.390625 82.375 10.757812 81.988281 10.367188 L 80.28125 8.660156 C 79.890625 8.273438 79.257812 8.273438 78.867188 8.660156 L 78.132812 9.394531 C 77.746094 9.785156 77.03125 9.890625 76.546875 9.628906 L 74.402344 8.746094 C 73.875 8.582031 73.445312 8 73.445312 7.453125 L 73.445312 6.417969 C 73.445312 5.867188 72.996094 5.417969 72.449219 5.417969 L 70.035156 5.417969 C 69.484375 5.417969 69.035156 5.867188 69.035156 6.417969 L 69.035156 7.453125 C 69.035156 8 68.605469 8.582031 68.082031 8.746094 L 65.933594 9.628906 C 65.449219 9.890625 64.738281 9.785156 64.347656 9.394531 L 63.613281 8.660156 C 63.226562 8.273438 62.589844 8.273438 62.203125 8.660156 L 60.496094 10.367188 C 60.109375 10.757812 60.109375 11.390625 60.496094 11.78125 L 61.230469 12.515625 C 61.617188 12.902344 61.722656 13.617188 61.464844 14.101562 L 60.578125 16.246094 C 60.417969 16.773438 59.835938 17.203125 59.289062 17.203125 L 58.25 17.203125 C 57.703125 17.203125 57.253906 17.652344 57.253906 18.199219 L 57.253906 20.613281 C 57.253906 21.164062 57.703125 21.613281 58.25 21.613281 L 59.289062 21.613281 C 59.835938 21.613281 60.417969 22.042969 60.578125 22.566406 L 61.464844 24.714844 C 61.722656 25.199219 61.617188 25.910156 61.230469 26.300781 L 60.496094 27.035156 C 60.109375 27.421875 60.109375 28.058594 60.496094 28.445312 L 62.203125 30.152344 C 62.589844 30.539062 63.226562 30.539062 63.613281 30.152344 L 64.347656 29.417969 C 64.738281 29.03125 65.449219 28.925781 65.933594 29.183594 L 68.082031 30.070312 C 68.605469 30.230469 69.035156 30.8125 69.035156 31.363281 L 69.035156 32.398438 C 69.035156 32.949219 69.484375 33.398438 70.035156 33.398438 L 72.449219 33.398438 C 72.996094 33.398438 73.445312 32.949219 73.445312 32.398438 L 73.445312 31.359375 C 73.445312 30.8125 73.875 30.230469 74.402344 30.070312 L 76.546875 29.183594 C 77.03125 28.925781 77.746094 29.03125 78.132812 29.417969 L 78.867188 30.152344 C 79.257812 30.539062 79.890625 30.539062 80.28125 30.152344 L 81.988281 28.445312 C 82.375 28.058594 82.375 27.421875 81.988281 27.035156 L 81.253906 26.300781 C 80.863281 25.910156 80.761719 25.199219 81.019531 24.714844 L 81.902344 22.566406 C 82.066406 22.042969 82.644531 21.613281 83.195312 21.613281 Z M 71.242188 25.164062 C 68.0625 25.164062 65.484375 22.585938 65.484375 19.40625 C 65.484375 16.226562 68.0625 13.652344 71.242188 13.652344 C 74.417969 13.652344 76.996094 16.226562 76.996094 19.40625 C 76.996094 22.585938 74.417969 25.164062 71.242188 25.164062 Z M 71.242188 25.164062 " fill-opacity="1" fill-rule="nonzero"/></g><g clip-path="url(#cd75a15d56)"><g clip-path="url(#da164e7f19)"><path fill="#3ca500" d="M 0 38.683594 L 38.457031 38.683594 L 38.457031 77.140625 L 0 77.140625 Z M 0 38.683594 " fill-opacity="1" fill-rule="nonzero"/></g></g><g clip-path="url(#e974d41b9d)"><path fill="#ffffff" d="M 13.015625 59.953125 L 7.589844 65.378906 C 6.910156 66.058594 6.910156 67.164062 7.589844 67.84375 C 8.269531 68.523438 9.375 68.523438 10.054688 67.84375 L 15.480469 62.417969 Z M 13.015625 59.953125 " fill-opacity="1" fill-rule="nonzero"/></g><path fill="#ffffff" d="M 28.273438 47.164062 C 25.03125 43.921875 19.761719 43.921875 16.523438 47.164062 C 13.574219 50.109375 13.320312 54.734375 15.738281 57.988281 L 14.109375 59.617188 L 15.820312 61.324219 L 17.449219 59.695312 C 20.695312 62.117188 25.324219 61.859375 28.273438 58.910156 C 31.511719 55.671875 31.511719 50.402344 28.273438 47.164062 Z M 27.035156 57.675781 C 24.476562 60.234375 20.316406 60.234375 17.757812 57.675781 C 15.203125 55.117188 15.203125 50.957031 17.757812 48.398438 C 20.316406 45.84375 24.476562 45.84375 27.035156 48.398438 C 29.59375 50.957031 29.59375 55.117188 27.035156 57.675781 Z M 27.035156 57.675781 " fill-opacity="1" fill-rule="nonzero"/><path fill="#ffffff" d="M 25.683594 48.042969 C 23.691406 46.730469 21.113281 46.726562 19.117188 48.039062 C 18.914062 48.171875 18.859375 48.445312 18.992188 48.644531 C 19.007812 48.671875 19.027344 48.695312 19.046875 48.714844 C 19.191406 48.859375 19.421875 48.886719 19.597656 48.769531 C 21.300781 47.648438 23.5 47.652344 25.203125 48.773438 C 25.40625 48.910156 25.675781 48.851562 25.808594 48.652344 C 25.941406 48.449219 25.886719 48.179688 25.683594 48.042969 Z M 25.683594 48.042969 " fill-opacity="1" fill-rule="nonzero"/><g clip-path="url(#9a4080fb61)"><g clip-path="url(#ecda32bcb6)"><path fill="#3ca500" d="M 19.226562 96.902344 L 57.683594 96.902344 L 57.683594 135.359375 L 19.226562 135.359375 Z M 19.226562 96.902344 " fill-opacity="1" fill-rule="nonzero"/></g></g><path fill="#ffffff" d="M 27.367188 116.492188 C 27.308594 116.492188 27.261719 116.539062 27.261719 116.597656 L 27.261719 126.929688 C 27.261719 126.984375 27.308594 127.03125 27.367188 127.03125 L 32.371094 127.03125 C 32.429688 127.03125 32.476562 126.984375 32.476562 126.929688 L 32.476562 116.597656 C 32.476562 116.539062 32.429688 116.492188 32.371094 116.492188 Z M 27.367188 116.492188 " fill-opacity="1" fill-rule="nonzero"/><g clip-path="url(#642da5a9eb)"><path fill="#ffffff" d="M 27.367188 115.664062 C 26.855469 115.664062 26.4375 116.082031 26.4375 116.597656 L 26.4375 126.929688 C 26.4375 127.441406 26.855469 127.859375 27.367188 127.859375 L 32.371094 127.859375 C 32.886719 127.859375 33.304688 127.441406 33.304688 126.929688 L 33.304688 116.597656 C 33.304688 116.082031 32.886719 115.664062 32.371094 115.664062 Z M 32.476562 116.597656 L 32.476562 126.929688 C 32.476562 126.984375 32.429688 127.03125 32.371094 127.03125 L 27.367188 127.03125 C 27.308594 127.03125 27.261719 126.984375 27.261719 126.929688 L 27.261719 116.597656 C 27.261719 116.539062 27.308594 116.492188 27.367188 116.492188 L 32.371094 116.492188 C 32.429688 116.492188 32.476562 116.539062 32.476562 116.597656 Z M 32.476562 116.597656 " fill-opacity="1" fill-rule="nonzero"/></g><path fill="#ffffff" d="M 40.949219 110.496094 L 35.945312 110.496094 C 35.886719 110.496094 35.839844 110.542969 35.839844 110.601562 L 35.839844 126.929688 C 35.839844 126.984375 35.886719 127.03125 35.945312 127.03125 L 40.949219 127.03125 C 41.007812 127.03125 41.054688 126.984375 41.054688 126.929688 L 41.054688 110.601562 C 41.054688 110.542969 41.007812 110.496094 40.949219 110.496094 Z M 40.949219 110.496094 " fill-opacity="1" fill-rule="nonzero"/><path fill="#ffffff" d="M 40.949219 109.667969 L 35.945312 109.667969 C 35.433594 109.667969 35.015625 110.085938 35.015625 110.601562 L 35.015625 126.929688 C 35.015625 127.441406 35.433594 127.859375 35.945312 127.859375 L 40.949219 127.859375 C 41.464844 127.859375 41.882812 127.441406 41.882812 126.929688 L 41.882812 110.601562 C 41.882812 110.085938 41.464844 109.667969 40.949219 109.667969 Z M 41.054688 126.929688 C 41.054688 126.984375 41.007812 127.03125 40.949219 127.03125 L 35.945312 127.03125 C 35.890625 127.03125 35.84375 126.984375 35.84375 126.929688 L 35.84375 110.601562 C 35.84375 110.542969 35.890625 110.496094 35.945312 110.496094 L 40.949219 110.496094 C 41.007812 110.496094 41.054688 110.542969 41.054688 110.601562 Z M 41.054688 126.929688 " fill-opacity="1" fill-rule="nonzero"/><path fill="#ffffff" d="M 44.523438 127.03125 L 49.53125 127.03125 C 49.585938 127.03125 49.632812 126.984375 49.632812 126.929688 L 49.632812 105.316406 C 49.632812 105.257812 49.585938 105.210938 49.53125 105.210938 L 44.523438 105.210938 C 44.46875 105.210938 44.421875 105.257812 44.421875 105.316406 L 44.421875 126.929688 C 44.421875 126.984375 44.46875 127.03125 44.523438 127.03125 Z M 44.523438 127.03125 " fill-opacity="1" fill-rule="nonzero"/><g clip-path="url(#ca4fa74914)"><path fill="#ffffff" d="M 44.523438 127.859375 L 49.53125 127.859375 C 50.042969 127.859375 50.460938 127.441406 50.460938 126.929688 L 50.460938 105.316406 C 50.460938 104.800781 50.042969 104.382812 49.53125 104.382812 L 44.523438 104.382812 C 44.011719 104.382812 43.59375 104.800781 43.59375 105.316406 L 43.59375 126.929688 C 43.59375 127.441406 44.011719 127.859375 44.523438 127.859375 Z M 44.421875 105.316406 C 44.421875 105.257812 44.46875 105.210938 44.523438 105.210938 L 49.53125 105.210938 C 49.585938 105.210938 49.632812 105.257812 49.632812 105.316406 L 49.632812 126.929688 C 49.632812 126.984375 49.585938 127.03125 49.53125 127.03125 L 44.523438 127.03125 C 44.46875 127.03125 44.421875 126.984375 44.421875 126.929688 Z M 44.421875 105.316406 " fill-opacity="1" fill-rule="nonzero"/></g><g clip-path="url(#62e75546cc)"><g clip-path="url(#ee7437b00b)"><path fill="#3ca500" d="M 84.820312 96.902344 L 123.277344 96.902344 L 123.277344 135.359375 L 84.820312 135.359375 Z M 84.820312 96.902344 " fill-opacity="1" fill-rule="nonzero"/></g></g><g clip-path="url(#a3038f966a)"><path fill="#ffffff" d="M 101.375 129.386719 C 101.117188 129.171875 100.933594 128.910156 100.984375 128.625 C 101.128906 127.839844 101.65625 128.566406 101.65625 128.128906 C 101.65625 127.691406 101.390625 127.605469 101.390625 127.605469 C 101.769531 127.519531 101.972656 127.109375 102.234375 126.90625 C 102.5 126.703125 102.671875 125.828125 102.671875 125.828125 C 103.894531 125.859375 104.011719 124.140625 104.300781 123.765625 C 104.59375 123.386719 105.933594 123.007812 104.941406 122.542969 C 103.953125 122.074219 103.664062 122.191406 102.847656 121.871094 C 102.03125 121.550781 101.421875 121.582031 101.421875 121.582031 C 101.539062 121.492188 101.683594 120.417969 100.636719 120.300781 C 99.589844 120.183594 98.773438 119.367188 98.773438 119.367188 C 97.753906 119.457031 97.085938 118.875 97.085938 118.875 C 96.300781 118.84375 95.949219 119.660156 95.949219 119.660156 C 95.457031 119.339844 95.046875 119.660156 95.046875 119.660156 C 94.667969 119.425781 94.640625 119.019531 94.640625 119.019531 C 94.640625 118.058594 94.378906 118.203125 94.378906 118.203125 C 93.652344 118.203125 93.796875 117.972656 93.796875 117.972656 C 93.765625 117.59375 94 116.867188 94 116.867188 C 93.5625 116.867188 93.332031 117.214844 93.332031 117.214844 C 92.371094 118.4375 91.933594 115.847656 92.398438 115.207031 C 92.863281 114.566406 93.417969 115.003906 93.417969 115.003906 C 93.503906 114.800781 94.523438 114.507812 94.554688 115.003906 C 94.582031 115.5 95.046875 116.082031 95.046875 116.082031 C 95.136719 115.519531 95.027344 114.457031 95.027344 114.457031 C 96.203125 113.738281 96.03125 113.277344 96.03125 113.277344 C 96.402344 111.859375 97.425781 112.035156 97.425781 112.035156 C 97.273438 111.402344 98.476562 111.117188 98.476562 111.117188 C 98.21875 111.683594 99.304688 111.097656 99.304688 111.097656 C 99.632812 110.789062 99.171875 110.855469 99.171875 110.855469 C 98.519531 110.988281 98.78125 110.179688 98.78125 110.179688 C 98.09375 110.125 97.761719 110.457031 97.660156 110.589844 C 98.128906 109.917969 98.648438 109.851562 98.648438 109.851562 C 99.824219 109.917969 100.109375 109.777344 100.175781 109.699219 C 100.007812 110.023438 99.605469 110.441406 100.4375 110.464844 C 101.3125 110.484375 101.464844 110.113281 100.917969 110.050781 C 100.375 109.984375 100.527344 109.742188 100.527344 109.742188 C 101.09375 108.847656 99.828125 108.476562 99.851562 108.410156 C 99.871094 108.347656 99.828125 107.015625 99.589844 107.40625 C 99.347656 107.800781 98.847656 107.800781 98.847656 107.800781 C 98.847656 107.800781 98.78125 106.992188 97.996094 106.925781 C 97.207031 106.863281 97.339844 107.101562 97.339844 107.605469 C 97.339844 108.105469 97.84375 108.0625 97.144531 108.410156 C 96.445312 108.761719 96.53125 109.109375 96.421875 109.503906 C 96.3125 109.894531 96.160156 109.570312 96.160156 109.570312 C 96.203125 108.347656 95.964844 108.476562 95.964844 108.476562 C 94.632812 108.0625 95.15625 107.605469 95.832031 106.863281 C 96.511719 106.121094 97.164062 106.492188 97.164062 106.492188 C 97.796875 106.578125 96.992188 106.03125 97.164062 106.03125 C 97.339844 106.03125 97.796875 105.640625 98.082031 105.355469 C 98.367188 105.070312 97.996094 105.007812 97.535156 105.289062 C 97.078125 105.574219 97.472656 104.570312 97.472656 104.570312 C 97.253906 104.503906 97.1875 105.269531 96.074219 105.464844 C 95.90625 105.496094 95.773438 105.507812 95.664062 105.507812 C 97.96875 103.683594 100.878906 102.59375 104.039062 102.59375 C 106.824219 102.59375 109.410156 103.4375 111.5625 104.882812 C 111.558594 104.886719 111.550781 104.886719 111.542969 104.890625 C 111.242188 105.019531 111.359375 105.167969 111.359375 105.167969 C 111.503906 105.675781 111.695312 106.550781 111.390625 106.769531 C 111.082031 106.984375 111.242188 107.175781 111.242188 107.175781 C 112.058594 108.804688 111.855469 107.175781 112.363281 107.757812 C 112.875 108.339844 112.394531 108.570312 112.929688 108.585938 C 113.46875 108.601562 113.675781 107.742188 113.207031 107.480469 C 112.742188 107.21875 112.625 106.171875 112.625 106.171875 C 112.859375 106.054688 112.886719 106.242188 112.886719 106.242188 C 112.816406 106.402344 113.121094 107.21875 113.398438 107.320312 C 113.675781 107.421875 113.777344 107.496094 113.878906 107.976562 C 113.980469 108.457031 114.097656 108.398438 114.097656 108.398438 C 114.257812 108.964844 113.515625 108.730469 112.726562 108.90625 C 111.941406 109.082031 112.160156 109.546875 112.160156 109.546875 L 111.898438 109.546875 L 111.753906 109.910156 C 110.445312 110.582031 111.492188 110.667969 111.492188 110.667969 C 111.492188 110.667969 112.074219 111.539062 111.367188 111.570312 C 110.65625 111.597656 110.472656 112.007812 110.414062 112.558594 C 110.355469 113.113281 111.199219 113.226562 111.199219 113.226562 L 111.367188 113.546875 C 111.367188 113.546875 110.617188 114.128906 110.445312 114.769531 C 110.269531 115.410156 109.335938 116.195312 109.222656 116.371094 C 109.105469 116.546875 109.511719 117.449219 109.132812 117.972656 C 108.753906 118.496094 109.132812 119.019531 109.132812 119.019531 C 109.542969 119.050781 110.152344 121.027344 110.910156 120.648438 C 110.960938 120.625 111.007812 120.601562 111.058594 120.578125 C 111.738281 120.277344 112.21875 120.328125 112.21875 120.328125 C 113.148438 119.921875 113.238281 120.679688 113.238281 120.679688 C 113.847656 120.476562 113.761719 121.085938 113.761719 121.085938 C 113.003906 121.929688 113.703125 121.871094 113.441406 123.035156 C 113.179688 124.199219 112.421875 124.230469 112.363281 125.132812 C 112.304688 126.035156 111.257812 127.285156 111.257812 127.285156 C 111.257812 127.285156 111.3125 127.398438 111.519531 127.390625 C 109.375 128.820312 106.804688 129.652344 104.039062 129.652344 C 103.128906 129.652344 102.238281 129.5625 101.375 129.386719 Z M 90.511719 116.121094 C 90.511719 115.753906 90.527344 115.386719 90.554688 115.023438 C 90.90625 115.894531 91.457031 116.367188 91.4375 116.691406 C 91.410156 117.246094 91.292969 117.535156 92.371094 117.972656 C 93.449219 118.410156 94 119.078125 94.234375 119.3125 C 94.464844 119.542969 94.960938 120.183594 95.28125 119.953125 C 95.601562 119.71875 96.386719 120.648438 95.980469 121.027344 C 95.570312 121.40625 95.777344 121.988281 95.777344 121.988281 C 95.777344 121.988281 96.414062 124.171875 97.8125 124.550781 C 99.210938 124.925781 98.976562 125.421875 98.976562 125.421875 C 98.945312 127.480469 100.015625 128.660156 100.980469 129.304688 C 94.988281 127.910156 90.511719 122.53125 90.511719 116.121094 Z M 112.757812 111.800781 C 112.726562 111.496094 113.238281 111.628906 113.238281 111.628906 C 113.339844 111.292969 113.628906 111.425781 113.628906 111.425781 C 113.644531 111.582031 114.109375 112.0625 114.488281 112.210938 C 114.867188 112.355469 115.011719 112.59375 114.675781 112.753906 C 114.34375 112.917969 114.632812 113.039062 114.632812 113.039062 C 114.835938 113.199219 115.042969 112.703125 115.027344 112.398438 C 115.011719 112.09375 114.867188 112.035156 114.621094 111.859375 C 114.371094 111.6875 114.039062 111.132812 114.039062 111.132812 C 115.304688 111.757812 115.40625 112.660156 115.59375 112.921875 C 115.785156 113.183594 115.726562 113.535156 115.914062 113.113281 C 116.105469 112.691406 115.363281 112.542969 115.898438 112.210938 C 116.4375 111.875 116.234375 110.914062 116.234375 110.914062 C 116.46875 111.300781 116.605469 111.277344 116.660156 111.242188 C 116.746094 111.460938 116.824219 111.683594 116.898438 111.910156 C 116.832031 111.867188 116.773438 111.839844 116.730469 111.859375 C 116.613281 111.917969 116.789062 112.0625 116.4375 112.136719 C 116.089844 112.210938 116.277344 112.617188 116.277344 112.617188 C 116.410156 113.386719 117.210938 113.417969 117.210938 113.417969 L 117.210938 114.507812 C 116.527344 114.523438 115.914062 114.074219 115.914062 114.074219 C 115.507812 113.957031 115.566406 114.597656 115.566406 114.597656 C 114.402344 113.460938 114.066406 114.699219 114.199219 113.578125 C 114.328125 112.460938 112.597656 113.546875 111.957031 113.578125 C 111.316406 113.605469 111.621094 113.15625 111.621094 113.15625 C 112.347656 113.273438 112.335938 112.019531 112.40625 112.109375 C 112.480469 112.195312 112.785156 112.109375 112.757812 111.800781 Z M 104.039062 101.453125 C 95.953125 101.453125 89.371094 108.03125 89.371094 116.121094 C 89.371094 124.210938 95.953125 130.792969 104.039062 130.792969 C 112.128906 130.792969 118.710938 124.210938 118.710938 116.121094 C 118.710938 108.03125 112.128906 101.453125 104.039062 101.453125 " fill-opacity="1" fill-rule="nonzero"/></g><path fill="#ffffff" d="M 94.40625 116.691406 C 94.40625 116.691406 94.808594 116.632812 95.453125 117.097656 C 96.09375 117.566406 96.328125 117.097656 96.328125 117.097656 C 96.328125 117.097656 94.902344 116.207031 94.40625 116.691406 " fill-opacity="1" fill-rule="nonzero"/><path fill="#ffffff" d="M 96.5625 117.40625 C 96.5625 117.40625 96.765625 117.710938 97.144531 117.636719 C 97.523438 117.566406 97.710938 117.574219 97.914062 117.648438 C 97.914062 117.648438 96.941406 117.054688 96.5625 117.40625 " fill-opacity="1" fill-rule="nonzero"/><path fill="#ffffff" d="M 110.457031 108.566406 C 110.457031 108.792969 110.816406 108.78125 110.71875 109.242188 C 110.621094 109.699219 110.757812 109.90625 110.882812 109.886719 C 110.882812 109.886719 111.570312 109.796875 111.703125 109.601562 C 111.832031 109.40625 112.007812 109.199219 111.441406 109.042969 C 110.871094 108.890625 110.851562 108.105469 110.742188 107.984375 C 110.632812 107.867188 110.292969 107.976562 110.335938 107.734375 C 110.382812 107.496094 109.75 107.800781 110 108.0625 C 110.25 108.324219 110.457031 108.335938 110.457031 108.566406 " fill-opacity="1" fill-rule="nonzero"/><path fill="#ffffff" d="M 109.941406 109.601562 C 110.03125 109.546875 110.371094 109.503906 110.394531 109.121094 C 110.414062 108.738281 110.257812 108.597656 110.167969 108.597656 C 110.074219 108.597656 109.753906 108.597656 109.847656 109.097656 C 109.941406 109.601562 109.941406 109.601562 109.941406 109.601562 " fill-opacity="1" fill-rule="nonzero"/><g clip-path="url(#a79c575f46)"><g clip-path="url(#60622d8915)"><path fill="#3ca500" d="M 104.046875 38.683594 L 142.503906 38.683594 L 142.503906 77.140625 L 104.046875 77.140625 Z M 104.046875 38.683594 " fill-opacity="1" fill-rule="nonzero"/></g></g><g clip-path="url(#ad69c67302)"><path fill="#ffffff" d="M 128.050781 52.460938 L 126.617188 52.460938 L 126.617188 51.027344 C 126.613281 50.84375 126.578125 50.667969 126.507812 50.5 C 126.4375 50.328125 126.335938 50.179688 126.207031 50.050781 C 126.078125 49.921875 125.929688 49.820312 125.761719 49.75 C 125.589844 49.679688 125.414062 49.644531 125.230469 49.644531 L 121.316406 49.644531 C 121.132812 49.644531 120.957031 49.679688 120.789062 49.75 C 120.621094 49.820312 120.472656 49.921875 120.34375 50.050781 C 120.214844 50.179688 120.113281 50.332031 120.042969 50.5 C 119.976562 50.667969 119.941406 50.84375 119.941406 51.027344 L 119.941406 52.460938 L 118.507812 52.460938 L 118.507812 51.027344 C 118.507812 50.652344 118.578125 50.296875 118.71875 49.949219 C 118.863281 49.605469 119.066406 49.300781 119.328125 49.039062 C 119.59375 48.773438 119.894531 48.570312 120.242188 48.425781 C 120.585938 48.28125 120.945312 48.210938 121.316406 48.210938 L 125.230469 48.210938 C 125.605469 48.210938 125.964844 48.28125 126.308594 48.425781 C 126.652344 48.570312 126.957031 48.773438 127.222656 49.035156 C 127.484375 49.300781 127.691406 49.605469 127.832031 49.949219 C 127.976562 50.292969 128.046875 50.652344 128.050781 51.027344 Z M 128.050781 52.460938 " fill-opacity="1" fill-rule="nonzero"/></g><g clip-path="url(#c26f445629)"><path fill="#ffffff" d="M 133.726562 52.332031 L 112.820312 52.332031 C 112.597656 52.332031 112.382812 52.375 112.175781 52.460938 C 111.96875 52.546875 111.785156 52.667969 111.628906 52.824219 C 111.472656 52.984375 111.347656 53.164062 111.261719 53.371094 C 111.179688 53.578125 111.136719 53.792969 111.136719 54.015625 L 111.136719 58.449219 C 111.21875 58.722656 111.378906 58.945312 111.613281 59.113281 C 111.847656 59.285156 112.109375 59.363281 112.398438 59.359375 L 134.136719 59.359375 C 134.425781 59.363281 134.683594 59.28125 134.917969 59.113281 C 135.148438 58.945312 135.308594 58.722656 135.390625 58.449219 L 135.390625 54.015625 C 135.390625 53.796875 135.347656 53.582031 135.265625 53.378906 C 135.179688 53.171875 135.0625 52.992188 134.90625 52.832031 C 134.75 52.675781 134.570312 52.554688 134.367188 52.464844 C 134.164062 52.378906 133.949219 52.335938 133.726562 52.332031 Z M 133.726562 52.332031 " fill-opacity="1" fill-rule="nonzero"/></g><g clip-path="url(#9d90c8f0da)"><path fill="#ffffff" d="M 134.136719 60.792969 L 126.5 60.792969 L 126.5 61.660156 C 126.5 61.921875 126.449219 62.175781 126.351562 62.417969 C 126.25 62.660156 126.105469 62.875 125.921875 63.0625 C 125.734375 63.25 125.523438 63.390625 125.28125 63.492188 C 125.039062 63.59375 124.785156 63.644531 124.523438 63.644531 L 122.027344 63.644531 C 121.765625 63.644531 121.511719 63.59375 121.269531 63.492188 C 121.027344 63.390625 120.8125 63.25 120.625 63.0625 C 120.441406 62.875 120.296875 62.660156 120.199219 62.417969 C 120.097656 62.175781 120.046875 61.921875 120.046875 61.660156 L 120.046875 60.792969 L 112.398438 60.792969 C 111.953125 60.792969 111.53125 60.691406 111.136719 60.492188 L 111.136719 65.996094 C 111.136719 66.222656 111.179688 66.4375 111.265625 66.640625 C 111.351562 66.847656 111.472656 67.03125 111.632812 67.1875 C 111.789062 67.34375 111.96875 67.46875 112.175781 67.554688 C 112.382812 67.636719 112.597656 67.683594 112.820312 67.683594 L 133.726562 67.683594 C 133.949219 67.683594 134.164062 67.636719 134.371094 67.554688 C 134.578125 67.46875 134.757812 67.34375 134.917969 67.1875 C 135.074219 67.03125 135.195312 66.847656 135.28125 66.640625 C 135.367188 66.4375 135.410156 66.222656 135.414062 65.996094 L 135.414062 60.492188 C 135.011719 60.695312 134.585938 60.796875 134.136719 60.792969 Z M 134.136719 60.792969 " fill-opacity="1" fill-rule="nonzero"/></g><path fill="#ffffff" d="M 121.480469 61.660156 C 121.480469 61.8125 121.535156 61.941406 121.640625 62.046875 C 121.746094 62.15625 121.875 62.210938 122.027344 62.210938 L 124.527344 62.210938 C 124.679688 62.210938 124.808594 62.15625 124.914062 62.046875 C 125.019531 61.941406 125.074219 61.8125 125.074219 61.660156 L 125.074219 60.792969 L 121.488281 60.792969 L 121.488281 60.84375 Z M 121.480469 61.660156 " fill-opacity="1" fill-rule="nonzero"/><g clip-path="url(#3485095407)"><g clip-path="url(#42c9a2b316)"><path fill="#3ca500" d="M 52.03125 52.367188 L 90.488281 52.367188 L 90.488281 90.824219 L 52.03125 90.824219 Z M 52.03125 52.367188 " fill-opacity="1" fill-rule="nonzero"/></g></g><g clip-path="url(#15550dc590)"><path fill="#ffffff" d="M 80.445312 60.699219 C 80.089844 59.59375 79.679688 58.503906 79.253906 57.417969 C 79.003906 56.773438 78.546875 56.675781 78.003906 57.109375 C 77.722656 57.335938 77.445312 57.5625 77.191406 57.816406 C 75.40625 59.625 73.289062 60.945312 71.039062 62.105469 C 68.238281 63.550781 65.621094 65.269531 63.4375 67.574219 C 61.40625 69.714844 60.03125 72.175781 59.648438 75.140625 C 58.957031 80.53125 62.523438 84.707031 67.914062 84.796875 C 68.542969 84.808594 69.171875 84.800781 69.800781 84.75 C 75.585938 84.289062 80.140625 80.394531 81.367188 74.765625 C 81.710938 73.199219 81.816406 71.578125 81.972656 70.417969 C 81.710938 66.828125 81.417969 63.710938 80.445312 60.699219 Z M 67.1875 67.769531 C 67.859375 69.167969 67.488281 70.492188 67.636719 71.746094 C 67.78125 72.992188 67.84375 74.253906 67.9375 75.507812 C 66.761719 73.082031 66.503906 70.695312 67.1875 67.769531 Z M 67.546875 80.621094 C 69.847656 80.363281 72.152344 80.105469 74.457031 79.84375 C 72.425781 81.148438 69.898438 81.339844 67.546875 80.621094 Z M 76.425781 70.023438 C 74.570312 70.710938 73.707031 72.167969 72.785156 73.824219 C 74.328125 74.164062 75.558594 73.449219 76.855469 73.214844 C 77.292969 73.136719 77.722656 73.046875 78.164062 72.984375 C 78.230469 72.976562 78.371094 73.082031 78.371094 73.132812 C 78.371094 73.277344 78.355469 73.527344 78.28125 73.550781 C 77.179688 73.902344 76.085938 74.261719 74.960938 74.535156 C 74.089844 74.746094 73.195312 74.847656 72.304688 74.984375 C 71.179688 75.15625 70.65625 75.878906 70.335938 76.960938 C 72.800781 77.695312 74.960938 76.398438 77.578125 76.207031 C 76.359375 77.441406 75.082031 77.515625 73.902344 77.75 C 73.210938 77.890625 72.4375 77.980469 71.761719 77.839844 C 69.335938 77.335938 68.066406 78.527344 67.339844 80.628906 C 66.527344 81.394531 65.722656 82.164062 64.894531 82.910156 C 64.792969 83.007812 64.527344 83.027344 64.410156 82.960938 C 64.292969 82.890625 64.21875 82.664062 64.207031 82.503906 C 64.195312 82.335938 64.222656 82.117188 64.324219 82 C 65.136719 81.066406 64.726562 80.234375 64.230469 79.316406 C 63.316406 77.632812 63.054688 75.769531 63.015625 73.878906 C 63.011719 73.664062 63.179688 73.4375 63.445312 72.761719 C 64.078125 75.445312 63.960938 77.941406 65.539062 80.109375 C 66.695312 78.71875 68.390625 77.828125 68.015625 75.703125 C 68.46875 75.652344 68.964844 76.230469 69.386719 75.574219 C 69.625 75.199219 69.949219 74.882812 70.242188 74.535156 C 72.59375 71.738281 72.4375 72.277344 71.941406 69.285156 C 71.886719 68.933594 71.863281 68.5625 71.890625 68.210938 C 71.96875 67.175781 72.085938 66.140625 72.1875 65.105469 C 73.472656 65.90625 72.65625 67.1875 72.875 68.234375 C 72.996094 68.832031 72.898438 69.472656 72.898438 70.535156 C 73.480469 70.003906 73.859375 69.808594 74.003906 69.503906 C 74.730469 67.964844 75.378906 66.386719 76.089844 64.839844 C 76.296875 64.390625 76.609375 63.996094 77.113281 63.1875 C 77.503906 65.710938 76.074219 67.339844 75.726562 69.367188 C 77.335938 69.15625 78.140625 67.835938 79.835938 66.878906 C 78.886719 68.753906 77.710938 69.546875 76.425781 70.023438 Z M 76.425781 70.023438 " fill-opacity="1" fill-rule="nonzero"/></g></svg>