<svg xmlns="http://www.w3.org/2000/svg" xmlns:xlink="http://www.w3.org/1999/xlink" width="400" zoomAndPan="magnify" viewBox="0 0 300 449.999984" height="600" preserveAspectRatio="xMidYMid meet" version="1.0"><defs><clipPath id="b5877e2545"><path d="M 135.199219 15.304688 L 225.199219 15.304688 L 225.199219 202.335938 L 135.199219 202.335938 Z M 135.199219 15.304688 " clip-rule="nonzero"/></clipPath><clipPath id="4dea52929f"><path d="M 180.199219 15.304688 C 155.347656 15.304688 135.199219 57.167969 135.199219 108.808594 C 135.199219 160.449219 155.347656 202.3125 180.199219 202.3125 C 205.054688 202.3125 225.199219 160.449219 225.199219 108.808594 C 225.199219 57.167969 205.054688 15.304688 180.199219 15.304688 Z M 180.199219 15.304688 " clip-rule="nonzero"/></clipPath><clipPath id="f0b9390568"><path d="M 139 15.304688 L 214 15.304688 L 214 97 L 139 97 Z M 139 15.304688 " clip-rule="nonzero"/></clipPath></defs><g clip-path="url(#b5877e2545)"><g clip-path="url(#4dea52929f)"><path fill="#000000" d="M 135.199219 15.304688 L 225.199219 15.304688 L 225.199219 202.335938 L 135.199219 202.335938 Z M 135.199219 15.304688 " fill-opacity="1" fill-rule="nonzero"/></g></g><path fill="#fbb97f" d="M 160.359375 122.566406 L 190.839844 114.988281 L 196.226562 118.695312 L 159.6875 181 L 146.214844 145.804688 Z M 160.359375 122.566406 " fill-opacity="1" fill-rule="nonzero"/><g clip-path="url(#f0b9390568)"><path fill="#000000" d="M 168.78125 95.121094 C 168.78125 95.121094 209.023438 107.75 213.402344 59.253906 C 214.582031 45.949219 212.390625 31.132812 200.941406 22.714844 C 193.53125 17.492188 184.441406 16.144531 175.683594 15.640625 C 167.09375 15.304688 158.003906 16.3125 150.761719 20.691406 C 145.542969 24.058594 142.003906 29.28125 140.320312 35.34375 C 139.816406 37.027344 139.3125 41.910156 139.3125 43.929688 C 139.3125 44.265625 168.78125 95.121094 168.78125 95.121094 Z M 168.78125 95.121094 " fill-opacity="1" fill-rule="nonzero"/></g><path fill="#fbb97f" d="M 190.839844 76.597656 L 190.671875 161.464844 L 161.035156 161.128906 C 161.035156 161.128906 160.867188 98.992188 161.203125 96.972656 Z M 190.839844 76.597656 " fill-opacity="1" fill-rule="nonzero"/><path fill="#000000" d="M 161.035156 99.160156 L 184.777344 98.152344 L 161.035156 116.675781 Z M 161.035156 99.160156 " fill-opacity="1" fill-rule="nonzero"/><path fill="#fbb97f" d="M 216.769531 70.199219 C 215.253906 78.28125 207.507812 84.847656 199.59375 80.132812 C 199.425781 79.964844 199.257812 80.132812 199.257812 80.300781 C 199.257812 81.144531 198.921875 81.816406 198.753906 82.492188 C 195.722656 91.921875 187.808594 99.5 178.378906 102.359375 C 164.738281 106.402344 147.5625 100.675781 142.175781 86.699219 C 141.332031 84.679688 140.660156 81.984375 140.492188 79.796875 C 140.492188 79.796875 139.3125 47.972656 139.144531 44.097656 C 153.121094 44.097656 166.757812 45.109375 178.210938 37.53125 C 178.378906 37.53125 178.546875 37.53125 178.546875 37.699219 C 181.242188 44.265625 185.113281 50.664062 193.027344 53.359375 C 193.195312 53.359375 193.195312 53.359375 193.195312 53.527344 L 193.195312 62.453125 C 193.195312 62.453125 193.195312 62.621094 193.363281 62.621094 L 195.554688 62.621094 L 195.722656 62.453125 C 195.890625 61.949219 196.730469 60.433594 197.742188 59.085938 C 198.585938 58.074219 199.761719 57.402344 201.109375 57.0625 C 203.46875 56.054688 206.160156 56.054688 208.6875 56.894531 C 212.558594 58.074219 214.75 60.265625 215.929688 63.125 C 216.769531 65.148438 216.9375 67.503906 216.769531 70.199219 Z M 216.769531 70.199219 " fill-opacity="1" fill-rule="nonzero"/><path fill="#000000" d="M 155.644531 78.785156 C 155.644531 79.125 155.308594 79.460938 154.972656 79.460938 L 153.625 79.292969 C 153.121094 79.292969 152.613281 79.292969 152.109375 79.292969 C 151.097656 78.953125 151.605469 77.609375 151.773438 77.101562 C 152.277344 75.417969 152.613281 73.566406 153.121094 71.882812 C 153.289062 71.039062 154.636719 71.378906 154.464844 72.21875 C 154.128906 73.398438 153.960938 74.238281 153.625 75.417969 C 153.625 75.925781 153.457031 76.597656 153.289062 77.101562 C 153.289062 77.4375 153.121094 77.609375 153.121094 77.945312 C 153.121094 78.113281 153.121094 78.113281 153.121094 78.28125 C 153.457031 78.28125 153.625 78.28125 153.792969 78.28125 C 154.128906 78.28125 154.636719 78.449219 154.972656 78.449219 C 155.308594 78.449219 155.644531 78.449219 155.644531 78.785156 Z M 155.644531 78.785156 " fill-opacity="1" fill-rule="nonzero"/><path fill="#000000" d="M 147.5625 57.0625 C 149.414062 57.0625 152.109375 57.0625 153.625 58.074219 C 154.296875 58.410156 154.464844 59.085938 153.960938 59.589844 C 153.792969 59.925781 153.625 59.925781 153.289062 60.09375 C 151.605469 60.769531 149.921875 60.9375 148.234375 60.9375 C 147.058594 60.9375 145.878906 60.9375 144.699219 60.769531 C 143.691406 60.601562 142.34375 60.433594 141.5 59.925781 C 141.164062 59.757812 140.996094 59.421875 140.996094 59.085938 C 140.996094 58.917969 141.164062 58.578125 141.5 58.410156 C 141.332031 58.578125 141.5 58.578125 141.5 58.410156 C 143.351562 57.402344 145.710938 57.234375 147.5625 57.0625 Z M 147.5625 57.0625 " fill-opacity="1" fill-rule="nonzero"/><path fill="#000000" d="M 173.324219 57.234375 C 174.839844 57.402344 179.21875 57.90625 179.726562 59.757812 C 179.894531 60.265625 179.554688 60.601562 179.21875 60.9375 C 177.199219 62.117188 174 61.777344 171.808594 61.441406 C 170.632812 61.273438 166.421875 60.601562 166.085938 59.253906 C 165.917969 58.917969 166.085938 58.578125 166.421875 58.410156 C 168.105469 56.894531 171.304688 57.0625 173.324219 57.234375 Z M 173.324219 57.234375 " fill-opacity="1" fill-rule="nonzero"/><path fill="#000000" d="M 209.53125 62.285156 C 208.015625 63.125 207.003906 64.136719 206.160156 65.652344 C 206.835938 65.988281 207.339844 66.832031 207.339844 67.503906 C 207.339844 68.515625 207.003906 69.355469 206.5 70.199219 C 205.488281 71.882812 204.308594 73.398438 202.960938 74.914062 C 202.792969 75.25 202.457031 75.25 202.289062 75.25 L 201.953125 75.25 C 201.785156 75.25 201.785156 75.25 201.785156 75.25 C 201.277344 75.25 200.605469 74.746094 200.773438 74.070312 C 201.445312 71.378906 202.289062 68.683594 203.46875 65.988281 C 204.476562 63.800781 205.824219 61.609375 208.183594 60.601562 C 209.359375 60.09375 210.371094 61.609375 209.53125 62.285156 Z M 209.53125 62.285156 " fill-opacity="1" fill-rule="nonzero"/><path fill="#f2f2f2" d="M 150.761719 83.839844 L 166.421875 83.5 C 166.421875 83.5 166.757812 89.394531 158.675781 89.730469 C 150.59375 90.070312 150.761719 83.839844 150.761719 83.839844 Z M 150.761719 83.839844 " fill-opacity="1" fill-rule="nonzero"/><path fill="#000000" d="M 150.089844 66.324219 C 149.582031 65.652344 148.910156 65.316406 148.066406 64.980469 C 147.730469 64.808594 147.226562 64.808594 146.890625 64.808594 C 146.550781 64.808594 146.214844 64.808594 145.710938 64.980469 C 145.710938 64.980469 145.542969 64.980469 145.542969 64.980469 C 145.542969 64.980469 145.375 64.980469 145.375 64.980469 C 145.035156 64.808594 144.699219 64.472656 144.53125 64.304688 C 144.195312 64.136719 143.691406 63.96875 143.351562 64.136719 C 143.015625 64.136719 142.511719 64.472656 142.34375 64.808594 C 142.175781 65.148438 142.003906 65.484375 142.175781 65.988281 C 142.34375 66.324219 142.511719 66.664062 142.847656 67 C 143.351562 67.503906 143.859375 67.839844 144.53125 68.007812 C 144.867188 68.179688 145.207031 68.179688 145.542969 68.179688 C 145.878906 68.179688 146.214844 68.179688 146.550781 68.007812 C 146.71875 68.007812 146.890625 68.007812 146.890625 68.007812 C 147.058594 68.007812 147.058594 68.007812 147.226562 68.179688 C 147.394531 68.179688 147.394531 68.347656 147.5625 68.347656 C 147.5625 68.347656 147.730469 68.515625 147.730469 68.515625 C 148.234375 69.1875 149.246094 69.1875 149.921875 68.683594 C 150.425781 67.839844 150.59375 67 150.089844 66.324219 Z M 150.089844 66.324219 " fill-opacity="1" fill-rule="nonzero"/><path fill="#000000" d="M 177.703125 65.652344 C 177.199219 64.980469 176.355469 64.640625 175.683594 65.148438 C 175.515625 65.316406 175.179688 65.652344 174.839844 65.652344 C 175.011719 65.652344 175.011719 65.652344 174.839844 65.652344 C 174.839844 65.652344 174.671875 65.652344 174.671875 65.652344 C 174.671875 65.652344 174.671875 65.652344 174.503906 65.652344 C 174.503906 65.652344 174.503906 65.652344 174.335938 65.652344 C 174.335938 65.652344 174.167969 65.652344 174.167969 65.484375 C 173.832031 65.316406 173.496094 65.148438 172.988281 64.980469 C 171.472656 64.640625 169.957031 65.148438 168.609375 65.988281 C 167.9375 66.324219 167.601562 67.335938 168.105469 68.007812 C 168.609375 68.683594 169.453125 69.019531 170.125 68.515625 C 170.464844 68.347656 170.632812 68.179688 170.96875 68.007812 C 170.96875 68.007812 171.136719 68.007812 171.136719 68.007812 C 171.304688 68.007812 171.472656 67.839844 171.640625 67.839844 C 171.640625 67.839844 171.808594 67.839844 171.808594 67.839844 C 171.808594 67.839844 171.980469 67.839844 171.980469 67.839844 C 171.980469 67.839844 172.148438 67.839844 172.148438 67.839844 C 172.148438 67.839844 172.316406 67.839844 172.316406 67.839844 C 173.15625 68.347656 174 68.515625 174.839844 68.347656 C 175.515625 68.179688 176.1875 67.839844 176.863281 67.503906 C 177.703125 67.335938 178.210938 66.324219 177.703125 65.652344 Z M 177.703125 65.652344 " fill-opacity="1" fill-rule="nonzero"/><path fill="#fbb97f" d="M 104.792969 189.417969 C 104.285156 189.082031 106.476562 176.621094 106.644531 175.273438 C 107.316406 170.222656 107.992188 165.167969 109.675781 160.453125 C 113.210938 149.339844 121.292969 142.941406 131.566406 138.058594 C 152.613281 128.460938 137.796875 208.445312 137.796875 208.445312 C 137.796875 208.445312 104.792969 189.417969 104.792969 189.417969 Z M 104.792969 189.417969 " fill-opacity="1" fill-rule="nonzero"/><path fill="#fbb97f" d="M 66.734375 136.542969 C 69.09375 131.828125 73.808594 133.511719 73.808594 133.511719 C 78.019531 129.640625 80.878906 132.503906 80.878906 132.503906 L 84.417969 131.660156 L 101.59375 132.839844 C 103.78125 135.027344 101.253906 137.554688 101.253906 137.554688 L 88.121094 139.40625 L 91.152344 153.382812 L 96.035156 142.605469 C 99.234375 139.40625 100.246094 142.269531 100.246094 142.269531 L 98.394531 160.453125 L 95.699219 164.328125 L 89.300781 177.125 L 90.648438 184.367188 L 69.597656 187.398438 C 69.09375 183.691406 68.757812 179.988281 68.082031 176.453125 C 67.746094 174.9375 67.578125 173.421875 67.074219 171.90625 C 66.398438 170.222656 65.558594 168.539062 64.882812 166.855469 C 64.042969 164.160156 63.199219 161.464844 62.359375 158.769531 C 60.84375 153.382812 59.496094 148.164062 58.316406 142.773438 C 61.347656 135.871094 66.734375 136.542969 66.734375 136.542969 Z M 66.734375 136.542969 " fill-opacity="1" fill-rule="nonzero"/><path fill="#000000" d="M 81.722656 133.34375 C 82.734375 138.058594 83.40625 142.941406 83.742188 147.824219 C 83.742188 148.5 82.902344 148.5 82.734375 147.824219 C 82.394531 142.941406 81.722656 138.058594 80.710938 133.34375 C 80.542969 132.839844 81.554688 132.671875 81.722656 133.34375 Z M 81.722656 133.34375 " fill-opacity="1" fill-rule="nonzero"/><path fill="#000000" d="M 74.3125 134.019531 C 75.996094 138.902344 77.511719 143.617188 79.195312 148.5 C 79.363281 149.003906 78.523438 149.339844 78.355469 148.835938 C 76.671875 143.953125 75.15625 139.238281 73.472656 134.355469 C 73.304688 133.679688 74.144531 133.34375 74.3125 134.019531 Z M 74.3125 134.019531 " fill-opacity="1" fill-rule="nonzero"/><path fill="#000000" d="M 83.574219 147.996094 C 83.40625 149.003906 82.566406 150.015625 81.554688 150.351562 C 80.375 150.6875 79.195312 150.351562 78.523438 149.507812 C 78.355469 149.339844 78.523438 149.003906 78.691406 148.835938 C 78.859375 148.667969 79.195312 148.835938 79.363281 149.003906 C 79.363281 149.003906 79.363281 149.003906 79.535156 149.171875 C 79.535156 149.171875 79.535156 149.171875 79.703125 149.339844 C 79.871094 149.339844 79.871094 149.507812 80.039062 149.507812 C 80.039062 149.507812 80.207031 149.507812 80.207031 149.507812 C 80.207031 149.507812 80.207031 149.507812 80.375 149.507812 C 80.542969 149.507812 80.542969 149.507812 80.710938 149.507812 C 80.710938 149.507812 80.878906 149.507812 80.878906 149.507812 C 80.878906 149.507812 80.878906 149.507812 81.050781 149.507812 C 81.21875 149.507812 81.21875 149.507812 81.386719 149.507812 C 81.386719 149.507812 81.386719 149.507812 81.554688 149.507812 C 81.554688 149.507812 81.722656 149.507812 81.722656 149.507812 C 81.890625 149.507812 82.058594 149.339844 82.226562 149.339844 C 82.226562 149.339844 82.226562 149.339844 82.394531 149.339844 C 82.394531 149.339844 82.566406 149.171875 82.566406 149.171875 C 82.566406 149.171875 82.566406 149.003906 82.734375 149.003906 C 82.734375 149.003906 82.902344 148.835938 82.902344 148.835938 C 82.902344 148.835938 82.902344 148.667969 82.902344 148.667969 C 82.902344 148.5 82.902344 148.667969 82.902344 148.667969 C 82.902344 148.5 82.902344 148.5 82.902344 148.332031 C 82.902344 148.164062 83.238281 147.824219 83.40625 147.996094 C 83.40625 147.488281 83.574219 147.824219 83.574219 147.996094 Z M 83.574219 147.996094 " fill-opacity="1" fill-rule="nonzero"/><path fill="#000000" d="M 78.859375 149.339844 C 78.523438 149.847656 78.019531 150.519531 77.34375 150.855469 C 76.839844 151.195312 76.335938 151.363281 75.660156 151.363281 C 74.480469 151.363281 73.304688 150.855469 72.796875 149.847656 C 72.628906 149.679688 72.628906 149.339844 72.964844 149.171875 C 73.136719 149.003906 73.472656 149.003906 73.640625 149.339844 C 74.144531 150.015625 74.820312 150.519531 75.660156 150.351562 C 75.996094 150.351562 76.503906 150.183594 76.839844 150.015625 C 77.34375 149.679688 77.679688 149.171875 78.019531 148.667969 C 78.1875 148.5 78.523438 148.5 78.691406 148.667969 C 79.027344 148.835938 79.027344 149.171875 78.859375 149.339844 Z M 78.859375 149.339844 " fill-opacity="1" fill-rule="nonzero"/><path fill="#000000" d="M 67.410156 137.21875 C 69.429688 141.089844 71.449219 144.964844 73.472656 148.835938 C 73.808594 149.339844 72.796875 149.679688 72.628906 149.171875 C 70.609375 145.300781 68.589844 141.425781 66.566406 137.554688 C 66.230469 137.050781 67.074219 136.710938 67.410156 137.21875 Z M 67.410156 137.21875 " fill-opacity="1" fill-rule="nonzero"/><path fill="#000000" d="M 73.472656 149.507812 C 73.136719 150.855469 72.292969 151.867188 70.945312 152.203125 C 69.597656 152.539062 68.082031 152.203125 67.242188 151.195312 C 67.074219 151.023438 67.074219 150.6875 67.242188 150.519531 C 67.410156 150.351562 67.746094 150.351562 67.914062 150.519531 C 68.589844 151.195312 69.765625 151.699219 70.777344 151.363281 C 71.789062 151.023438 72.460938 150.351562 72.628906 149.339844 C 72.628906 148.835938 73.472656 148.835938 73.472656 149.507812 Z M 73.472656 149.507812 " fill-opacity="1" fill-rule="nonzero"/><path fill="#000000" d="M 62.191406 142.269531 C 64.042969 145.132812 65.894531 147.996094 67.914062 150.6875 C 68.25 151.195312 67.410156 151.699219 67.074219 151.195312 C 65.050781 148.5 63.199219 145.636719 61.347656 142.773438 C 61.179688 142.4375 61.851562 141.765625 62.191406 142.269531 Z M 62.191406 142.269531 " fill-opacity="1" fill-rule="nonzero"/><path fill="#000000" d="M 86.269531 157.425781 C 86.605469 156.917969 87.449219 157.59375 86.941406 158.097656 C 84.585938 161.296875 82.734375 164.832031 81.722656 168.539062 C 81.554688 169.042969 80.542969 169.042969 80.710938 168.371094 C 82.058594 164.496094 83.910156 160.792969 86.269531 157.425781 Z M 86.269531 157.425781 " fill-opacity="1" fill-rule="nonzero"/><path fill="#000000" d="M 69.597656 173.925781 C 69.765625 173.925781 70.105469 173.925781 70.273438 174.261719 C 70.273438 174.429688 70.441406 174.597656 70.609375 174.9375 C 70.609375 174.9375 70.609375 175.105469 70.609375 175.105469 C 70.609375 175.273438 70.777344 175.273438 70.777344 175.441406 C 70.945312 175.609375 71.113281 175.777344 71.113281 175.945312 C 71.113281 175.945312 71.113281 175.945312 71.28125 176.113281 C 71.28125 176.285156 71.449219 176.285156 71.449219 176.285156 C 71.621094 176.453125 71.621094 176.789062 71.449219 176.957031 C 71.28125 177.125 70.945312 177.125 70.777344 176.957031 C 70.105469 176.285156 69.429688 175.441406 69.09375 174.429688 C 69.09375 174.261719 69.261719 173.925781 69.597656 173.925781 Z M 69.597656 173.925781 " fill-opacity="1" fill-rule="nonzero"/><path fill="#fbb97f" d="M 104.792969 189.417969 C 104.792969 189.417969 100.414062 235.386719 100.414062 234.546875 C 100.414062 233.703125 90.140625 181.503906 90.140625 181.503906 L 69.429688 185.375 C 72.292969 210.128906 75.996094 234.714844 78.1875 259.46875 C 78.355469 262.160156 78.523438 264.6875 79.363281 267.382812 C 83.238281 279.335938 97.046875 287.25 109.171875 284.726562 C 122.136719 282.03125 124.15625 266.371094 126.34375 255.59375 C 130.21875 236.734375 135.101562 217.875 139.816406 199.183594 C 139.816406 199.015625 139.984375 198.679688 139.984375 198.511719 Z M 104.792969 189.417969 " fill-opacity="1" fill-rule="nonzero"/><path fill="#000000" d="M 111.191406 254.414062 C 110.011719 249.871094 108.328125 245.492188 105.96875 241.28125 C 105.464844 240.269531 103.949219 241.113281 104.457031 242.125 C 106.644531 246.164062 108.328125 250.375 109.507812 254.753906 C 109.84375 255.929688 111.527344 255.425781 111.191406 254.414062 Z M 111.191406 254.414062 " fill-opacity="1" fill-rule="nonzero"/><path fill="#3ca500" d="M 125.503906 291.628906 L 125.503906 309.816406 C 125.503906 309.816406 95.195312 409.5 96.203125 464.734375 C 97.214844 520.132812 75.996094 728.933594 75.996094 728.933594 L 111.527344 728.933594 L 173.15625 416.238281 L 182.753906 728.933594 L 220.304688 728.933594 L 250.617188 407.480469 C 250.617188 407.480469 257.351562 340.628906 224.683594 308.300781 L 224.011719 289.105469 C 224.011719 289.105469 171.640625 281.191406 125.503906 291.628906 Z M 125.503906 291.628906 " fill-opacity="1" fill-rule="nonzero"/><path fill="#000000" d="M 160.359375 122.566406 L 131.566406 137.890625 C 131.566406 137.890625 130.21875 154.898438 123.144531 169.042969 C 116.074219 183.1875 112.875 201.710938 121.800781 213.328125 L 125.335938 291.628906 C 125.335938 291.628906 164.738281 308.300781 223.84375 289.105469 L 223.84375 217.203125 C 223.84375 217.203125 204.308594 175.777344 233.777344 143.449219 L 195.722656 118.527344 L 160.359375 174.597656 Z M 160.359375 122.566406 " fill-opacity="1" fill-rule="nonzero"/><path fill="#fbb97f" d="M 233.945312 143.449219 C 233.945312 143.449219 248.933594 152.539062 252.46875 176.957031 C 256.003906 201.375 258.027344 210.632812 258.027344 210.632812 L 224.347656 218.378906 C 224.347656 218.378906 196.226562 170.390625 233.945312 143.449219 Z M 233.945312 143.449219 " fill-opacity="1" fill-rule="nonzero"/><path fill="#f2f2f2" d="M 166.085938 284.726562 L 103.949219 292.472656 C 101.253906 292.808594 98.898438 290.957031 98.5625 288.261719 L 87.449219 199.015625 C 87.109375 196.320312 88.964844 193.964844 91.65625 193.628906 L 153.792969 185.882812 C 156.488281 185.542969 158.84375 187.398438 159.179688 190.089844 L 170.296875 279.335938 C 170.632812 282.03125 168.78125 284.390625 166.085938 284.726562 Z M 166.085938 284.726562 " fill-opacity="1" fill-rule="nonzero"/><path fill="#000000" d="M 98.800781 192.117188 L 147.089844 186.078125 L 147.988281 193.265625 L 99.699219 199.304688 Z M 98.800781 192.117188 " fill-opacity="1" fill-rule="nonzero"/><path fill="#0965ac" d="M 138.132812 232.1875 C 136.113281 228.484375 131.902344 226.125 127.355469 226.632812 C 121.460938 227.304688 117.253906 232.695312 117.925781 238.753906 C 118.601562 244.648438 123.988281 248.859375 130.050781 248.183594 C 133.921875 247.679688 137.121094 245.15625 138.636719 241.785156 C 134.089844 240.777344 133.585938 233.703125 138.132812 232.1875 Z M 138.132812 232.1875 " fill-opacity="1" fill-rule="nonzero"/><path fill="#0965ac" d="M 127.691406 224.949219 C 127.691406 223.265625 128.703125 221.75 129.882812 220.738281 C 131.230469 219.726562 132.746094 219.222656 134.429688 218.886719 C 134.597656 220.066406 133.753906 221.917969 133.082031 222.757812 C 131.734375 224.441406 129.882812 224.949219 127.691406 224.949219 Z M 127.691406 224.949219 " fill-opacity="1" fill-rule="nonzero"/><path fill="#fbb97f" d="M 221.992188 209.457031 L 233.777344 254.078125 L 161.035156 274.960938 C 161.035156 274.960938 154.636719 273.949219 152.277344 271.761719 C 149.921875 269.570312 145.035156 269.570312 143.691406 269.234375 C 142.34375 269.066406 131.058594 267.71875 131.058594 267.71875 C 131.058594 267.71875 128.535156 269.066406 130.050781 270.917969 C 130.050781 270.917969 137.964844 274.453125 139.816406 274.960938 C 141.667969 275.464844 144.363281 278.160156 145.207031 280.179688 C 145.878906 282.199219 144.363281 284.726562 144.363281 284.726562 L 126.007812 289.273438 L 116.242188 290.957031 L 106.980469 290.789062 C 106.980469 290.789062 104.960938 291.628906 104.960938 293.3125 C 104.960938 294.828125 116.242188 295.839844 116.242188 295.839844 L 140.660156 298.195312 C 140.660156 298.195312 163.390625 292.808594 165.917969 291.964844 C 168.441406 291.292969 251.121094 282.199219 251.121094 282.199219 C 251.121094 282.199219 269.476562 278.832031 268.296875 262.160156 L 257.183594 204.234375 Z M 221.992188 209.457031 " fill-opacity="1" fill-rule="nonzero"/><path fill="#f2f2f2" d="M 107.484375 135.871094 L 61.011719 167.359375 C 60.675781 167.527344 60.167969 167.863281 59.832031 167.863281 L 53.097656 170.726562 C 52.421875 171.0625 51.917969 170.390625 52.421875 169.882812 L 57.644531 164.664062 C 57.8125 164.328125 58.148438 163.992188 58.484375 163.824219 L 104.960938 132.335938 C 106.308594 131.492188 107.824219 131.660156 108.496094 132.671875 C 108.832031 133.175781 108.832031 133.847656 108.664062 134.355469 C 108.664062 134.859375 108.160156 135.363281 107.484375 135.871094 Z M 107.484375 135.871094 " fill-opacity="1" fill-rule="nonzero"/><path fill="#000000" d="M 255.332031 257.277344 C 250.785156 255.089844 245.902344 253.40625 241.019531 252.226562 C 240.007812 251.890625 239.503906 253.574219 240.511719 253.910156 C 245.226562 255.089844 249.941406 256.773438 254.320312 258.792969 C 255.5 259.128906 256.339844 257.613281 255.332031 257.277344 Z M 255.332031 257.277344 " fill-opacity="1" fill-rule="nonzero"/><path fill="#000000" d="M 243.207031 353.597656 C 229.0625 348.039062 221.316406 333.726562 216.9375 320.085938 C 216.601562 319.078125 214.917969 319.414062 215.253906 320.59375 C 218.789062 332.042969 224.515625 343.324219 234.28125 350.734375 C 236.808594 352.585938 239.671875 354.269531 242.703125 355.449219 C 243.710938 355.617188 244.21875 353.933594 243.207031 353.597656 Z M 243.207031 353.597656 " fill-opacity="1" fill-rule="nonzero"/><path fill="#000000" d="M 132.746094 322.109375 C 131.566406 326.484375 129.714844 330.695312 127.1875 334.398438 C 126.007812 336.253906 124.492188 337.9375 122.976562 339.621094 C 121.460938 341.304688 119.441406 342.988281 117.085938 343.15625 C 116.074219 343.15625 116.074219 344.839844 117.085938 344.839844 C 119.441406 344.671875 121.460938 343.324219 123.144531 341.808594 C 125 340.125 126.515625 338.105469 128.03125 336.085938 C 130.890625 332.042969 133.082031 327.328125 134.429688 322.445312 C 134.597656 321.433594 133.082031 320.929688 132.746094 322.109375 Z M 132.746094 322.109375 " fill-opacity="1" fill-rule="nonzero"/></svg>