<svg xmlns="http://www.w3.org/2000/svg" xmlns:xlink="http://www.w3.org/1999/xlink" width="1910" zoomAndPan="magnify" viewBox="0 0 1432.5 1357.499964" height="1810" preserveAspectRatio="xMidYMid meet" version="1.0"><defs><clipPath id="08c7310fa1"><path d="M 83 26.058594 L 1335 26.058594 L 1335 1315 L 83 1315 Z M 83 26.058594 " clip-rule="nonzero"/></clipPath><clipPath id="3ea2fc5296"><path d="M 0.015625 67 L 1401.59375 67 L 1401.59375 1330.273438 L 0.015625 1330.273438 Z M 0.015625 67 " clip-rule="nonzero"/></clipPath><clipPath id="609300d7b5"><path d="M 105 547 L 1431.875 547 L 1431.875 1273 L 105 1273 Z M 105 547 " clip-rule="nonzero"/></clipPath></defs><g clip-path="url(#08c7310fa1)"><path fill="#3ca500" d="M 1141.136719 1170.253906 L 1163.84375 1271.847656 L 1068.074219 1271.847656 L 1059.40625 1233.050781 C 955.878906 1295.773438 814.070312 1327.714844 620.085938 1308.523438 C 303.09375 1277.160156 83.867188 1073.644531 83.867188 755.105469 C 83.867188 436.558594 368.171875 26.835938 686.707031 26.835938 C 1005.253906 26.835938 1334.292969 227.820312 1334.292969 546.355469 C 1334.292969 741.667969 1309.695312 1008.117188 1141.136719 1170.253906 " fill-opacity="1" fill-rule="nonzero"/></g><g clip-path="url(#3ea2fc5296)"><path fill="#000000" d="M 236.554688 675.414062 C 236.609375 676.890625 236.714844 678.375 236.910156 679.839844 C 237.613281 686.191406 239.597656 692.371094 242.453125 698.097656 C 244.449219 702.0625 246.9375 705.773438 249.808594 709.199219 C 250.960938 705.441406 252.125 701.730469 253.230469 698.109375 C 245.808594 692.171875 240.070312 684.230469 236.554688 675.414062 Z M 413.859375 733.507812 C 413.492188 735.671875 413.019531 737.839844 412.476562 739.984375 C 414.4375 736.804688 416.050781 733.402344 417.238281 729.851562 C 421.46875 717.023438 421.167969 703.167969 420.832031 689.488281 C 420.625 675.738281 420.707031 661.953125 421.386719 648.203125 C 421.835938 638.554688 422.5625 628.917969 423.519531 619.304688 C 422.644531 619.15625 421.765625 618.992188 420.890625 618.796875 C 412.730469 636.316406 412.417969 656.394531 413.550781 675.679688 C 414.679688 694.972656 417.085938 714.453125 413.859375 733.507812 Z M 425.203125 619.59375 C 424.789062 626.519531 424.453125 633.449219 424.175781 640.375 C 424.765625 633.425781 425.570312 626.519531 426.621094 619.742188 C 426.148438 619.683594 425.675781 619.664062 425.203125 619.59375 Z M 538.433594 490.039062 C 534.953125 495.410156 531.726562 501.023438 529.203125 506.867188 C 555.066406 506.246094 586.742188 513.519531 625.308594 531.292969 C 624.753906 524.546875 624.742188 517.738281 624.753906 510.972656 C 624.765625 506.1875 624.605469 501.082031 623.730469 496.285156 C 622.402344 495.539062 621.054688 494.847656 619.660156 494.304688 C 617.652344 493.542969 615.601562 492.933594 613.492188 492.597656 C 611.394531 492.21875 609.25 492.101562 607.109375 492.148438 C 604.953125 492.21875 602.796875 492.550781 600.628906 493.035156 C 600.320312 493.117188 600.019531 492.921875 599.9375 492.621094 C 599.890625 492.367188 600.007812 492.125 600.203125 492 C 602.222656 490.789062 604.515625 490.050781 606.855469 489.671875 C 609.207031 489.265625 611.625 489.324219 613.976562 489.683594 C 616.328125 490.085938 618.644531 490.800781 620.742188 491.929688 C 621.574219 492.367188 622.34375 492.886719 623.105469 493.429688 C 622.460938 490.960938 621.585938 488.632812 620.386719 486.511719 C 619.949219 486.410156 619.5 486.304688 619.058594 486.222656 C 617.664062 485.980469 616.28125 485.761719 614.886719 485.683594 C 613.492188 485.566406 612.097656 485.589844 610.679688 485.636719 C 609.261719 485.695312 607.84375 485.878906 606.359375 486.0625 C 606.046875 486.097656 605.746094 485.878906 605.714844 485.566406 C 605.679688 485.335938 605.792969 485.128906 605.957031 485.003906 C 607.269531 484.113281 608.769531 483.539062 610.324219 483.167969 C 611.867188 482.777344 613.480469 482.675781 615.074219 482.742188 C 616.097656 482.8125 617.113281 482.996094 618.105469 483.238281 C 617.421875 482.445312 616.664062 481.695312 615.832031 481.003906 C 613.769531 480.75 611.71875 480.691406 609.710938 480.957031 C 607.59375 481.246094 605.515625 481.753906 603.558594 482.570312 C 601.574219 483.355469 599.730469 484.4375 598.003906 485.707031 C 596.285156 486.996094 594.761719 488.550781 593.402344 490.316406 C 593.207031 490.570312 592.851562 490.617188 592.597656 490.429688 C 592.402344 490.28125 592.332031 490.003906 592.410156 489.773438 C 594.058594 485.265625 597.980469 481.707031 602.429688 479.851562 C 604.6875 478.929688 607.097656 478.363281 609.527344 478.351562 C 610.152344 478.339844 610.761719 478.363281 611.371094 478.410156 C 601.980469 475.019531 588.5625 480.691406 585.886719 490.304688 C 585.105469 481.773438 578.328125 474.421875 570.199219 472.070312 C 570.871094 472.601562 571.550781 473.117188 572.171875 473.71875 C 573.980469 475.515625 575.550781 477.554688 576.703125 479.816406 C 577.867188 482.074219 578.683594 484.507812 578.9375 486.996094 C 578.960938 487.308594 578.742188 487.585938 578.417969 487.617188 C 578.164062 487.640625 577.933594 487.492188 577.84375 487.273438 C 576.921875 485.070312 575.847656 482.996094 574.558594 481.082031 C 573.242188 479.191406 571.792969 477.40625 570.121094 475.828125 C 568.484375 474.238281 566.652344 472.855469 564.703125 471.621094 C 564.519531 471.503906 564.324219 471.414062 564.136719 471.308594 C 563.851562 471.320312 563.5625 471.308594 563.273438 471.332031 C 560.75 471.539062 558.363281 472.195312 556.105469 473.1875 C 557.707031 473.328125 559.296875 473.636719 560.832031 474.109375 C 565.742188 475.675781 570.234375 479.066406 572.496094 483.652344 C 572.632812 483.929688 572.519531 484.277344 572.242188 484.414062 C 572.011719 484.53125 571.734375 484.460938 571.5625 484.289062 C 569.9375 482.523438 568.160156 481.003906 566.203125 479.78125 C 564.230469 478.570312 562.144531 477.578125 559.941406 476.921875 C 557.765625 476.230469 555.480469 475.863281 553.1875 475.746094 C 552.613281 475.722656 552.046875 475.78125 551.472656 475.804688 C 549.996094 476.820312 548.578125 477.960938 547.242188 479.214844 C 548.046875 479.148438 548.855469 479.125 549.648438 479.136719 C 551.195312 479.203125 552.738281 479.378906 554.214844 479.792969 C 555.703125 480.171875 557.152344 480.703125 558.492188 481.5 C 558.753906 481.660156 558.847656 482.015625 558.6875 482.292969 C 558.570312 482.488281 558.363281 482.582031 558.144531 482.570312 L 553.824219 482.246094 C 552.394531 482.179688 551 482.085938 549.59375 482.085938 C 548.1875 482.050781 546.78125 482.097656 545.363281 482.121094 L 544.371094 482.167969 C 542.167969 484.632812 540.1875 487.320312 538.433594 490.039062 Z M 232.820312 659.898438 C 231.550781 645.113281 236.589844 629.886719 246.429688 618.773438 C 256.746094 607.132812 272.167969 599.5625 278.449219 585.324219 C 285.492188 569.351562 278.542969 551.117188 276.480469 533.78125 C 275.949219 529.355469 275.800781 524.894531 275.972656 520.457031 C 275.398438 523.351562 275.003906 526.277344 274.84375 529.238281 C 274.011719 540.222656 275.375 551.507812 273.691406 562.863281 C 272.828125 568.496094 271.179688 574.066406 268.410156 579.113281 C 265.621094 584.117188 261.566406 588.554688 256.4375 591.167969 C 256.160156 591.320312 255.8125 591.203125 255.675781 590.929688 C 255.539062 590.664062 255.640625 590.328125 255.894531 590.179688 C 260.65625 587.421875 264.25 583.054688 266.648438 578.179688 C 269.113281 573.316406 270.554688 567.945312 271.222656 562.515625 C 272.5625 551.601562 271.222656 540.398438 271.902344 529.042969 C 272.410156 520.988281 274.441406 512.988281 277.863281 505.65625 C 283.152344 480.496094 299.003906 457.433594 321.398438 444.648438 C 345.417969 430.933594 376.148438 426.472656 394.382812 405.667969 C 419.921875 376.53125 459.90625 360.714844 498.472656 364.484375 C 521.320312 366.722656 543.289062 375.839844 561.464844 389.832031 C 597.082031 368.058594 645.203125 394.511719 667.078125 420.316406 C 690.648438 448.105469 695.226562 490.5 678.121094 522.667969 C 673.152344 532.039062 666.410156 540.902344 664.910156 551.40625 C 663.402344 561.90625 670.824219 572.75 681.429688 572.542969 C 672.992188 581.117188 658.457031 581.589844 648.027344 575.609375 C 643.679688 573.121094 640.027344 569.683594 636.972656 565.730469 C 636.015625 609.21875 637.847656 691.746094 662.8125 732.167969 C 697.644531 788.566406 659.460938 870.667969 659.460938 870.667969 C 659.460938 870.667969 474.429688 867.648438 444.140625 800.578125 C 435.726562 781.9375 426.792969 743.222656 423.886719 699.851562 C 423.863281 710.210938 423.195312 720.6875 419.703125 730.707031 C 417.640625 736.457031 414.539062 741.828125 410.539062 746.449219 C 405.628906 760.730469 396.617188 773.605469 383.246094 780.164062 C 369.253906 787.023438 352.726562 786.054688 337.417969 783.148438 C 322.125 780.246094 306.933594 776.84375 291.417969 775.378906 C 274.84375 773.8125 262.09375 773.699219 244.992188 782.136719 C 240.738281 773.90625 239.828125 763.945312 241.128906 747.578125 C 242.085938 735.605469 245.566406 723.074219 249.230469 711.066406 C 245.707031 707.605469 242.683594 703.605469 240.265625 699.261719 C 236.980469 693.40625 234.882812 686.882812 233.984375 680.199219 C 233.5 675.945312 233.566406 671.644531 234.074219 667.414062 C 233.5 664.9375 233.039062 662.4375 232.820312 659.898438 Z M 1209.914062 256.058594 L 1209.914062 264.910156 L 1246.773438 264.910156 L 1246.773438 256.058594 Z M 1209.914062 331.601562 L 1259.085938 331.601562 L 1259.085938 322.75 L 1209.914062 322.75 Z M 1247.558594 321.042969 L 1283.035156 321.042969 L 1283.035156 312.191406 L 1247.558594 312.191406 Z M 1209.914062 321.042969 L 1246.773438 321.042969 L 1246.773438 312.191406 L 1209.914062 312.191406 Z M 1209.914062 310.496094 L 1276.316406 310.496094 L 1276.316406 301.644531 L 1209.914062 301.644531 Z M 1209.914062 296.574219 L 1259.085938 296.574219 L 1259.085938 287.722656 L 1209.914062 287.722656 Z M 1291.09375 277.175781 L 1247.558594 277.175781 L 1247.558594 286.027344 L 1291.09375 286.027344 Z M 1209.914062 286.027344 L 1246.773438 286.027344 L 1246.773438 277.175781 L 1209.914062 277.175781 Z M 1209.914062 275.46875 L 1276.316406 275.46875 L 1276.316406 266.617188 L 1209.914062 266.617188 Z M 1115.273438 249.535156 L 1188.394531 249.535156 L 1188.394531 240.683594 L 1115.273438 240.683594 Z M 1181.675781 162.777344 L 1115.273438 162.777344 L 1115.273438 171.628906 L 1181.675781 171.628906 Z M 1115.273438 239.34375 L 1164.445312 239.34375 L 1164.445312 230.492188 L 1115.273438 230.492188 Z M 1188.394531 219.933594 L 1152.90625 219.933594 L 1152.90625 228.789062 L 1188.394531 228.789062 Z M 1115.273438 228.789062 L 1152.121094 228.789062 L 1152.121094 219.933594 L 1115.273438 219.933594 Z M 1115.273438 218.230469 L 1181.675781 218.230469 L 1181.675781 209.378906 L 1115.273438 209.378906 Z M 1115.273438 204.316406 L 1164.445312 204.316406 L 1164.445312 195.464844 L 1115.273438 195.464844 Z M 1196.453125 184.90625 L 1152.90625 184.90625 L 1152.90625 193.757812 L 1196.453125 193.757812 Z M 1115.273438 193.757812 L 1152.121094 193.757812 L 1152.121094 184.90625 L 1115.273438 184.90625 Z M 1115.273438 183.214844 L 1181.675781 183.214844 L 1181.675781 174.359375 L 1115.273438 174.359375 Z M 1278.320312 150.097656 L 1211.917969 150.097656 L 1211.917969 158.949219 L 1278.320312 158.949219 Z M 1261.089844 139.632812 L 1211.917969 139.632812 L 1211.917969 148.484375 L 1261.089844 148.484375 Z M 1249.550781 137.925781 L 1285.042969 137.925781 L 1285.042969 129.074219 L 1249.550781 129.074219 Z M 1248.78125 129.074219 L 1211.917969 129.074219 L 1211.917969 137.925781 L 1248.78125 137.925781 Z M 1278.320312 118.527344 L 1211.917969 118.527344 L 1211.917969 127.378906 L 1278.320312 127.378906 Z M 1261.089844 104.605469 L 1211.917969 104.605469 L 1211.917969 113.457031 L 1261.089844 113.457031 Z M 1249.550781 102.898438 L 1293.097656 102.898438 L 1293.097656 94.046875 L 1249.550781 94.046875 Z M 1248.78125 94.046875 L 1211.917969 94.046875 L 1211.917969 102.898438 L 1248.78125 102.898438 Z M 1278.320312 83.5 L 1211.917969 83.5 L 1211.917969 92.351562 L 1278.320312 92.351562 Z M 1287.726562 171.628906 L 1217.289062 171.628906 L 1217.289062 242.066406 L 1287.726562 242.066406 Z M 1296.578125 250.917969 L 1208.4375 250.917969 L 1208.4375 162.777344 L 1296.578125 162.777344 Z M 1193.074219 264.910156 L 1122.648438 264.910156 L 1122.648438 321.355469 L 1193.074219 321.355469 Z M 1201.925781 330.207031 L 1113.796875 330.207031 L 1113.796875 256.058594 L 1201.925781 256.058594 Z M 1193.074219 92.351562 L 1122.648438 92.351562 L 1122.648438 150.097656 L 1193.074219 150.097656 Z M 1201.925781 158.949219 L 1113.796875 158.949219 L 1113.796875 83.5 L 1201.925781 83.5 Z M 1268.480469 591.214844 L 1219.308594 591.214844 L 1219.308594 600.066406 L 1268.480469 600.066406 Z M 1300.488281 580.65625 L 1256.941406 580.65625 L 1256.941406 589.511719 L 1300.488281 589.511719 Z M 1219.308594 589.511719 L 1256.15625 589.511719 L 1256.15625 580.65625 L 1219.308594 580.65625 Z M 1285.710938 570.113281 L 1219.308594 570.113281 L 1219.308594 578.964844 L 1285.710938 578.964844 Z M 1219.308594 537.480469 L 1268.480469 537.480469 L 1268.480469 528.628906 L 1219.308594 528.628906 Z M 1300.488281 518.070312 L 1256.941406 518.070312 L 1256.941406 526.921875 L 1300.488281 526.921875 Z M 1219.308594 526.921875 L 1256.15625 526.921875 L 1256.15625 518.070312 L 1219.308594 518.070312 Z M 1285.710938 507.511719 L 1219.308594 507.511719 L 1219.308594 516.363281 L 1285.710938 516.363281 Z M 1219.308594 474.882812 L 1268.480469 474.882812 L 1268.480469 466.03125 L 1219.308594 466.03125 Z M 1300.488281 455.484375 L 1256.941406 455.484375 L 1256.941406 464.335938 L 1300.488281 464.335938 Z M 1219.308594 464.335938 L 1256.15625 464.335938 L 1256.15625 455.484375 L 1219.308594 455.484375 Z M 1285.710938 444.925781 L 1219.308594 444.925781 L 1219.308594 453.777344 L 1285.710938 453.777344 Z M 1163.71875 601.773438 L 1197.074219 601.773438 L 1197.074219 568.40625 L 1163.71875 568.40625 Z M 1154.867188 559.554688 L 1205.925781 559.554688 L 1205.925781 610.625 L 1154.867188 610.625 Z M 1197.074219 505.820312 L 1163.71875 505.820312 L 1163.71875 539.175781 L 1197.074219 539.175781 Z M 1205.925781 548.027344 L 1154.867188 548.027344 L 1154.867188 496.964844 L 1205.925781 496.964844 Z M 1197.074219 443.230469 L 1163.71875 443.230469 L 1163.71875 476.589844 L 1197.074219 476.589844 Z M 1205.925781 485.441406 L 1154.867188 485.441406 L 1154.867188 434.378906 L 1205.925781 434.378906 Z M 1107.976562 591.214844 L 1058.816406 591.214844 L 1058.816406 600.066406 L 1107.976562 600.066406 Z M 1096.449219 589.511719 L 1139.996094 589.511719 L 1139.996094 580.65625 L 1096.449219 580.65625 Z M 1095.667969 580.65625 L 1058.816406 580.65625 L 1058.816406 589.511719 L 1095.667969 589.511719 Z M 1125.21875 570.113281 L 1058.816406 570.113281 L 1058.816406 578.964844 L 1125.21875 578.964844 Z M 1107.976562 466.03125 L 1058.816406 466.03125 L 1058.816406 474.882812 L 1107.976562 474.882812 Z M 1096.449219 464.335938 L 1139.996094 464.335938 L 1139.996094 455.484375 L 1096.449219 455.484375 Z M 1095.667969 455.484375 L 1058.816406 455.484375 L 1058.816406 464.335938 L 1095.667969 464.335938 Z M 1125.21875 444.925781 L 1058.816406 444.925781 L 1058.816406 453.777344 L 1125.21875 453.777344 Z M 1003.226562 601.773438 L 1036.582031 601.773438 L 1036.582031 568.40625 L 1003.226562 568.40625 Z M 994.375 559.554688 L 1045.4375 559.554688 L 1045.4375 610.625 L 994.375 610.625 Z M 1036.582031 443.230469 L 1003.226562 443.230469 L 1003.226562 476.589844 L 1036.582031 476.589844 Z M 1045.4375 485.441406 L 994.375 485.441406 L 994.375 434.378906 L 1045.4375 434.378906 Z M 1029.609375 67.582031 L 810.867188 67.582031 L 810.867188 346.125 L 1029.609375 346.125 Z M 1401.59375 1288.640625 C 1401.59375 1311.636719 1087.839844 1330.273438 700.804688 1330.273438 C 313.765625 1330.273438 0.015625 1311.636719 0.015625 1288.640625 C 0.015625 1268.492188 240.761719 1251.6875 560.613281 1247.828125 L 488.03125 1067.464844 C 486.507812 1063.625 488.386719 1059.28125 492.226562 1057.761719 C 496.066406 1056.238281 500.410156 1058.117188 501.933594 1061.957031 L 576.65625 1247.640625 C 616.953125 1247.214844 658.433594 1246.996094 700.804688 1246.996094 C 833.710938 1246.996094 957.976562 1249.199219 1063.867188 1253.011719 L 1068.074219 1271.847656 L 1163.84375 1271.847656 L 1160.570312 1257.207031 C 1308.230469 1264.839844 1401.59375 1276.089844 1401.59375 1288.640625 " fill-opacity="1" fill-rule="nonzero"/></g><path fill="#ffffff" d="M 839.992188 318.578125 L 953.089844 318.578125 L 953.089844 315.625 L 839.992188 315.625 Z M 1000.484375 297.632812 L 839.992188 297.632812 L 839.992188 300.582031 L 1000.484375 300.582031 Z M 1000.484375 279.628906 L 839.992188 279.628906 L 839.992188 282.578125 L 1000.484375 282.578125 Z M 1000.484375 261.636719 L 839.992188 261.636719 L 839.992188 264.585938 L 1000.484375 264.585938 Z M 1000.484375 243.632812 L 839.992188 243.632812 L 839.992188 246.582031 L 1000.484375 246.582031 Z M 1000.484375 225.628906 L 839.992188 225.628906 L 839.992188 228.578125 L 1000.484375 228.578125 Z M 999.007812 103.671875 L 841.46875 103.671875 L 841.46875 205.378906 L 999.007812 205.378906 Z M 1001.960938 208.328125 L 838.519531 208.328125 L 838.519531 100.71875 L 1001.960938 100.71875 Z M 1039.535156 440.28125 L 1000.277344 440.28125 L 1000.277344 479.539062 L 1039.535156 479.539062 Z M 875.125 512.988281 L 873.039062 510.902344 L 852.972656 530.96875 L 845.792969 523.777344 L 843.707031 525.863281 L 852.972656 535.140625 Z M 879.042969 542.125 L 839.785156 542.125 L 839.785156 502.867188 L 879.042969 502.867188 Z M 1297.535156 458.433594 L 1259.890625 458.433594 L 1259.890625 461.386719 L 1297.535156 461.386719 Z M 1297.535156 521.023438 L 1259.890625 521.023438 L 1259.890625 523.972656 L 1297.535156 523.972656 Z M 1297.535156 583.609375 L 1259.890625 583.609375 L 1259.890625 586.558594 L 1297.535156 586.558594 Z M 1265.527344 594.167969 L 1222.257812 594.167969 L 1222.257812 597.117188 L 1265.527344 597.117188 Z M 1202.976562 437.332031 L 1157.816406 437.332031 L 1157.816406 482.488281 L 1202.976562 482.488281 Z M 1202.976562 499.917969 L 1157.816406 499.917969 L 1157.816406 545.078125 L 1202.976562 545.078125 Z M 1202.976562 562.503906 L 1157.816406 562.503906 L 1157.816406 607.675781 L 1202.976562 607.675781 Z M 1137.046875 458.433594 L 1099.402344 458.433594 L 1099.402344 461.386719 L 1137.046875 461.386719 Z M 1137.046875 521.023438 L 1099.402344 521.023438 L 1099.402344 523.972656 L 1137.046875 523.972656 Z M 1137.046875 583.609375 L 1099.402344 583.609375 L 1099.402344 586.558594 L 1137.046875 586.558594 Z M 1105.027344 594.167969 L 1061.769531 594.167969 L 1061.769531 597.117188 L 1105.027344 597.117188 Z M 1042.484375 437.332031 L 997.324219 437.332031 L 997.324219 482.488281 L 1042.484375 482.488281 Z M 1042.484375 499.917969 L 997.324219 499.917969 L 997.324219 545.078125 L 1042.484375 545.078125 Z M 1042.484375 562.503906 L 997.324219 562.503906 L 997.324219 607.675781 L 1042.484375 607.675781 Z M 976.542969 458.433594 L 938.910156 458.433594 L 938.910156 461.386719 L 976.542969 461.386719 Z M 976.542969 521.023438 L 938.910156 521.023438 L 938.910156 523.972656 L 976.542969 523.972656 Z M 976.542969 583.609375 L 938.910156 583.609375 L 938.910156 586.558594 L 976.542969 586.558594 Z M 944.535156 594.167969 L 901.265625 594.167969 L 901.265625 597.117188 L 944.535156 597.117188 Z M 881.996094 437.332031 L 836.835938 437.332031 L 836.835938 482.488281 L 881.996094 482.488281 Z M 881.996094 499.917969 L 836.835938 499.917969 L 836.835938 545.078125 L 881.996094 545.078125 Z M 881.996094 562.503906 L 836.835938 562.503906 L 836.835938 607.675781 L 881.996094 607.675781 Z M 901.265625 586.558594 L 932.226562 586.558594 L 932.226562 583.609375 L 901.265625 583.609375 Z M 901.265625 576.011719 L 961.777344 576.011719 L 961.777344 573.0625 L 901.265625 573.0625 Z M 901.265625 534.53125 L 944.535156 534.53125 L 944.535156 531.578125 L 901.265625 531.578125 Z M 901.265625 523.972656 L 932.226562 523.972656 L 932.226562 521.023438 L 901.265625 521.023438 Z M 901.265625 513.414062 L 961.777344 513.414062 L 961.777344 510.464844 L 901.265625 510.464844 Z M 901.265625 471.933594 L 944.535156 471.933594 L 944.535156 468.980469 L 901.265625 468.980469 Z M 901.265625 461.386719 L 932.226562 461.386719 L 932.226562 458.433594 L 901.265625 458.433594 Z M 901.265625 450.828125 L 961.777344 450.828125 L 961.777344 447.875 L 901.265625 447.875 Z M 1061.769531 586.558594 L 1092.714844 586.558594 L 1092.714844 583.609375 L 1061.769531 583.609375 Z M 1061.769531 576.011719 L 1122.269531 576.011719 L 1122.269531 573.0625 L 1061.769531 573.0625 Z M 1061.769531 534.53125 L 1105.027344 534.53125 L 1105.027344 531.578125 L 1061.769531 531.578125 Z M 1061.769531 523.972656 L 1092.714844 523.972656 L 1092.714844 521.023438 L 1061.769531 521.023438 Z M 1061.769531 513.414062 L 1122.269531 513.414062 L 1122.269531 510.464844 L 1061.769531 510.464844 Z M 1061.769531 471.933594 L 1105.027344 471.933594 L 1105.027344 468.980469 L 1061.769531 468.980469 Z M 1061.769531 461.386719 L 1092.714844 461.386719 L 1092.714844 458.433594 L 1061.769531 458.433594 Z M 1061.769531 450.828125 L 1122.269531 450.828125 L 1122.269531 447.875 L 1061.769531 447.875 Z M 1222.257812 586.558594 L 1253.207031 586.558594 L 1253.207031 583.609375 L 1222.257812 583.609375 Z M 1222.257812 576.011719 L 1282.757812 576.011719 L 1282.757812 573.0625 L 1222.257812 573.0625 Z M 1222.257812 534.53125 L 1265.527344 534.53125 L 1265.527344 531.578125 L 1222.257812 531.578125 Z M 1222.257812 523.972656 L 1253.207031 523.972656 L 1253.207031 521.023438 L 1222.257812 521.023438 Z M 1222.257812 513.414062 L 1282.757812 513.414062 L 1282.757812 510.464844 L 1222.257812 510.464844 Z M 1222.257812 471.933594 L 1265.527344 471.933594 L 1265.527344 468.980469 L 1222.257812 468.980469 Z M 1222.257812 461.386719 L 1253.207031 461.386719 L 1253.207031 458.433594 L 1222.257812 458.433594 Z M 1222.257812 450.828125 L 1282.757812 450.828125 L 1282.757812 447.875 L 1222.257812 447.875 Z M 1324.96875 636.132812 L 810.867188 636.132812 L 810.867188 400.550781 L 1324.96875 400.550781 Z M 875.125 575.574219 L 873.039062 573.488281 L 852.972656 593.554688 L 845.792969 586.375 L 843.707031 588.460938 L 852.972656 597.726562 Z M 879.042969 604.722656 L 839.785156 604.722656 L 839.785156 565.453125 L 879.042969 565.453125 Z M 1039.535156 565.453125 L 1000.277344 565.453125 L 1000.277344 604.722656 L 1039.535156 604.722656 Z M 1035.617188 512.988281 L 1033.53125 510.902344 L 1013.460938 530.96875 L 1006.28125 523.777344 L 1004.195312 525.863281 L 1013.460938 535.140625 Z M 1039.535156 542.125 L 1000.277344 542.125 L 1000.277344 502.867188 L 1039.535156 502.867188 Z M 1200.023438 565.453125 L 1160.765625 565.453125 L 1160.765625 604.722656 L 1200.023438 604.722656 Z M 1200.023438 502.867188 L 1160.765625 502.867188 L 1160.765625 542.125 L 1200.023438 542.125 Z M 1200.023438 440.28125 L 1160.765625 440.28125 L 1160.765625 479.539062 L 1200.023438 479.539062 Z M 875.125 450.402344 L 873.039062 448.316406 L 852.972656 468.371094 L 845.792969 461.1875 L 843.707031 463.277344 L 852.972656 472.542969 Z M 879.042969 479.539062 L 839.785156 479.539062 L 839.785156 440.28125 L 879.042969 440.28125 Z M 1413.558594 683.472656 C 1413.339844 683.308594 1413.121094 683.160156 1412.890625 683.011719 L 1412.890625 683 C 1410.816406 681.570312 1408.289062 680.703125 1405.535156 680.703125 L 787.90625 680.703125 C 781.613281 680.703125 776.230469 685.199219 775.113281 691.390625 L 691.15625 1158.511719 C 690.210938 1163.789062 692.585938 1168.769531 696.65625 1171.546875 L 709.078125 1180.316406 L 718.667969 1173.804688 L 1046.164062 1173.804688 L 1025.738281 1082.390625 L 1121.496094 1082.390625 L 1141.921875 1173.804688 L 1321.578125 1173.804688 C 1327.859375 1173.804688 1333.253906 1169.296875 1334.363281 1163.109375 L 1417.890625 698.386719 L 1426.421875 692.578125 Z M 570.433594 1071.015625 C 571.503906 1071.015625 572.519531 1070.542969 573.199219 1069.734375 C 574.660156 1068.019531 576 1066.058594 577.394531 1063.582031 C 578.488281 1061.65625 579.503906 1059.464844 580.484375 1056.859375 C 581.4375 1054.210938 582.074219 1051.960938 582.488281 1049.808594 C 583.042969 1047.0625 583.316406 1044.644531 583.328125 1042.394531 C 583.339844 1040.863281 582.371094 1039.503906 580.898438 1039.019531 L 580.273438 1038.855469 L 579.8125 1038.855469 C 578.28125 1038.855469 576.933594 1039.835938 576.460938 1041.289062 L 574.40625 1047.605469 L 573.957031 1048.886719 C 573.394531 1050.523438 572.828125 1052.148438 572.183594 1053.796875 C 571.5625 1055.453125 570.894531 1057.089844 570.210938 1058.726562 L 569.773438 1059.800781 L 567.101562 1065.976562 C 566.476562 1067.453125 566.882812 1069.136719 568.101562 1070.164062 C 568.761719 1070.714844 569.578125 1071.015625 570.433594 1071.015625 Z M 519.957031 1106.746094 L 521.066406 1105.144531 C 525.835938 1098.21875 530.160156 1091.199219 533.894531 1084.28125 C 539.679688 1073.609375 544.820312 1061.96875 549.199219 1049.667969 C 553.476562 1037.242188 556.726562 1024.933594 558.835938 1013.097656 C 561.082031 1000.71875 562.292969 988.050781 562.445312 975.476562 C 562.457031 973.597656 561.015625 972.050781 558.929688 971.925781 C 557.074219 971.925781 555.539062 973.367188 555.425781 975.210938 C 554.664062 987.21875 553.039062 999.4375 550.59375 1011.515625 C 548.046875 1023.964844 544.773438 1035.8125 540.84375 1046.765625 C 537.003906 1057.839844 532.140625 1069.125 526.367188 1080.304688 C 523.382812 1086.058594 520.039062 1091.96875 516.386719 1097.882812 L 517.757812 1101.28125 C 518.023438 1101.882812 518.632812 1103.472656 518.632812 1103.472656 C 519.496094 1105.421875 519.957031 1106.746094 519.957031 1106.746094 Z M 304.707031 996.082031 C 304.15625 995.75 303.53125 995.578125 302.886719 995.578125 C 301.664062 995.578125 300.511719 996.222656 299.878906 997.269531 C 297.988281 1000.40625 296.269531 1003.574219 294.265625 1007.34375 C 293.101562 1009.535156 292.007812 1011.746094 290.898438 1013.972656 C 290.3125 1015.160156 289.722656 1016.347656 289.078125 1017.613281 L 287.578125 1020.820312 C 286.460938 1023.191406 285.34375 1025.566406 284.285156 1027.976562 C 282.820312 1031.332031 281.261719 1034.902344 279.867188 1038.636719 C 279.269531 1040.273438 279.914062 1042.117188 281.402344 1043.007812 C 281.964844 1043.339844 282.613281 1043.523438 283.269531 1043.523438 C 284.535156 1043.523438 285.722656 1042.84375 286.371094 1041.773438 C 288.433594 1038.328125 290.335938 1034.753906 291.960938 1031.652344 C 293.160156 1029.335938 294.324219 1026.984375 295.476562 1024.644531 L 297.089844 1021.359375 C 297.640625 1020.148438 298.207031 1018.929688 298.773438 1017.71875 C 299.808594 1015.480469 300.847656 1013.246094 301.824219 1010.988281 C 303.53125 1007.066406 304.925781 1003.75 306.195312 1000.3125 C 306.769531 998.734375 306.148438 996.949219 304.707031 996.082031 Z M 315.667969 812.21875 C 309.503906 805.949219 302.496094 801.050781 294.828125 797.660156 L 294.035156 797.371094 L 293.410156 797.371094 C 292.074219 797.371094 290.832031 798.144531 290.253906 799.34375 C 289.839844 800.183594 289.78125 801.140625 290.09375 802.027344 C 290.402344 802.917969 291.039062 803.632812 291.878906 804.046875 C 304.695312 810.257812 315.644531 821.832031 322.699219 836.609375 C 329.246094 850.371094 332.496094 865.871094 332.082031 881.492188 C 331.804688 895.332031 329.015625 910.410156 323.554688 927.582031 C 318.769531 942.589844 312.535156 957.503906 306.515625 971.9375 L 306.355469 972.316406 C 305.605469 974.113281 306.414062 976.167969 308.1875 976.984375 L 309.054688 977.320312 L 309.699219 977.320312 C 311.105469 977.320312 312.382812 976.5 312.984375 975.222656 C 319.566406 961.03125 326.421875 945.863281 331.644531 930.222656 C 337.488281 912.796875 340.519531 896.914062 340.921875 881.664062 C 341.210938 864.351562 337.523438 847.488281 330.226562 832.917969 C 326.25 825.011719 321.351562 818.050781 315.667969 812.21875 Z M 509.90625 939.15625 L 510.367188 939.144531 L 510.597656 939.109375 C 512.144531 938.855469 513.457031 937.808594 514.023438 936.34375 C 514.367188 935.46875 548.082031 848.078125 537.960938 763.878906 L 534.964844 763.683594 L 529.0625 763.417969 L 529.03125 763.714844 L 529.085938 764.121094 C 537.546875 832.46875 516.109375 903.285156 508.363281 925.914062 L 386.589844 778.332031 C 385.507812 778.976562 384.386719 779.597656 383.246094 780.164062 C 381.632812 780.949219 379.984375 781.628906 378.3125 782.214844 L 506.496094 937.554688 C 507.335938 938.566406 508.582031 939.15625 509.90625 939.15625 Z M 652.082031 1250.890625 L 821.355469 1314.066406 L 526.171875 1314.066406 L 449.742188 1259.238281 C 453.636719 1259.433594 457.753906 1259.386719 462.109375 1258.9375 C 488.167969 1256.242188 494.613281 1252 495.902344 1250.890625 L 497.285156 1250.890625 L 520.671875 1256.910156 C 526.136719 1258.316406 531.832031 1255.800781 534.527344 1250.890625 L 561.84375 1250.890625 L 564.644531 1257.832031 C 565.039062 1258.8125 565.671875 1259.675781 566.488281 1260.332031 L 575.191406 1267.351562 C 576.011719 1268.007812 577.230469 1267.523438 577.382812 1266.488281 L 578.914062 1255.398438 C 579.054688 1254.363281 578.925781 1253.300781 578.546875 1252.320312 L 577.957031 1250.890625 L 652.082031 1250.890625 " fill-opacity="1" fill-rule="nonzero"/><path fill="#fbb97f" d="M 688.492188 856.710938 C 675.066406 840.214844 666.238281 818.878906 655.414062 799.285156 C 663.089844 787.980469 665.304688 773.433594 673.5 762.414062 C 682.824219 749.894531 698.808594 743.535156 707.660156 730.671875 C 714.679688 720.46875 716.273438 707.308594 714.601562 695.03125 C 714.023438 690.871094 713.089844 686.777344 711.960938 682.746094 C 712.976562 679.035156 712.351562 674.285156 710.441406 671.160156 C 709.714844 671.265625 708.988281 671.378906 708.261719 671.496094 C 706.980469 667.992188 705.609375 664.511719 704.214844 661.054688 C 704.78125 660.546875 705.21875 660.003906 705.484375 659.417969 C 707.304688 655.21875 705.367188 648.546875 701.148438 646.773438 C 697.578125 645.273438 693.980469 643.855469 690.351562 642.507812 C 700.214844 643.636719 705.320312 632.605469 698.324219 624.410156 C 690.269531 614.960938 675.675781 607.339844 665.855469 599.582031 C 663.597656 597.785156 661.269531 595.964844 658.503906 595.15625 C 655.738281 594.363281 652.394531 594.8125 650.5625 597.035156 C 647.390625 600.839844 650.34375 606.488281 653.28125 610.464844 C 661.800781 622.003906 670.984375 633.964844 683.757812 640.203125 C 674.464844 637.007812 665.039062 634.253906 655.460938 632.054688 C 652.441406 634.335938 651.726562 638.808594 652.949219 642.390625 C 654.15625 645.988281 656.902344 648.847656 659.792969 651.300781 C 662.871094 653.929688 666.226562 656.234375 669.777344 658.195312 C 669.625 658.261719 669.464844 658.332031 669.316406 658.425781 C 666.929688 659.796875 664.714844 661.421875 662.664062 663.242188 C 663.007812 661.054688 662.769531 658.910156 661.636719 657.03125 C 649.453125 659.011719 637.238281 657.835938 625.019531 656.164062 C 606.820312 694.074219 595.039062 735.050781 590.3125 776.832031 C 587.304688 785.269531 586.347656 793.683594 590.128906 800.324219 C 590.117188 800.324219 590.09375 800.324219 590.082031 800.324219 C 614.371094 854.519531 638.644531 908.714844 662.929688 962.910156 C 677.289062 995 691.757812 1027.15625 709.296875 1057.574219 L 735.890625 909.671875 C 719.28125 892.761719 703.453125 875.082031 688.492188 856.710938 Z M 1196.023438 261.960938 L 1119.699219 261.960938 L 1119.699219 324.304688 L 1196.023438 324.304688 Z M 1293.628906 165.726562 L 1211.390625 165.726562 L 1211.390625 247.96875 L 1293.628906 247.96875 Z M 1288.140625 280.125 L 1250.507812 280.125 L 1250.507812 283.074219 L 1288.140625 283.074219 Z M 1280.085938 315.140625 L 1250.507812 315.140625 L 1250.507812 318.09375 L 1280.085938 318.09375 Z M 1212.863281 315.140625 L 1212.863281 318.09375 L 1243.824219 318.09375 L 1243.824219 315.140625 Z M 1212.863281 304.59375 L 1212.863281 307.546875 L 1273.367188 307.546875 L 1273.367188 304.59375 Z M 1212.863281 290.671875 L 1212.863281 293.621094 L 1256.132812 293.621094 L 1256.132812 290.671875 Z M 1212.863281 280.125 L 1212.863281 283.074219 L 1243.824219 283.074219 L 1243.824219 280.125 Z M 1243.824219 261.960938 L 1243.824219 259.007812 L 1212.863281 259.007812 L 1212.863281 261.960938 Z M 1212.863281 269.566406 L 1212.863281 272.519531 L 1273.367188 272.519531 L 1273.367188 269.566406 Z M 1256.132812 325.699219 L 1212.863281 325.699219 L 1212.863281 328.648438 L 1256.132812 328.648438 Z M 1198.976562 86.449219 L 1116.75 86.449219 L 1116.75 156 L 1198.976562 156 Z M 1118.222656 243.632812 L 1118.222656 246.582031 L 1185.445312 246.582031 L 1185.445312 243.632812 Z M 1118.222656 233.445312 L 1118.222656 236.394531 L 1161.492188 236.394531 L 1161.492188 233.445312 Z M 1118.222656 222.886719 L 1118.222656 225.835938 L 1149.171875 225.835938 L 1149.171875 222.886719 Z M 1155.855469 222.886719 L 1155.855469 225.835938 L 1185.445312 225.835938 L 1185.445312 222.886719 Z M 1118.222656 212.328125 L 1118.222656 215.277344 L 1178.722656 215.277344 L 1178.722656 212.328125 Z M 1118.222656 198.417969 L 1118.222656 201.367188 L 1161.492188 201.367188 L 1161.492188 198.417969 Z M 1118.222656 187.859375 L 1118.222656 190.808594 L 1149.171875 190.808594 L 1149.171875 187.859375 Z M 1118.222656 177.3125 L 1118.222656 180.261719 L 1178.722656 180.261719 L 1178.722656 177.3125 Z M 1155.855469 187.859375 L 1155.855469 190.808594 L 1193.5 190.808594 L 1193.5 187.859375 Z M 1178.722656 165.726562 L 1118.222656 165.726562 L 1118.222656 168.679688 L 1178.722656 168.679688 Z M 1198.976562 259.007812 L 1116.75 259.007812 L 1116.75 327.253906 L 1198.976562 327.253906 Z M 1214.871094 156 L 1275.371094 156 L 1275.371094 153.050781 L 1214.871094 153.050781 Z M 1214.871094 145.535156 L 1258.140625 145.535156 L 1258.140625 142.582031 L 1214.871094 142.582031 Z M 1214.871094 134.976562 L 1245.828125 134.976562 L 1245.828125 132.027344 L 1214.871094 132.027344 Z M 1252.503906 132.027344 L 1252.503906 134.976562 L 1282.089844 134.976562 L 1282.089844 132.027344 Z M 1214.871094 124.429688 L 1275.371094 124.429688 L 1275.371094 121.480469 L 1214.871094 121.480469 Z M 1214.871094 110.507812 L 1258.140625 110.507812 L 1258.140625 107.554688 L 1214.871094 107.554688 Z M 1214.871094 99.949219 L 1245.828125 99.949219 L 1245.828125 96.996094 L 1214.871094 96.996094 Z M 1252.503906 96.996094 L 1252.503906 99.949219 L 1290.148438 99.949219 L 1290.148438 96.996094 Z M 1214.871094 89.402344 L 1275.371094 89.402344 L 1275.371094 86.449219 L 1214.871094 86.449219 Z M 1311.296875 67.582031 L 1311.296875 346.125 L 1092.554688 346.125 L 1092.554688 67.582031 Z M 1290.679688 168.679688 L 1214.339844 168.679688 L 1214.339844 245.015625 L 1290.679688 245.015625 Z M 1196.023438 89.402344 L 1119.699219 89.402344 L 1119.699219 153.050781 L 1196.023438 153.050781 Z M 549.8125 1180.929688 L 557.074219 1198.96875 C 556.566406 1197.917969 555.964844 1196.902344 555.171875 1196.027344 L 531.207031 1169.425781 C 528.5 1166.417969 525.042969 1164.15625 521.191406 1162.902344 L 480.792969 1149.667969 C 472.195312 1146.855469 462.742188 1149.289062 456.585938 1155.917969 L 424.84375 1190.058594 L 211.472656 1183.820312 L 240.390625 1125.429688 L 235.539062 1114.054688 C 216.277344 1068.953125 175.371094 1036.757812 127.007812 1028.632812 C 127.007812 1028.632812 56.089844 1193.433594 60.894531 1211.058594 C 65.703125 1228.679688 76.917969 1278.796875 134.582031 1278.796875 C 176.121094 1278.796875 336.542969 1262.417969 422.988281 1253.253906 C 431.726562 1256.921875 445.292969 1260.667969 462.109375 1258.9375 C 492.296875 1255.8125 496.191406 1250.605469 496.191406 1250.605469 L 520.671875 1256.910156 C 526.273438 1258.351562 532.117188 1255.699219 534.734375 1250.546875 L 536.9375 1246.234375 C 538.285156 1243.585938 540.925781 1241.832031 543.898438 1241.636719 L 545.386719 1241.53125 C 555.414062 1240.875 561.878906 1230.640625 558.179688 1221.304688 L 558.261719 1204.128906 C 558.273438 1202.839844 558.03125 1201.582031 557.636719 1200.382812 L 557.648438 1200.417969 C 568.816406 1201.121094 577.519531 1194.945312 570.617188 1188.582031 C 566.386719 1184.699219 557.488281 1182.324219 549.8125 1180.929688 Z M 537.996094 958.921875 C 537.996094 943.433594 525.398438 930.835938 509.90625 930.835938 C 494.417969 930.835938 481.808594 943.433594 481.808594 958.921875 C 481.808594 974.414062 494.417969 987.011719 509.90625 987.011719 C 525.398438 987.011719 537.996094 974.414062 537.996094 958.921875 Z M 423.519531 619.304688 C 422.644531 619.15625 421.765625 618.992188 420.890625 618.796875 C 412.730469 636.316406 412.417969 656.394531 413.550781 675.679688 C 414.679688 694.972656 417.085938 714.453125 413.859375 733.507812 C 413.492188 735.671875 413.019531 737.839844 412.476562 739.984375 C 414.4375 736.804688 416.050781 733.402344 417.238281 729.851562 C 421.46875 717.023438 421.167969 703.167969 420.832031 689.488281 C 420.625 675.738281 420.707031 661.953125 421.386719 648.203125 C 421.835938 638.554688 422.5625 628.917969 423.519531 619.304688 Z M 490.140625 610.0625 C 496.121094 606.210938 500.640625 600.277344 504.628906 594.191406 C 496.296875 601.53125 485.542969 605.75 474.417969 604.230469 C 470.351562 607.722656 465.945312 610.695312 461.324219 613.117188 C 463.953125 613.578125 466.582031 613.992188 469.21875 614.210938 C 476.5625 614.914062 484.125 614.070312 490.140625 610.0625 Z M 634.042969 561.445312 C 631.289062 556.914062 629.203125 551.921875 627.84375 546.816406 C 624.730469 535.199219 624.730469 523.003906 624.753906 510.972656 C 624.765625 506.1875 624.605469 501.082031 623.730469 496.285156 C 622.402344 495.539062 621.054688 494.847656 619.660156 494.304688 C 617.652344 493.542969 615.601562 492.933594 613.492188 492.597656 C 611.394531 492.21875 609.25 492.101562 607.109375 492.148438 C 604.953125 492.21875 602.796875 492.550781 600.628906 493.035156 C 600.320312 493.117188 600.019531 492.921875 599.9375 492.621094 C 599.890625 492.367188 600.007812 492.125 600.203125 492 C 602.222656 490.789062 604.515625 490.050781 606.855469 489.671875 C 609.207031 489.265625 611.625 489.324219 613.976562 489.683594 C 616.328125 490.085938 618.644531 490.800781 620.742188 491.929688 C 621.574219 492.367188 622.34375 492.886719 623.105469 493.429688 C 622.460938 490.960938 621.585938 488.632812 620.386719 486.511719 C 619.949219 486.410156 619.5 486.304688 619.058594 486.222656 C 617.664062 485.980469 616.28125 485.761719 614.886719 485.683594 C 613.492188 485.566406 612.097656 485.589844 610.679688 485.636719 C 609.261719 485.695312 607.84375 485.878906 606.359375 486.0625 C 606.046875 486.097656 605.746094 485.878906 605.714844 485.566406 C 605.679688 485.335938 605.792969 485.128906 605.957031 485.003906 C 607.269531 484.113281 608.769531 483.539062 610.324219 483.167969 C 611.867188 482.777344 613.480469 482.675781 615.074219 482.742188 C 616.097656 482.8125 617.113281 482.996094 618.105469 483.238281 C 617.421875 482.445312 616.664062 481.695312 615.832031 481.003906 C 613.769531 480.75 611.71875 480.691406 609.710938 480.957031 C 607.59375 481.246094 605.515625 481.753906 603.558594 482.570312 C 601.574219 483.355469 599.730469 484.4375 598.003906 485.707031 C 596.285156 486.996094 594.761719 488.550781 593.402344 490.316406 C 593.207031 490.570312 592.851562 490.617188 592.597656 490.429688 C 592.402344 490.28125 592.332031 490.003906 592.410156 489.773438 C 594.058594 485.265625 597.980469 481.707031 602.429688 479.851562 C 604.6875 478.929688 607.097656 478.363281 609.527344 478.351562 C 610.152344 478.339844 610.761719 478.363281 611.371094 478.410156 C 601.980469 475.019531 588.5625 480.691406 585.886719 490.304688 C 585.105469 481.773438 578.328125 474.421875 570.199219 472.070312 C 570.871094 472.601562 571.550781 473.117188 572.171875 473.71875 C 573.980469 475.515625 575.550781 477.554688 576.703125 479.816406 C 577.867188 482.074219 578.683594 484.507812 578.9375 486.996094 C 578.960938 487.308594 578.742188 487.585938 578.417969 487.617188 C 578.164062 487.640625 577.933594 487.492188 577.84375 487.273438 C 576.921875 485.070312 575.847656 482.996094 574.558594 481.082031 C 573.242188 479.191406 571.792969 477.40625 570.121094 475.828125 C 568.484375 474.238281 566.652344 472.855469 564.703125 471.621094 C 564.519531 471.503906 564.324219 471.414062 564.136719 471.308594 C 563.851562 471.320312 563.5625 471.308594 563.273438 471.332031 C 560.75 471.539062 558.363281 472.195312 556.105469 473.1875 C 557.707031 473.328125 559.296875 473.636719 560.832031 474.109375 C 565.742188 475.675781 570.234375 479.066406 572.496094 483.652344 C 572.632812 483.929688 572.519531 484.277344 572.242188 484.414062 C 572.011719 484.53125 571.734375 484.460938 571.5625 484.289062 C 569.9375 482.523438 568.160156 481.003906 566.203125 479.78125 C 564.230469 478.570312 562.144531 477.578125 559.941406 476.921875 C 557.765625 476.230469 555.480469 475.863281 553.1875 475.746094 C 552.613281 475.722656 552.046875 475.78125 551.472656 475.804688 C 549.996094 476.820312 548.578125 477.960938 547.242188 479.214844 C 548.046875 479.148438 548.855469 479.125 549.648438 479.136719 C 551.195312 479.203125 552.738281 479.378906 554.214844 479.792969 C 555.703125 480.171875 557.152344 480.703125 558.492188 481.5 C 558.753906 481.660156 558.847656 482.015625 558.6875 482.292969 C 558.570312 482.488281 558.363281 482.582031 558.144531 482.570312 L 553.824219 482.246094 C 552.394531 482.179688 551 482.085938 549.59375 482.085938 C 548.1875 482.050781 546.78125 482.097656 545.363281 482.121094 L 544.371094 482.167969 C 542.167969 484.632812 540.1875 487.320312 538.433594 490.039062 C 530.699219 501.980469 523.980469 515.109375 524.222656 529.34375 C 524.523438 546.632812 523.613281 564.578125 515.71875 579.964844 C 514.367188 582.617188 512.742188 585.117188 510.933594 587.46875 C 509.710938 590.050781 508.421875 592.597656 506.96875 595.078125 C 503.097656 601.671875 498.335938 608.007812 491.730469 612.503906 C 484.988281 617.035156 476.539062 617.761719 468.957031 616.851562 C 465.222656 616.402344 461.578125 615.640625 457.992188 614.742188 C 454.15625 616.480469 450.179688 617.851562 446.109375 618.773438 C 447.449219 623.0625 448.96875 627.28125 450.699219 631.417969 C 454.410156 640.292969 458.949219 648.8125 464.367188 656.753906 C 469.671875 664.765625 475.882812 672.175781 482.695312 678.964844 C 489.53125 685.730469 497.023438 691.863281 505.101562 697.175781 C 505.367188 697.347656 505.4375 697.695312 505.261719 697.960938 C 505.101562 698.203125 504.777344 698.28125 504.511719 698.132812 C 496.03125 693.324219 488.101562 687.472656 480.964844 680.75 C 473.808594 674.054688 467.480469 666.492188 461.925781 658.402344 C 456.484375 650.242188 451.828125 641.539062 448.277344 632.398438 C 446.59375 628.089844 445.164062 623.671875 443.976562 619.203125 C 437.847656 620.355469 431.542969 620.527344 425.203125 619.59375 C 424.625 629.160156 424.152344 638.726562 423.875 648.292969 C 423.507812 662.007812 423.402344 675.714844 423.773438 689.429688 C 423.992188 703.089844 424.371094 717.324219 419.703125 730.707031 C 417.640625 736.457031 414.539062 741.828125 410.539062 746.449219 C 406.804688 757.308594 400.6875 767.335938 392.097656 774.414062 C 405.828125 797.382812 421.710938 819.191406 441.914062 836.640625 C 465.453125 856.960938 495.5 871.023438 526.597656 870.667969 C 533.753906 870.574219 541.074219 869.6875 547.425781 866.402344 C 553.777344 863.105469 559.019531 857.054688 559.828125 849.945312 C 561.027344 839.246094 552.40625 830.105469 543.773438 823.6875 C 535.136719 817.265625 520.582031 810.949219 521.226562 800.21875 C 523 771.105469 524.382812 741.425781 526.160156 712.308594 C 541.222656 718.003906 557.914062 723.71875 573.003906 718.117188 C 586.648438 713.046875 595.445312 699.929688 602.253906 687.066406 C 622.679688 648.535156 633.527344 605.035156 634.042969 561.445312 Z M 276.457031 514.035156 L 211.761719 514.035156 L 211.761719 349.097656 C 210.769531 350.675781 209.777344 352.234375 208.808594 353.824219 L 208.808594 516.988281 L 276.226562 516.988281 C 276.308594 515.996094 276.34375 515.015625 276.457031 514.035156 Z M 434.90625 375.585938 C 435.875 375.136719 436.867188 374.742188 437.859375 374.328125 L 437.859375 175.261719 L 353.878906 175.261719 C 352.816406 176.238281 351.78125 177.230469 350.730469 178.210938 L 434.90625 178.210938 Z M 668.09375 421.621094 C 668.886719 422.589844 669.660156 423.566406 670.398438 424.570312 L 737.503906 424.570312 L 737.503906 82.84375 L 508.457031 82.84375 L 508.457031 365.960938 C 509.445312 366.132812 510.425781 366.363281 511.40625 366.582031 L 511.40625 85.792969 L 734.550781 85.792969 L 734.550781 421.621094 Z M 499.601562 364.644531 L 499.601562 73.992188 L 746.355469 73.992188 L 746.355469 433.421875 L 676.160156 433.421875 C 676.714844 434.402344 677.265625 435.382812 677.785156 436.375 L 749.304688 436.375 L 749.304688 71.039062 L 503.789062 71.039062 C 501.402344 72.191406 499.015625 73.347656 496.652344 74.53125 L 496.652344 364.371094 C 497.261719 364.414062 497.863281 364.425781 498.472656 364.484375 C 498.855469 364.53125 499.222656 364.601562 499.601562 364.644531 Z M 446.800781 370.835938 C 447.78125 370.488281 448.773438 370.167969 449.753906 369.84375 L 449.753906 163.457031 L 366.914062 163.457031 C 365.808594 164.4375 364.722656 165.429688 363.628906 166.40625 L 446.800781 166.40625 Z M 276.089844 528.789062 L 197.097656 528.789062 L 197.097656 373.417969 C 198.089844 371.734375 199.058594 370.039062 200.050781 368.359375 L 200.050781 525.839844 L 275.960938 525.839844 C 275.984375 526.820312 276.03125 527.800781 276.089844 528.789062 " fill-opacity="1" fill-rule="nonzero"/><g clip-path="url(#609300d7b5)"><path fill="#0965ac" d="M 508.824219 1250.121094 C 507.601562 1248.910156 506.402344 1247.675781 505.332031 1246.351562 C 504.226562 1245.046875 503.246094 1243.652344 502.277344 1242.222656 C 501.320312 1240.773438 500.480469 1239.261719 499.601562 1237.683594 C 499.5 1237.488281 499.28125 1237.359375 499.039062 1237.394531 C 498.726562 1237.429688 498.496094 1237.707031 498.53125 1238.027344 C 498.738281 1239.882812 499.316406 1241.695312 500.085938 1243.410156 C 500.410156 1244.148438 500.800781 1244.851562 501.21875 1245.542969 C 501.042969 1245.683594 500.859375 1245.808594 500.710938 1245.960938 C 500.121094 1246.570312 499.730469 1247.332031 499.453125 1248.113281 C 499.222656 1248.898438 499.074219 1249.714844 499.164062 1250.546875 C 499.234375 1251.351562 499.429688 1252.171875 499.902344 1252.863281 C 499.984375 1252.96875 500.085938 1253.046875 500.214844 1253.09375 C 500.535156 1253.207031 500.882812 1253.046875 501.007812 1252.726562 L 501.019531 1252.679688 C 501.273438 1251.988281 501.4375 1251.363281 501.644531 1250.777344 C 501.863281 1250.1875 502.023438 1249.625 502.242188 1249.070312 C 502.394531 1248.632812 502.566406 1248.21875 502.738281 1247.78125 C 502.84375 1247.917969 502.933594 1248.078125 503.050781 1248.21875 C 504.261719 1249.683594 505.609375 1251.019531 507.152344 1252.125 C 508.675781 1253.21875 510.324219 1254.164062 512.121094 1254.742188 C 512.375 1254.824219 512.675781 1254.742188 512.859375 1254.523438 C 513.089844 1254.234375 513.054688 1253.808594 512.753906 1253.566406 C 511.394531 1252.425781 510.058594 1251.320312 508.824219 1250.121094 Z M 542.871094 1203.09375 C 545.683594 1206.125 548.277344 1209.363281 550.835938 1212.625 C 553.382812 1215.898438 555.804688 1219.277344 558.203125 1222.699219 C 558.363281 1222.917969 558.652344 1223 558.90625 1222.882812 C 559.195312 1222.746094 559.308594 1222.410156 559.183594 1222.132812 C 557.382812 1218.308594 555.21875 1214.664062 552.855469 1211.160156 C 550.492188 1207.644531 547.828125 1204.351562 545.074219 1201.132812 C 542.214844 1198.011719 539.242188 1194.980469 536.039062 1192.210938 C 532.832031 1189.445312 529.46875 1186.863281 525.882812 1184.628906 C 525.617188 1184.457031 525.25 1184.5 525.03125 1184.753906 C 524.789062 1185.03125 524.8125 1185.457031 525.085938 1185.699219 C 528.210938 1188.464844 531.3125 1191.234375 534.273438 1194.136719 C 537.246094 1197.019531 540.152344 1199.96875 542.871094 1203.09375 Z M 496.734375 1247.882812 C 496.59375 1247.492188 496.457031 1247.101562 496.214844 1246.730469 C 495.996094 1246.351562 495.753906 1245.960938 495.339844 1245.578125 L 495.304688 1245.554688 C 495.257812 1245.507812 495.199219 1245.464844 495.132812 1245.429688 C 494.726562 1245.222656 494.222656 1245.382812 494.023438 1245.785156 C 493.75 1246.316406 493.691406 1246.847656 493.691406 1247.355469 C 493.667969 1247.871094 493.792969 1248.367188 493.957031 1248.851562 C 494.152344 1249.3125 494.359375 1249.773438 494.714844 1250.15625 C 495.050781 1250.558594 495.429688 1250.914062 495.984375 1251.15625 C 496.03125 1251.179688 496.089844 1251.203125 496.144531 1251.203125 C 496.527344 1251.273438 496.894531 1251.019531 496.964844 1250.636719 L 496.964844 1250.617188 C 497.066406 1250.050781 497.03125 1249.589844 496.988281 1249.140625 C 496.976562 1248.691406 496.847656 1248.289062 496.734375 1247.882812 Z M 217.433594 1184.039062 C 209.167969 1182.542969 200.765625 1181.816406 192.339844 1181.699219 C 183.914062 1181.597656 175.488281 1182.207031 167.144531 1183.335938 C 158.808594 1184.59375 150.546875 1186.335938 142.488281 1188.789062 C 134.433594 1191.234375 126.570312 1194.277344 119.042969 1198.011719 C 118.789062 1198.136719 118.664062 1198.449219 118.769531 1198.726562 C 118.882812 1199.011719 119.21875 1199.152344 119.503906 1199.035156 C 127.261719 1195.980469 135.144531 1193.320312 143.179688 1191.1875 C 151.203125 1189.054688 159.328125 1187.324219 167.558594 1186.253906 C 175.765625 1185.042969 184.050781 1184.457031 192.351562 1184.316406 C 200.648438 1184.167969 208.960938 1184.558594 217.246094 1185.367188 C 217.59375 1185.402344 217.914062 1185.160156 217.972656 1184.8125 C 218.042969 1184.457031 217.800781 1184.109375 217.433594 1184.039062 Z M 421.480469 1252.21875 C 416.441406 1249.324219 413.363281 1243.125 414.089844 1236.992188 C 414.125 1236.679688 413.941406 1236.371094 413.628906 1236.265625 C 413.273438 1236.148438 412.902344 1236.347656 412.789062 1236.703125 C 411.140625 1241.796875 412.683594 1247.675781 416.363281 1251.746094 C 414.367188 1251.433594 412.398438 1250.890625 410.550781 1250.085938 C 407.382812 1248.703125 404.488281 1246.476562 403.082031 1243.238281 C 402.980469 1242.996094 402.714844 1242.847656 402.449219 1242.90625 C 402.148438 1242.960938 401.941406 1243.261719 402 1243.574219 C 402.367188 1245.507812 403.429688 1247.296875 404.730469 1248.792969 C 406.082031 1250.257812 407.695312 1251.445312 409.421875 1252.390625 C 412.902344 1254.222656 416.835938 1255.144531 420.820312 1254.960938 C 421.304688 1254.925781 421.777344 1254.660156 422.03125 1254.222656 C 422.4375 1253.507812 422.183594 1252.621094 421.480469 1252.21875 Z M 654.421875 802.121094 C 652.992188 802.972656 651.632812 803.839844 650.238281 804.597656 C 648.820312 805.347656 647.425781 806.097656 645.984375 806.730469 C 644.554688 807.402344 643.082031 807.964844 641.59375 808.53125 C 640.097656 809.082031 638.5625 809.542969 636.996094 810.0625 C 636.742188 810.144531 636.546875 810.375 636.523438 810.652344 C 636.488281 811.019531 636.765625 811.355469 637.132812 811.386719 C 638.863281 811.5625 640.589844 811.386719 642.296875 811.042969 C 643.992188 810.71875 645.640625 810.132812 647.21875 809.40625 C 648.785156 808.65625 650.285156 807.769531 651.632812 806.675781 C 652.96875 805.589844 654.214844 804.367188 655.195312 802.941406 C 655.320312 802.765625 655.332031 802.511719 655.21875 802.316406 C 655.046875 802.050781 654.6875 801.960938 654.421875 802.121094 Z M 563.492188 683.042969 C 562.433594 683 561.394531 683.035156 560.347656 683.035156 C 559.308594 683.054688 558.273438 683.042969 557.210938 683.101562 C 556.152344 683.148438 555.078125 683.171875 553.972656 683.320312 C 553.789062 683.34375 553.613281 683.460938 553.523438 683.632812 C 553.363281 683.910156 553.464844 684.277344 553.753906 684.429688 C 554.769531 685.003906 555.863281 685.339844 556.96875 685.59375 C 558.074219 685.855469 559.214844 685.949219 560.347656 685.972656 C 561.488281 685.972656 562.628906 685.902344 563.734375 685.648438 C 564.851562 685.40625 565.949219 685.097656 566.972656 684.53125 C 567.160156 684.429688 567.308594 684.230469 567.332031 684 C 567.378906 683.621094 567.101562 683.265625 566.71875 683.21875 C 565.601562 683.078125 564.542969 683.078125 563.492188 683.042969 Z M 566.386719 658.953125 L 549.394531 657.941406 L 535.542969 656.925781 C 538.597656 660.464844 542.539062 663.359375 546.734375 665.652344 C 549.304688 667.046875 552 668.222656 554.789062 669.144531 C 557.511719 670.054688 560.589844 670.6875 563.214844 670.894531 L 563.414062 670.90625 C 568.265625 668.71875 572.945312 665.398438 576.703125 661.503906 C 577.164062 661.042969 577.714844 660.453125 578.050781 660.039062 C 578.175781 659.878906 578.234375 659.738281 578.269531 659.65625 C 578.144531 659.601562 577.636719 659.507812 577 659.507812 L 574.871094 659.40625 C 572.046875 659.277344 569.210938 659.128906 566.386719 658.953125 Z M 549.59375 655.011719 L 566.558594 656.257812 C 569.394531 656.453125 572.21875 656.683594 575.042969 656.9375 L 577.164062 657.121094 C 577.808594 657.238281 578.765625 657.078125 579.882812 657.976562 C 580.449219 658.460938 580.691406 659.347656 580.527344 660.015625 C 580.378906 660.671875 580.078125 661.074219 579.800781 661.421875 C 579.214844 662.078125 578.765625 662.503906 578.210938 663.035156 C 573.96875 667.082031 569.046875 670.054688 563.433594 672.105469 L 563.214844 672.1875 C 559.964844 672.128906 557.210938 671.597656 554.285156 670.816406 C 551.355469 669.996094 548.496094 668.902344 545.753906 667.566406 C 543.023438 666.203125 540.394531 664.613281 537.949219 662.734375 C 535.507812 660.855469 533.226562 658.714844 531.390625 656.109375 C 530.953125 655.496094 531.105469 654.644531 531.714844 654.21875 C 531.980469 654.035156 532.28125 653.953125 532.578125 653.976562 L 532.613281 653.976562 Z M 579.78125 641.367188 C 581.679688 641.769531 583.710938 641.261719 585.394531 640.339844 C 587.074219 639.359375 588.46875 637.941406 589.484375 636.261719 C 591.488281 632.871094 591.707031 628.929688 591.488281 625.355469 C 591.214844 621.773438 590.578125 618.222656 589.460938 614.820312 C 588.378906 611.421875 586.914062 608.136719 584.988281 605.164062 C 584.839844 604.945312 584.5625 604.839844 584.308594 604.945312 C 584.007812 605.058594 583.871094 605.382812 583.988281 605.667969 C 585.230469 608.910156 586.304688 612.160156 587.0625 615.488281 C 587.8125 618.808594 588.355469 622.175781 588.550781 625.539062 C 588.78125 628.882812 588.550781 632.214844 587.191406 635.003906 C 585.84375 637.710938 583.097656 640.019531 579.917969 640.039062 C 579.605469 640.039062 579.316406 640.257812 579.261719 640.570312 C 579.179688 640.929688 579.410156 641.285156 579.78125 641.367188 Z M 512.214844 556.441406 C 516.429688 555.023438 520.730469 553.953125 525.085938 553.339844 C 529.445312 552.742188 533.847656 552.476562 538.226562 552.777344 C 542.609375 552.949219 546.964844 553.664062 551.230469 554.722656 C 555.492188 555.773438 559.644531 557.292969 563.699219 559.128906 C 563.988281 559.265625 564.355469 559.171875 564.53125 558.886719 C 564.738281 558.585938 564.65625 558.171875 564.347656 557.964844 C 560.53125 555.449219 556.3125 553.558594 551.933594 552.210938 C 547.539062 550.851562 542.964844 550.125 538.378906 549.835938 C 533.777344 549.6875 529.15625 549.953125 524.671875 550.898438 C 520.175781 551.820312 515.796875 553.285156 511.761719 555.402344 C 511.519531 555.53125 511.40625 555.820312 511.488281 556.085938 C 511.589844 556.382812 511.914062 556.546875 512.214844 556.441406 Z M 603.730469 565.109375 C 605.921875 563.300781 608.203125 561.71875 610.65625 560.441406 C 613.101562 559.183594 615.660156 558.160156 618.3125 557.46875 C 620.949219 556.742188 623.671875 556.335938 626.414062 556.199219 C 629.167969 556.0625 631.933594 556.28125 634.714844 556.730469 C 635.011719 556.777344 635.324219 556.625 635.449219 556.328125 C 635.601562 555.992188 635.4375 555.589844 635.09375 555.449219 C 632.375 554.285156 629.398438 553.710938 626.414062 553.582031 C 623.429688 553.445312 620.421875 553.835938 617.527344 554.621094 C 614.65625 555.4375 611.867188 556.636719 609.390625 558.296875 C 606.902344 559.933594 604.640625 561.949219 602.914062 564.335938 C 602.761719 564.542969 602.761719 564.832031 602.933594 565.039062 C 603.132812 565.28125 603.5 565.304688 603.730469 565.109375 Z M 1418.871094 690.144531 L 801.242188 690.144531 C 794.949219 690.144531 789.566406 694.640625 788.449219 700.839844 L 704.503906 1167.949219 C 703.0625 1175.925781 709.183594 1183.246094 717.285156 1183.246094 L 1046.785156 1183.246094 L 1056.214844 1224.761719 C 1057.445312 1230.097656 1058.761719 1235.414062 1060.003906 1240.738281 L 905.1875 1240.738281 L 849.054688 1271.847656 L 1067.394531 1271.847656 C 1067.40625 1271.894531 1067.417969 1271.949219 1067.429688 1271.996094 C 1067.507812 1272.34375 1067.855469 1272.5625 1068.210938 1272.492188 C 1068.570312 1272.421875 1068.800781 1272.066406 1068.730469 1271.707031 C 1065.503906 1255.847656 1062.195312 1240.011719 1058.761719 1224.199219 L 1048.339844 1176.800781 L 1037.539062 1129.476562 C 1033.898438 1113.753906 1030.140625 1098.066406 1026.3125 1082.390625 L 1120.96875 1082.390625 C 1120.96875 1082.425781 1120.945312 1082.460938 1120.945312 1082.507812 C 1124.160156 1098.367188 1127.457031 1114.214844 1130.867188 1130.027344 L 1141.230469 1177.4375 L 1151.984375 1224.761719 C 1155.613281 1240.53125 1159.359375 1256.273438 1163.1875 1271.996094 C 1163.269531 1272.34375 1163.613281 1272.5625 1163.972656 1272.492188 C 1164.28125 1272.433594 1164.453125 1272.144531 1164.464844 1271.847656 L 1243.445312 1271.847656 L 1188.785156 1240.738281 L 1158 1240.738281 C 1156.835938 1235.226562 1155.71875 1229.707031 1154.53125 1224.199219 L 1145.527344 1183.246094 L 1334.914062 1183.246094 C 1341.195312 1183.246094 1346.589844 1178.738281 1347.699219 1172.550781 L 1431.65625 705.429688 C 1433.09375 697.464844 1426.964844 690.144531 1418.871094 690.144531 Z M 661.835938 811.386719 C 670.027344 827.351562 677.796875 843.570312 688.492188 856.710938 C 703.453125 875.082031 719.28125 892.761719 735.890625 909.671875 L 739.542969 889.351562 C 719.546875 870.367188 700.355469 850.820312 688.414062 835.421875 C 681.566406 826.589844 672.289062 818.570312 661.835938 811.386719 Z M 580.378906 1042.382812 C 580.378906 1042.140625 580.230469 1041.910156 579.988281 1041.832031 C 579.6875 1041.738281 579.363281 1041.898438 579.273438 1042.199219 L 577.199219 1048.574219 C 576.460938 1050.671875 575.757812 1052.769531 574.949219 1054.820312 C 574.175781 1056.894531 573.324219 1058.925781 572.484375 1060.976562 L 569.808594 1067.121094 C 569.707031 1067.382812 569.761719 1067.707031 570.003906 1067.902344 C 570.28125 1068.144531 570.707031 1068.109375 570.949219 1067.824219 C 572.449219 1066.070312 573.695312 1064.132812 574.824219 1062.128906 C 575.964844 1060.121094 576.898438 1058.011719 577.703125 1055.859375 C 578.488281 1053.691406 579.167969 1051.488281 579.59375 1049.21875 C 580.054688 1046.972656 580.367188 1044.6875 580.378906 1042.382812 Z M 337.972656 881.617188 C 338.25 865.308594 334.90625 848.859375 327.597656 834.246094 C 323.921875 826.960938 319.265625 820.136719 313.558594 814.28125 C 307.84375 808.472656 301.078125 803.65625 293.644531 800.371094 C 293.367188 800.242188 293.03125 800.359375 292.90625 800.632812 C 292.765625 800.910156 292.882812 801.246094 293.171875 801.382812 C 307.613281 808.390625 318.550781 821.082031 325.363281 835.339844 C 332.1875 849.679688 335.449219 865.6875 335.03125 881.546875 C 334.710938 897.488281 331.21875 913.234375 326.367188 928.472656 C 321.5 943.742188 315.289062 958.589844 309.074219 973.445312 C 308.9375 973.769531 309.085938 974.160156 309.421875 974.3125 C 309.757812 974.460938 310.148438 974.3125 310.296875 973.976562 C 317.074219 959.371094 323.714844 944.640625 328.84375 929.289062 C 333.984375 913.960938 337.546875 897.925781 337.972656 881.617188 Z M 303.1875 998.609375 C 302.910156 998.445312 302.5625 998.527344 302.402344 998.792969 C 300.441406 1002.054688 298.644531 1005.386719 296.871094 1008.726562 C 295.09375 1012.070312 293.46875 1015.492188 291.753906 1018.859375 C 290.160156 1022.292969 288.511719 1025.707031 286.980469 1029.164062 C 285.460938 1032.632812 283.960938 1036.113281 282.636719 1039.675781 C 282.53125 1039.964844 282.648438 1040.308594 282.921875 1040.480469 C 283.246094 1040.667969 283.660156 1040.5625 283.84375 1040.25 C 285.804688 1036.988281 287.578125 1033.648438 289.332031 1030.292969 C 291.082031 1026.9375 292.71875 1023.527344 294.402344 1020.136719 C 295.972656 1016.691406 297.617188 1013.292969 299.117188 1009.8125 C 300.628906 1006.34375 302.113281 1002.847656 303.417969 999.289062 C 303.507812 999.035156 303.417969 998.746094 303.1875 998.609375 Z M 706.578125 1052.757812 L 694.257812 1063.164062 C 680.308594 1106.03125 645.476562 1174.21875 645.476562 1174.21875 L 645.476562 1247.585938 L 576.632812 1247.585938 L 557.648438 1200.417969 C 568.816406 1201.121094 577.519531 1194.945312 570.617188 1188.582031 C 566.386719 1184.699219 557.488281 1182.324219 549.800781 1180.917969 L 518.632812 1103.472656 C 523.210938 1096.832031 527.460938 1089.976562 531.300781 1082.875 C 537.238281 1071.914062 542.226562 1060.457031 546.410156 1048.699219 C 550.46875 1036.921875 553.742188 1024.839844 555.933594 1012.578125 C 558.15625 1000.3125 559.355469 987.875 559.492188 975.441406 C 559.492188 975.140625 559.261719 974.886719 558.964844 974.875 C 558.652344 974.851562 558.386719 975.082031 558.363281 975.40625 C 557.578125 987.75 555.933594 1000.015625 553.488281 1012.105469 C 551.023438 1024.195312 547.792969 1036.125 543.632812 1047.730469 C 539.597656 1059.375 534.644531 1070.703125 528.984375 1081.652344 C 525.527344 1088.351562 521.757812 1094.886719 517.757812 1101.28125 L 501.933594 1061.957031 C 500.410156 1058.117188 496.066406 1056.238281 492.226562 1057.761719 C 488.386719 1059.28125 486.507812 1063.625 488.03125 1067.464844 L 527.855469 1166.429688 C 525.835938 1164.90625 523.613281 1163.695312 521.191406 1162.902344 L 480.792969 1149.667969 C 472.195312 1146.855469 462.742188 1149.289062 456.585938 1155.917969 L 455.433594 1157.160156 C 455.433594 1157.160156 455.445312 1157.160156 455.445312 1157.160156 C 455.652344 1157.367188 455.664062 1157.691406 455.492188 1157.910156 C 452.035156 1162.429688 448.289062 1166.714844 444.460938 1170.921875 C 440.648438 1175.128906 436.660156 1179.175781 432.707031 1183.246094 C 428.660156 1187.222656 424.625 1191.222656 420.488281 1195.09375 C 416.339844 1198.96875 412.167969 1202.804688 407.855469 1206.503906 C 407.566406 1206.746094 407.152344 1206.710938 406.910156 1206.4375 C 406.691406 1206.171875 406.691406 1205.789062 406.921875 1205.546875 C 410.738281 1201.339844 414.703125 1197.285156 418.667969 1193.226562 L 421.894531 1189.964844 L 319.589844 1186.980469 L 283.152344 1042.0625 L 240.390625 1125.429688 L 235.539062 1114.054688 C 216.277344 1068.953125 175.371094 1036.757812 127.007812 1028.632812 C 127.007812 1028.632812 124.160156 1035.261719 119.644531 1045.992188 C 112.957031 1033.554688 107.875 1019.886719 105.351562 1004.878906 C 105.351562 1004.878906 164.375 832.6875 245.035156 782.125 C 262.105469 773.710938 274.855469 773.8125 291.417969 775.378906 C 306.933594 776.84375 322.125 780.246094 337.417969 783.148438 C 352 785.914062 367.664062 786.90625 381.207031 781.074219 L 507.3125 933.910156 C 494.648438 935.214844 484.757812 945.910156 484.757812 958.921875 C 484.757812 972.8125 496.019531 984.074219 509.90625 984.074219 C 523.796875 984.074219 535.046875 972.8125 535.046875 958.921875 C 535.046875 945.679688 524.800781 934.855469 511.796875 933.875 C 516.015625 922.476562 544.519531 841.621094 534.964844 763.683594 C 543.195312 764.144531 551.136719 765.144531 558.292969 766.945312 L 558.28125 766.921875 C 558.28125 766.921875 571.699219 770.296875 590.300781 776.855469 C 588.851562 780.9375 587.894531 785.015625 587.710938 788.890625 C 587.699219 789.109375 587.6875 789.316406 587.6875 789.535156 C 587.664062 790.386719 587.675781 791.230469 587.730469 792.058594 C 587.742188 792.207031 587.765625 792.359375 587.777344 792.507812 C 587.847656 793.257812 587.964844 793.996094 588.101562 794.734375 C 588.136719 794.871094 588.160156 795.03125 588.195312 795.183594 C 588.367188 795.976562 588.597656 796.761719 588.875 797.523438 C 588.929688 797.695312 589 797.867188 589.070312 798.03125 C 589.378906 798.8125 589.714844 799.585938 590.140625 800.335938 C 590.128906 800.324219 590.105469 800.324219 590.082031 800.324219 C 614.371094 854.519531 638.644531 908.714844 662.929688 962.910156 C 665.5 968.675781 668.09375 974.4375 670.699219 980.1875 C 671.148438 981.179688 671.597656 982.183594 672.058594 983.175781 C 674.664062 988.925781 677.300781 994.65625 679.976562 1000.382812 C 680.4375 1001.363281 680.898438 1002.34375 681.359375 1003.320312 C 684.089844 1009.121094 686.867188 1014.894531 689.703125 1020.632812 C 690.015625 1021.269531 690.339844 1021.890625 690.648438 1022.523438 C 693.300781 1027.851562 696.007812 1033.140625 698.785156 1038.394531 C 701.324219 1043.214844 703.90625 1048.007812 706.578125 1052.757812 Z M 518.632812 1103.472656 L 518.472656 1103.058594 Z M 420.867188 707.191406 C 417.339844 705.84375 415.347656 705.011719 415.347656 705.011719 C 415.347656 705.082031 415.347656 705.152344 415.347656 705.210938 C 415.429688 707.527344 415.472656 709.832031 415.472656 712.136719 C 415.472656 712.5625 415.449219 712.988281 415.441406 713.417969 C 415.429688 715.375 415.40625 717.324219 415.3125 719.269531 C 415.277344 720.238281 415.175781 721.207031 415.117188 722.175781 C 415.023438 723.582031 414.945312 724.988281 414.804688 726.394531 C 414.5625 728.769531 414.253906 731.144531 413.859375 733.507812 C 413.492188 735.671875 413.019531 737.839844 412.476562 739.984375 C 414.4375 736.804688 416.050781 733.402344 417.238281 729.851562 C 419.648438 722.554688 420.558594 714.925781 420.867188 707.191406 Z M 532.015625 763.75 C 532.003906 763.671875 532.027344 763.601562 532.027344 763.519531 C 529.339844 763.417969 526.632812 763.347656 523.902344 763.347656 C 523.589844 760.039062 523.601562 758 523.601562 758 C 523.601562 758 536.050781 748.316406 536.050781 740.503906 C 536.050781 732.699219 525.007812 732.167969 525.007812 732.167969 C 486.210938 730.371094 441.753906 715.074219 423.65625 708.265625 C 423.277344 715.835938 422.25 723.398438 419.703125 730.707031 C 417.640625 736.457031 414.539062 741.828125 410.539062 746.449219 C 410.539062 746.460938 410.539062 746.472656 410.53125 746.484375 C 409.929688 748.226562 409.273438 749.941406 408.546875 751.625 C 408.5 751.730469 408.464844 751.820312 408.421875 751.914062 C 407.726562 753.515625 406.992188 755.082031 406.183594 756.605469 C 406.136719 756.707031 406.089844 756.8125 406.035156 756.90625 C 405.25 758.390625 404.410156 759.820312 403.519531 761.238281 C 403.324219 761.5625 403.105469 761.871094 402.898438 762.195312 C 402.105469 763.417969 401.261719 764.605469 400.386719 765.757812 C 400.203125 765.988281 400.027344 766.230469 399.855469 766.460938 C 398.957031 767.578125 398.023438 768.660156 397.042969 769.710938 C 396.664062 770.125 396.269531 770.527344 395.867188 770.933594 C 394.898438 771.921875 393.898438 772.878906 392.847656 773.777344 C 392.410156 774.148438 391.960938 774.480469 391.523438 774.828125 C 390.703125 775.496094 389.851562 776.117188 388.988281 776.730469 C 388.46875 777.085938 387.949219 777.445312 387.40625 777.789062 C 386.289062 778.492188 385.148438 779.160156 383.949219 779.773438 L 509.414062 931.824219 C 514.679688 917.324219 541.328125 839.050781 532.015625 763.75 Z M 540.324219 590.8125 C 541.742188 586.015625 540.519531 581.429688 537.617188 580.578125 C 534.710938 579.710938 531.207031 582.917969 529.789062 587.710938 C 528.382812 592.507812 529.59375 597.082031 532.511719 597.945312 C 535.414062 598.800781 538.917969 595.605469 540.324219 590.8125 Z M 612.996094 580.578125 C 610.09375 579.710938 606.589844 582.917969 605.183594 587.710938 C 603.765625 592.507812 604.988281 597.082031 607.890625 597.945312 C 610.796875 598.800781 614.300781 595.605469 615.71875 590.8125 C 617.125 586.015625 615.914062 581.429688 612.996094 580.578125 Z M 665.707031 547.542969 C 665.359375 548.8125 665.097656 550.089844 664.910156 551.40625 C 664.046875 557.433594 666.132812 563.566406 670.0625 567.65625 Z M 611.382812 668.015625 L 614.195312 681.003906 C 617.515625 672.601562 621.113281 664.316406 625.019531 656.164062 C 637.238281 657.835938 649.453125 659.011719 661.636719 657.03125 C 665.164062 662.886719 660.152344 671.367188 654.816406 675.621094 C 649.464844 679.863281 642.46875 681.292969 635.761719 682.59375 C 636.765625 685.429688 637.640625 688.289062 638.492188 691.160156 C 637.894531 690.0625 637.285156 688.980469 636.613281 687.941406 C 636.464844 687.703125 636.152344 687.609375 635.898438 687.722656 C 635.613281 687.863281 635.484375 688.195312 635.625 688.472656 C 637.996094 693.554688 639.945312 698.800781 641.339844 704.171875 C 642.722656 709.554688 643.679688 715.042969 643.96875 720.574219 C 644.394531 726.105469 644.175781 731.660156 643.484375 737.171875 C 642.816406 742.679688 641.558594 748.121094 639.875 753.457031 C 639.773438 753.78125 639.921875 754.125 640.234375 754.265625 C 640.566406 754.425781 640.972656 754.277344 641.121094 753.941406 C 643.507812 748.753906 645.109375 743.199219 646.066406 737.550781 C 646.816406 733.136719 647.105469 728.652344 647.035156 724.171875 L 685.359375 710.0625 C 683.847656 711.988281 682.429688 713.96875 681.222656 716.078125 C 679.6875 718.742188 678.351562 721.507812 677.394531 724.414062 C 677.300781 724.710938 677.417969 725.035156 677.683594 725.207031 C 678.003906 725.390625 678.421875 725.300781 678.617188 724.976562 C 680.171875 722.417969 681.726562 719.90625 683.421875 717.484375 C 685.128906 715.074219 686.878906 712.703125 688.769531 710.453125 C 689.449219 709.625 690.164062 708.828125 690.878906 708.035156 L 699.765625 704.761719 L 698.753906 700.046875 C 699.570312 699.296875 700.390625 698.546875 701.230469 697.796875 C 701.414062 697.636719 701.472656 697.347656 701.34375 697.105469 C 701.195312 696.828125 700.863281 696.726562 700.585938 696.875 C 699.8125 697.292969 699.097656 697.785156 698.359375 698.246094 L 697.808594 695.710938 C 696.4375 696.53125 695.226562 697.164062 694.371094 697.511719 C 685.40625 701.152344 674.765625 700.355469 666.433594 695.433594 C 662.121094 692.875 658.089844 687.953125 659.910156 683.285156 C 661.546875 679.125 666.710938 677.871094 671.136719 677.191406 C 677.949219 676.152344 684.746094 675.101562 691.558594 674.054688 C 692.054688 674.019531 692.5625 674.007812 693.058594 673.949219 C 695.480469 673.707031 697.898438 673.386719 700.285156 672.820312 C 700.5625 672.75 700.78125 672.511719 700.792969 672.199219 C 700.816406 671.828125 700.527344 671.507812 700.160156 671.496094 C 697.738281 671.355469 695.339844 671.367188 692.941406 671.34375 L 692.527344 671.34375 L 691.167969 665.050781 C 690.28125 665.050781 689.472656 665.007812 688.804688 664.890625 C 678.15625 663.046875 668.023438 658.308594 659.792969 651.300781 C 656.902344 648.847656 654.15625 645.988281 652.949219 642.390625 C 651.726562 638.808594 652.441406 634.335938 655.460938 632.054688 C 665.039062 634.253906 674.464844 637.007812 683.757812 640.203125 C 682.789062 639.730469 681.867188 639.164062 680.933594 638.621094 L 689.703125 643.300781 C 689.933594 643.429688 690.246094 643.371094 690.40625 643.152344 C 690.601562 642.910156 690.558594 642.554688 690.316406 642.367188 C 687.445312 640.0625 684.414062 637.976562 681.324219 635.984375 C 678.234375 633.976562 675.042969 632.15625 671.816406 630.40625 C 670.605469 629.769531 669.382812 629.160156 668.171875 628.550781 C 662.710938 623.039062 657.878906 616.699219 653.28125 610.464844 C 650.34375 606.488281 647.390625 600.839844 650.5625 597.035156 C 652.394531 594.8125 655.738281 594.363281 658.503906 595.15625 C 661.269531 595.964844 663.597656 597.785156 665.855469 599.582031 C 669.71875 602.636719 674.328125 605.667969 678.972656 608.804688 L 672.335938 578.15625 C 664.542969 580.808594 655.289062 579.78125 648.027344 575.609375 C 642.171875 572.253906 637.546875 567.230469 634.042969 561.445312 C 633.605469 597.992188 625.90625 634.472656 611.382812 668.015625 Z M 545.386719 1241.53125 L 543.898438 1241.636719 C 542.226562 1241.753906 540.683594 1242.398438 539.378906 1243.378906 C 538.238281 1241.453125 537.039062 1239.5625 535.773438 1237.730469 C 534.078125 1235.238281 532.222656 1232.875 530.332031 1230.546875 C 528.40625 1228.242188 526.425781 1225.984375 524.316406 1223.851562 C 522.21875 1221.707031 520.050781 1219.621094 517.722656 1217.71875 C 517.480469 1217.523438 517.132812 1217.511719 516.882812 1217.707031 C 516.59375 1217.925781 516.535156 1218.355469 516.765625 1218.640625 C 518.574219 1221.027344 520.488281 1223.296875 522.378906 1225.59375 L 528.0625 1232.425781 L 533.789062 1239.238281 C 535.253906 1240.957031 536.730469 1242.675781 538.214844 1244.378906 C 537.71875 1244.933594 537.28125 1245.542969 536.9375 1246.234375 L 536.246094 1247.585938 L 560.519531 1247.585938 L 555.898438 1236.105469 C 553.429688 1239.148438 549.742188 1241.246094 545.386719 1241.53125 Z M 240.390625 1125.441406 L 240.390625 1125.429688 Z M 240.390625 1125.441406 " fill-opacity="1" fill-rule="nonzero"/></g></svg>