<svg xmlns="http://www.w3.org/2000/svg" xmlns:xlink="http://www.w3.org/1999/xlink" width="1910" zoomAndPan="magnify" viewBox="0 0 1432.5 1357.499964" height="1810" preserveAspectRatio="xMidYMid meet" version="1.0"><defs><clipPath id="537ea4d2bb"><path d="M 0.015625 536 L 679 536 L 679 1149 L 0.015625 1149 Z M 0.015625 536 " clip-rule="nonzero"/></clipPath></defs><path fill="#3ca500" d="M 583.183594 406.839844 C 636.714844 385.425781 704.714844 364.011719 755.640625 391.210938 C 789.496094 409.152344 887.011719 444.453125 944.015625 491.621094 C 1018.378906 553.542969 1050.210938 629.644531 1050.789062 656.265625 C 1052.234375 714.425781 745.804688 1096.957031 699.507812 1116.34375 C 673.464844 1127.339844 663.625 1061.65625 645.6875 1034.167969 C 584.632812 941.285156 334.046875 559.621094 334.046875 559.621094 C 334.046875 559.621094 512.871094 434.90625 583.183594 406.839844 Z M 583.183594 406.839844 " fill-opacity="1" fill-rule="evenodd"/><path fill="#0965ac" d="M 822.484375 771.429688 C 822.195312 772.007812 821.617188 772.007812 821.328125 772.007812 C 821.039062 772.007812 820.746094 772.007812 820.746094 771.71875 C 816.984375 769.40625 800.492188 763.90625 777.34375 756.09375 C 710.214844 733.234375 584.921875 690.410156 548.460938 655.109375 C 508.53125 616.625 481.039062 572.929688 459.050781 535.023438 C 451.816406 522.292969 445.449219 512.164062 439.375 503.195312 C 439.375 502.90625 438.792969 502.328125 438.214844 501.457031 C 437.058594 499.722656 434.742188 495.671875 434.164062 494.804688 C 433.875 494.515625 433.585938 494.222656 433.585938 493.933594 C 433.296875 493.066406 433.875 492.488281 434.742188 492.199219 C 435.902344 491.910156 435.902344 491.910156 440.820312 500.011719 C 441.398438 500.878906 441.6875 501.457031 441.6875 501.746094 C 447.765625 511.007812 454.128906 521.136719 461.363281 533.867188 C 483.066406 571.484375 510.554688 615.175781 550.199219 653.371094 C 586.367188 688.09375 711.082031 730.628906 778.210938 753.777344 C 802.230469 761.882812 818.144531 767.378906 822.195312 769.695312 C 822.773438 769.984375 822.773438 770.851562 822.484375 771.429688 Z M 946.617188 514.769531 C 945.75 514.480469 945.171875 514.769531 944.882812 515.636719 C 939.964844 527.789062 930.703125 538.785156 921.734375 549.203125 C 918.550781 552.964844 915.65625 556.148438 913.054688 559.621094 C 901.480469 574.375 889.324219 589.132812 877.75 603.601562 C 865.019531 619.226562 852 635.140625 839.554688 651.058594 C 830.296875 662.921875 820.746094 675.363281 812.644531 688.960938 C 812.066406 690.121094 799.625 710.953125 798.757812 712.113281 C 798.46875 712.402344 798.46875 712.691406 798.46875 713.269531 C 798.46875 713.847656 799.046875 714.425781 799.914062 714.425781 C 799.914062 714.425781 800.203125 714.425781 800.203125 714.425781 C 801.070312 714.425781 801.070312 714.425781 814.960938 690.699219 C 822.773438 677.386719 832.613281 665.234375 841.871094 653.082031 C 854.3125 637.167969 867.335938 620.964844 880.066406 605.628906 C 891.640625 591.160156 903.792969 576.402344 915.367188 561.644531 C 917.972656 558.171875 920.867188 554.699219 924.050781 551.226562 C 933.019531 540.523438 942.566406 529.238281 947.777344 516.792969 C 947.777344 515.925781 947.488281 515.058594 946.617188 514.769531 Z M 946.617188 514.769531 " fill-opacity="1" fill-rule="nonzero"/><path fill="#000000" d="M 199.496094 509.851562 C 194.285156 504.0625 189.65625 497.40625 186.183594 490.460938 C 184.738281 487.570312 180.976562 471.65625 176.925781 470.785156 C 173.453125 470.207031 168.535156 478.308594 167.085938 480.625 C 161.589844 489.304688 160.429688 498.855469 160.429688 508.980469 C 160.429688 510.140625 161.878906 522.292969 160.429688 522.582031 C 157.539062 523.160156 150.882812 509.851562 149.726562 507.824219 C 147.699219 504.0625 145.675781 499.722656 144.515625 495.671875 C 136.414062 469.917969 146.542969 442.140625 163.902344 422.753906 C 172.007812 413.78125 182.421875 406.546875 189.078125 396.421875 C 198.917969 381.375 185.605469 360.832031 192.550781 344.335938 C 203.835938 315.980469 233.640625 296.59375 242.320312 267.367188 C 247.238281 250.875 243.476562 234.378906 246.082031 217.597656 C 249.84375 195.605469 259.972656 175.0625 274.4375 158.277344 C 292.667969 137.15625 321.894531 124.714844 349.671875 126.449219 C 360.089844 127.027344 370.507812 129.054688 379.765625 133.972656 C 382.949219 135.710938 385.261719 137.445312 387.578125 140.339844 C 388.445312 141.496094 389.894531 146.125 389.023438 144.679688 L 388.734375 145.257812 C 394.8125 143.234375 401.46875 142.363281 407.832031 142.941406 C 427.21875 144.679688 438.792969 161.460938 443.136719 179.113281 C 448.054688 179.113281 452.972656 179.980469 457.601562 182.007812 C 470.625 187.503906 479.015625 199.078125 486.828125 210.652344 C 503.03125 234.960938 520.105469 268.523438 514.605469 298.90625 C 510.265625 322.34375 494.351562 327.84375 479.304688 342.601562 C 474.097656 347.519531 470.335938 358.226562 462.523438 359.960938 C 455.289062 361.699219 448.054688 355.621094 443.714844 350.414062 C 430.691406 335.367188 429.535156 314.53125 426.929688 295.722656 C 425.195312 284.148438 422.878906 272.574219 419.695312 261.578125 C 402.625 283.570312 379.765625 302.378906 359.511719 316.269531 C 349.671875 323.214844 339.253906 329.578125 327.96875 334.210938 L 304.53125 406.546875 C 295.5625 425.644531 319 445.324219 326.234375 461.238281 C 334.625 479.757812 325.078125 495.960938 312.921875 510.429688 C 305.691406 518.820312 297.007812 527.210938 287.171875 532.128906 C 285.433594 533 279.648438 536.472656 277.910156 534.445312 C 276.753906 533 277.910156 529.527344 278.199219 528.078125 C 279.070312 522.003906 279.648438 516.214844 279.359375 509.851562 C 279.359375 508.691406 279.070312 501.457031 276.464844 502.328125 C 272.992188 503.484375 269.808594 510.429688 268.074219 513.320312 C 261.996094 522.582031 255.339844 531.550781 246.660156 538.496094 C 245.792969 539.363281 236.242188 546.597656 235.085938 545.441406 C 234.21875 544.574219 234.507812 539.941406 234.796875 536.761719 C 227.273438 542.257812 219.460938 547.175781 212.515625 552.964844 C 205.859375 558.460938 198.917969 564.828125 195.15625 572.640625 C 193.996094 575.535156 193.128906 578.425781 193.417969 581.609375 C 193.417969 583.347656 195.445312 587.398438 193.996094 586.53125 C 190.523438 583.925781 187.921875 578.136719 186.472656 574.375 C 176.925781 552.675781 187.632812 529.816406 198.625 511.007812 C 199.207031 510.429688 199.496094 510.140625 199.496094 509.851562 Z M 458.761719 403.65625 C 459.339844 403.078125 458.761719 405.390625 459.050781 406.257812 C 459.628906 408.285156 460.207031 410.308594 460.496094 412.335938 C 461.941406 418.992188 462.8125 425.355469 463.101562 432.011719 C 463.679688 447.058594 458.179688 466.15625 448.34375 478.308594 C 445.160156 482.359375 440.53125 486.410156 435.902344 489.015625 C 433.585938 490.460938 428.667969 492.777344 428.667969 492.777344 C 428.667969 492.777344 430.980469 488.726562 431.851562 486.699219 C 433.585938 481.78125 434.742188 476.863281 435.902344 471.945312 C 439.082031 456.609375 440.242188 440.984375 439.664062 425.355469 Z M 458.761719 403.65625 " fill-opacity="1" fill-rule="evenodd"/><path fill="#f89267" d="M 774.738281 264.761719 C 767.796875 291.382812 756.800781 316.269531 738.570312 335.945312 C 738.570312 346.652344 733.941406 373.5625 738.570312 397.289062 C 744.066406 423.910156 773.582031 440.691406 759.402344 452.558594 C 674.332031 525.765625 671.726562 545.441406 671.726562 545.441406 C 667.675781 545.441406 658.128906 531.550781 641.054688 513.613281 C 612.699219 484.386719 590.996094 456.898438 585.5 444.746094 C 585.5 444.453125 603.148438 424.488281 612.699219 395.265625 C 621.089844 369.800781 618.484375 335.945312 619.066406 330.15625 C 604.597656 313.664062 593.023438 293.410156 586.367188 274.3125 C 550.199219 267.367188 536.019531 202.261719 548.171875 174.484375 C 551.644531 166.960938 568.425781 154.515625 583.183594 162.039062 C 584.34375 162.621094 592.15625 124.136719 592.15625 124.136719 C 623.695312 70.601562 673.175781 66.261719 728.152344 87.675781 C 743.199219 93.460938 761.140625 99.539062 771.558594 112.851562 C 784.867188 129.921875 786.605469 150.464844 786.023438 171.300781 C 797.597656 164.933594 809.753906 164.933594 813.226562 184.03125 C 818.144531 211.230469 799.335938 247.402344 774.738281 264.761719 Z M 495.796875 331.605469 C 490.589844 329.289062 481.039062 334.789062 474.097656 341.441406 C 473.808594 337.390625 473.515625 333.628906 472.9375 329.578125 C 470.914062 314.53125 462.523438 305.273438 457.601562 291.960938 C 452.972656 279.230469 450.367188 266.5 441.6875 256.082031 C 417.960938 226.855469 355.167969 226.566406 331.152344 256.371094 C 319 271.417969 306.558594 282.125 299.613281 296.015625 C 293.824219 307.878906 289.484375 320.320312 287.171875 333.050781 C 285.433594 326.6875 283.699219 320.03125 277.332031 318.003906 C 266.335938 314.53125 261.707031 336.8125 260.839844 343.46875 C 258.234375 364.882812 266.914062 401.050781 290.644531 406.550781 C 291.222656 408.285156 291.511719 409.730469 292.089844 411.46875 C 298.167969 429.117188 309.453125 448.503906 323.917969 464.132812 C 323.917969 465 323.917969 465.578125 323.917969 466.445312 C 324.496094 478.019531 324.207031 490.171875 322.183594 501.746094 C 319.578125 517.664062 313.214844 531.261719 304.820312 544.574219 C 303.664062 546.308594 294.695312 556.726562 295.5625 559.039062 C 296.71875 562.222656 329.707031 605.339844 365.007812 609.101562 C 393.65625 611.992188 432.429688 566.5625 431.851562 557.59375 C 430.402344 533.578125 427.507812 498.277344 428.957031 470.207031 C 437.347656 460.371094 444.292969 449.664062 449.789062 438.089844 C 454.710938 427.960938 459.339844 417.542969 463.101562 406.839844 C 482.488281 397.289062 499.847656 379.347656 502.742188 357.359375 C 503.898438 349.835938 504.191406 335.65625 495.796875 331.605469 Z M 495.796875 331.605469 " fill-opacity="1" fill-rule="evenodd"/><path fill="#8b5e3f" d="M 1021.851562 615.753906 C 969.765625 618.070312 946.910156 563.960938 944.882812 515.058594 C 943.726562 489.015625 943.148438 461.527344 947.199219 435.773438 C 953.5625 397.289062 992.625 304.117188 1085.511719 343.757812 C 1126.019531 362.566406 1143.671875 401.339844 1145.117188 443.875 C 1159.585938 435.484375 1178.105469 432.300781 1187.074219 443.296875 C 1209.933594 471.363281 1176.660156 513.613281 1145.988281 529.238281 C 1142.804688 558.75 1146.566406 591.449219 1157.273438 616.042969 C 1163.925781 631.378906 1170.003906 647.003906 1178.683594 661.183594 C 1180.710938 664.65625 1191.125 675.363281 1190.835938 679.414062 C 1190.546875 681.441406 1157.851562 691.855469 1144.539062 694.75 C 1130.363281 697.933594 1109.527344 727.449219 1088.695312 730.050781 C 1055.707031 734.390625 1020.984375 709.21875 1001.597656 692.433594 C 989.445312 681.730469 1023.296875 676.230469 1026.480469 661.761719 C 1029.953125 646.425781 1027.058594 630.511719 1021.851562 615.753906 " fill-opacity="1" fill-rule="evenodd"/><path fill="#0965ac" d="M 292.378906 551.226562 C 283.699219 558.75 293.535156 579.875 293.824219 585.660156 C 295.273438 622.410156 306.269531 658.289062 315.527344 693.59375 C 340.992188 787.632812 354.300781 1125.316406 360.957031 1134.285156 C 362.113281 1135.734375 498.113281 1108.242188 496.667969 1078.730469 C 494.929688 1044.003906 438.503906 554.988281 433.296875 548.046875 C 430.402344 543.996094 402.046875 577.847656 382.660156 586.242188 C 346.488281 602.445312 310.609375 535.890625 292.378906 551.226562 Z M 292.378906 551.226562 " fill-opacity="1" fill-rule="evenodd"/><path fill="#8b5e3f" d="M 1369.660156 854.1875 C 1369.660156 916.109375 1364.164062 1116.34375 1341.882812 1115.765625 C 1327.414062 1115.476562 1289.507812 1125.894531 1284.878906 1114.898438 C 1269.542969 1078.730469 1255.363281 892.671875 1255.074219 892.960938 Z M 816.984375 860.261719 C 815.539062 866.628906 814.382812 873.285156 812.644531 879.648438 C 807.726562 900.773438 802.230469 921.898438 796.441406 943.019531 C 784 990.183594 745.226562 1072.941406 748.988281 1122.710938 C 750.433594 1139.785156 774.449219 1132.550781 792.679688 1139.785156 C 815.828125 1148.753906 834.058594 1103.324219 841.003906 1088.855469 C 871.097656 1024.90625 879.199219 954.015625 902.925781 888.042969 L 819.300781 850.714844 C 818.433594 848.976562 817.566406 857.949219 816.984375 860.261719 Z M 816.984375 860.261719 " fill-opacity="1" fill-rule="evenodd"/><path fill="#0965ac" d="M 1263.464844 908.875 C 1237.136719 985.265625 1172.898438 1120.976562 1164.214844 1136.023438 C 1156.113281 1150.199219 933.308594 1133.996094 928.679688 1122.421875 C 915.078125 1086.542969 902.636719 1049.792969 889.035156 1013.914062 C 880.066406 990.472656 865.886719 965.878906 867.914062 940.125 C 868.78125 925.65625 873.699219 911.480469 879.488281 897.589844 C 863.574219 891.222656 854.023438 875.886719 838.6875 868.363281 C 823.640625 861.132812 799.335938 873.863281 787.472656 861.132812 C 777.921875 851.003906 779.660156 827.277344 787.472656 816.28125 C 798.757812 800.367188 818.433594 790.527344 831.164062 775.191406 C 854.3125 747.125 867.335938 695.039062 909.003906 689.542969 C 917.394531 688.382812 925.785156 687.515625 934.175781 686.359375 C 947.488281 684.621094 960.796875 682.308594 973.820312 679.125 C 979.894531 677.675781 995.230469 670.152344 1006.226562 671.023438 C 1018.667969 672.179688 1042.398438 671.3125 1061.496094 685.199219 C 1072.488281 693.304688 1076.542969 718.476562 1089.851562 719.632812 C 1099.109375 720.503906 1105.1875 679.703125 1115.027344 677.96875 C 1161.035156 670.152344 1189.679688 645.269531 1223.246094 659.449219 C 1275.039062 681.4375 1418.851562 768.246094 1425.507812 809.914062 C 1431.875 851.871094 1306.582031 911.769531 1263.464844 908.875 Z M 1263.464844 908.875 " fill-opacity="1" fill-rule="nonzero"/><g clip-path="url(#537ea4d2bb)"><path fill="#000000" d="M 355.167969 809.914062 C 365.875 895.566406 386.421875 976.585938 383.816406 1063.683594 C 383.527344 1076.703125 383.238281 1137.46875 372.242188 1146.148438 C 366.164062 1150.777344 352.855469 1147.886719 345.910156 1147.308594 C 322.472656 1145.859375 299.035156 1144.414062 275.308594 1143.546875 C 235.953125 1142.097656 158.984375 1102.457031 148.566406 1108.820312 C 126.578125 1122.421875 0.125 1064.550781 0.125 1064.550781 C 0.125 1064.550781 62.917969 650.765625 125.128906 615.464844 C 165.640625 592.605469 215.699219 578.71875 257.65625 560.199219 C 265.757812 556.726562 297.296875 546.308594 301.058594 536.761719 Z M 671.148438 841.746094 C 664.203125 773.167969 665.363281 672.757812 612.988281 619.226562 C 582.316406 587.976562 463.390625 547.175781 433.585938 546.597656 C 420.277344 546.308594 453.550781 971.957031 457.023438 1046.03125 C 457.601562 1059.050781 456.734375 1118.082031 467.152344 1127.628906 C 476.410156 1136.023438 514.027344 1113.164062 521.839844 1109.691406 C 532.546875 1105.058594 550.777344 1092.039062 566.980469 1090.015625 C 612.410156 1084.515625 665.363281 1096.089844 669.414062 1084.515625 C 686.773438 1035.902344 676.070312 891.222656 671.148438 841.746094 Z M 671.148438 841.746094 " fill-opacity="1" fill-rule="evenodd"/></g><path fill="#000000" d="M 806.570312 732.945312 C 805.992188 732.945312 805.703125 732.65625 805.410156 732.367188 C 759.691406 652.503906 697.769531 572.929688 621.667969 496.25 C 602.570312 476.863281 589.839844 460.082031 582.894531 445.035156 C 582.894531 444.746094 582.605469 444.453125 582.316406 443.875 C 580 439.246094 574.503906 428.25 590.417969 417.253906 C 590.996094 416.675781 591.867188 416.964844 592.445312 417.542969 C 593.023438 418.125 592.734375 418.992188 592.15625 419.570312 C 578.265625 429.117188 582.605469 438.089844 584.921875 442.429688 C 585.210938 442.71875 585.210938 443.296875 585.5 443.585938 C 592.15625 458.34375 604.886719 474.835938 623.695312 493.933594 C 699.796875 570.90625 762.007812 650.476562 808.015625 730.628906 C 808.304688 731.210938 808.304688 732.078125 807.4375 732.65625 C 807.148438 732.945312 806.859375 732.945312 806.570312 732.945312 Z M 673.464844 545.730469 C 685.039062 524.898438 708.765625 502.617188 727.863281 484.386719 C 732.203125 480.335938 736.253906 476.574219 739.726562 473.101562 L 740.015625 472.8125 C 752.460938 460.660156 766.636719 447.058594 769.53125 429.117188 C 770.398438 423.621094 766.347656 412.335938 754.484375 410.308594 C 753.617188 410.308594 753.039062 410.601562 752.75 411.46875 C 752.75 412.335938 753.039062 412.914062 753.90625 413.203125 C 764.324219 415.230469 767.214844 425.066406 766.636719 428.828125 C 764.035156 445.902344 750.144531 459.210938 737.992188 470.785156 L 737.703125 471.074219 C 733.941406 474.546875 729.890625 478.308594 725.839844 482.359375 C 706.453125 500.589844 682.722656 523.160156 670.859375 544.285156 C 670.570312 544.863281 670.859375 545.730469 671.4375 546.308594 C 671.726562 546.308594 672.015625 546.597656 672.015625 546.597656 C 672.597656 546.597656 673.175781 546.308594 673.464844 545.730469 Z M 673.464844 545.730469 " fill-opacity="1" fill-rule="nonzero"/><path fill="#0965ac" d="M 377.449219 955.171875 C 377.738281 955.75 377.449219 956.621094 376.871094 957.199219 C 376.582031 957.199219 376.582031 957.488281 376.292969 957.488281 C 375.714844 957.488281 375.136719 957.199219 375.136719 956.621094 C 360.957031 928.261719 341.28125 898.746094 325.945312 876.179688 C 323.628906 872.707031 320.445312 869.234375 317.265625 865.472656 C 310.898438 857.949219 304.242188 850.136719 301.636719 841.746094 C 298.167969 829.878906 303.375 814.253906 308.003906 800.367188 C 309.453125 795.734375 310.898438 791.394531 312.054688 787.632812 C 312.054688 787.34375 312.34375 786.765625 312.632812 785.898438 C 315.816406 775.191406 316.105469 772.007812 315.816406 771.140625 C 306.847656 762.171875 298.746094 752.042969 290.644531 742.203125 C 282.832031 732.367188 274.726562 722.238281 265.757812 713.269531 C 264.023438 711.53125 260.839844 708.929688 257.367188 706.324219 C 249.265625 699.957031 240.292969 693.015625 238.269531 686.9375 C 237.402344 684.042969 240.292969 677.679688 244.636719 669.574219 C 245.792969 667.550781 246.660156 665.8125 246.949219 665.234375 C 250.421875 656.265625 253.894531 647.007812 257.078125 638.324219 C 260.839844 627.90625 264.890625 616.914062 268.941406 606.496094 C 270.097656 603.601562 271.257812 600.417969 272.414062 597.234375 C 278.488281 581.609375 284.855469 565.40625 294.113281 552.386719 C 294.695312 551.808594 295.5625 551.515625 296.140625 552.097656 C 296.71875 552.675781 297.007812 553.542969 296.429688 554.121094 C 287.171875 567.144531 281.09375 583.058594 275.015625 598.394531 C 273.859375 601.578125 272.703125 604.757812 271.257812 607.652344 C 267.203125 618.070312 263.152344 629.066406 259.390625 639.484375 C 256.210938 648.453125 252.738281 657.421875 249.265625 666.394531 C 248.976562 667.261719 248.105469 668.996094 246.949219 671.023438 C 244.925781 675.074219 240.003906 684.042969 240.875 686.070312 C 242.609375 691.277344 251.578125 698.222656 259.101562 704.007812 C 262.863281 706.902344 265.757812 709.21875 267.785156 711.242188 C 276.753906 720.214844 285.144531 730.339844 292.957031 740.179688 C 300.769531 750.015625 308.871094 759.855469 317.84375 768.824219 C 319.578125 770.5625 318.710938 774.902344 315.527344 786.1875 C 315.238281 787.054688 315.238281 787.632812 314.949219 787.921875 C 314.082031 791.683594 312.632812 796.316406 310.898438 800.945312 C 306.558594 813.675781 301.347656 829.878906 304.53125 840.585938 C 306.847656 848.398438 313.503906 855.921875 319.578125 863.445312 C 322.761719 867.207031 325.945312 870.96875 328.550781 874.441406 C 343.59375 897.011719 362.984375 926.527344 377.449219 955.171875 Z M 485.960938 616.332031 C 482.488281 609.96875 479.015625 603.890625 476.121094 598.394531 C 470.335938 587.398438 464.257812 576.691406 457.601562 566.5625 C 455.289062 563.09375 452.972656 559.621094 450.660156 556.4375 C 450.367188 556.148438 450.078125 555.570312 449.789062 554.699219 C 448.632812 552.386719 447.765625 551.226562 446.316406 551.226562 C 446.027344 551.226562 445.160156 551.515625 444.871094 552.675781 C 444.582031 553.542969 445.160156 554.121094 446.027344 554.410156 C 446.027344 554.410156 446.316406 554.410156 446.316406 554.410156 C 446.605469 554.988281 446.898438 555.570312 447.1875 555.859375 C 447.476562 556.726562 448.054688 557.304688 448.34375 557.882812 C 450.660156 561.355469 452.972656 564.539062 455.289062 568.011719 C 461.652344 578.136719 468.019531 588.554688 473.515625 599.550781 C 476.410156 605.339844 479.882812 611.125 483.355469 617.492188 C 496.375 641.21875 511.421875 668.128906 515.472656 692.144531 C 516.054688 696.195312 511.714844 704.007812 508.820312 708.929688 C 507.953125 710.664062 506.792969 712.113281 506.214844 713.558594 C 503.898438 718.1875 501.296875 723.105469 498.402344 728.316406 C 491.167969 741.914062 482.777344 757.25 480.460938 771.140625 C 479.882812 774.613281 484.222656 777.507812 489.144531 780.398438 C 494.929688 783.871094 501.296875 787.921875 501.007812 793.710938 C 499.847656 810.203125 493.195312 826.988281 486.828125 843.191406 C 484.511719 849.269531 482.199219 855.054688 480.171875 860.84375 C 474.964844 875.886719 470.335938 891.804688 465.996094 906.851562 C 462.234375 920.160156 458.183594 933.761719 453.550781 947.070312 C 453.261719 947.9375 453.839844 948.515625 454.421875 948.808594 C 454.710938 948.808594 454.710938 948.808594 455 948.808594 C 455.578125 948.808594 456.15625 948.515625 456.445312 947.9375 C 460.785156 934.628906 464.835938 921.027344 468.886719 907.71875 C 473.226562 892.671875 477.859375 877.046875 483.066406 862 C 485.09375 856.210938 487.40625 850.425781 489.722656 844.347656 C 496.085938 827.855469 502.742188 810.78125 504.191406 794 C 504.769531 786.765625 497.246094 781.847656 491.167969 778.085938 C 487.695312 775.769531 483.644531 773.457031 483.933594 771.71875 C 486.25 758.410156 494.351562 743.074219 501.585938 729.761719 C 504.480469 724.554688 507.082031 719.636719 509.398438 715.003906 C 509.976562 713.847656 510.84375 712.402344 511.714844 710.664062 C 515.183594 704.589844 519.527344 697.066406 518.65625 692.144531 C 514.027344 667.261719 498.980469 640.0625 485.960938 616.332031 Z M 133.519531 862.289062 C 132.652344 825.539062 132.074219 793.421875 121.078125 757.539062 C 120.210938 754.9375 119.632812 751.464844 119.054688 747.703125 C 117.894531 741.335938 117.027344 734.679688 114.421875 730.628906 C 114.132812 730.050781 113.265625 729.761719 112.398438 730.050781 C 111.820312 730.339844 111.53125 731.210938 111.820312 732.078125 C 114.132812 735.550781 115.003906 742.203125 115.871094 747.992188 C 116.449219 751.753906 117.027344 755.515625 117.894531 758.121094 C 128.601562 793.710938 129.46875 825.539062 130.339844 862.289062 C 130.339844 866.917969 130.628906 871.546875 130.628906 876.179688 C 132.652344 951.121094 139.597656 1024.328125 149.4375 1111.714844 C 149.4375 1112.582031 150.015625 1112.875 150.882812 1112.875 C 150.882812 1112.875 150.882812 1112.875 151.171875 1112.875 C 152.039062 1112.875 152.617188 1112.003906 152.328125 1111.425781 C 142.492188 1024.328125 135.546875 950.832031 133.519531 876.179688 C 133.8125 871.546875 133.519531 866.917969 133.519531 862.289062 Z M 589.550781 661.183594 C 588.683594 660.316406 587.8125 660.605469 587.523438 660.605469 C 586.367188 661.183594 586.367188 662.34375 586.367188 664.65625 C 586.367188 665.523438 586.367188 666.394531 586.367188 666.683594 C 586.078125 668.128906 585.789062 669.863281 585.210938 671.3125 C 584.632812 673.335938 584.34375 675.074219 584.050781 677.097656 C 582.027344 686.9375 580.289062 695.90625 579.132812 704.878906 C 576.53125 724.84375 579.132812 744.808594 581.449219 763.90625 C 582.894531 774.324219 584.050781 785.03125 584.632812 795.734375 C 586.65625 832.484375 580.871094 865.472656 575.082031 900.484375 C 572.769531 913.792969 570.453125 927.394531 568.714844 941.285156 C 565.535156 965.589844 563.21875 1011.308594 561.191406 1047.765625 C 560.324219 1063.394531 559.746094 1076.992188 559.167969 1087.121094 C 559.167969 1087.988281 559.746094 1088.566406 560.613281 1088.566406 C 561.484375 1088.566406 562.0625 1087.988281 562.0625 1087.121094 C 562.640625 1076.992188 563.507812 1063.394531 564.085938 1047.765625 C 565.824219 1011.308594 568.136719 965.589844 571.609375 941.574219 C 573.347656 927.683594 575.660156 914.082031 577.976562 900.773438 C 583.761719 865.761719 589.550781 832.484375 587.523438 795.445312 C 586.945312 784.742188 585.5 774.035156 584.34375 763.617188 C 582.027344 744.519531 579.421875 724.84375 582.027344 705.167969 C 583.183594 696.195312 584.921875 687.515625 586.945312 677.679688 C 587.234375 675.652344 587.8125 673.917969 588.105469 671.890625 C 588.394531 670.15625 588.972656 668.707031 589.261719 666.972656 C 589.261719 666.394531 589.261719 665.234375 589.261719 664.367188 C 589.261719 664.078125 589.261719 663.5 589.261719 663.210938 C 589.261719 663.210938 589.261719 663.210938 589.550781 663.210938 C 590.128906 662.632812 590.128906 661.761719 589.550781 661.183594 Z M 589.550781 661.183594 " fill-opacity="1" fill-rule="nonzero"/><path fill="#000000" d="M 1081.460938 912.925781 C 1079.433594 912.925781 1077.121094 912.636719 1074.804688 912.347656 C 1064.964844 910.613281 1055.417969 905.691406 1046.160156 901.351562 C 1035.164062 895.855469 1023.589844 890.355469 1011.433594 889.488281 C 1001.019531 888.910156 990.3125 890.933594 979.894531 892.960938 C 975.554688 893.828125 971.214844 894.695312 967.164062 895.277344 C 961.375 896.144531 955.300781 897.589844 949.511719 898.746094 C 940.542969 900.773438 931.570312 902.507812 922.3125 903.378906 C 914.5 903.957031 906.976562 902.800781 899.453125 901.929688 C 897.140625 901.640625 895.113281 901.351562 892.796875 901.0625 C 891.640625 901.0625 890.484375 900.773438 889.324219 900.773438 C 886.722656 900.484375 883.828125 900.484375 881.511719 899.617188 C 880.644531 899.328125 880.355469 898.457031 880.644531 897.878906 C 880.933594 897.011719 881.800781 896.722656 882.382812 897.011719 C 884.40625 897.589844 887.011719 897.878906 889.617188 897.878906 C 890.773438 897.878906 892.21875 898.167969 893.378906 898.167969 C 895.691406 898.457031 897.71875 898.746094 900.03125 899.039062 C 907.265625 899.90625 915.078125 901.0625 922.3125 900.484375 C 931.28125 899.90625 940.542969 897.878906 949.222656 895.855469 C 955.011719 894.695312 961.085938 893.25 966.875 892.382812 C 971.214844 891.804688 975.554688 890.933594 979.605469 890.066406 C 990.023438 888.042969 1001.019531 886.015625 1011.726562 886.59375 C 1024.457031 887.460938 1036.320312 892.960938 1047.605469 898.746094 C 1056.574219 903.089844 1066.125 907.71875 1075.671875 909.453125 C 1089.5625 912.058594 1100.847656 905.113281 1113 897.878906 C 1125.152344 890.355469 1137.886719 882.542969 1153.800781 886.015625 C 1170.871094 889.777344 1180.421875 893.539062 1188.8125 896.433594 C 1200.386719 900.773438 1209.355469 904.246094 1233.082031 906.5625 C 1243.210938 907.71875 1253.628906 907.429688 1263.757812 907.429688 C 1264.625 907.429688 1265.203125 908.007812 1265.203125 908.875 C 1265.203125 909.742188 1264.625 910.320312 1263.757812 910.320312 C 1253.628906 910.320312 1243.210938 910.613281 1232.792969 909.453125 C 1208.777344 906.851562 1198.941406 903.089844 1187.945312 899.039062 C 1179.550781 895.855469 1170.292969 892.382812 1153.222656 888.621094 C 1138.464844 885.4375 1126.890625 892.382812 1114.445312 899.90625 C 1104.03125 906.558594 1093.613281 912.925781 1081.460938 912.925781 Z M 1081.460938 912.925781 " fill-opacity="1" fill-rule="nonzero"/><path fill="#3ca500" d="M 978.160156 677.097656 C 978.449219 676.519531 979.316406 676.230469 980.183594 676.519531 C 985.394531 679.125 995.230469 681.148438 1005.9375 683.464844 C 1024.457031 687.515625 1045.578125 692.144531 1053.679688 700.828125 C 1058.023438 705.457031 1062.074219 711.242188 1065.835938 717.03125 C 1073.359375 728.027344 1080.59375 738.152344 1090.140625 740.46875 C 1096.21875 741.914062 1102.582031 728.316406 1108.371094 716.453125 C 1114.15625 704.300781 1119.65625 692.722656 1126.3125 691.566406 C 1156.113281 686.648438 1166.242188 682.886719 1183.023438 677.097656 C 1194.308594 673.046875 1208.199219 668.128906 1233.082031 661.183594 C 1233.953125 660.894531 1234.53125 661.472656 1234.820312 662.050781 C 1235.109375 662.632812 1234.53125 663.5 1233.953125 663.789062 C 1209.066406 670.734375 1195.179688 675.652344 1183.894531 679.703125 C 1167.109375 685.492188 1156.984375 689.253906 1126.890625 694.171875 C 1121.679688 695.039062 1115.894531 706.902344 1110.972656 717.609375 C 1104.609375 730.917969 1098.820312 743.363281 1091.007812 743.363281 C 1090.429688 743.363281 1089.851562 743.363281 1089.5625 743.074219 C 1078.855469 740.757812 1071.332031 729.761719 1063.519531 718.476562 C 1059.757812 712.980469 1055.707031 707.191406 1051.65625 702.851562 C 1044.132812 694.75 1022.429688 690.121094 1005.359375 686.359375 C 994.074219 684.042969 984.523438 681.730469 979.027344 679.125 C 978.160156 678.546875 977.871094 677.679688 978.160156 677.097656 Z M 1385.285156 769.113281 C 1384.707031 768.535156 1383.839844 768.535156 1383.261719 768.824219 C 1360.691406 787.34375 1325.390625 809.046875 1297.03125 822.066406 C 1268.675781 835.089844 1236.265625 833.351562 1205.304688 831.90625 C 1189.679688 831.039062 1173.1875 830.167969 1157.5625 831.328125 C 1146.855469 831.90625 1134.703125 838.273438 1123.417969 844.347656 C 1108.660156 852.160156 1094.769531 859.394531 1084.0625 855.34375 C 1074.226562 851.582031 1066.125 844.636719 1058.3125 837.980469 C 1046.160156 827.855469 1034.003906 817.4375 1015.484375 817.726562 C 1011.433594 817.726562 1007.382812 818.015625 1003.332031 818.015625 C 970.636719 818.882812 937.070312 820.042969 897.136719 804.996094 C 859.234375 790.527344 811.488281 787.632812 810.332031 788.503906 L 811.199219 789.660156 L 811.199219 791.105469 C 811.777344 791.105469 857.496094 792.84375 896.269531 807.601562 C 936.78125 822.9375 970.925781 821.777344 1003.621094 820.910156 C 1007.671875 820.910156 1011.722656 820.621094 1015.777344 820.621094 C 1032.847656 820.042969 1044.421875 829.878906 1056.574219 840.296875 C 1064.675781 847.242188 1073.070312 854.1875 1083.195312 857.949219 C 1085.800781 858.816406 1088.40625 859.394531 1091.007812 859.394531 C 1101.425781 859.394531 1113 853.316406 1125.152344 846.953125 C 1136.4375 841.164062 1148.011719 834.800781 1158.429688 834.222656 C 1174.054688 833.0625 1190.257812 833.929688 1205.882812 834.800781 C 1237.425781 836.535156 1270.121094 838.273438 1299.058594 824.960938 C 1327.414062 811.941406 1363.007812 789.949219 1385.867188 771.429688 C 1385.574219 770.5625 1385.863281 769.695312 1385.285156 769.113281 Z M 878.910156 758.988281 C 877.75 755.804688 880.933594 752.910156 883.828125 751.175781 C 886.722656 749.4375 889.90625 748.570312 893.085938 748.28125 C 890.484375 747.125 888.167969 745.675781 887.011719 743.652344 C 886.144531 742.203125 886.144531 740.46875 887.011719 738.734375 C 888.167969 735.550781 892.507812 735.550781 894.824219 736.128906 C 899.453125 736.996094 902.636719 740.179688 905.53125 743.074219 C 905.820312 743.363281 905.820312 743.363281 906.109375 743.652344 C 904.660156 737.863281 904.660156 731.789062 905.820312 726.867188 C 906.6875 721.949219 909.003906 720.792969 910.449219 720.792969 C 913.921875 720.792969 914.5 725.710938 914.789062 727.449219 C 915.367188 731.210938 914.789062 734.972656 914.210938 738.734375 C 917.394531 734.101562 923.179688 726.578125 928.96875 728.605469 C 930.125 728.894531 930.703125 729.761719 931.28125 730.917969 C 932.152344 733.8125 929.546875 737.863281 929.257812 737.863281 C 927.230469 740.757812 924.917969 742.492188 922.601562 744.230469 C 928.390625 742.492188 936.492188 741.046875 939.675781 747.125 C 940.832031 749.726562 940.542969 751.175781 939.675781 752.332031 C 936.492188 756.960938 922.601562 754.9375 922.023438 754.9375 C 920.289062 754.648438 918.550781 754.359375 916.816406 753.777344 C 918.261719 755.515625 919.707031 757.25 920.867188 758.988281 C 924.050781 763.90625 925.496094 769.113281 925.785156 774.613281 C 925.785156 776.636719 925.785156 778.953125 924.628906 780.398438 C 924.050781 780.980469 923.46875 781.269531 922.601562 781.269531 C 922.601562 781.269531 922.601562 781.269531 922.3125 781.269531 C 919.417969 781.269531 917.105469 778.085938 916.234375 776.636719 C 913.921875 773.457031 912.476562 769.40625 911.316406 764.484375 C 910.738281 768.535156 909.871094 772.875 908.132812 776.925781 C 907.265625 779.242188 905.242188 783.871094 902.058594 783.871094 C 901.769531 783.871094 901.480469 783.871094 901.191406 783.582031 C 898.296875 782.714844 898.007812 777.507812 898.007812 775.191406 C 897.71875 768.246094 899.742188 762.171875 902.347656 756.671875 C 897.429688 760.144531 892.21875 761.882812 887.011719 762.171875 C 880.933594 762.460938 879.199219 760.722656 878.910156 758.988281 Z M 919.996094 747.703125 L 918.839844 747.992188 C 917.105469 748.570312 915.078125 749.148438 913.34375 750.015625 C 916.234375 750.886719 918.839844 751.464844 921.734375 752.042969 C 926.941406 752.910156 935.042969 752.910156 936.492188 750.597656 C 936.492188 750.308594 937.070312 749.726562 936.203125 748.28125 C 933.886719 743.652344 926.652344 745.386719 919.996094 747.703125 Z M 912.765625 746.253906 C 913.921875 745.675781 914.789062 745.097656 915.945312 744.519531 C 919.707031 742.203125 923.46875 740.179688 926.363281 736.128906 C 927.230469 734.679688 928.101562 732.367188 927.8125 731.5 C 927.8125 731.210938 927.519531 731.210938 927.230469 730.917969 C 926.941406 730.917969 926.652344 730.628906 926.363281 730.628906 C 922.890625 730.628906 918.261719 736.128906 914.789062 741.914062 C 914.5 742.203125 913.632812 744.230469 912.765625 746.253906 Z M 911.894531 753.199219 C 911.894531 753.199219 911.894531 753.488281 911.894531 753.488281 C 912.183594 755.515625 912.472656 757.539062 912.765625 759.277344 C 913.921875 765.933594 915.65625 770.851562 918.261719 774.613281 C 918.839844 775.480469 920.578125 778.085938 922.023438 778.085938 C 922.023438 778.085938 922.601562 777.507812 922.601562 774.613281 C 922.3125 769.695312 920.867188 764.773438 918.261719 760.433594 C 917.105469 758.410156 915.367188 756.382812 913.632812 754.648438 L 913.34375 754.359375 C 912.472656 753.777344 912.183594 753.488281 911.894531 753.199219 Z M 908.710938 742.785156 L 908.710938 743.363281 C 909.003906 744.230469 909.003906 745.097656 909.292969 745.675781 C 909.292969 745.386719 909.292969 745.097656 909.582031 744.808594 C 909.871094 743.941406 909.871094 743.074219 909.871094 743.074219 L 909.871094 742.785156 C 911.027344 737.863281 912.183594 732.65625 911.316406 727.738281 C 910.738281 723.976562 909.871094 723.6875 909.871094 723.6875 C 909.582031 723.6875 908.714844 724.554688 908.132812 727.449219 C 907.265625 731.789062 907.265625 737.285156 908.710938 742.785156 Z M 906.398438 752.332031 C 906.109375 753.199219 905.820312 754.070312 905.53125 754.359375 C 905.242188 754.9375 904.953125 755.515625 904.953125 755.515625 C 902.347656 761.011719 899.742188 767.667969 900.03125 774.613281 C 900.320312 779.820312 901.191406 780.398438 901.480469 780.398438 C 901.480469 780.398438 902.636719 780.691406 904.660156 775.480469 C 907.265625 769.695312 907.84375 763.328125 908.132812 758.699219 C 908.132812 758.121094 908.132812 757.539062 908.132812 756.382812 C 907.84375 753.199219 907.84375 750.886719 908.421875 749.4375 C 908.421875 749.4375 908.132812 749.4375 908.132812 749.4375 C 908.132812 749.4375 908.132812 749.726562 907.84375 749.726562 C 907.84375 750.019531 907.84375 750.019531 907.554688 750.308594 C 907.265625 750.597656 907.265625 750.886719 906.976562 750.886719 C 906.976562 751.753906 906.6875 752.042969 906.398438 752.332031 C 906.6875 752.332031 906.6875 752.332031 906.398438 752.332031 Z M 900.320312 747.414062 C 900.609375 747.414062 901.191406 747.703125 901.769531 747.703125 C 902.058594 747.703125 902.058594 747.703125 902.636719 747.703125 C 902.925781 747.703125 902.925781 747.703125 903.214844 747.703125 C 904.371094 747.703125 905.242188 747.703125 906.109375 747.992188 C 906.398438 747.703125 906.398438 747.703125 906.6875 747.703125 C 905.53125 746.835938 904.660156 745.964844 903.792969 745.097656 C 900.898438 742.203125 898.296875 739.601562 894.535156 739.023438 C 893.085938 738.734375 890.484375 738.734375 889.90625 739.890625 C 889.613281 740.757812 889.613281 741.625 889.90625 742.496094 C 890.773438 744.519531 895.980469 746.546875 900.320312 747.414062 Z M 881.511719 758.121094 C 881.800781 758.988281 883.539062 759.566406 885.855469 759.277344 C 890.773438 758.988281 895.980469 756.960938 900.609375 753.488281 C 901.769531 752.621094 902.925781 751.753906 903.792969 750.597656 C 902.636719 750.597656 901.769531 750.308594 901.191406 750.308594 C 900.609375 750.308594 900.320312 750.308594 899.742188 750.308594 C 895.691406 750.308594 889.90625 750.886719 885.273438 753.488281 C 883.539062 754.648438 880.933594 756.671875 881.511719 758.121094 Z M 1037.1875 783.003906 C 1032.558594 782.714844 1028.507812 780.109375 1025.324219 777.796875 C 1026.769531 782.425781 1027.058594 787.632812 1026.480469 792.554688 C 1026.191406 795.15625 1025.324219 798.050781 1023.589844 799.207031 C 1023.007812 799.496094 1022.71875 799.789062 1022.140625 799.789062 C 1021.851562 799.789062 1021.5625 799.789062 1021.273438 799.789062 C 1016.066406 798.339844 1015.195312 791.105469 1015.195312 785.03125 C 1014.328125 786.765625 1013.171875 788.503906 1012.015625 789.949219 C 1009.121094 793.421875 1006.515625 794.578125 1004.78125 793.710938 C 1001.886719 792.265625 1003.042969 787.921875 1003.621094 786.476562 C 1004.492188 783.003906 1006.515625 779.242188 1008.832031 776.058594 C 1006.226562 777.21875 1003.621094 778.375 1000.730469 778.953125 C 998.125 779.53125 995.808594 779.820312 994.074219 778.664062 C 993.496094 778.085938 992.917969 777.507812 992.917969 776.636719 C 992.625 774.324219 994.941406 772.585938 996.386719 771.429688 L 996.679688 771.140625 C 999.570312 768.824219 1003.042969 767.378906 1006.515625 766.800781 C 1004.203125 765.933594 1001.886719 764.773438 999.859375 763.039062 C 997.257812 761.011719 996.097656 758.410156 996.96875 756.382812 C 998.414062 753.199219 1002.464844 753.199219 1005.359375 754.070312 C 1007.382812 754.648438 1009.121094 755.804688 1010.566406 756.671875 C 1009.988281 755.226562 1009.410156 753.777344 1008.832031 752.332031 C 1007.671875 748.28125 1009.410156 746.835938 1010.566406 746.546875 C 1013.75 745.386719 1016.355469 749.4375 1017.511719 751.175781 C 1018.089844 752.332031 1018.667969 753.199219 1018.957031 754.359375 C 1019.539062 752.621094 1020.117188 750.886719 1020.695312 749.4375 C 1021.273438 747.992188 1022.71875 745.386719 1025.324219 745.964844 C 1028.21875 746.546875 1028.21875 750.597656 1028.507812 751.753906 C 1028.507812 754.648438 1027.929688 757.832031 1026.769531 761.011719 C 1029.953125 758.699219 1034.582031 755.804688 1038.054688 756.382812 C 1039.503906 756.671875 1040.660156 757.832031 1041.527344 759.277344 C 1042.6875 761.589844 1040.949219 763.90625 1037.1875 765.933594 C 1035.453125 766.800781 1033.714844 767.378906 1031.691406 767.957031 C 1039.792969 769.113281 1043.84375 772.585938 1043.84375 778.664062 C 1043.84375 779.820312 1043.265625 780.980469 1042.398438 781.847656 C 1040.660156 783.003906 1038.34375 783.003906 1037.1875 783.003906 Z M 1025.324219 765.351562 C 1025.035156 765.644531 1024.457031 766.222656 1023.878906 766.800781 C 1024.167969 766.800781 1024.167969 766.800781 1024.167969 766.800781 C 1028.21875 765.933594 1031.980469 765.0625 1035.164062 763.328125 C 1037.1875 762.171875 1038.636719 761.011719 1038.34375 760.433594 C 1038.054688 759.566406 1037.476562 759.277344 1036.898438 759.277344 C 1036.609375 759.277344 1036.609375 759.277344 1036.320312 759.277344 C 1033.714844 758.988281 1029.085938 762.171875 1025.324219 765.351562 Z M 1020.40625 761.882812 C 1020.40625 762.171875 1020.40625 762.460938 1020.40625 762.75 C 1020.40625 763.617188 1020.695312 764.773438 1020.695312 765.644531 C 1021.273438 764.773438 1021.851562 763.90625 1022.140625 763.328125 C 1024.167969 758.988281 1025.324219 754.9375 1025.324219 751.753906 C 1025.324219 748.859375 1024.457031 748.570312 1024.457031 748.570312 C 1024.167969 748.570312 1023.878906 748.859375 1023.007812 750.597656 C 1021.5625 753.488281 1020.695312 757.539062 1020.40625 761.882812 Z M 1011.433594 751.753906 C 1012.304688 755.226562 1014.328125 758.410156 1016.066406 760.722656 C 1016.644531 761.300781 1016.933594 761.882812 1017.511719 762.460938 C 1017.511719 762.460938 1017.511719 762.171875 1017.511719 762.171875 C 1017.222656 758.699219 1016.644531 755.804688 1014.90625 752.621094 C 1013.75 750.597656 1012.59375 749.4375 1011.722656 749.4375 C 1011.722656 749.4375 1011.722656 749.4375 1011.433594 749.4375 C 1010.855469 749.4375 1011.144531 750.597656 1011.433594 751.753906 Z M 1013.460938 770.273438 C 1013.460938 770.273438 1013.75 769.984375 1014.328125 769.984375 C 1014.617188 769.984375 1014.617188 769.695312 1014.90625 769.695312 C 1014.90625 769.695312 1014.617188 769.695312 1014.617188 769.695312 C 1013.460938 769.695312 1012.304688 769.40625 1011.144531 769.40625 C 1010.855469 769.40625 1010.566406 769.40625 1010.277344 769.40625 C 1005.9375 769.40625 1001.597656 770.851562 998.125 773.746094 L 997.835938 774.035156 C 995.519531 775.769531 995.519531 776.347656 995.519531 776.636719 C 995.519531 776.636719 996.386719 777.21875 999.859375 776.347656 C 1004.492188 774.902344 1009.410156 772.296875 1013.460938 770.273438 Z M 1016.066406 772.296875 C 1015.195312 772.875 1014.328125 773.746094 1013.460938 774.613281 C 1009.988281 778.085938 1007.09375 782.425781 1005.9375 787.054688 C 1005.070312 790.527344 1005.648438 791.105469 1005.9375 791.105469 C 1005.9375 791.105469 1007.09375 791.394531 1009.699219 788.210938 C 1013.171875 783.871094 1014.90625 778.375 1015.777344 774.324219 C 1015.777344 774.324219 1015.777344 774.035156 1015.777344 773.746094 C 1015.777344 773.457031 1015.777344 773.167969 1015.777344 772.875 C 1016.066406 772.585938 1016.066406 772.585938 1016.066406 772.296875 Z M 1017.800781 766.800781 C 1016.644531 766.511719 1015.484375 765.351562 1014.039062 763.90625 C 1013.75 763.617188 1013.460938 763.328125 1013.171875 763.039062 C 1010.566406 760.722656 1007.671875 757.832031 1003.910156 756.671875 C 1002.175781 756.09375 999.570312 755.804688 998.992188 757.25 C 998.703125 758.121094 999.859375 759.566406 1001.019531 760.722656 C 1004.492188 763.617188 1009.410156 765.0625 1013.460938 766.222656 C 1013.75 766.222656 1014.039062 766.511719 1014.328125 766.511719 C 1014.617188 766.511719 1014.617188 766.511719 1014.90625 766.800781 C 1015.484375 766.800781 1016.066406 766.800781 1016.644531 767.089844 C 1017.222656 766.800781 1017.511719 766.800781 1017.800781 766.800781 Z M 1021.273438 775.191406 L 1020.984375 774.613281 C 1020.695312 774.035156 1020.695312 773.746094 1020.40625 773.457031 C 1020.40625 773.457031 1020.40625 773.457031 1020.117188 773.167969 C 1019.828125 772.585938 1019.246094 772.296875 1018.957031 771.71875 C 1018.957031 772.296875 1018.667969 773.167969 1018.378906 774.035156 C 1018.378906 774.035156 1018.378906 774.035156 1018.378906 774.324219 C 1018.089844 776.058594 1018.089844 777.507812 1017.800781 778.953125 C 1016.933594 789.660156 1018.378906 795.734375 1021.5625 796.894531 C 1021.5625 796.894531 1022.429688 796.316406 1023.007812 792.265625 C 1024.457031 786.476562 1023.589844 780.398438 1021.273438 775.191406 Z M 1025.613281 774.324219 C 1027.929688 776.347656 1032.847656 779.820312 1037.765625 780.109375 C 1038.925781 780.109375 1040.082031 780.109375 1040.660156 779.53125 C 1040.949219 779.242188 1040.949219 779.242188 1040.949219 778.375 C 1041.238281 772.296875 1034.582031 770.851562 1029.085938 770.5625 C 1027.351562 770.5625 1025.324219 770.273438 1023.589844 770.273438 C 1023.300781 770.273438 1023.007812 770.273438 1022.71875 770.273438 C 1023.007812 770.5625 1023.300781 771.140625 1023.300781 771.71875 C 1023.878906 772.875 1024.746094 773.457031 1025.613281 774.324219 Z M 1147.722656 789.371094 C 1145.117188 790.527344 1141.9375 791.105469 1139.042969 791.394531 C 1142.804688 793.421875 1145.117188 796.027344 1146.566406 799.207031 C 1147.144531 800.65625 1148.878906 805.285156 1145.699219 807.601562 C 1140.777344 811.070312 1133.832031 805.574219 1129.203125 800.945312 C 1130.070312 805.285156 1130.070312 809.625 1129.492188 813.964844 C 1129.203125 815.703125 1128.335938 820.042969 1125.152344 820.332031 C 1123.128906 820.332031 1121.390625 818.59375 1120.234375 815.414062 C 1118.789062 811.652344 1118.496094 807.601562 1118.789062 803.257812 C 1117.050781 806.152344 1114.734375 808.757812 1112.421875 810.78125 C 1109.527344 813.386719 1107.214844 813.675781 1105.1875 812.519531 C 1103.453125 811.070312 1102.871094 808.46875 1104.03125 804.996094 C 1105.1875 800.367188 1108.082031 796.894531 1110.972656 794.289062 C 1105.765625 795.445312 1101.136719 795.734375 1096.796875 795.15625 L 1096.21875 795.15625 C 1094.480469 794.867188 1091.007812 794.578125 1090.429688 791.972656 C 1089.5625 788.210938 1096.21875 785.320312 1097.664062 785.03125 C 1099.691406 784.160156 1102.003906 783.871094 1104.320312 783.582031 C 1102.871094 782.714844 1101.714844 781.269531 1100.847656 780.109375 C 1098.820312 777.21875 1098.242188 774.902344 1099.398438 773.167969 C 1101.136719 770.273438 1105.765625 771.71875 1107.792969 772.585938 C 1112.710938 774.324219 1115.605469 777.507812 1118.207031 780.398438 C 1117.339844 775.769531 1117.628906 770.5625 1119.078125 765.644531 C 1119.367188 764.195312 1120.523438 760.144531 1123.417969 760.144531 C 1126.601562 760.144531 1126.890625 764.484375 1127.179688 765.933594 C 1127.46875 769.40625 1127.179688 772.585938 1126.601562 776.058594 C 1127.757812 774.324219 1128.914062 772.875 1130.070312 771.71875 C 1130.941406 770.851562 1137.015625 766.222656 1140.488281 767.957031 C 1141.355469 768.246094 1142.515625 769.40625 1142.226562 772.007812 C 1141.644531 775.191406 1139.621094 778.085938 1137.015625 780.398438 C 1141.9375 778.953125 1148.300781 777.796875 1151.484375 781.847656 C 1152.351562 783.003906 1152.640625 784.449219 1152.351562 785.609375 C 1151.484375 787.054688 1149.460938 788.503906 1147.722656 789.371094 Z M 1113.578125 789.949219 C 1115.027344 789.371094 1116.472656 789.082031 1117.628906 788.503906 C 1116.472656 788.210938 1115.316406 787.921875 1114.15625 787.34375 C 1112.710938 786.765625 1111.265625 786.476562 1110.105469 785.898438 C 1108.949219 785.898438 1107.792969 785.609375 1106.632812 785.609375 C 1104.03125 785.609375 1101.425781 785.898438 1098.820312 787.054688 C 1095.636719 788.210938 1093.324219 790.238281 1093.324219 790.816406 C 1093.324219 791.105469 1093.902344 791.394531 1096.507812 791.683594 L 1097.085938 791.683594 C 1102.003906 792.265625 1107.214844 791.683594 1113.578125 789.949219 Z M 1119.367188 791.394531 C 1119.367188 791.105469 1119.367188 791.105469 1119.367188 790.816406 C 1119.078125 790.816406 1119.078125 790.816406 1118.789062 791.105469 C 1118.207031 791.394531 1117.917969 791.683594 1117.050781 792.265625 L 1116.472656 792.84375 C 1110.972656 796.316406 1107.503906 800.945312 1106.34375 805.285156 C 1105.765625 807.601562 1105.765625 809.335938 1106.632812 809.914062 C 1106.921875 810.203125 1107.792969 810.492188 1110.105469 808.46875 C 1113.867188 805.285156 1117.050781 800.65625 1118.789062 795.734375 C 1118.789062 795.734375 1118.789062 795.445312 1118.789062 795.445312 C 1118.789062 795.15625 1119.078125 794.867188 1119.078125 794.578125 C 1119.078125 794 1119.367188 793.421875 1119.367188 792.84375 C 1119.367188 791.972656 1119.367188 791.683594 1119.367188 791.394531 Z M 1119.65625 785.320312 C 1118.496094 784.160156 1117.339844 783.003906 1116.472656 781.847656 C 1113.867188 778.953125 1111.265625 776.058594 1107.210938 774.613281 C 1104.03125 773.457031 1102.292969 773.167969 1101.714844 774.035156 C 1101.425781 774.613281 1101.714844 775.769531 1103.160156 777.796875 C 1104.898438 780.398438 1107.503906 781.847656 1110.683594 783.292969 C 1112.710938 783.582031 1114.734375 783.871094 1116.761719 784.742188 L 1117.339844 785.03125 C 1118.207031 784.742188 1118.789062 785.03125 1119.65625 785.320312 Z M 1124.863281 784.742188 C 1125.152344 784.742188 1125.152344 784.449219 1125.441406 784.449219 C 1125.730469 784.160156 1126.3125 783.871094 1126.601562 783.871094 C 1126.601562 783.871094 1126.890625 783.582031 1126.890625 783.582031 C 1127.179688 783.292969 1127.757812 783.003906 1127.757812 782.714844 L 1128.335938 782.425781 C 1132.097656 779.820312 1138.464844 775.191406 1139.042969 770.5625 C 1139.042969 769.984375 1139.042969 769.40625 1139.042969 769.40625 C 1139.042969 769.40625 1138.753906 769.40625 1138.753906 769.40625 C 1137.304688 769.40625 1133.253906 771.429688 1132.097656 772.875 C 1130.941406 774.035156 1129.78125 775.769531 1128.625 777.796875 C 1126.890625 780.109375 1125.730469 782.425781 1124.863281 784.742188 Z M 1121.101562 779.820312 C 1121.390625 780.691406 1121.679688 781.847656 1122.257812 782.714844 L 1123.128906 778.664062 C 1123.996094 774.324219 1124.574219 769.984375 1124.285156 765.644531 C 1123.996094 762.75 1123.417969 762.460938 1123.417969 762.460938 C 1123.417969 762.460938 1122.550781 762.75 1121.679688 765.933594 C 1120.523438 770.5625 1120.234375 775.480469 1121.101562 779.820312 Z M 1124.863281 796.027344 C 1123.707031 794.578125 1123.128906 793.710938 1122.550781 792.84375 C 1122.257812 793.421875 1122.257812 794 1121.96875 794.867188 C 1121.679688 796.027344 1121.679688 797.472656 1121.390625 798.628906 C 1120.8125 803.839844 1120.8125 809.625 1122.550781 813.964844 C 1123.128906 815.703125 1124.285156 817.148438 1124.863281 817.148438 C 1125.152344 817.148438 1126.019531 816.859375 1126.601562 813.097656 C 1127.46875 807.601562 1126.890625 801.523438 1124.863281 796.027344 Z M 1130.941406 791.394531 C 1130.941406 791.394531 1130.070312 791.394531 1129.492188 791.105469 C 1127.757812 791.105469 1126.601562 790.816406 1125.730469 790.816406 C 1126.601562 792.265625 1127.179688 793.710938 1127.46875 794.289062 C 1127.757812 794.578125 1127.757812 794.867188 1128.046875 795.15625 C 1133.253906 801.234375 1140.488281 807.308594 1144.25 804.996094 C 1145.410156 804.417969 1144.828125 802.101562 1144.25 800.078125 C 1142.226562 796.027344 1137.886719 792.84375 1130.941406 791.394531 Z M 1146.566406 786.765625 C 1148.011719 786.1875 1149.167969 785.03125 1149.167969 784.160156 C 1149.167969 783.871094 1149.167969 783.292969 1148.878906 782.714844 C 1146.855469 779.820312 1141.066406 780.398438 1132.097656 784.160156 C 1130.652344 784.742188 1129.492188 785.320312 1128.046875 786.1875 C 1127.179688 786.765625 1126.601562 787.34375 1126.019531 787.632812 C 1127.46875 787.632812 1128.914062 787.921875 1130.070312 788.214844 C 1130.363281 788.214844 1130.363281 788.214844 1130.652344 788.214844 C 1130.652344 788.214844 1130.941406 788.214844 1130.941406 788.214844 C 1136.148438 788.792969 1141.9375 788.792969 1146.566406 786.765625 Z M 1231.347656 761.300781 C 1232.792969 758.121094 1235.109375 755.226562 1238.003906 752.621094 C 1239.738281 751.175781 1244.078125 747.992188 1246.972656 750.308594 C 1249 751.753906 1249 754.359375 1246.683594 758.121094 C 1244.367188 761.882812 1241.476562 765.0625 1238.292969 767.957031 C 1242.632812 766.511719 1247.261719 765.644531 1251.601562 766.800781 C 1254.207031 767.378906 1257.101562 769.113281 1257.101562 772.007812 C 1257.101562 775.480469 1253.050781 776.636719 1251.601562 776.929688 C 1248.417969 777.796875 1244.949219 778.085938 1242.054688 778.085938 C 1246.394531 780.398438 1250.15625 783.292969 1251.890625 787.921875 C 1252.472656 789.082031 1253.917969 793.710938 1251.3125 796.027344 C 1250.15625 797.183594 1247.839844 798.339844 1243.5 796.316406 C 1240.027344 794.578125 1236.265625 791.972656 1233.082031 788.503906 C 1233.375 791.683594 1233.664062 795.15625 1233.375 798.339844 L 1233.375 798.917969 C 1233.082031 802.390625 1232.503906 806.441406 1230.191406 806.441406 C 1227.585938 806.441406 1226.140625 802.679688 1225.269531 798.628906 C 1224.402344 795.445312 1224.113281 791.972656 1223.824219 788.210938 C 1221.796875 791.105469 1219.195312 794 1216.011719 796.027344 C 1214.566406 796.894531 1211.382812 799.207031 1209.066406 797.472656 C 1206.753906 795.734375 1208.488281 791.683594 1209.355469 789.949219 C 1210.515625 787.921875 1211.671875 785.609375 1213.117188 783.582031 C 1209.644531 785.03125 1205.882812 786.1875 1202.992188 785.320312 C 1201.253906 784.742188 1200.097656 783.582031 1199.519531 782.136719 C 1198.648438 779.820312 1200.097656 777.507812 1203.859375 775.480469 C 1206.753906 774.035156 1210.222656 772.585938 1213.695312 771.71875 C 1209.644531 770.5625 1203.28125 768.535156 1201.542969 764.773438 C 1200.675781 763.039062 1200.675781 761.300781 1201.832031 759.566406 C 1203.570312 756.671875 1207.042969 756.382812 1211.671875 758.699219 C 1215.144531 760.433594 1217.746094 762.75 1220.351562 765.0625 C 1220.929688 765.644531 1221.796875 766.222656 1222.378906 766.800781 C 1220.929688 761.300781 1220.351562 755.226562 1220.640625 749.726562 C 1220.640625 747.703125 1220.929688 743.652344 1223.824219 743.074219 C 1226.140625 742.496094 1227.875 744.230469 1229.320312 748.28125 C 1231.058594 752.042969 1231.347656 756.671875 1231.347656 761.300781 Z M 1218.039062 769.695312 C 1219.484375 769.984375 1220.929688 769.984375 1222.378906 770.273438 C 1220.929688 769.113281 1219.773438 767.957031 1218.328125 766.800781 C 1215.722656 764.484375 1213.117188 762.460938 1210.222656 761.011719 C 1209.355469 760.722656 1207.621094 759.855469 1206.171875 759.855469 C 1205.304688 759.855469 1204.4375 760.144531 1204.148438 760.722656 C 1203.570312 761.589844 1203.570312 762.460938 1203.859375 763.328125 C 1205.59375 766.800781 1214.277344 769.113281 1218.039062 769.695312 Z M 1218.328125 777.21875 C 1218.90625 776.636719 1219.484375 776.058594 1220.0625 775.480469 L 1220.640625 774.902344 C 1221.21875 774.324219 1221.800781 773.746094 1222.378906 773.167969 C 1221.800781 773.167969 1221.507812 773.167969 1221.21875 773.167969 C 1215.144531 773.746094 1209.644531 775.191406 1205.304688 777.507812 C 1203.859375 778.375 1201.832031 779.53125 1202.410156 780.6875 C 1202.703125 781.558594 1203.28125 781.847656 1204.148438 782.136719 C 1207.332031 783.582031 1214.277344 779.820312 1218.328125 777.21875 Z M 1224.402344 776.058594 C 1222.667969 777.507812 1220.929688 778.953125 1220.929688 778.953125 C 1220.640625 778.953125 1220.351562 779.242188 1220.0625 779.53125 C 1216.589844 783.003906 1213.984375 786.765625 1211.960938 790.816406 C 1210.222656 794.289062 1210.804688 794.867188 1210.804688 794.867188 C 1210.804688 794.867188 1211.382812 795.15625 1214.277344 793.132812 C 1218.617188 789.949219 1222.089844 785.898438 1223.824219 781.558594 C 1223.824219 781.269531 1224.113281 780.980469 1224.113281 780.691406 C 1224.113281 780.398438 1224.113281 780.109375 1224.113281 779.820312 C 1224.113281 779.53125 1224.113281 778.953125 1224.113281 778.664062 C 1224.402344 777.796875 1224.402344 776.929688 1224.402344 776.058594 Z M 1226.429688 769.695312 C 1226.71875 769.984375 1227.007812 769.984375 1227.296875 770.273438 C 1227.585938 770.5625 1227.875 770.851562 1227.875 771.429688 C 1227.875 771.429688 1227.875 771.429688 1228.164062 771.429688 C 1228.164062 771.140625 1228.164062 771.140625 1228.164062 770.851562 C 1228.164062 770.273438 1228.164062 769.695312 1228.164062 769.40625 L 1228.164062 767.378906 C 1228.164062 766.222656 1228.164062 765.0625 1228.164062 763.617188 C 1228.164062 758.410156 1228.164062 753.199219 1226.429688 748.859375 C 1225.269531 745.675781 1224.113281 745.386719 1224.113281 745.386719 C 1224.113281 745.386719 1223.535156 745.675781 1223.246094 749.148438 C 1222.667969 755.226562 1223.535156 761.011719 1224.980469 766.222656 C 1225.558594 767.957031 1226.140625 768.824219 1226.429688 769.695312 Z M 1229.613281 783.003906 C 1228.742188 781.847656 1228.164062 780.691406 1227.585938 779.242188 C 1227.296875 780.109375 1227.296875 780.980469 1227.007812 781.558594 C 1226.429688 787.632812 1226.71875 792.84375 1227.875 797.472656 C 1228.742188 801.234375 1229.613281 802.390625 1229.902344 802.96875 C 1230.191406 802.390625 1230.480469 801.234375 1230.769531 798.339844 L 1230.769531 797.761719 C 1231.347656 792.84375 1230.769531 787.921875 1229.613281 783.003906 Z M 1236.265625 778.085938 C 1235.109375 777.507812 1234.242188 777.21875 1233.375 776.929688 C 1232.503906 776.636719 1231.636719 776.636719 1230.769531 776.347656 C 1230.769531 776.347656 1230.769531 776.347656 1230.480469 776.347656 C 1230.769531 777.21875 1231.347656 778.375 1231.636719 780.109375 C 1231.636719 780.398438 1231.925781 780.691406 1231.925781 780.980469 C 1231.925781 781.269531 1232.214844 781.558594 1232.214844 781.847656 C 1232.503906 782.425781 1232.792969 782.714844 1233.082031 783.292969 C 1236.554688 787.921875 1240.605469 791.683594 1244.949219 793.421875 C 1246.105469 794 1248.417969 794.867188 1249.578125 793.710938 C 1250.445312 792.84375 1250.15625 790.527344 1249.578125 788.503906 C 1247.261719 783.292969 1241.476562 780.398438 1236.265625 778.085938 Z M 1236.265625 771.429688 C 1235.109375 772.007812 1233.664062 772.585938 1232.503906 773.167969 C 1232.503906 773.167969 1232.503906 773.167969 1232.214844 773.167969 C 1232.792969 773.457031 1233.375 773.746094 1234.242188 774.035156 C 1235.398438 774.324219 1236.84375 774.324219 1238.003906 774.613281 C 1243.5 775.191406 1247.550781 774.902344 1251.3125 773.746094 C 1254.207031 772.875 1254.785156 772.007812 1254.785156 771.429688 C 1254.785156 770.273438 1252.761719 769.40625 1251.601562 769.113281 C 1246.394531 767.957031 1240.898438 769.695312 1236.265625 771.429688 Z M 1231.347656 769.984375 C 1232.214844 769.40625 1233.082031 768.824219 1233.664062 767.957031 C 1237.425781 764.773438 1241.476562 761.011719 1244.078125 756.382812 C 1245.816406 753.199219 1245.238281 752.621094 1245.238281 752.332031 C 1244.949219 752.332031 1244.949219 752.042969 1244.367188 752.042969 C 1243.210938 752.042969 1241.476562 752.910156 1239.449219 754.648438 C 1234.820312 758.988281 1232.503906 765.0625 1231.347656 769.984375 Z M 1293.269531 748.28125 C 1292.113281 746.835938 1291.535156 745.386719 1292.113281 743.363281 C 1292.691406 740.757812 1295.296875 739.3125 1299.347656 739.601562 C 1301.953125 739.890625 1304.265625 740.46875 1306.871094 741.335938 C 1306.871094 741.335938 1306.582031 741.046875 1306.582031 741.046875 C 1303.398438 738.152344 1300.503906 734.101562 1298.480469 730.050781 C 1297.609375 728.316406 1296.164062 724.84375 1298.480469 723.394531 C 1301.371094 721.371094 1305.132812 725.421875 1306.292969 726.578125 C 1308.316406 728.894531 1309.765625 731.789062 1311.210938 734.679688 C 1311.5 735.550781 1312.078125 736.417969 1312.367188 737.285156 C 1312.367188 736.707031 1312.367188 736.417969 1312.65625 735.839844 C 1313.527344 731.789062 1315.261719 728.027344 1318.15625 726 C 1318.445312 725.710938 1320.46875 724.265625 1322.207031 724.554688 C 1323.074219 724.554688 1323.652344 725.132812 1324.230469 725.710938 C 1325.96875 728.027344 1324.519531 731.210938 1322.785156 734.101562 C 1325.390625 732.367188 1328.28125 730.917969 1331.464844 730.917969 C 1334.359375 730.917969 1337.542969 731.789062 1338.121094 734.390625 C 1338.410156 735.839844 1338.410156 737.285156 1337.253906 739.023438 C 1334.648438 743.363281 1326.835938 745.964844 1324.230469 746.546875 C 1323.652344 746.546875 1323.074219 746.835938 1322.496094 746.835938 C 1322.496094 746.835938 1322.785156 746.835938 1322.785156 747.125 C 1326.835938 749.726562 1330.019531 752.332031 1332.625 755.515625 C 1334.070312 757.539062 1335.515625 759.566406 1335.226562 761.589844 C 1335.226562 762.460938 1334.648438 763.328125 1334.070312 763.90625 C 1332.914062 764.773438 1330.886719 765.351562 1327.125 763.617188 C 1324.519531 762.171875 1322.207031 760.433594 1319.890625 758.121094 C 1320.179688 760.144531 1320.179688 762.460938 1320.179688 764.773438 C 1320.179688 766.511719 1320.179688 769.113281 1318.15625 770.273438 C 1317.578125 770.5625 1316.996094 770.851562 1316.417969 770.851562 C 1314.683594 770.851562 1312.945312 769.40625 1311.789062 767.667969 C 1310.054688 765.351562 1309.183594 762.460938 1308.894531 758.988281 C 1307.738281 761.011719 1306.292969 762.75 1304.84375 764.484375 C 1303.6875 765.644531 1301.371094 767.957031 1299.058594 766.222656 C 1297.609375 765.0625 1297.320312 763.039062 1298.191406 759.855469 C 1299.347656 756.671875 1301.371094 753.777344 1303.6875 751.175781 C 1300.503906 751.175781 1295.585938 750.597656 1293.269531 748.28125 Z M 1310.054688 750.308594 C 1309.765625 750.308594 1309.472656 750.597656 1309.183594 750.597656 C 1308.894531 750.886719 1308.605469 750.886719 1308.316406 751.175781 C 1304.84375 753.488281 1301.953125 757.25 1300.792969 761.011719 C 1300.214844 763.039062 1300.214844 763.90625 1300.503906 764.195312 C 1300.792969 764.195312 1301.371094 763.90625 1302.53125 762.75 C 1305.714844 759.566406 1307.738281 755.515625 1309.476562 752.042969 L 1309.765625 751.753906 C 1309.765625 751.175781 1310.054688 750.886719 1310.054688 750.308594 Z M 1320.757812 749.726562 C 1320.46875 749.4375 1319.890625 749.148438 1319.023438 748.859375 C 1317.867188 748.28125 1316.996094 747.992188 1316.128906 747.414062 C 1316.707031 748.570312 1317.289062 749.726562 1317.578125 751.175781 C 1320.179688 755.515625 1323.652344 758.988281 1327.414062 761.011719 C 1329.152344 761.882812 1330.597656 762.171875 1331.175781 761.589844 C 1331.175781 761.589844 1331.175781 761.589844 1331.464844 761.300781 C 1331.464844 760.722656 1331.175781 759.566406 1329.441406 757.25 C 1327.414062 754.648438 1324.519531 752.042969 1320.757812 749.726562 Z M 1319.601562 739.890625 C 1319.3125 740.179688 1319.023438 740.46875 1318.734375 740.46875 C 1316.707031 742.492188 1315.550781 743.363281 1314.683594 743.652344 C 1314.683594 743.652344 1314.683594 743.941406 1314.972656 743.941406 C 1315.261719 743.652344 1315.550781 743.652344 1315.550781 743.652344 C 1316.128906 743.652344 1316.417969 743.941406 1316.707031 743.941406 C 1317.289062 744.230469 1317.578125 744.230469 1318.15625 744.230469 C 1319.601562 744.230469 1321.339844 744.230469 1322.785156 743.652344 C 1325.390625 743.074219 1332.042969 740.757812 1334.070312 737.574219 C 1334.648438 736.707031 1334.648438 736.128906 1334.359375 735.261719 C 1334.070312 734.390625 1332.332031 733.8125 1330.597656 733.8125 C 1326.835938 734.390625 1323.074219 737.285156 1319.601562 739.890625 Z M 1314.683594 739.601562 C 1315.261719 738.734375 1315.839844 738.152344 1316.417969 737.285156 L 1316.996094 736.417969 C 1320.757812 731.789062 1322.207031 728.605469 1321.339844 727.449219 C 1321.339844 727.449219 1321.339844 727.449219 1321.050781 727.449219 C 1320.46875 727.449219 1319.601562 727.738281 1319.023438 728.316406 C 1316.996094 730.050781 1315.261719 732.945312 1314.683594 736.417969 C 1314.683594 737.863281 1314.683594 738.734375 1314.683594 739.601562 Z M 1312.945312 751.464844 C 1312.65625 752.621094 1312.367188 753.777344 1312.078125 754.9375 C 1311.5 758.121094 1311.5 762.460938 1314.105469 766.222656 C 1314.972656 767.378906 1316.128906 768.246094 1316.417969 768.246094 C 1316.707031 767.957031 1316.996094 767.089844 1316.996094 765.351562 C 1316.996094 765.351562 1316.996094 765.0625 1316.996094 765.0625 C 1316.996094 760.722656 1316.707031 756.960938 1315.550781 753.488281 C 1315.550781 753.199219 1315.261719 752.910156 1315.261719 752.621094 C 1314.394531 751.464844 1313.816406 750.597656 1313.527344 749.726562 C 1313.527344 750.015625 1313.234375 750.886719 1312.945312 751.464844 Z M 1308.027344 739.023438 C 1308.894531 739.890625 1309.765625 740.46875 1310.632812 740.757812 C 1309.765625 739.3125 1308.894531 737.574219 1308.316406 735.839844 C 1307.160156 733.234375 1306.003906 730.628906 1303.976562 728.605469 C 1301.660156 726 1300.503906 725.710938 1300.214844 725.710938 C 1299.925781 725.710938 1299.925781 725.710938 1299.925781 725.710938 C 1299.925781 725.710938 1299.636719 726.578125 1300.792969 728.605469 C 1302.242188 732.65625 1305.132812 736.417969 1308.027344 739.023438 Z M 1295.296875 746.253906 C 1297.320312 748.28125 1303.109375 748.859375 1306.003906 748.28125 C 1306.871094 748.28125 1307.449219 747.992188 1308.316406 747.703125 C 1310.632812 746.253906 1311.789062 746.253906 1312.65625 746.546875 C 1312.65625 746.253906 1312.65625 746.253906 1312.945312 745.964844 C 1310.632812 745.675781 1308.316406 744.808594 1306.003906 744.230469 C 1303.6875 743.363281 1301.371094 742.492188 1299.058594 742.492188 C 1298.769531 742.492188 1298.769531 742.492188 1298.480469 742.492188 C 1297.320312 742.492188 1295.296875 742.785156 1295.007812 743.941406 C 1294.429688 744.808594 1294.71875 745.675781 1295.296875 746.253906 Z M 1295.296875 746.253906 " fill-opacity="1" fill-rule="nonzero"/><path fill="#000000" d="M 1215.144531 438.089844 C 1209.644531 440.113281 1207.910156 481.492188 1197.78125 493.933594 C 1191.707031 501.457031 1172.609375 511.296875 1175.210938 507.246094 C 1181.578125 496.539062 1191.996094 486.410156 1193.730469 462.683594 C 1194.597656 447.925781 1183.605469 438.957031 1170.003906 438.957031 C 1156.984375 438.667969 1143.09375 467.605469 1139.910156 468.183594 C 1131.519531 470.207031 1125.441406 448.796875 1118.496094 447.347656 C 1072.199219 438.957031 1006.804688 359.09375 1000.441406 364.882812 C 987.128906 377.324219 964.269531 399.605469 955.011719 415.230469 L 947.199219 436.640625 C 947.488281 437.222656 945.75 435.195312 945.460938 435.195312 C 944.304688 433.75 943.148438 432.300781 941.988281 430.855469 C 939.09375 426.226562 937.070312 421.304688 935.625 416.097656 C 930.703125 400.761719 931.28125 384.269531 937.648438 369.511719 C 952.984375 333.628906 980.472656 316.558594 1016.355469 312.507812 C 1007.09375 298.617188 1018.378906 284.441406 1034.292969 274.3125 C 1052.523438 262.449219 1080.300781 256.949219 1101.425781 263.027344 C 1135.859375 272.574219 1157.5625 296.882812 1182.445312 320.320312 C 1201.832031 338.550781 1220.929688 353.886719 1231.058594 379.636719 C 1236.84375 396.710938 1236.265625 429.699219 1215.144531 438.089844 Z M 1109.816406 553.542969 C 1099.109375 568.300781 1080.882812 588.554688 1056.574219 601.289062 C 1048.183594 605.628906 1040.949219 608.808594 1034.003906 610.546875 C 1031.402344 611.125 1029.375 611.703125 1027.0625 612.28125 C 1026.191406 612.570312 1024.457031 612.863281 1023.878906 612.863281 C 1023.300781 612.570312 1022.429688 613.152344 1022.140625 613.730469 C 1021.851562 614.308594 1022.140625 614.886719 1022.429688 615.175781 C 1022.71875 615.464844 1023.007812 615.753906 1023.878906 615.753906 C 1024.746094 615.753906 1025.902344 615.464844 1027.929688 615.175781 C 1029.953125 614.597656 1032.269531 614.019531 1034.875 613.441406 C 1042.105469 611.414062 1049.339844 608.230469 1058.023438 603.890625 C 1082.90625 591.160156 1101.425781 570.324219 1112.421875 555.277344 C 1113 554.699219 1112.710938 553.832031 1112.132812 553.253906 C 1111.265625 552.675781 1110.394531 552.675781 1109.816406 553.542969 Z M 1181.289062 456.609375 C 1182.15625 456.320312 1182.445312 455.449219 1182.15625 454.871094 C 1181.867188 454.292969 1181 453.714844 1180.421875 454.003906 C 1167.976562 458.054688 1151.195312 469.917969 1144.25 482.648438 C 1143.960938 483.230469 1144.25 484.097656 1144.828125 484.675781 C 1145.117188 484.675781 1145.410156 484.964844 1145.410156 484.964844 C 1145.988281 484.964844 1146.277344 484.675781 1146.566406 484.097656 C 1149.460938 478.597656 1154.378906 473.390625 1159.875 469.050781 C 1159.875 469.917969 1159.875 471.65625 1159.585938 475.417969 L 1159.585938 475.996094 C 1159.296875 480.335938 1158.71875 484.675781 1158.140625 489.015625 C 1157.5625 493.355469 1156.984375 497.984375 1156.691406 502.617188 C 1156.691406 503.484375 1157.273438 504.0625 1158.140625 504.0625 C 1159.007812 504.0625 1159.585938 503.484375 1159.585938 502.617188 C 1159.875 498.277344 1160.453125 493.644531 1161.035156 489.304688 C 1161.613281 484.964844 1162.191406 480.625 1162.480469 476.285156 L 1162.480469 475.996094 C 1163.058594 469.917969 1162.769531 468.183594 1162.191406 467.601562 C 1168.558594 462.394531 1175.5 458.632812 1181.289062 456.609375 Z M 1003.042969 489.304688 C 1003.042969 488.4375 1002.464844 487.859375 1001.886719 487.570312 C 1001.019531 487.570312 1000.441406 488.148438 1000.148438 488.726562 C 999.859375 490.460938 999.570312 492.488281 998.992188 495.09375 C 996.96875 504.0625 994.363281 516.503906 999.28125 521.425781 C 1000.730469 522.871094 1003.042969 523.738281 1005.648438 523.738281 C 1006.804688 523.738281 1007.964844 523.449219 1009.410156 523.160156 C 1010.277344 522.871094 1010.566406 522.292969 1010.566406 521.425781 C 1010.277344 520.554688 1009.699219 520.265625 1008.832031 520.265625 C 1005.359375 521.136719 1003.042969 520.554688 1001.308594 519.109375 C 997.257812 515.058594 999.859375 503.195312 1001.597656 495.382812 C 1002.464844 493.355469 1003.042969 491.042969 1003.042969 489.304688 Z M 1031.113281 541.679688 C 1031.402344 540.8125 1031.113281 540.234375 1030.242188 539.941406 C 1029.375 539.652344 1028.796875 539.941406 1028.507812 540.8125 C 1024.746094 550.070312 1016.644531 558.460938 1007.09375 557.015625 C 1003.042969 556.4375 999.859375 554.410156 997.546875 551.226562 C 996.679688 550.070312 995.808594 548.625 995.230469 547.464844 C 995.230469 547.175781 994.941406 546.597656 994.652344 546.019531 C 994.363281 545.441406 994.074219 544.574219 992.917969 544.863281 L 993.207031 546.308594 L 991.757812 546.886719 L 992.046875 547.175781 C 992.335938 547.753906 992.628906 548.335938 992.628906 548.625 C 993.207031 550.070312 994.074219 551.226562 994.941406 552.675781 C 997.546875 556.4375 1001.597656 559.039062 1006.515625 559.910156 C 1007.382812 560.199219 1008.542969 560.199219 1009.410156 560.199219 C 1019.539062 559.621094 1027.351562 550.9375 1031.113281 541.679688 Z M 1036.898438 483.230469 C 1036.898438 485.832031 1039.214844 488.148438 1042.105469 488.148438 C 1045 488.148438 1047.316406 485.832031 1047.316406 483.230469 C 1047.316406 480.625 1045 478.308594 1042.105469 478.308594 C 1039.214844 478.308594 1036.898438 480.625 1036.898438 483.230469 Z M 970.636719 482.941406 C 967.742188 482.941406 965.425781 485.253906 965.425781 487.859375 C 965.425781 490.460938 967.742188 492.777344 970.636719 492.777344 C 973.527344 492.777344 975.84375 490.460938 975.84375 487.859375 C 975.554688 484.964844 973.238281 482.941406 970.636719 482.941406 Z M 1057.152344 454.003906 C 1059.757812 455.160156 1061.785156 456.609375 1064.675781 456.609375 C 1066.703125 456.898438 1069.886719 456.320312 1070.753906 453.714844 C 1072.199219 449.375 1066.992188 445.902344 1063.808594 444.164062 C 1056.285156 440.402344 1040.949219 440.984375 1032.558594 446.480469 C 1028.507812 449.375 1020.117188 456.898438 1024.746094 459.210938 C 1027.640625 460.660156 1031.402344 458.921875 1034.003906 457.476562 C 1038.34375 454.871094 1042.976562 452.265625 1048.472656 451.976562 C 1051.367188 451.976562 1054.261719 452.847656 1057.152344 454.003906 Z M 983.65625 457.476562 C 976.710938 451.976562 963.113281 451.6875 956.746094 455.160156 C 954.140625 456.609375 949.511719 460.371094 950.667969 464.710938 C 951.25 467.023438 954.140625 467.601562 955.878906 467.601562 C 958.191406 467.3125 960.21875 465.867188 962.246094 465 C 964.558594 463.84375 967.164062 463.261719 969.765625 463.261719 C 974.398438 463.550781 978.449219 466.15625 982.210938 468.761719 C 984.523438 470.207031 987.707031 471.945312 990.3125 470.496094 C 994.652344 467.894531 987.128906 460.371094 983.65625 457.476562 Z M 983.65625 457.476562 " fill-opacity="1" fill-rule="evenodd"/><path fill="#0965ac" d="M 1207.910156 425.648438 C 1207.621094 425.648438 1207.621094 425.648438 1207.332031 425.648438 C 1206.753906 425.648438 1206.171875 425.355469 1205.882812 424.777344 C 1199.808594 408.863281 1190.257812 389.476562 1172.027344 377.613281 C 1168.847656 375.585938 1165.085938 374.429688 1161.324219 372.984375 C 1156.691406 371.246094 1151.773438 369.800781 1147.722656 366.328125 C 1143.671875 362.855469 1140.199219 358.515625 1137.015625 354.464844 C 1134.703125 351.570312 1132.675781 348.675781 1130.070312 346.074219 C 1119.945312 335.65625 1108.082031 326.394531 1095.636719 320.03125 C 1082.328125 313.085938 1067.570312 310.480469 1048.472656 312.21875 C 1043.554688 312.507812 1038.925781 313.375 1034.003906 313.953125 L 1032.558594 314.242188 C 1032.269531 314.242188 1031.980469 314.242188 1031.402344 314.242188 C 1029.085938 314.53125 1027.640625 314.53125 1026.769531 314.820312 C 1026.480469 315.402344 1025.613281 315.691406 1024.746094 315.402344 C 1023.878906 314.820312 1023.878906 314.242188 1023.878906 313.664062 C 1024.167969 312.21875 1025.324219 311.929688 1031.113281 311.640625 C 1031.691406 311.640625 1031.980469 311.640625 1031.980469 311.640625 L 1033.425781 311.351562 C 1038.054688 310.769531 1042.976562 310.191406 1047.894531 309.613281 C 1067.570312 308.167969 1082.90625 310.769531 1096.796875 318.003906 C 1109.527344 324.660156 1121.679688 333.917969 1132.097656 344.625 C 1134.703125 347.230469 1137.015625 350.414062 1139.332031 353.015625 C 1142.515625 357.070312 1145.699219 361.121094 1149.460938 364.300781 C 1153.222656 367.484375 1157.5625 368.933594 1162.191406 370.667969 C 1165.953125 372.113281 1170.003906 373.273438 1173.476562 375.585938 C 1192.574219 387.742188 1202.121094 407.996094 1208.488281 424.199219 C 1209.066406 424.488281 1208.777344 425.355469 1207.910156 425.648438 Z M 1207.910156 425.648438 " fill-opacity="1" fill-rule="nonzero"/><path fill="#3ca500" d="M 1056.863281 285.597656 C 1062.074219 290.804688 1044.421875 310.769531 1034.003906 311.640625 C 1029.664062 311.929688 1027.929688 297.75 1027.351562 296.304688 C 1023.878906 288.199219 1021.851562 280.097656 1027.351562 278.941406 C 1032.558594 277.785156 1034.875 283.859375 1035.742188 291.09375 C 1036.609375 282.703125 1038.925781 274.601562 1044.421875 276.335938 C 1049.339844 277.785156 1048.761719 283.570312 1046.160156 289.9375 C 1049.628906 285.308594 1053.679688 282.414062 1056.863281 285.597656 Z M 1097.664062 291.671875 C 1099.980469 285.308594 1100.558594 279.519531 1095.929688 278.074219 C 1090.429688 276.335938 1088.40625 284.441406 1087.246094 292.832031 C 1086.378906 285.597656 1084.0625 279.519531 1078.855469 280.679688 C 1073.359375 281.835938 1075.382812 290.226562 1078.855469 298.039062 C 1079.433594 299.484375 1084.0625 313.085938 1087.824219 312.796875 C 1098.242188 311.929688 1113.867188 292.542969 1108.371094 287.332031 C 1105.1875 284.441406 1101.136719 287.332031 1097.664062 291.671875 Z M 1135.28125 317.425781 C 1140.199219 312.796875 1143.382812 307.878906 1139.621094 304.40625 C 1135.570312 300.644531 1130.070312 306.71875 1125.441406 313.953125 C 1127.757812 307.007812 1128.335938 300.644531 1123.128906 299.484375 C 1117.628906 298.039062 1115.894531 306.429688 1115.605469 315.113281 C 1115.316406 321.1875 1113 330.449219 1117.917969 332.183594 C 1122.839844 333.917969 1150.617188 328.132812 1146.855469 318.292969 C 1145.40625 314.242188 1140.488281 314.820312 1135.28125 317.425781 Z M 1170.003906 350.703125 C 1175.210938 346.363281 1178.394531 341.441406 1174.921875 337.972656 C 1170.871094 333.917969 1165.375 339.707031 1160.453125 346.652344 C 1163.347656 339.996094 1164.214844 333.628906 1159.007812 331.894531 C 1153.511719 330.15625 1151.484375 338.550781 1150.617188 347.230469 C 1150.039062 353.015625 1148.300781 359.671875 1152.0625 363.144531 C 1156.691406 367.484375 1184.761719 361.988281 1181.867188 352.148438 C 1180.421875 348.097656 1175.5 348.675781 1170.003906 350.703125 Z M 1219.195312 379.636719 C 1218.328125 375.585938 1213.695312 375.296875 1207.910156 377.035156 C 1213.40625 373.273438 1217.167969 368.933594 1214.277344 364.882812 C 1210.804688 360.539062 1204.4375 365.75 1198.941406 372.113281 C 1202.410156 365.75 1203.859375 359.382812 1198.941406 357.359375 C 1193.730469 355.042969 1183.894531 382.53125 1187.074219 386.871094 C 1190.546875 391.792969 1221.21875 389.765625 1219.195312 379.636719 Z M 1219.195312 379.636719 " fill-opacity="1" fill-rule="evenodd"/><path fill="#000000" d="M 804.253906 136.289062 C 799.625 148.730469 775.609375 214.125 772.425781 202.839844 C 767.503906 184.609375 763.453125 135.710938 750.144531 122.976562 C 743.488281 116.613281 727.863281 123.265625 719.183594 119.503906 C 709.054688 114.875 709.054688 101.277344 700.375 97.222656 C 695.746094 94.910156 682.722656 104.167969 677.226562 105.039062 C 667.675781 106.484375 661.023438 98.09375 652.339844 98.671875 C 645.105469 99.25 642.214844 114.007812 638.164062 118.636719 C 632.953125 124.714844 625.429688 125.292969 619.066406 129.632812 C 615.015625 132.238281 600.546875 136.578125 596.207031 144.679688 C 590.417969 155.964844 590.707031 191.84375 584.050781 197.921875 C 578.554688 202.839844 564.085938 163.777344 559.457031 159.726562 C 555.984375 156.832031 553.378906 152.203125 553.378906 147.863281 C 546.4375 144.679688 540.648438 139.472656 541.515625 131.367188 C 541.804688 129.054688 542.675781 126.738281 543.542969 124.425781 C 543.253906 124.136719 543.253906 123.554688 542.964844 123.265625 C 535.441406 118.925781 529.652344 112.269531 529.363281 102.722656 C 529.074219 96.066406 531.96875 90.570312 532.835938 84.203125 C 533.703125 76.101562 529.652344 70.894531 537.753906 64.527344 C 540.359375 62.210938 549.328125 59.320312 556.851562 59.027344 C 556.5625 50.347656 563.21875 40.511719 573.058594 37.039062 C 573.636719 36.75 580 35.878906 584.34375 36.460938 C 586.65625 32.117188 589.261719 27.777344 593.601562 24.304688 C 599.96875 19.097656 608.070312 16.203125 616.460938 15.625 C 619.066406 15.335938 623.40625 17.070312 626.007812 16.492188 C 636.714844 13.019531 642.214844 2.027344 655.523438 1.734375 C 664.785156 1.445312 671.148438 9.257812 679.539062 9.550781 C 692.851562 10.128906 702.980469 0 717.445312 6.078125 C 723.8125 8.679688 729.019531 13.601562 732.203125 19.675781 C 733.941406 22.859375 734.808594 28.355469 738.570312 29.804688 C 746.671875 32.699219 757.667969 28.355469 766.347656 30.09375 C 780.527344 32.988281 778.789062 42.535156 787.472656 49.480469 C 794.125 54.976562 802.808594 57.292969 806.859375 65.394531 C 812.066406 75.234375 803.675781 81.597656 804.253906 91.148438 C 804.832031 97.515625 810.621094 102.722656 811.488281 109.667969 C 812.933594 119.214844 807.4375 127.027344 804.253906 136.289062 Z M 580.582031 220.203125 C 577.109375 210.652344 573.636719 201.105469 566.113281 193.871094 C 564.375 192.132812 562.351562 190.398438 560.035156 188.953125 L 559.746094 188.660156 C 558.011719 187.503906 557.722656 186.925781 556.851562 187.503906 C 556.273438 187.792969 555.984375 188.660156 556.273438 189.53125 C 556.5625 189.820312 556.5625 190.109375 556.851562 190.109375 C 557.140625 190.398438 557.722656 190.6875 558.011719 190.976562 L 558.589844 191.265625 C 560.902344 192.710938 562.640625 194.449219 564.375 195.894531 C 565.246094 196.765625 565.824219 197.632812 566.691406 198.5 C 566.402344 199.65625 566.402344 201.394531 567.558594 206.023438 C 567.847656 207.179688 568.136719 208.628906 568.136719 209.207031 C 568.425781 213.546875 568.714844 217.886719 568.714844 221.9375 C 569.007812 227.726562 569.296875 233.511719 569.875 239.589844 C 569.875 240.457031 570.453125 240.746094 571.320312 240.746094 C 571.320312 240.746094 571.320312 240.746094 571.609375 240.746094 C 572.476562 240.746094 573.058594 239.878906 572.765625 239.300781 C 572.1875 233.511719 571.898438 227.726562 571.609375 221.9375 C 571.320312 217.597656 571.320312 213.257812 571.03125 209.207031 C 571.03125 208.628906 570.742188 207.179688 570.453125 205.734375 C 570.164062 204.867188 570.164062 203.996094 569.875 203.128906 C 573.636719 208.917969 575.949219 215.28125 578.265625 221.9375 C 578.84375 223.675781 579.421875 225.121094 580 226.566406 C 580.289062 227.148438 580.871094 227.4375 581.449219 227.4375 C 581.738281 227.4375 581.738281 227.4375 582.027344 227.4375 C 582.894531 227.148438 583.183594 226.277344 582.894531 225.699219 C 581.738281 223.386719 581.160156 221.648438 580.582031 220.203125 Z M 733.652344 335.945312 C 731.914062 336.523438 729.890625 337.679688 728.152344 339.128906 C 726.707031 339.996094 725.550781 340.863281 724.679688 341.441406 C 718.316406 344.335938 711.371094 346.941406 704.425781 348.675781 C 682.144531 354.175781 660.441406 351.859375 641.636719 342.023438 C 636.425781 339.417969 632.085938 335.945312 627.457031 332.183594 C 626.007812 331.027344 624.5625 329.867188 623.117188 328.710938 C 622.539062 328.132812 621.667969 328.421875 621.089844 329 C 620.511719 329.578125 620.800781 330.449219 621.378906 331.027344 C 622.828125 332.183594 624.273438 333.339844 625.71875 334.5 C 630.351562 337.972656 634.980469 341.734375 640.1875 344.625 C 652.628906 351.28125 666.519531 354.753906 680.699219 354.753906 C 688.511719 354.753906 696.613281 353.597656 704.714844 351.570312 C 711.949219 349.835938 718.894531 347.230469 725.257812 344.335938 C 726.417969 343.757812 727.863281 342.890625 729.3125 341.734375 C 731.046875 340.574219 732.78125 339.417969 734.230469 338.839844 C 735.097656 338.550781 735.386719 337.679688 735.097656 337.101562 C 734.808594 336.523438 734.519531 335.65625 733.652344 335.945312 Z M 799.046875 187.503906 C 798.757812 187.503906 798.179688 187.792969 798.179688 188.082031 C 797.886719 188.371094 796.441406 189.53125 795.285156 190.398438 C 793.257812 192.132812 790.65625 194.160156 789.785156 195.027344 C 783.421875 201.105469 777.054688 208.046875 773.582031 217.308594 C 773.292969 218.175781 773.582031 218.753906 774.449219 219.042969 C 774.738281 219.042969 774.738281 219.042969 775.027344 219.042969 C 775.609375 219.042969 776.1875 218.753906 776.476562 218.175781 C 778.789062 212.101562 782.550781 207.179688 786.605469 202.550781 C 786.605469 202.839844 786.605469 203.128906 786.605469 203.128906 C 786.023438 206.023438 785.734375 208.917969 785.445312 211.808594 C 784.867188 215.28125 784.289062 218.753906 783.710938 222.226562 C 782.84375 226.855469 782.261719 231.488281 781.683594 236.117188 C 781.683594 236.984375 782.261719 237.5625 782.84375 237.851562 C 782.84375 237.851562 782.84375 237.851562 783.132812 237.851562 C 783.710938 237.851562 784.578125 237.273438 784.578125 236.695312 C 785.15625 232.066406 786.023438 227.4375 786.605469 222.804688 C 787.183594 219.332031 787.761719 215.863281 788.339844 212.390625 C 788.628906 209.496094 789.207031 206.601562 789.496094 203.707031 C 789.496094 203.417969 789.785156 202.550781 789.785156 201.972656 C 790.074219 200.527344 790.367188 199.65625 790.074219 199.078125 C 790.65625 198.5 791.523438 197.632812 792.101562 197.054688 C 793.257812 196.183594 795.574219 194.160156 797.597656 192.421875 C 801.648438 189.242188 801.648438 189.242188 801.070312 188.082031 C 800.492188 187.792969 799.625 187.503906 799.046875 187.503906 Z M 678.09375 241.902344 C 677.226562 241.902344 676.648438 242.484375 676.648438 243.351562 C 676.648438 244.21875 677.226562 244.796875 678.09375 244.796875 C 678.382812 244.796875 678.671875 244.796875 678.960938 244.796875 C 683.011719 244.796875 686.195312 243.640625 688.222656 241.613281 C 692.851562 236.984375 692.273438 228.304688 691.695312 220.492188 C 691.40625 217.597656 691.40625 214.992188 691.40625 212.679688 C 691.40625 208.339844 691.695312 204.578125 692.5625 201.105469 C 692.851562 199.945312 693.140625 198.789062 693.429688 198.210938 C 694.007812 197.632812 693.71875 196.765625 693.140625 196.183594 C 692.851562 195.894531 692.273438 195.894531 691.695312 195.894531 C 690.824219 196.183594 690.824219 196.472656 689.667969 200.234375 C 688.800781 204.289062 688.511719 208.050781 688.511719 212.390625 C 688.511719 214.992188 688.511719 217.597656 688.800781 220.492188 C 689.378906 227.4375 689.957031 235.539062 686.195312 239.300781 C 684.460938 241.035156 681.855469 241.902344 678.09375 241.902344 Z M 655.523438 276.335938 C 654.078125 275.46875 652.628906 274.3125 651.183594 273.445312 L 650.316406 272.863281 C 650.027344 272.574219 649.738281 272.285156 649.449219 271.996094 C 648.289062 270.839844 647.710938 270.261719 646.554688 270.839844 C 645.976562 271.128906 645.6875 271.996094 645.976562 272.863281 C 646.265625 273.445312 646.554688 273.734375 647.132812 273.734375 C 647.132812 273.734375 647.421875 274.023438 647.421875 274.023438 C 648 274.601562 648.289062 274.890625 648.867188 275.179688 L 649.738281 275.757812 C 651.183594 276.917969 652.628906 277.785156 654.078125 278.941406 C 660.441406 282.992188 665.941406 285.886719 671.4375 287.621094 C 674.042969 288.492188 677.226562 288.78125 680.410156 288.78125 C 687.933594 288.78125 696.613281 286.464844 703.558594 282.414062 C 710.503906 278.363281 714.554688 272.863281 716 266.789062 C 716.289062 265.921875 715.710938 265.34375 714.84375 265.050781 C 713.972656 264.761719 713.394531 265.34375 713.105469 266.210938 C 711.660156 273.15625 706.453125 277.496094 702.109375 280.097656 C 693.140625 285.308594 680.410156 287.332031 672.308594 284.730469 C 666.808594 282.992188 661.601562 280.386719 655.523438 276.335938 Z M 720.917969 211.230469 C 724.390625 211.230469 726.996094 208.046875 726.996094 204.578125 C 726.996094 201.105469 724.390625 197.921875 720.917969 197.921875 C 717.445312 197.921875 714.84375 201.105469 714.84375 204.578125 C 714.84375 208.046875 717.734375 211.230469 720.917969 211.230469 Z M 633.242188 204.289062 C 633.242188 208.050781 635.847656 210.941406 639.320312 210.941406 C 642.792969 210.941406 645.398438 207.757812 645.398438 204.289062 C 645.398438 200.527344 642.792969 197.632812 639.320312 197.632812 C 635.847656 197.632812 633.242188 200.527344 633.242188 204.289062 Z M 650.316406 182.007812 C 653.5 182.296875 660.441406 185.191406 663.335938 183.164062 C 665.941406 181.136719 663.625 177.667969 661.890625 176.21875 C 657.261719 172.167969 641.054688 170.433594 635.269531 168.984375 C 629.769531 167.828125 620.511719 171.589844 616.460938 175.351562 C 613.277344 178.246094 611.253906 183.742188 616.75 185.191406 C 627.457031 187.214844 639.320312 180.558594 650.316406 182.007812 Z M 732.492188 162.910156 C 727.285156 164.355469 713.105469 166.09375 708.765625 170.144531 C 707.320312 171.589844 705.292969 175.351562 707.609375 177.085938 C 710.214844 179.402344 716.289062 176.507812 719.183594 175.929688 C 729.019531 174.773438 739.4375 181.136719 748.699219 178.824219 C 753.617188 177.667969 751.589844 171.878906 748.988281 168.984375 C 745.804688 165.800781 737.414062 161.75 732.492188 162.910156 Z M 732.492188 162.910156 " fill-opacity="1" fill-rule="evenodd"/><path fill="#000000" d="M 288.617188 366.328125 C 288.90625 366.90625 288.617188 367.773438 287.75 368.0625 C 287.460938 368.0625 287.460938 368.0625 287.171875 368.0625 C 286.59375 368.0625 286.011719 367.773438 285.722656 367.195312 C 283.988281 362.855469 281.382812 358.515625 278.199219 354.175781 C 277.332031 361.121094 278.488281 370.089844 279.9375 377.613281 C 280.226562 379.058594 280.515625 380.507812 280.515625 381.953125 C 280.515625 382.820312 280.226562 383.398438 279.359375 383.691406 C 279.359375 383.691406 279.359375 383.691406 279.070312 383.691406 C 278.488281 383.691406 277.621094 383.109375 277.621094 382.53125 C 277.332031 381.085938 277.332031 379.636719 277.042969 378.191406 C 275.597656 369.511719 273.859375 359.09375 275.886719 351.28125 C 275.308594 350.414062 274.726562 349.835938 274.148438 348.964844 C 274.148438 348.964844 273.570312 348.386719 272.992188 347.519531 C 266.335938 339.996094 266.335938 339.996094 267.496094 338.839844 C 268.074219 338.261719 268.941406 338.261719 269.519531 338.839844 C 269.519531 339.128906 269.808594 339.128906 269.808594 339.417969 C 270.386719 340.285156 273.859375 344.046875 275.308594 345.785156 C 275.886719 346.652344 276.464844 347.230469 276.753906 347.230469 C 281.960938 353.886719 286.011719 360.25 288.617188 366.328125 Z M 495.507812 347.230469 C 495.21875 346.652344 494.351562 346.363281 493.484375 346.652344 C 490.589844 348.386719 487.40625 350.414062 484.511719 352.726562 C 484.511719 352.726562 484.222656 352.726562 484.222656 352.726562 C 483.644531 352.726562 483.355469 353.308594 483.066406 353.886719 C 481.332031 355.332031 479.304688 357.070312 477.570312 359.09375 C 476.121094 360.539062 474.386719 362.277344 472.648438 364.300781 C 470.914062 366.617188 470.335938 367.195312 470.625 368.0625 C 470.914062 368.644531 471.203125 368.933594 471.78125 368.933594 C 471.78125 368.933594 472.070312 368.933594 472.070312 368.933594 C 472.648438 368.933594 473.226562 368.355469 473.515625 367.773438 C 473.808594 367.484375 474.097656 366.90625 474.964844 366.039062 C 476.699219 364.300781 478.148438 362.566406 479.59375 361.121094 C 480.75 359.960938 481.621094 359.09375 482.777344 358.226562 C 482.488281 359.671875 482.488281 361.410156 482.199219 362.855469 L 481.910156 365.75 C 481.332031 370.667969 480.75 375.875 479.882812 380.796875 C 479.882812 381.664062 480.171875 382.242188 481.039062 382.53125 C 481.039062 382.53125 481.039062 382.53125 481.332031 382.53125 C 481.910156 382.53125 482.777344 381.953125 482.777344 381.375 C 483.644531 376.457031 484.222656 371.246094 484.800781 366.328125 L 485.09375 363.433594 C 485.382812 361.410156 485.671875 359.671875 485.671875 357.648438 C 485.671875 357.359375 485.960938 357.070312 485.960938 356.777344 C 486.25 356.199219 486.25 355.910156 486.25 355.332031 C 489.144531 353.015625 492.035156 350.992188 494.929688 349.546875 C 495.507812 348.675781 495.796875 347.808594 495.507812 347.230469 Z M 422.589844 478.308594 C 405.230469 491.621094 378.027344 499.433594 356.90625 487.28125 C 349.382812 482.941406 341.859375 477.730469 335.492188 472.234375 C 335.203125 471.945312 334.625 471.363281 334.046875 470.785156 C 329.996094 466.445312 328.839844 465.578125 327.679688 465.578125 C 326.8125 465.578125 326.234375 466.15625 326.234375 467.023438 C 326.234375 467.601562 326.8125 468.183594 327.390625 468.472656 C 328.257812 469.050781 330.863281 471.65625 332.019531 472.8125 C 332.890625 473.679688 333.46875 474.257812 333.757812 474.546875 C 340.414062 480.046875 347.9375 485.253906 355.460938 489.882812 C 363.273438 494.515625 371.953125 496.25 380.632812 496.25 C 396.546875 496.25 412.753906 489.59375 424.328125 480.625 C 424.90625 480.046875 425.195312 479.179688 424.617188 478.597656 C 424.328125 477.730469 423.457031 477.730469 422.589844 478.308594 Z M 384.683594 407.707031 L 385.84375 407.707031 C 386.132812 407.707031 386.421875 407.707031 386.710938 407.707031 C 388.734375 407.707031 390.761719 407.707031 392.785156 406.839844 C 407.542969 402.207031 404.648438 389.1875 402.335938 378.769531 C 402.046875 377.035156 401.46875 375.296875 401.179688 373.5625 C 400.019531 368.0625 399.730469 361.988281 399.441406 355.621094 C 399.441406 349.835938 400.019531 343.757812 401.179688 337.390625 C 401.757812 335.078125 402.046875 332.761719 402.625 330.449219 C 402.625 330.15625 402.914062 329.867188 402.914062 329.289062 C 403.492188 327.554688 403.78125 326.6875 402.914062 325.816406 C 402.335938 325.527344 401.46875 325.527344 400.886719 326.105469 C 400.597656 326.398438 400.308594 326.976562 400.597656 327.554688 C 400.597656 327.84375 400.308594 328.132812 400.308594 328.132812 C 400.019531 328.710938 400.019531 329.289062 399.730469 329.578125 C 399.152344 331.894531 398.863281 334.210938 398.285156 336.523438 C 397.125 343.179688 396.546875 349.546875 396.546875 355.332031 C 396.546875 361.699219 397.125 367.773438 398.285156 373.5625 C 398.574219 375.296875 398.863281 377.035156 399.441406 378.769531 C 401.757812 388.898438 404.070312 399.316406 391.917969 403.367188 C 389.894531 403.945312 387.867188 403.945312 385.550781 403.945312 L 384.394531 403.945312 C 383.527344 403.945312 382.949219 404.523438 382.949219 405.390625 C 383.238281 406.839844 384.105469 407.707031 384.683594 407.707031 Z M 360.089844 427.671875 C 359.800781 427.09375 358.929688 426.804688 358.0625 427.09375 C 357.484375 427.382812 357.195312 428.25 357.484375 429.117188 C 360.667969 435.484375 368.191406 441.273438 377.738281 444.453125 C 379.765625 445.324219 382.082031 445.613281 384.394531 445.613281 C 388.445312 445.613281 392.496094 444.453125 396.257812 442.140625 C 402.625 438.089844 407.253906 431.433594 408.121094 424.488281 C 408.121094 423.621094 407.542969 423.042969 406.964844 422.753906 C 406.097656 422.753906 405.519531 423.332031 405.230469 423.910156 C 404.359375 429.988281 400.308594 435.773438 394.8125 439.535156 C 389.605469 442.71875 383.816406 443.585938 378.898438 441.5625 C 371.953125 439.246094 363.273438 434.328125 360.089844 427.671875 Z M 441.6875 314.820312 C 433.296875 307.589844 413.621094 312.21875 415.355469 316.558594 C 417.960938 322.925781 432.429688 321.765625 437.925781 323.214844 C 441.976562 324.082031 444.871094 326.398438 448.054688 328.710938 C 448.34375 329 450.660156 331.027344 451.238281 330.449219 C 459.050781 325.527344 446.316406 318.875 441.6875 314.820312 Z M 330.863281 324.371094 C 334.914062 322.34375 338.386719 320.609375 343.015625 320.320312 C 349.382812 319.742188 364.140625 322.925781 368.480469 316.847656 C 371.375 312.507812 365.007812 310.191406 361.535156 309.324219 C 356.90625 308.457031 342.726562 310.480469 340.992188 311.058594 C 337.230469 312.21875 320.445312 319.164062 327.101562 325.527344 C 327.679688 326.398438 330.285156 324.660156 330.863281 324.371094 Z M 342.148438 348.097656 C 342.148438 350.992188 344.464844 353.308594 347.648438 353.308594 C 350.828125 353.308594 353.144531 350.992188 353.144531 348.097656 C 353.144531 345.203125 350.828125 342.890625 347.648438 342.890625 C 344.464844 342.890625 342.148438 345.203125 342.148438 348.097656 Z M 433.875 341.734375 C 430.980469 341.734375 428.378906 344.046875 428.378906 346.941406 C 428.378906 349.835938 430.691406 352.148438 433.875 352.148438 C 437.058594 352.148438 439.375 349.835938 439.375 346.941406 C 439.082031 344.046875 436.769531 341.734375 433.875 341.734375 Z M 433.875 341.734375 " fill-opacity="1" fill-rule="evenodd"/><path fill="#0965ac" d="M 422.589844 169.5625 C 422.589844 170.433594 421.722656 171.011719 420.855469 170.722656 C 366.746094 162.621094 297.007812 186.347656 273.859375 246.246094 C 266.335938 265.632812 261.996094 284.441406 260.261719 303.828125 C 260.261719 304.117188 260.261719 304.984375 259.972656 305.851562 C 258.523438 316.847656 259.390625 319.742188 260.261719 320.320312 C 260.839844 320.609375 261.128906 321.476562 260.839844 322.34375 C 260.550781 322.925781 259.972656 323.214844 259.679688 323.214844 C 259.390625 323.214844 259.101562 323.214844 259.101562 322.925781 C 255.628906 320.898438 256.5 312.796875 257.367188 305.5625 C 257.367188 304.695312 257.65625 304.117188 257.65625 303.828125 C 259.390625 284.148438 263.734375 265.050781 271.257812 245.664062 C 294.984375 184.320312 366.164062 160.015625 421.433594 168.117188 C 422.300781 168.117188 422.589844 168.695312 422.589844 169.5625 Z M 214.832031 403.078125 C 216.855469 392.660156 220.617188 381.953125 226.984375 368.0625 C 228.71875 364.011719 230.746094 360.832031 232.480469 357.359375 C 232.769531 356.777344 233.058594 356.199219 233.351562 355.332031 C 233.640625 354.753906 233.929688 354.175781 233.929688 353.597656 C 234.21875 353.597656 234.507812 353.597656 234.507812 353.308594 C 235.085938 353.015625 235.375 352.148438 235.085938 351.28125 C 234.507812 350.125 233.640625 350.125 233.351562 350.125 C 231.902344 350.125 231.324219 351.859375 230.457031 353.886719 C 230.167969 354.464844 229.878906 355.042969 229.589844 355.621094 C 227.851562 358.804688 225.828125 362.566406 224.089844 366.328125 C 217.433594 380.507812 213.671875 391.503906 211.648438 402.207031 C 207.597656 423.332031 216.566406 440.113281 224.957031 456.320312 C 232.480469 470.785156 240.292969 485.832031 238.847656 503.484375 C 238.847656 504.351562 239.425781 504.929688 240.292969 504.929688 C 241.164062 504.929688 241.742188 504.351562 241.742188 503.484375 C 243.1875 484.964844 235.375 469.628906 227.5625 454.582031 C 219.460938 438.957031 211.070312 423.332031 214.832031 403.078125 Z M 261.996094 439.535156 C 259.390625 428.25 260.261719 424.777344 260.839844 424.488281 C 261.707031 424.199219 261.996094 423.332031 261.707031 422.753906 C 261.417969 421.886719 260.550781 421.59375 259.972656 421.886719 C 258.8125 422.175781 255.339844 423.332031 259.101562 440.402344 C 260.839844 448.503906 265.46875 455.449219 269.808594 462.394531 C 275.015625 470.496094 279.9375 478.308594 280.515625 487.570312 C 280.515625 488.4375 281.09375 489.015625 281.960938 489.015625 C 282.832031 489.015625 283.410156 488.4375 283.410156 487.570312 C 282.832031 477.441406 277.621094 469.050781 272.414062 460.949219 C 268.074219 454.003906 263.441406 447.058594 261.996094 439.535156 Z M 261.996094 439.535156 " fill-opacity="1" fill-rule="nonzero"/></svg>