<svg xmlns="http://www.w3.org/2000/svg" xmlns:xlink="http://www.w3.org/1999/xlink" width="1910" zoomAndPan="magnify" viewBox="0 0 1432.5 1357.499964" height="1810" preserveAspectRatio="xMidYMid meet" version="1.0"><defs><filter x="0%" y="0%" width="100%" height="100%" id="8523dba105"><feColorMatrix values="0 0 0 0 1 0 0 0 0 1 0 0 0 0 1 0 0 0 1 0" color-interpolation-filters="sRGB"/></filter><clipPath id="1d1454bd5a"><path d="M 7 60.414062 L 1431.984375 60.414062 L 1431.984375 890 L 7 890 Z M 7 60.414062 " clip-rule="nonzero"/></clipPath><clipPath id="efe707cca3"><path d="M 682 531 L 1210 531 L 1210 1356.6875 L 682 1356.6875 Z M 682 531 " clip-rule="nonzero"/></clipPath><clipPath id="fa24ec7389"><path d="M 681 529 L 1212 529 L 1212 1356.6875 L 681 1356.6875 Z M 681 529 " clip-rule="nonzero"/></clipPath><mask id="f0336f9f7c"><g filter="url(#8523dba105)"><rect x="-143.25" width="1719" fill="#000000" y="-135.749996" height="1628.999957" fill-opacity="0.1"/></g></mask><clipPath id="f2934ba1c1"><path d="M 1 2 L 529 2 L 529 827.6875 L 1 827.6875 Z M 1 2 " clip-rule="nonzero"/></clipPath><clipPath id="671561a282"><rect x="0" width="531" y="0" height="828"/></clipPath><mask id="f1eb44edcc"><g filter="url(#8523dba105)"><rect x="-143.25" width="1719" fill="#000000" y="-135.749996" height="1628.999957" fill-opacity="0.3"/></g></mask><clipPath id="b0c0fbb139"><rect x="0" width="504" y="0" height="550"/></clipPath><mask id="e2c9aa7b15"><g filter="url(#8523dba105)"><rect x="-143.25" width="1719" fill="#000000" y="-135.749996" height="1628.999957" fill-opacity="0.3"/></g></mask><clipPath id="cd8113964d"><rect x="0" width="42" y="0" height="46"/></clipPath><mask id="309c1abc49"><g filter="url(#8523dba105)"><rect x="-143.25" width="1719" fill="#000000" y="-135.749996" height="1628.999957" fill-opacity="0.3"/></g></mask><clipPath id="d473eef536"><path d="M 2 3 L 41 3 L 41 41.789062 L 2 41.789062 Z M 2 3 " clip-rule="nonzero"/></clipPath><clipPath id="494a45b05a"><rect x="0" width="42" y="0" height="42"/></clipPath><mask id="0aa85e6f55"><g filter="url(#8523dba105)"><rect x="-143.25" width="1719" fill="#000000" y="-135.749996" height="1628.999957" fill-opacity="0.3"/></g></mask><clipPath id="10bd42f1a4"><path d="M 2 4 L 41.9375 4 L 41.9375 43 L 2 43 Z M 2 4 " clip-rule="nonzero"/></clipPath><clipPath id="14f9f99d7c"><rect x="0" width="42" y="0" height="46"/></clipPath><mask id="ae83d10678"><g filter="url(#8523dba105)"><rect x="-143.25" width="1719" fill="#000000" y="-135.749996" height="1628.999957" fill-opacity="0.3"/></g></mask><clipPath id="00cf706194"><rect x="0" width="43" y="0" height="46"/></clipPath><mask id="af469096dc"><g filter="url(#8523dba105)"><rect x="-143.25" width="1719" fill="#000000" y="-135.749996" height="1628.999957" fill-opacity="0.3"/></g></mask><clipPath id="d591f16887"><path d="M 3 3 L 42 3 L 42 41.789062 L 3 41.789062 Z M 3 3 " clip-rule="nonzero"/></clipPath><clipPath id="07463fb7fd"><rect x="0" width="43" y="0" height="42"/></clipPath><mask id="87c9b5e155"><g filter="url(#8523dba105)"><rect x="-143.25" width="1719" fill="#000000" y="-135.749996" height="1628.999957" fill-opacity="0.3"/></g></mask><clipPath id="0b596345fa"><path d="M 3 3 L 1145 3 L 1145 606.226562 L 3 606.226562 Z M 3 3 " clip-rule="nonzero"/></clipPath><clipPath id="d310a2fb25"><rect x="0" width="1147" y="0" height="607"/></clipPath></defs><g clip-path="url(#1d1454bd5a)"><path fill="#ffffff" d="M 1283.867188 889.859375 L 154.222656 889.859375 C 72.925781 889.859375 7.019531 823.953125 7.019531 742.652344 L 7.019531 207.617188 C 7.019531 126.320312 72.925781 60.414062 154.222656 60.414062 L 1283.867188 60.414062 C 1365.167969 60.414062 1431.074219 126.320312 1431.074219 207.617188 L 1431.074219 742.652344 C 1431.074219 823.953125 1365.167969 889.859375 1283.867188 889.859375 Z M 1283.867188 889.859375 " fill-opacity="1" fill-rule="nonzero"/></g><path fill="#0965ac" d="M 1353.53125 256.246094 L 1353.53125 402.109375 L 1315.453125 440.179688 L 1059.953125 440.179688 L 1059.953125 256.246094 Z M 1353.53125 256.246094 " fill-opacity="1" fill-rule="nonzero"/><path fill="#0965ac" d="M 1353.53125 492.757812 L 1353.53125 638.621094 L 1315.453125 676.6875 L 1059.953125 676.6875 L 1059.953125 492.757812 Z M 1353.53125 492.757812 " fill-opacity="1" fill-rule="nonzero"/><path fill="#000000" d="M 954.617188 854.542969 C 951.292969 854.542969 948.601562 851.851562 948.601562 848.527344 L 948.601562 85.289062 C 948.601562 81.964844 951.292969 79.273438 954.617188 79.273438 C 957.941406 79.273438 960.632812 81.964844 960.632812 85.289062 L 960.632812 848.527344 C 960.632812 851.851562 957.941406 854.542969 954.617188 854.542969 Z M 954.617188 854.542969 " fill-opacity="1" fill-rule="nonzero"/><g clip-path="url(#efe707cca3)"><path fill="#ffffff" d="M 1208.703125 1285.445312 L 1125.421875 950.707031 C 1155.664062 929.175781 1176.511719 895.84375 1180.75 857.398438 L 1205.910156 629.265625 C 1211.125 581.976562 1175.078125 539.867188 1126.300781 536.265625 L 1056.699219 531.128906 L 969.109375 751.6875 L 763.335938 867.140625 L 779.320312 964.140625 C 779.164062 964.105469 779.027344 964.035156 778.867188 964.003906 L 749.953125 958.589844 C 742.679688 957.226562 735.714844 962.140625 734.558594 969.449219 L 682.328125 1299.476562 C 681.066406 1307.453125 687.230469 1314.667969 695.304688 1314.667969 L 697.957031 1314.667969 C 704.023438 1314.667969 709.300781 1310.515625 710.726562 1304.617188 L 786.324219 991.980469 L 929.574219 983.480469 L 1005.640625 1345.484375 C 1007.066406 1352.269531 1012.34375 1357.050781 1018.410156 1357.050781 L 1021.0625 1357.050781 C 1029.136719 1357.050781 1035.300781 1348.746094 1034.039062 1339.566406 L 984.617188 980.210938 L 1052.867188 976.164062 C 1060.96875 975.679688 1068.878906 974.507812 1076.542969 972.71875 L 1181.097656 1294.363281 C 1183.242188 1300.957031 1189 1305.148438 1195.03125 1304.496094 L 1197.667969 1304.214844 C 1205.699219 1303.351562 1210.9375 1294.433594 1208.703125 1285.445312 Z M 1208.703125 1285.445312 " fill-opacity="1" fill-rule="nonzero"/></g><g clip-path="url(#fa24ec7389)"><g mask="url(#f0336f9f7c)"><g transform="matrix(1, 0, 0, 1, 681, 529)"><g clip-path="url(#671561a282)"><g clip-path="url(#f2934ba1c1)"><path fill="#000000" d="M 527.703125 756.445312 L 444.421875 421.707031 C 474.664062 400.175781 495.511719 366.84375 499.75 328.398438 L 524.910156 100.265625 C 530.125 52.976562 494.078125 10.867188 445.300781 7.265625 L 375.699219 2.128906 L 288.109375 222.6875 L 82.335938 338.140625 L 98.320312 435.140625 C 98.164062 435.105469 98.027344 435.035156 97.867188 435.003906 L 68.953125 429.589844 C 61.679688 428.226562 54.714844 433.140625 53.558594 440.449219 L 1.328125 770.476562 C 0.0664062 778.453125 6.230469 785.667969 14.304688 785.667969 L 16.957031 785.667969 C 23.023438 785.667969 28.300781 781.515625 29.726562 775.617188 L 105.324219 462.980469 L 248.574219 454.480469 L 324.640625 816.484375 C 326.066406 823.269531 331.34375 828.050781 337.410156 828.050781 L 340.0625 828.050781 C 348.136719 828.050781 354.300781 819.746094 353.039062 810.566406 L 303.617188 451.210938 L 371.867188 447.164062 C 379.96875 446.679688 387.878906 445.507812 395.542969 443.71875 L 500.097656 765.363281 C 502.242188 771.957031 508 776.148438 514.03125 775.496094 L 516.667969 775.214844 C 524.699219 774.351562 529.9375 765.433594 527.703125 756.445312 Z M 527.703125 756.445312 " fill-opacity="1" fill-rule="nonzero"/></g></g></g></g></g><path fill="#0965ac" d="M 1062.058594 824.992188 L 1045.824219 705.519531 L 969.945312 714.050781 L 885.3125 705.066406 L 875.953125 749.976562 L 758.472656 797.894531 L 679.890625 829.953125 C 641.554688 845.585938 611.679688 876.855469 597.734375 915.828125 L 588.226562 942.433594 L 524.226562 1121.4375 C 517.648438 1139.929688 525.878906 1159.882812 542.300781 1168.867188 L 526.292969 1220.015625 C 524.261719 1219.074219 521.894531 1218.773438 519.566406 1219.414062 L 515.242188 1220.652344 C 495.476562 1226.292969 474.652344 1227.984375 453.945312 1225.652344 L 422.152344 1222.121094 C 421.101562 1222.007812 420.121094 1222.007812 419.144531 1222.121094 C 411.253906 1222.757812 405.203125 1229.636719 405.917969 1237.902344 C 406.480469 1244.96875 409.488281 1251.546875 414.183594 1256.621094 C 415.613281 1258.160156 417.230469 1259.625 418.996094 1260.867188 C 422 1263.046875 424.972656 1265.339844 427.375 1268.195312 C 444.4375 1288.414062 466.914062 1298.976562 495.738281 1298.109375 L 558.613281 1321.109375 C 569.925781 1325.28125 581.839844 1317.953125 583.039062 1306.078125 L 584.394531 1292.925781 L 585.820312 1279.019531 C 586.574219 1271.765625 586.007812 1264.324219 584.207031 1257.144531 L 584.019531 1256.433594 C 582.816406 1251.660156 579.769531 1247.902344 575.898438 1245.609375 L 602.621094 1185.664062 L 606.53125 1186.679688 C 624.757812 1191.378906 643.734375 1182.359375 651.777344 1165.257812 C 653.46875 1161.652344 655.121094 1158.003906 656.699219 1154.359375 C 678.722656 1103.925781 691.164062 1048.753906 694.019531 988.886719 L 736.789062 1154.359375 L 740.171875 1167.4375 C 743.101562 1178.710938 753.285156 1186.605469 764.9375 1186.605469 L 844.160156 1186.605469 C 859.570312 1186.605469 871.519531 1173.039062 869.527344 1157.742188 C 869.378906 1156.613281 869.226562 1155.488281 869.078125 1154.359375 C 859.945312 1088.101562 839.5 1026.996094 802.257812 973.628906 C 795.90625 964.53125 802.707031 951.980469 813.832031 952.207031 C 857.125 953.183594 898.351562 951.941406 936.988281 947.996094 C 949.800781 946.71875 962.355469 945.101562 974.605469 943.1875 C 1030.339844 934.429688 1069.652344 880.914062 1062.058594 824.992188 Z M 1062.058594 824.992188 " fill-opacity="1" fill-rule="nonzero"/><path fill="#000000" d="M 969.039062 281.90625 C 972.886719 274.144531 975.109375 265.429688 975.109375 256.175781 C 975.109375 224.101562 949.109375 198.101562 917.035156 198.101562 C 884.960938 198.101562 858.960938 224.101562 858.960938 256.175781 C 858.960938 286.472656 882.167969 311.320312 911.773438 313.984375 C 905.007812 325.195312 901.042969 338.585938 901.042969 353 C 901.042969 392.335938 930.363281 424.226562 966.53125 424.226562 C 1002.699219 424.226562 1032.019531 392.335938 1032.019531 353 C 1032.019531 314.582031 1004.035156 283.351562 969.039062 281.90625 Z M 969.039062 281.90625 " fill-opacity="1" fill-rule="nonzero"/><path fill="#0965ac" d="M 360.140625 260.652344 L 360.140625 406.066406 L 322.179688 444.019531 L 67.464844 444.019531 L 67.464844 260.652344 Z M 360.140625 260.652344 " fill-opacity="1" fill-rule="nonzero"/><path fill="#0965ac" d="M 360.140625 406.066406 L 322.179688 444.019531 L 322.179688 406.066406 Z M 360.140625 406.066406 " fill-opacity="1" fill-rule="nonzero"/><path fill="#0965ac" d="M 360.140625 493.320312 L 360.140625 638.734375 L 322.179688 676.6875 L 67.464844 676.6875 L 67.464844 493.320312 Z M 360.140625 493.320312 " fill-opacity="1" fill-rule="nonzero"/><path fill="#3ca500" d="M 857.058594 256.246094 L 857.058594 402.109375 L 818.984375 440.179688 L 563.484375 440.179688 L 563.484375 256.246094 Z M 857.058594 256.246094 " fill-opacity="1" fill-rule="nonzero"/><path fill="#3ca500" d="M 857.058594 492.757812 L 857.058594 638.621094 L 818.984375 676.6875 L 563.484375 676.6875 L 563.484375 492.757812 Z M 857.058594 492.757812 " fill-opacity="1" fill-rule="nonzero"/><path fill="#000000" d="M 1413.523438 198.101562 L 7.019531 198.101562 C 3.695312 198.101562 1.003906 195.410156 1.003906 192.085938 C 1.003906 188.761719 3.695312 186.070312 7.019531 186.070312 L 1413.523438 186.070312 C 1416.847656 186.070312 1419.539062 188.761719 1419.539062 192.085938 C 1419.539062 195.410156 1416.847656 198.101562 1413.523438 198.101562 Z M 1413.523438 198.101562 " fill-opacity="1" fill-rule="nonzero"/><path fill="#000000" d="M 462.039062 854.542969 C 458.714844 854.542969 456.023438 851.851562 456.023438 848.527344 L 456.023438 85.289062 C 456.023438 81.964844 458.714844 79.273438 462.039062 79.273438 C 465.359375 79.273438 468.054688 81.964844 468.054688 85.289062 L 468.054688 848.527344 C 468.054688 851.851562 465.359375 854.542969 462.039062 854.542969 Z M 462.039062 854.542969 " fill-opacity="1" fill-rule="nonzero"/><path fill="#fbb97f" d="M 567.171875 1265.15625 L 601.9375 1187.230469 C 603.894531 1182.839844 602.203125 1177.679688 598.023438 1175.304688 L 564.53125 1156.265625 C 556.550781 1151.726562 546.421875 1155.71875 543.675781 1164.476562 L 513.789062 1259.925781 Z M 567.171875 1265.15625 " fill-opacity="1" fill-rule="nonzero"/><path fill="#0965ac" d="M 419.152344 1222.101562 C 420.125 1221.992188 421.113281 1222.007812 422.148438 1222.117188 L 453.949219 1225.652344 C 474.671875 1227.976562 495.472656 1226.273438 515.261719 1220.667969 L 519.554688 1219.429688 C 525.875 1217.664062 532.25 1222.730469 532.050781 1229.339844 L 531.226562 1254.484375 L 562.128906 1244.105469 C 571.394531 1241.003906 581.585938 1246.722656 584.019531 1256.421875 L 584.210938 1257.128906 C 586.015625 1264.339844 586.558594 1271.75 585.824219 1279.035156 L 584.410156 1292.910156 L 583.046875 1306.089844 C 581.851562 1317.945312 569.941406 1325.269531 558.609375 1321.125 L 495.742188 1298.101562 C 466.910156 1298.972656 444.449219 1288.398438 427.367188 1268.179688 C 424.964844 1265.335938 422.007812 1263.054688 419 1260.863281 C 417.238281 1259.617188 415.625 1258.179688 414.1875 1256.628906 C 409.476562 1251.550781 406.488281 1244.96875 405.910156 1237.921875 C 405.207031 1229.640625 411.257812 1222.769531 419.152344 1222.101562 Z M 419.152344 1222.101562 " fill-opacity="1" fill-rule="nonzero"/><path fill="#ffffff" d="M 419.152344 1222.101562 L 423.542969 1233.757812 C 429.492188 1249.597656 441.785156 1262.203125 457.457031 1268.5625 L 489.125 1281.4375 C 497.164062 1284.683594 505.769531 1286.285156 514.417969 1286.128906 L 556.257812 1285.382812 C 566.160156 1285.222656 575.914062 1287.8125 584.410156 1292.910156 L 583.046875 1306.089844 C 581.851562 1317.945312 569.941406 1325.269531 558.609375 1321.125 L 495.742188 1298.101562 C 466.910156 1298.972656 444.449219 1288.398438 427.367188 1268.179688 C 424.964844 1265.335938 422.007812 1263.054688 419 1260.863281 C 417.238281 1259.617188 415.625 1258.179688 414.1875 1256.628906 C 409.476562 1251.550781 406.488281 1244.96875 405.910156 1237.921875 C 405.207031 1229.640625 411.257812 1222.769531 419.152344 1222.101562 Z M 419.152344 1222.101562 " fill-opacity="1" fill-rule="nonzero"/><path fill="#fbb97f" d="M 847.605469 1277.914062 L 843.167969 1184.214844 L 778.394531 1180.976562 L 797.582031 1297.273438 Z M 847.605469 1277.914062 " fill-opacity="1" fill-rule="nonzero"/><path fill="#0965ac" d="M 696.050781 1306.105469 C 696.867188 1305.570312 697.757812 1305.136719 698.730469 1304.769531 L 728.722656 1293.609375 C 748.273438 1286.359375 766.078125 1275.472656 781.222656 1261.558594 L 784.5 1258.519531 C 789.347656 1254.097656 797.324219 1255.75 800.117188 1261.742188 L 810.703125 1284.566406 L 833.625 1261.390625 C 840.503906 1254.445312 852.175781 1254.964844 858.714844 1262.527344 L 859.207031 1263.074219 C 864.066406 1268.703125 867.882812 1275.074219 870.507812 1281.910156 L 875.492188 1294.9375 L 880.207031 1307.316406 C 884.480469 1318.441406 877.140625 1330.34375 865.152344 1331.746094 L 798.652344 1339.488281 C 773.300781 1353.246094 748.484375 1353.917969 724.128906 1343.550781 C 720.703125 1342.09375 717.035156 1341.386719 713.367188 1340.785156 C 711.226562 1340.464844 709.140625 1339.90625 707.160156 1339.171875 C 700.667969 1336.757812 695.039062 1332.222656 691.347656 1326.195312 C 686.992188 1319.113281 689.304688 1310.253906 696.050781 1306.105469 Z M 696.050781 1306.105469 " fill-opacity="1" fill-rule="nonzero"/><path fill="#3ca500" d="M 919.585938 418.210938 C 919.585938 419.042969 919.503906 419.871094 919.339844 420.6875 C 919.179688 421.507812 918.9375 422.300781 918.617188 423.074219 C 918.296875 423.84375 917.90625 424.578125 917.441406 425.269531 C 916.980469 425.964844 916.453125 426.605469 915.863281 427.195312 C 915.273438 427.785156 914.628906 428.3125 913.9375 428.777344 C 913.242188 429.242188 912.511719 429.632812 911.738281 429.953125 C 910.96875 430.269531 910.171875 430.511719 909.355469 430.675781 C 908.535156 430.839844 907.710938 430.917969 906.875 430.917969 C 906.039062 430.917969 905.214844 430.839844 904.394531 430.675781 C 903.578125 430.511719 902.78125 430.269531 902.011719 429.953125 C 901.238281 429.632812 900.507812 429.242188 899.8125 428.777344 C 899.121094 428.3125 898.476562 427.785156 897.886719 427.195312 C 897.296875 426.605469 896.769531 425.964844 896.308594 425.269531 C 895.84375 424.578125 895.453125 423.84375 895.132812 423.074219 C 894.8125 422.300781 894.570312 421.507812 894.410156 420.6875 C 894.246094 419.871094 894.164062 419.042969 894.164062 418.210938 C 894.164062 417.375 894.246094 416.546875 894.410156 415.730469 C 894.570312 414.910156 894.8125 414.117188 895.132812 413.34375 C 895.453125 412.574219 895.84375 411.839844 896.308594 411.148438 C 896.769531 410.453125 897.296875 409.8125 897.886719 409.222656 C 898.476562 408.632812 899.121094 408.105469 899.8125 407.640625 C 900.507812 407.175781 901.238281 406.785156 902.011719 406.464844 C 902.78125 406.148438 903.578125 405.90625 904.394531 405.742188 C 905.214844 405.582031 906.039062 405.5 906.875 405.5 C 907.710938 405.5 908.535156 405.582031 909.355469 405.742188 C 910.171875 405.90625 910.96875 406.148438 911.738281 406.464844 C 912.511719 406.785156 913.242188 407.175781 913.9375 407.640625 C 914.628906 408.105469 915.273438 408.632812 915.863281 409.222656 C 916.453125 409.8125 916.980469 410.453125 917.441406 411.148438 C 917.90625 411.839844 918.296875 412.574219 918.617188 413.34375 C 918.9375 414.117188 919.179688 414.910156 919.339844 415.730469 C 919.503906 416.546875 919.585938 417.375 919.585938 418.210938 Z M 919.585938 418.210938 " fill-opacity="1" fill-rule="nonzero"/><path fill="#fbb97f" d="M 1014.753906 365.996094 C 1012.824219 354.777344 1003.210938 349.070312 993.277344 353.25 C 991.859375 353.847656 990.539062 354.648438 989.277344 355.558594 L 980.707031 305.742188 C 979.46875 298.542969 972.625 293.710938 965.425781 294.949219 L 930.015625 301.039062 C 902.617188 305.753906 884.226562 331.785156 888.941406 359.183594 L 893.222656 384.089844 C 897.277344 407.660156 915.039062 425.429688 936.917969 430.652344 L 936.917969 481.097656 L 984.417969 481.097656 L 984.417969 417.753906 C 989.867188 411.507812 993.402344 403.671875 994.375 395.222656 C 996.289062 395.144531 998.269531 394.722656 1000.269531 393.882812 C 1010.199219 389.703125 1016.683594 377.214844 1014.753906 365.996094 Z M 1014.753906 365.996094 " fill-opacity="1" fill-rule="nonzero"/><path fill="#ffffff" d="M 696.050781 1306.105469 L 705.21875 1314.535156 C 717.660156 1326.003906 734.316406 1331.722656 751.167969 1330.347656 L 785.246094 1327.585938 C 793.882812 1326.867188 802.289062 1324.425781 809.941406 1320.390625 L 846.964844 1300.890625 C 855.734375 1296.289062 865.609375 1294.210938 875.492188 1294.9375 L 880.207031 1307.316406 C 884.480469 1318.441406 877.140625 1330.34375 865.152344 1331.746094 L 798.652344 1339.488281 C 773.300781 1353.246094 748.484375 1353.917969 724.128906 1343.550781 C 720.703125 1342.09375 717.035156 1341.386719 713.367188 1340.785156 C 711.226562 1340.464844 709.140625 1339.90625 707.160156 1339.171875 C 700.667969 1336.757812 695.039062 1332.222656 691.347656 1326.195312 C 686.992188 1319.113281 689.304688 1310.253906 696.050781 1306.105469 Z M 696.050781 1306.105469 " fill-opacity="1" fill-rule="nonzero"/><path fill="#ffffff" d="M 1055.40625 775.910156 L 904.628906 775.910156 C 906.171875 773.503906 907.484375 770.949219 908.574219 768.242188 L 921.503906 735.546875 L 1049.921875 735.546875 Z M 1055.40625 775.910156 " fill-opacity="1" fill-rule="nonzero"/><path fill="#fbb97f" d="M 848.832031 512.144531 L 772.121094 649.582031 C 766.019531 660.515625 754.476562 667.292969 741.957031 667.292969 L 694.605469 667.292969 L 724.53125 718.765625 L 792.84375 712.867188 C 805.023438 711.816406 815.742188 704.402344 821.027344 693.375 L 875.957031 578.710938 Z M 848.832031 512.144531 " fill-opacity="1" fill-rule="nonzero"/><path fill="#fbb97f" d="M 902.183594 531.128906 C 902.183594 532.175781 902.136719 533.21875 902.042969 534.261719 C 901.949219 535.304688 901.804688 536.339844 901.617188 537.367188 C 901.425781 538.394531 901.191406 539.410156 900.910156 540.414062 C 900.628906 541.414062 900.304688 542.402344 899.933594 543.367188 C 899.5625 544.335938 899.148438 545.28125 898.691406 546.207031 C 898.234375 547.128906 897.738281 548.027344 897.199219 548.898438 C 896.660156 549.769531 896.085938 550.609375 895.46875 551.417969 C 894.855469 552.230469 894.203125 553.003906 893.519531 553.746094 C 892.835938 554.484375 892.117188 555.1875 891.367188 555.851562 C 890.621094 556.519531 889.84375 557.140625 889.035156 557.722656 C 888.230469 558.304688 887.402344 558.84375 886.546875 559.335938 C 885.691406 559.832031 884.816406 560.277344 883.921875 560.679688 C 883.027344 561.078125 882.117188 561.433594 881.1875 561.738281 C 880.261719 562.039062 879.320312 562.296875 878.371094 562.5 C 877.421875 562.703125 876.464844 562.855469 875.5 562.960938 C 874.535156 563.0625 873.570312 563.113281 872.601562 563.113281 C 871.632812 563.113281 870.664062 563.0625 869.699219 562.960938 C 868.734375 562.855469 867.777344 562.703125 866.828125 562.5 C 865.878906 562.296875 864.941406 562.039062 864.011719 561.738281 C 863.085938 561.433594 862.175781 561.078125 861.277344 560.679688 C 860.382812 560.277344 859.507812 559.832031 858.652344 559.335938 C 857.800781 558.84375 856.96875 558.304688 856.164062 557.722656 C 855.359375 557.140625 854.582031 556.519531 853.832031 555.851562 C 853.082031 555.1875 852.367188 554.484375 851.679688 553.746094 C 850.996094 553.003906 850.347656 552.230469 849.730469 551.417969 C 849.117188 550.609375 848.539062 549.769531 848 548.898438 C 847.464844 548.027344 846.964844 547.128906 846.507812 546.207031 C 846.050781 545.28125 845.636719 544.335938 845.269531 543.367188 C 844.898438 542.402344 844.570312 541.414062 844.289062 540.414062 C 844.007812 539.410156 843.773438 538.394531 843.585938 537.367188 C 843.394531 536.339844 843.253906 535.304688 843.160156 534.261719 C 843.0625 533.21875 843.015625 532.175781 843.015625 531.128906 C 843.015625 530.082031 843.0625 529.035156 843.160156 527.992188 C 843.253906 526.949219 843.394531 525.914062 843.585938 524.886719 C 843.773438 523.859375 844.007812 522.84375 844.289062 521.84375 C 844.570312 520.839844 844.898438 519.855469 845.269531 518.886719 C 845.636719 517.917969 846.050781 516.972656 846.507812 516.050781 C 846.964844 515.125 847.464844 514.230469 848 513.359375 C 848.539062 512.488281 849.117188 511.644531 849.730469 510.835938 C 850.347656 510.027344 850.996094 509.25 851.679688 508.511719 C 852.367188 507.769531 853.082031 507.066406 853.832031 506.402344 C 854.582031 505.738281 855.359375 505.113281 856.164062 504.53125 C 856.96875 503.949219 857.800781 503.414062 858.652344 502.917969 C 859.507812 502.425781 860.382812 501.976562 861.277344 501.578125 C 862.175781 501.175781 863.085938 500.824219 864.011719 500.519531 C 864.941406 500.214844 865.878906 499.960938 866.828125 499.757812 C 867.777344 499.550781 868.734375 499.398438 869.699219 499.296875 C 870.664062 499.195312 871.632812 499.140625 872.601562 499.140625 C 873.570312 499.140625 874.535156 499.191406 875.5 499.296875 C 876.464844 499.398438 877.421875 499.550781 878.371094 499.757812 C 879.320312 499.960938 880.261719 500.214844 881.1875 500.519531 C 882.117188 500.824219 883.027344 501.175781 883.921875 501.578125 C 884.816406 501.976562 885.691406 502.425781 886.546875 502.917969 C 887.402344 503.414062 888.230469 503.949219 889.035156 504.53125 C 889.84375 505.113281 890.621094 505.738281 891.367188 506.402344 C 892.117188 507.066406 892.835938 507.769531 893.519531 508.511719 C 894.203125 509.25 894.855469 510.027344 895.46875 510.835938 C 896.085938 511.644531 896.660156 512.488281 897.199219 513.359375 C 897.738281 514.230469 898.234375 515.125 898.691406 516.050781 C 899.148438 516.972656 899.5625 517.917969 899.933594 518.886719 C 900.304688 519.855469 900.628906 520.839844 900.910156 521.84375 C 901.191406 522.84375 901.425781 523.859375 901.617188 524.886719 C 901.804688 525.914062 901.949219 526.949219 902.042969 527.992188 C 902.136719 529.035156 902.183594 530.082031 902.183594 531.128906 Z M 902.183594 531.128906 " fill-opacity="1" fill-rule="nonzero"/><path fill="#3ca500" d="M 874.984375 498.746094 C 895.476562 488.730469 912.125 476.195312 923.132812 459.972656 C 927.128906 454.082031 933.757812 450.535156 940.871094 450.535156 L 985.273438 450.535156 C 992.042969 450.535156 998.386719 453.75 1002.445312 459.167969 C 1018.007812 479.945312 1042.382812 492.453125 1071.539062 500.46875 C 1077.726562 502.171875 1082.066406 507.726562 1082.066406 514.140625 L 1082.066406 708.582031 C 1082.066406 718.253906 1074.222656 726.097656 1064.550781 726.097656 L 893.832031 726.097656 C 885.9375 726.097656 879.019531 720.816406 876.9375 713.203125 L 857.558594 642.335938 C 848.5625 609.441406 849.546875 574.613281 860.390625 542.277344 Z M 874.984375 498.746094 " fill-opacity="1" fill-rule="nonzero"/><path fill="#fbb97f" d="M 1126.660156 688.902344 L 1091.195312 527.339844 L 1091.175781 527.34375 C 1089.441406 511.464844 1076.972656 499.140625 1061.820312 499.140625 C 1045.480469 499.140625 1032.238281 513.460938 1032.238281 531.128906 C 1032.238281 533.394531 1032.460938 535.601562 1032.875 537.730469 L 1032.867188 537.734375 L 1032.917969 537.914062 C 1033.226562 539.453125 1033.652344 540.9375 1034.15625 542.386719 L 1065.3125 654.804688 C 1068.09375 664.644531 1060.960938 674.472656 1051.460938 673.890625 L 900.539062 664.667969 C 898.847656 664.5625 897.148438 664.824219 895.5625 665.429688 L 828.113281 691.222656 C 826.222656 691.945312 824.578125 693.269531 823.394531 695.023438 L 812.5 711.167969 C 812.058594 711.824219 812.476562 712.75 813.230469 712.773438 C 817.046875 712.890625 820.734375 711.273438 823.394531 708.3125 L 834.527344 695.929688 L 826.171875 710.175781 C 824.761719 712.578125 826.292969 715.730469 828.925781 715.839844 L 841.667969 716.355469 C 844.675781 716.476562 847.574219 715.101562 849.523438 712.621094 L 854.789062 705.929688 C 857.113281 702.976562 860.664062 701.503906 864.21875 702.015625 L 885.332031 705.058594 C 891.332031 705.921875 897.238281 702.894531 900.417969 697.332031 L 906.695312 686.339844 L 1090.109375 729.472656 C 1112.417969 734.71875 1132.09375 712.878906 1126.660156 688.902344 Z M 1126.660156 688.902344 " fill-opacity="1" fill-rule="nonzero"/><path fill="#000000" d="M 910.105469 735.542969 L 699.996094 735.542969 C 698.574219 735.542969 697.425781 734.390625 697.425781 732.972656 L 697.425781 720.527344 C 697.425781 719.109375 698.574219 717.960938 699.996094 717.960938 L 897.660156 717.960938 C 905.953125 717.960938 912.671875 724.679688 912.671875 732.972656 C 912.671875 734.390625 911.523438 735.542969 910.105469 735.542969 Z M 910.105469 735.542969 " fill-opacity="1" fill-rule="nonzero"/><path fill="#000000" d="M 724.273438 735.542969 L 517.035156 735.542969 C 507.898438 735.542969 497.808594 728.132812 494.496094 719 L 441.671875 573.277344 C 438.359375 564.140625 443.078125 556.734375 452.214844 556.734375 L 659.453125 556.734375 C 668.589844 556.734375 678.683594 564.140625 681.996094 573.277344 L 734.820312 719 C 738.132812 728.132812 733.410156 735.542969 724.273438 735.542969 Z M 724.273438 735.542969 " fill-opacity="1" fill-rule="nonzero"/><path fill="#ffffff" d="M 601.109375 630.730469 C 601.832031 631.332031 602.535156 631.960938 603.214844 632.613281 C 603.890625 633.261719 604.546875 633.933594 605.171875 634.625 C 605.800781 635.316406 606.398438 636.023438 606.96875 636.746094 C 607.539062 637.472656 608.078125 638.210938 608.585938 638.960938 C 609.09375 639.714844 609.566406 640.472656 610.003906 641.246094 C 610.445312 642.015625 610.847656 642.792969 611.214844 643.574219 C 611.582031 644.359375 611.914062 645.144531 612.207031 645.929688 C 612.496094 646.71875 612.75 647.503906 612.964844 648.289062 C 613.179688 649.070312 613.351562 649.851562 613.484375 650.625 C 613.617188 651.398438 613.710938 652.160156 613.761719 652.917969 C 613.8125 653.671875 613.824219 654.414062 613.792969 655.144531 C 613.761719 655.875 613.691406 656.585938 613.578125 657.285156 C 613.46875 657.984375 613.3125 658.660156 613.121094 659.320312 C 612.929688 659.976562 612.695312 660.613281 612.421875 661.226562 C 612.152344 661.839844 611.839844 662.425781 611.492188 662.988281 C 611.144531 663.546875 610.757812 664.082031 610.339844 664.585938 C 609.917969 665.089844 609.460938 665.5625 608.96875 666.007812 C 608.480469 666.449219 607.957031 666.859375 607.402344 667.238281 C 606.847656 667.613281 606.265625 667.957031 605.652344 668.261719 C 605.039062 668.570312 604.398438 668.84375 603.734375 669.078125 C 603.066406 669.3125 602.375 669.511719 601.664062 669.671875 C 600.953125 669.832031 600.21875 669.953125 599.464844 670.035156 C 598.714844 670.121094 597.945312 670.164062 597.160156 670.171875 C 596.375 670.179688 595.578125 670.148438 594.769531 670.078125 C 593.960938 670.007812 593.140625 669.898438 592.316406 669.75 C 591.488281 669.601562 590.65625 669.417969 589.820312 669.195312 C 588.984375 668.976562 588.148438 668.714844 587.3125 668.421875 C 586.476562 668.125 585.640625 667.796875 584.8125 667.429688 C 583.984375 667.066406 583.160156 666.667969 582.347656 666.234375 C 581.53125 665.804688 580.726562 665.339844 579.9375 664.847656 C 579.144531 664.351562 578.367188 663.828125 577.605469 663.277344 C 576.84375 662.726562 576.101562 662.148438 575.378906 661.542969 C 574.65625 660.9375 573.953125 660.3125 573.273438 659.660156 C 572.597656 659.011719 571.941406 658.339844 571.316406 657.648438 C 570.6875 656.957031 570.089844 656.25 569.519531 655.523438 C 568.949219 654.800781 568.410156 654.0625 567.902344 653.308594 C 567.394531 652.558594 566.921875 651.796875 566.484375 651.027344 C 566.042969 650.257812 565.640625 649.480469 565.273438 648.695312 C 564.902344 647.914062 564.574219 647.128906 564.28125 646.34375 C 563.992188 645.554688 563.738281 644.769531 563.523438 643.984375 C 563.308594 643.203125 563.136719 642.421875 563.003906 641.648438 C 562.871094 640.875 562.777344 640.113281 562.726562 639.355469 C 562.675781 638.601562 562.664062 637.859375 562.695312 637.128906 C 562.722656 636.398438 562.796875 635.683594 562.90625 634.988281 C 563.019531 634.289062 563.171875 633.613281 563.367188 632.953125 C 563.558594 632.296875 563.792969 631.660156 564.066406 631.046875 C 564.335938 630.433594 564.648438 629.847656 564.996094 629.285156 C 565.34375 628.726562 565.730469 628.191406 566.148438 627.6875 C 566.570312 627.183594 567.027344 626.707031 567.515625 626.265625 C 568.007812 625.824219 568.53125 625.414062 569.085938 625.035156 C 569.640625 624.660156 570.222656 624.316406 570.835938 624.007812 C 571.449219 623.703125 572.089844 623.429688 572.753906 623.195312 C 573.421875 622.960938 574.109375 622.761719 574.824219 622.601562 C 575.535156 622.441406 576.269531 622.320312 577.019531 622.238281 C 577.773438 622.152344 578.542969 622.105469 579.328125 622.101562 C 580.113281 622.09375 580.910156 622.125 581.71875 622.195312 C 582.527344 622.265625 583.347656 622.375 584.171875 622.523438 C 585 622.667969 585.832031 622.855469 586.667969 623.074219 C 587.503906 623.296875 588.339844 623.554688 589.175781 623.851562 C 590.011719 624.144531 590.84375 624.476562 591.675781 624.839844 C 592.503906 625.207031 593.328125 625.605469 594.140625 626.035156 C 594.957031 626.46875 595.761719 626.929688 596.550781 627.425781 C 597.34375 627.921875 598.121094 628.441406 598.882812 628.996094 C 599.644531 629.546875 600.386719 630.125 601.109375 630.730469 Z M 601.109375 630.730469 " fill-opacity="1" fill-rule="nonzero"/><path fill="#3ca500" d="M 1007.664062 400.636719 C 1007.664062 401.46875 1007.582031 402.296875 1007.417969 403.117188 C 1007.253906 403.933594 1007.015625 404.730469 1006.695312 405.5 C 1006.375 406.269531 1005.984375 407.003906 1005.519531 407.699219 C 1005.054688 408.390625 1004.53125 409.035156 1003.941406 409.625 C 1003.347656 410.214844 1002.707031 410.742188 1002.011719 411.203125 C 1001.320312 411.667969 1000.585938 412.058594 999.816406 412.378906 C 999.046875 412.699219 998.25 412.9375 997.433594 413.101562 C 996.613281 413.265625 995.785156 413.347656 994.953125 413.347656 C 994.117188 413.347656 993.289062 413.265625 992.472656 413.101562 C 991.652344 412.9375 990.859375 412.699219 990.089844 412.378906 C 989.316406 412.058594 988.585938 411.667969 987.890625 411.203125 C 987.195312 410.742188 986.554688 410.214844 985.964844 409.625 C 985.375 409.035156 984.847656 408.390625 984.382812 407.699219 C 983.921875 407.003906 983.527344 406.269531 983.210938 405.5 C 982.890625 404.730469 982.648438 403.933594 982.484375 403.117188 C 982.324219 402.296875 982.242188 401.46875 982.242188 400.636719 C 982.242188 399.800781 982.324219 398.976562 982.484375 398.15625 C 982.648438 397.335938 982.890625 396.542969 983.210938 395.773438 C 983.527344 395 983.921875 394.269531 984.382812 393.574219 C 984.847656 392.878906 985.375 392.238281 985.964844 391.648438 C 986.554688 391.058594 987.195312 390.53125 987.890625 390.066406 C 988.585938 389.605469 989.316406 389.210938 990.089844 388.894531 C 990.859375 388.574219 991.652344 388.332031 992.472656 388.171875 C 993.289062 388.007812 994.117188 387.925781 994.953125 387.925781 C 995.785156 387.925781 996.613281 388.007812 997.433594 388.171875 C 998.25 388.332031 999.046875 388.574219 999.816406 388.894531 C 1000.585938 389.210938 1001.320312 389.605469 1002.011719 390.066406 C 1002.707031 390.53125 1003.347656 391.058594 1003.941406 391.648438 C 1004.53125 392.238281 1005.054688 392.878906 1005.519531 393.574219 C 1005.984375 394.269531 1006.375 395 1006.695312 395.773438 C 1007.015625 396.542969 1007.253906 397.335938 1007.417969 398.15625 C 1007.582031 398.976562 1007.664062 399.800781 1007.664062 400.636719 Z M 1007.664062 400.636719 " fill-opacity="1" fill-rule="nonzero"/><path fill="#ffffff" d="M 1406.367188 735.542969 L 291.890625 735.542969 C 284.546875 735.542969 278.589844 741.496094 278.589844 748.84375 L 278.589844 762.597656 C 278.589844 769.941406 284.546875 775.898438 291.890625 775.898438 L 339.148438 775.898438 L 339.148438 1338.015625 L 365.128906 1338.015625 L 365.128906 775.898438 L 1327.703125 775.898438 L 1327.703125 1338.015625 L 1353.679688 1338.015625 L 1353.679688 775.898438 L 1406.367188 775.898438 C 1413.710938 775.898438 1419.667969 769.941406 1419.667969 762.597656 L 1419.667969 748.84375 C 1419.667969 741.496094 1413.710938 735.542969 1406.367188 735.542969 Z M 1406.367188 735.542969 " fill-opacity="1" fill-rule="nonzero"/><g mask="url(#f1eb44edcc)"><g transform="matrix(1, 0, 0, 1, 403, 774)"><g clip-path="url(#b0c0fbb139)"><path fill="#000000" d="M 501.628906 1.910156 C 496.632812 9.765625 489.300781 15.925781 480.546875 19.496094 L 330.632812 80.53125 C 323.605469 82.972656 317.140625 86.28125 311.3125 90.378906 C 308.796875 92.105469 306.429688 93.984375 304.171875 96.015625 C 302.671875 97.328125 301.242188 98.71875 299.851562 100.1875 C 298.460938 101.613281 297.109375 103.078125 295.867188 104.621094 C 295.832031 104.660156 295.867188 104.660156 295.867188 104.660156 C 292.671875 108.492188 289.890625 112.625 287.523438 116.949219 C 287.523438 116.984375 287.523438 116.984375 287.523438 116.984375 C 279.820312 131.078125 276.476562 147.5 278.582031 164.152344 C 278.992188 167.421875 279.59375 170.726562 280.460938 173.996094 L 291.019531 214.886719 C 287.9375 279.078125 273.882812 337.929688 248.777344 391.257812 C 240.734375 408.359375 221.757812 417.378906 203.53125 412.679688 L 199.621094 411.664062 L 172.898438 471.609375 C 176.769531 473.902344 179.816406 477.660156 181.019531 482.433594 L 181.207031 483.144531 C 183.007812 490.324219 183.574219 497.765625 182.820312 505.019531 L 181.394531 518.925781 L 180.039062 532.078125 C 178.839844 543.953125 166.925781 551.28125 155.613281 547.109375 L 92.738281 524.109375 C 63.914062 524.976562 41.4375 514.414062 24.375 494.195312 C 21.972656 491.339844 19 489.046875 15.996094 486.867188 C 14.230469 485.625 12.613281 484.160156 11.183594 482.621094 C 6.488281 477.546875 3.480469 470.96875 2.917969 463.902344 C 2.203125 455.636719 8.253906 448.757812 16.144531 448.121094 C 17.121094 448.007812 18.101562 448.007812 19.152344 448.121094 L 50.945312 451.652344 C 71.652344 453.984375 92.476562 452.292969 112.242188 446.652344 L 116.566406 445.414062 C 118.894531 444.773438 121.261719 445.074219 123.292969 446.015625 L 139.300781 394.867188 C 122.878906 385.882812 114.648438 365.929688 121.226562 347.4375 L 194.734375 141.828125 C 208.679688 102.855469 238.554688 71.585938 276.890625 55.953125 L 409.367188 1.910156 Z M 501.628906 1.910156 " fill-opacity="1" fill-rule="nonzero"/></g></g></g><g mask="url(#e2c9aa7b15)"><g transform="matrix(1, 0, 0, 1, 320, 402)"><g clip-path="url(#cd8113964d)"><path fill="#000000" d="M 2.179688 4.066406 L 2.179688 42.019531 L 40.140625 4.066406 Z M 2.179688 4.066406 " fill-opacity="1" fill-rule="nonzero"/></g></g></g><g mask="url(#309c1abc49)"><g transform="matrix(1, 0, 0, 1, 320, 635)"><g clip-path="url(#494a45b05a)"><g clip-path="url(#d473eef536)"><path fill="#000000" d="M 2.179688 3.734375 L 2.179688 41.6875 L 40.140625 3.734375 Z M 2.179688 3.734375 " fill-opacity="1" fill-rule="nonzero"/></g></g></g></g><g mask="url(#0aa85e6f55)"><g transform="matrix(1, 0, 0, 1, 816, 398)"><g clip-path="url(#14f9f99d7c)"><g clip-path="url(#10bd42f1a4)"><path fill="#000000" d="M 2.984375 4.109375 L 2.984375 42.179688 L 41.058594 4.109375 Z M 2.984375 4.109375 " fill-opacity="1" fill-rule="nonzero"/></g></g></g></g><g mask="url(#ae83d10678)"><g transform="matrix(1, 0, 0, 1, 1312, 398)"><g clip-path="url(#00cf706194)"><path fill="#000000" d="M 3.453125 4.109375 L 3.453125 42.179688 L 41.53125 4.109375 Z M 3.453125 4.109375 " fill-opacity="1" fill-rule="nonzero"/></g></g></g><g mask="url(#af469096dc)"><g transform="matrix(1, 0, 0, 1, 1312, 635)"><g clip-path="url(#07463fb7fd)"><g clip-path="url(#d591f16887)"><path fill="#000000" d="M 3.453125 3.621094 L 3.453125 41.6875 L 41.53125 3.621094 Z M 3.453125 3.621094 " fill-opacity="1" fill-rule="nonzero"/></g></g></g></g><g mask="url(#87c9b5e155)"><g transform="matrix(1, 0, 0, 1, 275, 732)"><g clip-path="url(#d310a2fb25)"><g clip-path="url(#0b596345fa)"><path fill="#000000" d="M 1144.652344 16.851562 L 1144.652344 30.605469 C 1144.652344 37.933594 1138.714844 43.910156 1131.347656 43.910156 L 1078.695312 43.910156 L 1078.695312 606.023438 L 1052.6875 606.023438 L 1052.6875 43.910156 L 90.140625 43.910156 L 90.140625 606.023438 L 64.132812 606.023438 L 64.132812 43.910156 L 16.894531 43.910156 C 9.527344 43.910156 3.589844 37.933594 3.589844 30.605469 L 3.589844 16.851562 C 3.589844 9.484375 9.527344 3.546875 16.894531 3.546875 L 1131.347656 3.546875 C 1138.714844 3.546875 1144.652344 9.484375 1144.652344 16.851562 Z M 1144.652344 16.851562 " fill-opacity="1" fill-rule="nonzero"/></g></g></g></g><path fill="#000000" d="M 1003.019531 352.25 C 1000.011719 351.535156 996.667969 351.835938 993.285156 353.261719 C 989.902344 354.691406 986.933594 357.058594 984.566406 360.027344 C 967.652344 355.519531 951.605469 344.46875 936.910156 324.136719 L 930.75 366.941406 L 875.953125 378.707031 C 866.710938 355.96875 869.453125 334.660156 891.550781 315.679688 C 908.914062 291.476562 932.402344 284.488281 959.574219 287.90625 C 975.621094 289.9375 988.8125 301.625 993.171875 317.222656 Z M 1003.019531 352.25 " fill-opacity="1" fill-rule="nonzero"/></svg>